<?xml version="1.0" encoding="UTF-8" standalone="no"?>
<!DOCTYPE svg PUBLIC "-//W3C//DTD SVG 1.1//EN"
 "http://www.w3.org/Graphics/SVG/1.1/DTD/svg11.dtd">
<!-- Generated by graphviz version 2.38.0 (20140413.2041)
 -->
<!-- Pages: 1 -->
<svg width="466pt" height="194pt"
 viewBox="0.00 0.00 465.73 193.60" xmlns="http://www.w3.org/2000/svg" xmlns:xlink="http://www.w3.org/1999/xlink">
<g id="graph0" class="graph" transform="scale(1 1) rotate(0) translate(4 189.598)">
<polygon fill="white" stroke="none" points="-4,4 -4,-189.598 461.725,-189.598 461.725,4 -4,4"/>
<!-- boneRoot -->
<g id="node1" class="node"><title>boneRoot</title>
<polygon fill="lightyellow" stroke="black" points="276.225,-149.098 276.225,-185.098 338.225,-185.098 338.225,-149.098 276.225,-149.098"/>
<text text-anchor="middle" x="307.225" y="-164.898" font-family="Verdana" font-size="9.00">boneRoot</text>
</g>
<!-- boneA -->
<g id="node2" class="node"><title>boneA</title>
<polygon fill="lightyellow" stroke="black" points="163.725,-76.098 163.725,-112.098 284.725,-112.098 284.725,-76.098 163.725,-76.098"/>
<text text-anchor="middle" x="224.225" y="-100.898" font-family="Verdana" font-size="9.00">boneA</text>
<polyline fill="none" stroke="black" points="163.725,-94.098 284.725,-94.098 "/>
<text text-anchor="start" x="171.725" y="-82.898" font-family="Verdana" font-size="9.00">Set to incompressible.</text>
</g>
<!-- boneRoot&#45;&gt;boneA -->
<g id="edge1" class="edge"><title>boneRoot&#45;&gt;boneA</title>
<path fill="none" stroke="black" d="M287.133,-148.911C276.123,-139.492 262.343,-127.705 250.49,-117.565"/>
<polygon fill="black" stroke="black" points="252.032,-115.199 244.132,-112.127 248.391,-119.455 252.032,-115.199"/>
</g>
<!-- boneF -->
<g id="node3" class="node"><title>boneF</title>
<polygon fill="lightyellow" stroke="black" points="342.725,-76.098 342.725,-112.098 437.725,-112.098 437.725,-76.098 342.725,-76.098"/>
<text text-anchor="middle" x="390.225" y="-100.898" font-family="Verdana" font-size="9.00">boneF</text>
<polyline fill="none" stroke="black" points="342.725,-94.098 437.725,-94.098 "/>
<text text-anchor="middle" x="390.225" y="-82.898" font-family="Verdana" font-size="9.00">Use for skinning.</text>
</g>
<!-- boneRoot&#45;&gt;boneF -->
<g id="edge5" class="edge"><title>boneRoot&#45;&gt;boneF</title>
<path fill="none" stroke="black" d="M327.317,-148.911C338.328,-139.492 352.107,-127.705 363.961,-117.565"/>
<polygon fill="black" stroke="black" points="366.059,-119.455 370.318,-112.127 362.419,-115.199 366.059,-119.455"/>
</g>
<!-- shapeX -->
<g id="node5" class="node"><title>shapeX</title>
<ellipse fill="moccasin" stroke="black" cx="62.2254" cy="-19.799" rx="62.4516" ry="19.6"/>
<text text-anchor="middle" x="62.2254" y="-22.599" font-family="Verdana" font-size="9.00">shapeX</text>
<text text-anchor="middle" x="62.2254" y="-12.599" font-family="Verdana" font-size="9.00">(With skinning)</text>
</g>
<!-- boneA&#45;&gt;shapeX -->
<g id="edge2" class="edge"><title>boneA&#45;&gt;shapeX</title>
<path fill="none" stroke="black" d="M185.834,-75.9641C161.413,-65.0654 129.769,-50.943 104.612,-39.7157"/>
<polygon fill="black" stroke="black" points="105.475,-37.0346 97.0282,-36.3311 103.193,-42.1485 105.475,-37.0346"/>
</g>
<!-- shapeY -->
<g id="node6" class="node"><title>shapeY</title>
<ellipse fill="moccasin" stroke="black" cx="204.225" cy="-19.799" rx="62.4516" ry="19.6"/>
<text text-anchor="middle" x="204.225" y="-22.599" font-family="Verdana" font-size="9.00">shapeY</text>
<text text-anchor="middle" x="204.225" y="-12.599" font-family="Verdana" font-size="9.00">(With skinning)</text>
</g>
<!-- boneA&#45;&gt;shapeY -->
<g id="edge3" class="edge"><title>boneA&#45;&gt;shapeY</title>
<path fill="none" stroke="black" d="M219.486,-75.9641C217.121,-67.4169 214.208,-56.887 211.563,-47.3257"/>
<polygon fill="black" stroke="black" points="214.254,-46.5507 209.423,-39.5868 208.857,-48.0438 214.254,-46.5507"/>
</g>
<!-- shapeZ -->
<g id="node7" class="node"><title>shapeZ</title>
<ellipse fill="moccasin" stroke="black" cx="314.225" cy="-19.799" rx="30.0444" ry="18"/>
<text text-anchor="middle" x="314.225" y="-17.599" font-family="Verdana" font-size="9.00">shapeZ</text>
</g>
<!-- boneA&#45;&gt;shapeZ -->
<g id="edge4" class="edge"><title>boneA&#45;&gt;shapeZ</title>
<path fill="none" stroke="black" d="M245.554,-75.9641C259.045,-65.1268 276.503,-51.1019 290.441,-39.9056"/>
<polygon fill="black" stroke="black" points="292.484,-41.8559 296.967,-34.6628 288.977,-37.4901 292.484,-41.8559"/>
</g>
<!-- boneG -->
<g id="node4" class="node"><title>boneG</title>
<polygon fill="lightyellow" stroke="black" points="362.725,-1.79899 362.725,-37.799 457.725,-37.799 457.725,-1.79899 362.725,-1.79899"/>
<text text-anchor="middle" x="410.225" y="-26.599" font-family="Verdana" font-size="9.00">boneG</text>
<polyline fill="none" stroke="black" points="362.725,-19.799 457.725,-19.799 "/>
<text text-anchor="middle" x="410.225" y="-8.59899" font-family="Verdana" font-size="9.00">Use for skinning.</text>
</g>
<!-- boneF&#45;&gt;boneG -->
<g id="edge6" class="edge"><title>boneF&#45;&gt;boneG</title>
<path fill="none" stroke="black" d="M394.965,-75.9641C397.456,-66.9602 400.555,-55.756 403.309,-45.8017"/>
<polygon fill="black" stroke="black" points="406.085,-46.2668 405.52,-37.8099 400.688,-44.7737 406.085,-46.2668"/>
</g>
</g>
</svg>
