<?xml version="1.0" encoding="UTF-8" standalone="no"?>
<!DOCTYPE svg PUBLIC "-//W3C//DTD SVG 1.1//EN"
 "http://www.w3.org/Graphics/SVG/1.1/DTD/svg11.dtd">
<!-- Generated by graphviz version 2.38.0 (20140413.2041)
 -->
<!-- Pages: 1 -->
<svg width="558pt" height="266pt"
 viewBox="0.00 0.00 557.50 265.60" xmlns="http://www.w3.org/2000/svg" xmlns:xlink="http://www.w3.org/1999/xlink">
<g id="graph0" class="graph" transform="scale(1 1) rotate(0) translate(4 261.598)">
<polygon fill="white" stroke="none" points="-4,4 -4,-261.598 553.5,-261.598 553.5,4 -4,4"/>
<!-- boneRoot -->
<g id="node1" class="node"><title>boneRoot</title>
<polygon fill="lightyellow" stroke="black" points="336,-221.098 336,-257.098 398,-257.098 398,-221.098 336,-221.098"/>
<text text-anchor="middle" x="367" y="-236.898" font-family="Verdana" font-size="9.00">boneRoot</text>
</g>
<!-- boneA -->
<g id="node2" class="node"><title>boneA</title>
<polygon fill="lightyellow" stroke="black" points="207.5,-148.098 207.5,-184.098 328.5,-184.098 328.5,-148.098 207.5,-148.098"/>
<text text-anchor="middle" x="268" y="-172.898" font-family="Verdana" font-size="9.00">boneA</text>
<polyline fill="none" stroke="black" points="207.5,-166.098 328.5,-166.098 "/>
<text text-anchor="start" x="215.5" y="-154.898" font-family="Verdana" font-size="9.00">Set to incompressible.</text>
</g>
<!-- boneRoot&#45;&gt;boneA -->
<g id="edge1" class="edge"><title>boneRoot&#45;&gt;boneA</title>
<path fill="none" stroke="black" d="M343.287,-221.092C329.916,-211.502 313.061,-199.415 298.691,-189.109"/>
<polygon fill="black" stroke="black" points="299.995,-186.599 291.863,-184.212 296.732,-191.149 299.995,-186.599"/>
</g>
<!-- boneF -->
<g id="node4" class="node"><title>boneF</title>
<polygon fill="lightyellow" stroke="black" points="418.5,-148.098 418.5,-184.098 513.5,-184.098 513.5,-148.098 418.5,-148.098"/>
<text text-anchor="middle" x="466" y="-172.898" font-family="Verdana" font-size="9.00">boneF</text>
<polyline fill="none" stroke="black" points="418.5,-166.098 513.5,-166.098 "/>
<text text-anchor="middle" x="466" y="-154.898" font-family="Verdana" font-size="9.00">Use for skinning.</text>
</g>
<!-- boneRoot&#45;&gt;boneF -->
<g id="edge6" class="edge"><title>boneRoot&#45;&gt;boneF</title>
<path fill="none" stroke="black" d="M390.713,-221.092C404.084,-211.502 420.939,-199.415 435.309,-189.109"/>
<polygon fill="black" stroke="black" points="437.268,-191.149 442.137,-184.212 434.005,-186.599 437.268,-191.149"/>
</g>
<!-- boneI -->
<g id="node3" class="node"><title>boneI</title>
<polygon fill="lightyellow" stroke="black" points="0,-73.799 0,-109.799 152,-109.799 152,-73.799 0,-73.799"/>
<text text-anchor="middle" x="76" y="-98.599" font-family="Verdana" font-size="9.00">boneI</text>
<polyline fill="none" stroke="black" points="0,-91.799 152,-91.799 "/>
<text text-anchor="middle" x="76" y="-80.599" font-family="Verdana" font-size="9.00">Use for rigid body rendering.</text>
</g>
<!-- boneA&#45;&gt;boneI -->
<g id="edge2" class="edge"><title>boneA&#45;&gt;boneI</title>
<path fill="none" stroke="black" d="M222.499,-147.964C194.403,-137.384 158.24,-123.767 128.874,-112.709"/>
<polygon fill="black" stroke="black" points="129.648,-110.009 121.175,-109.81 127.675,-115.25 129.648,-110.009"/>
</g>
<!-- shapeX -->
<g id="node6" class="node"><title>shapeX</title>
<ellipse fill="moccasin" stroke="black" cx="232" cy="-91.799" rx="62.4516" ry="19.6"/>
<text text-anchor="middle" x="232" y="-94.599" font-family="Verdana" font-size="9.00">shapeX</text>
<text text-anchor="middle" x="232" y="-84.599" font-family="Verdana" font-size="9.00">(With skinning)</text>
</g>
<!-- boneA&#45;&gt;shapeX -->
<g id="edge3" class="edge"><title>boneA&#45;&gt;shapeX</title>
<path fill="none" stroke="black" d="M259.469,-147.964C255.127,-139.246 249.759,-128.465 244.923,-118.753"/>
<polygon fill="black" stroke="black" points="247.427,-117.5 241.355,-111.587 242.415,-119.996 247.427,-117.5"/>
</g>
<!-- shapeY -->
<g id="node7" class="node"><title>shapeY</title>
<ellipse fill="moccasin" stroke="black" cx="374" cy="-91.799" rx="62.4516" ry="19.6"/>
<text text-anchor="middle" x="374" y="-94.599" font-family="Verdana" font-size="9.00">shapeY</text>
<text text-anchor="middle" x="374" y="-84.599" font-family="Verdana" font-size="9.00">(With skinning)</text>
</g>
<!-- boneA&#45;&gt;shapeY -->
<g id="edge4" class="edge"><title>boneA&#45;&gt;shapeY</title>
<path fill="none" stroke="black" d="M293.121,-147.964C307.667,-138.042 326.132,-125.448 341.744,-114.8"/>
<polygon fill="black" stroke="black" points="343.661,-116.881 348.692,-110.06 340.506,-112.255 343.661,-116.881"/>
</g>
<!-- shapeZ -->
<g id="node8" class="node"><title>shapeZ</title>
<ellipse fill="moccasin" stroke="black" cx="76" cy="-18" rx="30.0444" ry="18"/>
<text text-anchor="middle" x="76" y="-15.8" font-family="Verdana" font-size="9.00">shapeZ</text>
</g>
<!-- boneI&#45;&gt;shapeZ -->
<g id="edge5" class="edge"><title>boneI&#45;&gt;shapeZ</title>
<path fill="none" stroke="black" d="M76,-73.7836C76,-65.0597 76,-54.2558 76,-44.554"/>
<polygon fill="black" stroke="black" points="78.8001,-44.3919 76,-36.392 73.2001,-44.392 78.8001,-44.3919"/>
</g>
<!-- boneG -->
<g id="node5" class="node"><title>boneG</title>
<polygon fill="lightyellow" stroke="black" points="454.5,-73.799 454.5,-109.799 549.5,-109.799 549.5,-73.799 454.5,-73.799"/>
<text text-anchor="middle" x="502" y="-98.599" font-family="Verdana" font-size="9.00">boneG</text>
<polyline fill="none" stroke="black" points="454.5,-91.799 549.5,-91.799 "/>
<text text-anchor="middle" x="502" y="-80.599" font-family="Verdana" font-size="9.00">Use for skinning.</text>
</g>
<!-- boneF&#45;&gt;boneG -->
<g id="edge7" class="edge"><title>boneF&#45;&gt;boneG</title>
<path fill="none" stroke="black" d="M474.531,-147.964C479.105,-138.78 484.817,-127.307 489.847,-117.206"/>
<polygon fill="black" stroke="black" points="492.47,-118.219 493.53,-109.81 487.457,-115.723 492.47,-118.219"/>
</g>
</g>
</svg>
