<?xml version="1.0" encoding="UTF-8" standalone="no"?>
<!DOCTYPE svg PUBLIC "-//W3C//DTD SVG 1.1//EN"
 "http://www.w3.org/Graphics/SVG/1.1/DTD/svg11.dtd">
<!-- Generated by graphviz version 2.38.0 (20140413.2041)
 -->
<!-- Pages: 1 -->
<svg width="445pt" height="267pt"
 viewBox="0.00 0.00 444.73 266.60" xmlns="http://www.w3.org/2000/svg" xmlns:xlink="http://www.w3.org/1999/xlink">
<g id="graph0" class="graph" transform="scale(1 1) rotate(0) translate(4 262.598)">
<polygon fill="white" stroke="none" points="-4,4 -4,-262.598 440.725,-262.598 440.725,4 -4,4"/>
<!-- boneRoot -->
<g id="node1" class="node"><title>boneRoot</title>
<polygon fill="lightyellow" stroke="black" points="265.225,-222.098 265.225,-258.098 327.225,-258.098 327.225,-222.098 265.225,-222.098"/>
<text text-anchor="middle" x="296.225" y="-237.898" font-family="Verdana" font-size="9.00">boneRoot</text>
</g>
<!-- boneA -->
<g id="node2" class="node"><title>boneA</title>
<polygon fill="lightyellow" stroke="black" points="158.725,-149.098 158.725,-185.098 279.725,-185.098 279.725,-149.098 158.725,-149.098"/>
<text text-anchor="middle" x="219.225" y="-173.898" font-family="Verdana" font-size="9.00">boneA</text>
<polyline fill="none" stroke="black" points="158.725,-167.098 279.725,-167.098 "/>
<text text-anchor="start" x="166.725" y="-155.898" font-family="Verdana" font-size="9.00">Set to incompressible.</text>
</g>
<!-- boneRoot&#45;&gt;boneA -->
<g id="edge1" class="edge"><title>boneRoot&#45;&gt;boneA</title>
<path fill="none" stroke="black" d="M277.586,-221.911C267.371,-212.492 254.588,-200.705 243.591,-190.565"/>
<polygon fill="black" stroke="black" points="245.473,-188.491 237.693,-185.127 241.677,-192.608 245.473,-188.491"/>
</g>
<!-- boneF -->
<g id="node3" class="node"><title>boneF</title>
<polygon fill="lightyellow" stroke="black" points="326.725,-149.098 326.725,-185.098 421.725,-185.098 421.725,-149.098 326.725,-149.098"/>
<text text-anchor="middle" x="374.225" y="-173.898" font-family="Verdana" font-size="9.00">boneF</text>
<polyline fill="none" stroke="black" points="326.725,-167.098 421.725,-167.098 "/>
<text text-anchor="middle" x="374.225" y="-155.898" font-family="Verdana" font-size="9.00">Use for skinning.</text>
</g>
<!-- boneRoot&#45;&gt;boneF -->
<g id="edge5" class="edge"><title>boneRoot&#45;&gt;boneF</title>
<path fill="none" stroke="black" d="M315.107,-221.911C325.454,-212.492 338.404,-200.705 349.543,-190.565"/>
<polygon fill="black" stroke="black" points="351.486,-192.583 355.518,-185.127 347.717,-188.441 351.486,-192.583"/>
</g>
<!-- shapeX -->
<g id="node6" class="node"><title>shapeX</title>
<ellipse fill="moccasin" stroke="black" cx="62.2254" cy="-92.799" rx="62.4516" ry="19.6"/>
<text text-anchor="middle" x="62.2254" y="-95.599" font-family="Verdana" font-size="9.00">shapeX</text>
<text text-anchor="middle" x="62.2254" y="-85.599" font-family="Verdana" font-size="9.00">(With skinning)</text>
</g>
<!-- boneA&#45;&gt;shapeX -->
<g id="edge2" class="edge"><title>boneA&#45;&gt;shapeX</title>
<path fill="none" stroke="black" d="M182.019,-148.964C158.434,-138.103 127.897,-124.041 103.558,-112.833"/>
<polygon fill="black" stroke="black" points="104.656,-110.256 96.218,-109.453 102.313,-115.342 104.656,-110.256"/>
</g>
<!-- shapeY -->
<g id="node7" class="node"><title>shapeY</title>
<ellipse fill="moccasin" stroke="black" cx="204.225" cy="-92.799" rx="62.4516" ry="19.6"/>
<text text-anchor="middle" x="204.225" y="-95.599" font-family="Verdana" font-size="9.00">shapeY</text>
<text text-anchor="middle" x="204.225" y="-85.599" font-family="Verdana" font-size="9.00">(With skinning)</text>
</g>
<!-- boneA&#45;&gt;shapeY -->
<g id="edge3" class="edge"><title>boneA&#45;&gt;shapeY</title>
<path fill="none" stroke="black" d="M215.671,-148.964C213.915,-140.502 211.756,-130.097 209.789,-120.613"/>
<polygon fill="black" stroke="black" points="212.49,-119.851 208.123,-112.587 207.007,-120.989 212.49,-119.851"/>
</g>
<!-- shapeZ -->
<g id="node8" class="node"><title>shapeZ</title>
<ellipse fill="moccasin" stroke="black" cx="314.225" cy="-92.799" rx="30.0444" ry="18"/>
<text text-anchor="middle" x="314.225" y="-90.599" font-family="Verdana" font-size="9.00">shapeZ</text>
</g>
<!-- boneA&#45;&gt;shapeZ -->
<g id="edge4" class="edge"><title>boneA&#45;&gt;shapeZ</title>
<path fill="none" stroke="black" d="M241.739,-148.964C256.204,-137.956 274.99,-123.659 289.813,-112.378"/>
<polygon fill="black" stroke="black" points="291.644,-114.503 296.315,-107.43 288.253,-110.046 291.644,-114.503"/>
</g>
<!-- boneJ -->
<g id="node5" class="node"><title>boneJ</title>
<polygon fill="lightyellow" stroke="black" points="362.225,-74.799 362.225,-110.799 416.225,-110.799 416.225,-74.799 362.225,-74.799"/>
<text text-anchor="middle" x="389.225" y="-90.599" font-family="Verdana" font-size="9.00">boneJ</text>
</g>
<!-- boneF&#45;&gt;boneJ -->
<g id="edge6" class="edge"><title>boneF&#45;&gt;boneJ</title>
<path fill="none" stroke="black" d="M377.78,-148.964C379.648,-139.96 381.973,-128.756 384.038,-118.802"/>
<polygon fill="black" stroke="black" points="386.812,-119.212 385.696,-110.81 381.329,-118.074 386.812,-119.212"/>
</g>
<!-- boneG -->
<g id="node4" class="node"><title>boneG</title>
<polygon fill="lightyellow" stroke="black" points="341.725,-0.5 341.725,-36.5 436.725,-36.5 436.725,-0.5 341.725,-0.5"/>
<text text-anchor="middle" x="389.225" y="-25.3" font-family="Verdana" font-size="9.00">boneG</text>
<polyline fill="none" stroke="black" points="341.725,-18.5 436.725,-18.5 "/>
<text text-anchor="middle" x="389.225" y="-7.3" font-family="Verdana" font-size="9.00">Use for skinning.</text>
</g>
<!-- boneJ&#45;&gt;boneG -->
<g id="edge7" class="edge"><title>boneJ&#45;&gt;boneG</title>
<path fill="none" stroke="black" d="M389.225,-74.6651C389.225,-65.7512 389.225,-54.6809 389.225,-44.8017"/>
<polygon fill="black" stroke="black" points="392.025,-44.5108 389.225,-36.5109 386.425,-44.5109 392.025,-44.5108"/>
</g>
</g>
</svg>
