<?xml version="1.0" encoding="UTF-8" standalone="no"?>
<!DOCTYPE svg PUBLIC "-//W3C//DTD SVG 1.1//EN"
 "http://www.w3.org/Graphics/SVG/1.1/DTD/svg11.dtd">
<!-- Generated by graphviz version 2.38.0 (20140413.2041)
 -->
<!-- Pages: 1 -->
<svg width="489pt" height="290pt"
 viewBox="0.00 0.00 488.50 290.00" xmlns="http://www.w3.org/2000/svg" xmlns:xlink="http://www.w3.org/1999/xlink">
<g id="graph0" class="graph" transform="scale(1 1) rotate(0) translate(4 286)">
<polygon fill="white" stroke="none" points="-4,4 -4,-286 484.5,-286 484.5,4 -4,4"/>
<!-- setCompressBoneManually -->
<g id="node1" class="node"><title>setCompressBoneManually</title>
<path fill="none" stroke="black" d="M468.5,-282C468.5,-282 232.5,-282 232.5,-282 226.5,-282 220.5,-276 220.5,-270 220.5,-270 220.5,-258 220.5,-258 220.5,-252 226.5,-246 232.5,-246 232.5,-246 468.5,-246 468.5,-246 474.5,-246 480.5,-252 480.5,-258 480.5,-258 480.5,-270 480.5,-270 480.5,-276 474.5,-282 468.5,-282"/>
<text text-anchor="middle" x="350.5" y="-266.8" font-family="Verdana" font-size="9.00">Compress unnecessary bones as much as possible </text>
<text text-anchor="middle" x="350.5" y="-256.8" font-family="Verdana" font-size="9.00"> even when manually setting bones individually?</text>
</g>
<!-- useSkinning -->
<g id="node2" class="node"><title>useSkinning</title>
<path fill="none" stroke="black" d="M289.5,-200.5C289.5,-200.5 231.5,-200.5 231.5,-200.5 225.5,-200.5 219.5,-194.5 219.5,-188.5 219.5,-188.5 219.5,-176.5 219.5,-176.5 219.5,-170.5 225.5,-164.5 231.5,-164.5 231.5,-164.5 289.5,-164.5 289.5,-164.5 295.5,-164.5 301.5,-170.5 301.5,-176.5 301.5,-176.5 301.5,-188.5 301.5,-188.5 301.5,-194.5 295.5,-200.5 289.5,-200.5"/>
<text text-anchor="middle" x="260.5" y="-180.3" font-family="Verdana" font-size="9.00">Use skinning?</text>
</g>
<!-- setCompressBoneManually&#45;&gt;useSkinning -->
<g id="edge1" class="edge"><title>setCompressBoneManually&#45;&gt;useSkinning</title>
<path fill="none" stroke="black" d="M330.971,-245.75C317.88,-234.186 300.501,-218.834 286.277,-206.27"/>
<polygon fill="black" stroke="black" points="287.84,-203.914 279.991,-200.717 284.133,-208.111 287.84,-203.914"/>
<text text-anchor="middle" x="315" y="-221.6" font-family="Times New Roman,serif" font-size="8.00">Yes</text>
</g>
<!-- cull -->
<g id="node4" class="node"><title>cull</title>
<polygon fill="lightyellow" stroke="black" points="320,-164.5 320,-200.5 443,-200.5 443,-164.5 320,-164.5"/>
<text text-anchor="middle" x="381.5" y="-180.3" font-family="Verdana" font-size="9.00">Cull bone compression</text>
</g>
<!-- setCompressBoneManually&#45;&gt;cull -->
<g id="edge2" class="edge"><title>setCompressBoneManually&#45;&gt;cull</title>
<path fill="none" stroke="black" d="M357.227,-245.75C361.492,-234.811 367.079,-220.483 371.818,-208.331"/>
<polygon fill="black" stroke="black" points="374.489,-209.187 374.787,-200.717 369.271,-207.153 374.489,-209.187"/>
<text text-anchor="middle" x="373" y="-221.6" font-family="Times New Roman,serif" font-size="8.00">No</text>
</g>
<!-- containsAnimation -->
<g id="node3" class="node"><title>containsAnimation</title>
<path fill="none" stroke="black" d="M201.5,-118.5C201.5,-118.5 85.5,-118.5 85.5,-118.5 79.5,-118.5 73.5,-112.5 73.5,-106.5 73.5,-106.5 73.5,-94.5 73.5,-94.5 73.5,-88.5 79.5,-82.5 85.5,-82.5 85.5,-82.5 201.5,-82.5 201.5,-82.5 207.5,-82.5 213.5,-88.5 213.5,-94.5 213.5,-94.5 213.5,-106.5 213.5,-106.5 213.5,-112.5 207.5,-118.5 201.5,-118.5"/>
<text text-anchor="middle" x="143.5" y="-103.3" font-family="Verdana" font-size="9.00">Use skeletal animation or </text>
<text text-anchor="middle" x="143.5" y="-93.3" font-family="Verdana" font-size="9.00"> bone visibility animation?</text>
</g>
<!-- useSkinning&#45;&gt;containsAnimation -->
<g id="edge4" class="edge"><title>useSkinning&#45;&gt;containsAnimation</title>
<path fill="none" stroke="black" d="M235.401,-164.338C217.819,-152.316 194.184,-136.156 175.286,-123.234"/>
<polygon fill="black" stroke="black" points="176.742,-120.838 168.558,-118.634 173.581,-125.46 176.742,-120.838"/>
<text text-anchor="middle" x="212" y="-139.6" font-family="Times New Roman,serif" font-size="8.00">No</text>
</g>
<!-- merge -->
<g id="node5" class="node"><title>merge</title>
<polygon fill="lightyellow" stroke="black" points="232,-82.5 232,-118.5 367,-118.5 367,-82.5 232,-82.5"/>
<text text-anchor="middle" x="299.5" y="-98.3" font-family="Verdana" font-size="9.00">Merge bone compression</text>
</g>
<!-- useSkinning&#45;&gt;merge -->
<g id="edge3" class="edge"><title>useSkinning&#45;&gt;merge</title>
<path fill="none" stroke="black" d="M268.962,-164.141C274.417,-152.953 281.589,-138.24 287.612,-125.886"/>
<polygon fill="black" stroke="black" points="290.199,-126.968 291.188,-118.55 285.166,-124.514 290.199,-126.968"/>
<text text-anchor="middle" x="288" y="-139.6" font-family="Times New Roman,serif" font-size="8.00">Yes</text>
</g>
<!-- unite -->
<g id="node6" class="node"><title>unite</title>
<polygon fill="lightyellow" stroke="black" points="0,-0.5 0,-36.5 131,-36.5 131,-0.5 0,-0.5"/>
<text text-anchor="middle" x="65.5" y="-16.3" font-family="Verdana" font-size="9.00">Unite bone compression</text>
</g>
<!-- containsAnimation&#45;&gt;unite -->
<g id="edge5" class="edge"><title>containsAnimation&#45;&gt;unite</title>
<path fill="none" stroke="black" d="M126.575,-82.1412C115.255,-70.5305 100.234,-55.125 87.9223,-42.4972"/>
<polygon fill="black" stroke="black" points="89.7135,-40.3234 82.1238,-36.5501 85.7039,-44.2328 89.7135,-40.3234"/>
<text text-anchor="middle" x="114" y="-57.6" font-family="Times New Roman,serif" font-size="8.00">Yes</text>
</g>
<!-- uniteAll -->
<g id="node7" class="node"><title>uniteAll</title>
<polygon fill="lightyellow" stroke="black" points="149.5,-0.5 149.5,-36.5 293.5,-36.5 293.5,-0.5 149.5,-0.5"/>
<text text-anchor="middle" x="221.5" y="-16.3" font-family="Verdana" font-size="9.00">Unite All bone compression</text>
</g>
<!-- containsAnimation&#45;&gt;uniteAll -->
<g id="edge6" class="edge"><title>containsAnimation&#45;&gt;uniteAll</title>
<path fill="none" stroke="black" d="M160.425,-82.1412C171.745,-70.5305 186.766,-55.125 199.078,-42.4972"/>
<polygon fill="black" stroke="black" points="201.296,-44.2328 204.876,-36.5501 197.287,-40.3234 201.296,-44.2328"/>
<text text-anchor="middle" x="191" y="-57.6" font-family="Times New Roman,serif" font-size="8.00">No</text>
</g>
</g>
</svg>
