<?xml version="1.0" encoding="UTF-8" standalone="no"?>
<!DOCTYPE svg PUBLIC "-//W3C//DTD SVG 1.1//EN"
 "http://www.w3.org/Graphics/SVG/1.1/DTD/svg11.dtd">
<!-- Generated by graphviz version 2.38.0 (20140413.2041)
 -->
<!-- Pages: 1 -->
<svg width="488pt" height="339pt"
 viewBox="0.00 0.00 487.50 338.60" xmlns="http://www.w3.org/2000/svg" xmlns:xlink="http://www.w3.org/1999/xlink">
<g id="graph0" class="graph" transform="scale(1 1) rotate(0) translate(4 334.598)">
<polygon fill="white" stroke="none" points="-4,4 -4,-334.598 483.5,-334.598 483.5,4 -4,4"/>
<!-- boneRoot -->
<g id="node1" class="node"><title>boneRoot</title>
<polygon fill="lightyellow" stroke="black" points="276,-294.098 276,-330.098 338,-330.098 338,-294.098 276,-294.098"/>
<text text-anchor="middle" x="307" y="-309.898" font-family="Verdana" font-size="9.00">boneRoot</text>
</g>
<!-- boneA -->
<g id="node2" class="node"><title>boneA</title>
<polygon fill="lightyellow" stroke="black" points="153.5,-221.098 153.5,-257.098 274.5,-257.098 274.5,-221.098 153.5,-221.098"/>
<text text-anchor="middle" x="214" y="-245.898" font-family="Verdana" font-size="9.00">boneA</text>
<polyline fill="none" stroke="black" points="153.5,-239.098 274.5,-239.098 "/>
<text text-anchor="start" x="161.5" y="-227.898" font-family="Verdana" font-size="9.00">Set to incompressible.</text>
</g>
<!-- boneRoot&#45;&gt;boneA -->
<g id="edge1" class="edge"><title>boneRoot&#45;&gt;boneA</title>
<path fill="none" stroke="black" d="M284.487,-293.911C271.922,-284.318 256.138,-272.268 242.693,-262.004"/>
<polygon fill="black" stroke="black" points="244.363,-259.756 236.305,-257.127 240.965,-264.207 244.363,-259.756"/>
</g>
<!-- boneF -->
<g id="node5" class="node"><title>boneF</title>
<polygon fill="lightyellow" stroke="black" points="353.5,-221.098 353.5,-257.098 448.5,-257.098 448.5,-221.098 353.5,-221.098"/>
<text text-anchor="middle" x="401" y="-245.898" font-family="Verdana" font-size="9.00">boneF</text>
<polyline fill="none" stroke="black" points="353.5,-239.098 448.5,-239.098 "/>
<text text-anchor="middle" x="401" y="-227.898" font-family="Verdana" font-size="9.00">Use for skinning.</text>
</g>
<!-- boneRoot&#45;&gt;boneF -->
<g id="edge7" class="edge"><title>boneRoot&#45;&gt;boneF</title>
<path fill="none" stroke="black" d="M329.755,-293.911C342.456,-284.318 358.409,-272.268 371.998,-262.004"/>
<polygon fill="black" stroke="black" points="373.759,-264.183 378.455,-257.127 370.383,-259.714 373.759,-264.183"/>
</g>
<!-- boneC -->
<g id="node3" class="node"><title>boneC</title>
<polygon fill="lightyellow" stroke="black" points="49,-146.799 49,-182.799 103,-182.799 103,-146.799 49,-146.799"/>
<text text-anchor="middle" x="76" y="-162.599" font-family="Verdana" font-size="9.00">boneC</text>
</g>
<!-- boneA&#45;&gt;boneC -->
<g id="edge2" class="edge"><title>boneA&#45;&gt;boneC</title>
<path fill="none" stroke="black" d="M181.296,-220.964C159.956,-209.784 132.142,-195.212 110.46,-183.853"/>
<polygon fill="black" stroke="black" points="111.746,-181.365 103.36,-180.133 109.147,-186.326 111.746,-181.365"/>
</g>
<!-- shapeX -->
<g id="node8" class="node"><title>shapeX</title>
<ellipse fill="moccasin" stroke="black" cx="183" cy="-164.799" rx="62.4516" ry="19.6"/>
<text text-anchor="middle" x="183" y="-167.599" font-family="Verdana" font-size="9.00">shapeX</text>
<text text-anchor="middle" x="183" y="-157.599" font-family="Verdana" font-size="9.00">(With skinning)</text>
</g>
<!-- boneA&#45;&gt;shapeX -->
<g id="edge3" class="edge"><title>boneA&#45;&gt;shapeX</title>
<path fill="none" stroke="black" d="M206.653,-220.964C202.952,-212.331 198.383,-201.676 194.251,-192.039"/>
<polygon fill="black" stroke="black" points="196.782,-190.836 191.056,-184.587 191.635,-193.043 196.782,-190.836"/>
</g>
<!-- shapeY -->
<g id="node9" class="node"><title>shapeY</title>
<ellipse fill="moccasin" stroke="black" cx="325" cy="-164.799" rx="62.4516" ry="19.6"/>
<text text-anchor="middle" x="325" y="-167.599" font-family="Verdana" font-size="9.00">shapeY</text>
<text text-anchor="middle" x="325" y="-157.599" font-family="Verdana" font-size="9.00">(With skinning)</text>
</g>
<!-- boneA&#45;&gt;shapeY -->
<g id="edge4" class="edge"><title>boneA&#45;&gt;shapeY</title>
<path fill="none" stroke="black" d="M240.305,-220.964C255.788,-210.88 275.508,-198.035 292.023,-187.278"/>
<polygon fill="black" stroke="black" points="293.708,-189.522 298.883,-182.81 290.652,-184.83 293.708,-189.522"/>
</g>
<!-- boneI -->
<g id="node4" class="node"><title>boneI</title>
<polygon fill="lightyellow" stroke="black" points="0,-72.5 0,-108.5 152,-108.5 152,-72.5 0,-72.5"/>
<text text-anchor="middle" x="76" y="-97.3" font-family="Verdana" font-size="9.00">boneI</text>
<polyline fill="none" stroke="black" points="0,-90.5 152,-90.5 "/>
<text text-anchor="middle" x="76" y="-79.3" font-family="Verdana" font-size="9.00">Use for rigid body rendering.</text>
</g>
<!-- boneC&#45;&gt;boneI -->
<g id="edge5" class="edge"><title>boneC&#45;&gt;boneI</title>
<path fill="none" stroke="black" d="M76,-146.665C76,-137.751 76,-126.681 76,-116.802"/>
<polygon fill="black" stroke="black" points="78.8001,-116.511 76,-108.511 73.2001,-116.511 78.8001,-116.511"/>
</g>
<!-- shapeZ -->
<g id="node10" class="node"><title>shapeZ</title>
<ellipse fill="moccasin" stroke="black" cx="76" cy="-18" rx="30.0444" ry="18"/>
<text text-anchor="middle" x="76" y="-15.8" font-family="Verdana" font-size="9.00">shapeZ</text>
</g>
<!-- boneI&#45;&gt;shapeZ -->
<g id="edge6" class="edge"><title>boneI&#45;&gt;shapeZ</title>
<path fill="none" stroke="black" d="M76,-72.4339C76,-64.0723 76,-53.8308 76,-44.5591"/>
<polygon fill="black" stroke="black" points="78.8001,-44.3987 76,-36.3987 73.2001,-44.3987 78.8001,-44.3987"/>
</g>
<!-- boneJ -->
<g id="node7" class="node"><title>boneJ</title>
<polygon fill="lightyellow" stroke="black" points="405,-146.799 405,-182.799 459,-182.799 459,-146.799 405,-146.799"/>
<text text-anchor="middle" x="432" y="-162.599" font-family="Verdana" font-size="9.00">boneJ</text>
</g>
<!-- boneF&#45;&gt;boneJ -->
<g id="edge8" class="edge"><title>boneF&#45;&gt;boneJ</title>
<path fill="none" stroke="black" d="M408.347,-220.964C412.284,-211.78 417.204,-200.307 421.535,-190.206"/>
<polygon fill="black" stroke="black" points="424.127,-191.266 424.706,-182.81 418.98,-189.059 424.127,-191.266"/>
</g>
<!-- boneG -->
<g id="node6" class="node"><title>boneG</title>
<polygon fill="lightyellow" stroke="black" points="384.5,-72.5 384.5,-108.5 479.5,-108.5 479.5,-72.5 384.5,-72.5"/>
<text text-anchor="middle" x="432" y="-97.3" font-family="Verdana" font-size="9.00">boneG</text>
<polyline fill="none" stroke="black" points="384.5,-90.5 479.5,-90.5 "/>
<text text-anchor="middle" x="432" y="-79.3" font-family="Verdana" font-size="9.00">Use for skinning.</text>
</g>
<!-- boneJ&#45;&gt;boneG -->
<g id="edge9" class="edge"><title>boneJ&#45;&gt;boneG</title>
<path fill="none" stroke="black" d="M432,-146.665C432,-137.751 432,-126.681 432,-116.802"/>
<polygon fill="black" stroke="black" points="434.8,-116.511 432,-108.511 429.2,-116.511 434.8,-116.511"/>
</g>
</g>
</svg>
