<?xml version="1.0" encoding="UTF-8" standalone="no"?>
<!DOCTYPE svg PUBLIC "-//W3C//DTD SVG 1.1//EN"
 "http://www.w3.org/Graphics/SVG/1.1/DTD/svg11.dtd">
<!-- Generated by graphviz version 2.38.0 (20140413.2041)
 -->
<!-- Pages: 1 -->
<svg width="481pt" height="340pt"
 viewBox="0.00 0.00 480.50 339.60" xmlns="http://www.w3.org/2000/svg" xmlns:xlink="http://www.w3.org/1999/xlink">
<g id="graph0" class="graph" transform="scale(1 1) rotate(0) translate(4 335.598)">
<polygon fill="white" stroke="none" points="-4,4 -4,-335.598 476.5,-335.598 476.5,4 -4,4"/>
<!-- boneRoot -->
<g id="node1" class="node"><title>boneRoot</title>
<polygon fill="lightyellow" stroke="black" points="289,-295.098 289,-331.098 351,-331.098 351,-295.098 289,-295.098"/>
<text text-anchor="middle" x="320" y="-310.898" font-family="Verdana" font-size="9.00">boneRoot</text>
</g>
<!-- boneA -->
<g id="node2" class="node"><title>boneA</title>
<polygon fill="lightyellow" stroke="black" points="190.5,-222.098 190.5,-258.098 311.5,-258.098 311.5,-222.098 190.5,-222.098"/>
<text text-anchor="middle" x="251" y="-246.898" font-family="Verdana" font-size="9.00">boneA</text>
<polyline fill="none" stroke="black" points="190.5,-240.098 311.5,-240.098 "/>
<text text-anchor="start" x="198.5" y="-228.898" font-family="Verdana" font-size="9.00">Set to incompressible.</text>
</g>
<!-- boneRoot&#45;&gt;boneA -->
<g id="edge1" class="edge"><title>boneRoot&#45;&gt;boneA</title>
<path fill="none" stroke="black" d="M303.297,-294.911C294.313,-285.667 283.112,-274.141 273.383,-264.13"/>
<polygon fill="black" stroke="black" points="275.133,-261.913 267.549,-258.127 271.117,-265.815 275.133,-261.913"/>
</g>
<!-- boneF -->
<g id="node3" class="node"><title>boneF</title>
<polygon fill="lightyellow" stroke="black" points="341.5,-222.098 341.5,-258.098 436.5,-258.098 436.5,-222.098 341.5,-222.098"/>
<text text-anchor="middle" x="389" y="-246.898" font-family="Verdana" font-size="9.00">boneF</text>
<polyline fill="none" stroke="black" points="341.5,-240.098 436.5,-240.098 "/>
<text text-anchor="middle" x="389" y="-228.898" font-family="Verdana" font-size="9.00">Use for skinning.</text>
</g>
<!-- boneRoot&#45;&gt;boneF -->
<g id="edge10" class="edge"><title>boneRoot&#45;&gt;boneF</title>
<path fill="none" stroke="black" d="M336.703,-294.911C345.687,-285.667 356.888,-274.141 366.617,-264.13"/>
<polygon fill="black" stroke="black" points="368.883,-265.815 372.451,-258.127 364.867,-261.913 368.883,-265.815"/>
</g>
<!-- boneC -->
<g id="node5" class="node"><title>boneC</title>
<polygon fill="#ff6a6a" stroke="black" points="123,-149.098 123,-185.098 177,-185.098 177,-149.098 123,-149.098"/>
<text text-anchor="middle" x="150" y="-164.898" font-family="Verdana" font-size="9.00">boneC</text>
</g>
<!-- boneA&#45;&gt;boneC -->
<g id="edge2" class="edge"><title>boneA&#45;&gt;boneC</title>
<path fill="none" stroke="black" d="M226.808,-222.092C213.042,-212.415 195.659,-200.195 180.912,-189.828"/>
<polygon fill="black" stroke="black" points="182.5,-187.522 174.345,-185.212 179.279,-192.103 182.5,-187.522"/>
</g>
<!-- boneB -->
<g id="node6" class="node"><title>boneB</title>
<polygon fill="#ff6a6a" stroke="black" points="224,-149.098 224,-185.098 278,-185.098 278,-149.098 224,-149.098"/>
<text text-anchor="middle" x="251" y="-164.898" font-family="Verdana" font-size="9.00">boneB</text>
</g>
<!-- boneA&#45;&gt;boneB -->
<g id="edge3" class="edge"><title>boneA&#45;&gt;boneB</title>
<path fill="none" stroke="black" d="M251,-221.911C251,-213.277 251,-202.653 251,-193.132"/>
<polygon fill="black" stroke="black" points="253.8,-193.127 251,-185.127 248.2,-193.127 253.8,-193.127"/>
</g>
<!-- boneJ -->
<g id="node11" class="node"><title>boneJ</title>
<polygon fill="#ff6a6a" stroke="black" points="386,-149.098 386,-185.098 440,-185.098 440,-149.098 386,-149.098"/>
<text text-anchor="middle" x="413" y="-164.898" font-family="Verdana" font-size="9.00">boneJ</text>
</g>
<!-- boneF&#45;&gt;boneJ -->
<g id="edge11" class="edge"><title>boneF&#45;&gt;boneJ</title>
<path fill="none" stroke="black" d="M394.81,-221.911C397.758,-213.19 401.392,-202.438 404.635,-192.844"/>
<polygon fill="black" stroke="black" points="407.334,-193.602 407.244,-185.127 402.029,-191.809 407.334,-193.602"/>
</g>
<!-- boneG -->
<g id="node4" class="node"><title>boneG</title>
<polygon fill="lightyellow" stroke="black" points="377.5,-76.098 377.5,-112.098 472.5,-112.098 472.5,-76.098 377.5,-76.098"/>
<text text-anchor="middle" x="425" y="-100.898" font-family="Verdana" font-size="9.00">boneG</text>
<polyline fill="none" stroke="black" points="377.5,-94.098 472.5,-94.098 "/>
<text text-anchor="middle" x="425" y="-82.898" font-family="Verdana" font-size="9.00">Use for skinning.</text>
</g>
<!-- boneH -->
<g id="node10" class="node"><title>boneH</title>
<polygon fill="#ff6a6a" stroke="black" points="403,-1.79899 403,-37.799 457,-37.799 457,-1.79899 403,-1.79899"/>
<text text-anchor="middle" x="430" y="-17.599" font-family="Verdana" font-size="9.00">boneH</text>
</g>
<!-- boneG&#45;&gt;boneH -->
<g id="edge13" class="edge"><title>boneG&#45;&gt;boneH</title>
<path fill="none" stroke="black" d="M426.185,-75.9641C426.808,-66.9602 427.582,-55.756 428.271,-45.8017"/>
<polygon fill="black" stroke="black" points="431.065,-45.984 428.824,-37.8099 425.478,-45.5976 431.065,-45.984"/>
</g>
<!-- boneI -->
<g id="node9" class="node"><title>boneI</title>
<polygon fill="#ff6a6a" stroke="black" points="0,-76.098 0,-112.098 152,-112.098 152,-76.098 0,-76.098"/>
<text text-anchor="middle" x="76" y="-100.898" font-family="Verdana" font-size="9.00">boneI</text>
<polyline fill="none" stroke="black" points="0,-94.098 152,-94.098 "/>
<text text-anchor="middle" x="76" y="-82.898" font-family="Verdana" font-size="9.00">Use for rigid body rendering.</text>
</g>
<!-- boneC&#45;&gt;boneI -->
<g id="edge4" class="edge"><title>boneC&#45;&gt;boneI</title>
<path fill="none" stroke="black" d="M132.087,-148.911C122.361,-139.579 110.212,-127.923 99.7104,-117.847"/>
<polygon fill="black" stroke="black" points="101.46,-115.645 93.7484,-112.127 97.5825,-119.686 101.46,-115.645"/>
</g>
<!-- boneD -->
<g id="node7" class="node"><title>boneD</title>
<polygon fill="#ff6a6a" stroke="black" points="179,-76.098 179,-112.098 233,-112.098 233,-76.098 179,-76.098"/>
<text text-anchor="middle" x="206" y="-91.898" font-family="Verdana" font-size="9.00">boneD</text>
</g>
<!-- boneB&#45;&gt;boneD -->
<g id="edge5" class="edge"><title>boneB&#45;&gt;boneD</title>
<path fill="none" stroke="black" d="M240.107,-148.911C234.413,-139.928 227.355,-128.791 221.139,-118.984"/>
<polygon fill="black" stroke="black" points="223.441,-117.385 216.793,-112.127 218.711,-120.383 223.441,-117.385"/>
</g>
<!-- boneE -->
<g id="node8" class="node"><title>boneE</title>
<polygon fill="#ff6a6a" stroke="black" points="269,-76.098 269,-112.098 323,-112.098 323,-76.098 269,-76.098"/>
<text text-anchor="middle" x="296" y="-91.898" font-family="Verdana" font-size="9.00">boneE</text>
</g>
<!-- boneB&#45;&gt;boneE -->
<g id="edge6" class="edge"><title>boneB&#45;&gt;boneE</title>
<path fill="none" stroke="black" d="M261.893,-148.911C267.587,-139.928 274.645,-128.791 280.861,-118.984"/>
<polygon fill="black" stroke="black" points="283.289,-120.383 285.207,-112.127 278.559,-117.385 283.289,-120.383"/>
</g>
<!-- shapeX -->
<g id="node12" class="node"><title>shapeX</title>
<ellipse fill="moccasin" stroke="black" cx="181" cy="-19.799" rx="62.4516" ry="19.6"/>
<text text-anchor="middle" x="181" y="-22.599" font-family="Verdana" font-size="9.00">shapeX</text>
<text text-anchor="middle" x="181" y="-12.599" font-family="Verdana" font-size="9.00">(With skinning)</text>
</g>
<!-- boneD&#45;&gt;shapeX -->
<g id="edge7" class="edge"><title>boneD&#45;&gt;shapeX</title>
<path fill="none" stroke="black" d="M200.075,-75.9641C197.12,-67.4169 193.479,-56.887 190.173,-47.3257"/>
<polygon fill="black" stroke="black" points="192.757,-46.2325 187.497,-39.5868 187.465,-48.0626 192.757,-46.2325"/>
</g>
<!-- shapeY -->
<g id="node13" class="node"><title>shapeY</title>
<ellipse fill="moccasin" stroke="black" cx="323" cy="-19.799" rx="62.4516" ry="19.6"/>
<text text-anchor="middle" x="323" y="-22.599" font-family="Verdana" font-size="9.00">shapeY</text>
<text text-anchor="middle" x="323" y="-12.599" font-family="Verdana" font-size="9.00">(With skinning)</text>
</g>
<!-- boneE&#45;&gt;shapeY -->
<g id="edge8" class="edge"><title>boneE&#45;&gt;shapeY</title>
<path fill="none" stroke="black" d="M302.399,-75.9641C305.591,-67.4169 309.523,-56.887 313.094,-47.3257"/>
<polygon fill="black" stroke="black" points="315.808,-48.0609 315.984,-39.5868 310.562,-46.1017 315.808,-48.0609"/>
</g>
<!-- shapeZ -->
<g id="node14" class="node"><title>shapeZ</title>
<ellipse fill="moccasin" stroke="black" cx="71" cy="-19.799" rx="30.0444" ry="18"/>
<text text-anchor="middle" x="71" y="-17.599" font-family="Verdana" font-size="9.00">shapeZ</text>
</g>
<!-- boneI&#45;&gt;shapeZ -->
<g id="edge9" class="edge"><title>boneI&#45;&gt;shapeZ</title>
<path fill="none" stroke="black" d="M74.8151,-75.9641C74.1924,-66.9602 73.4175,-55.756 72.7291,-45.8017"/>
<polygon fill="black" stroke="black" points="75.5218,-45.5976 72.1764,-37.8099 69.9351,-45.984 75.5218,-45.5976"/>
</g>
<!-- boneJ&#45;&gt;boneG -->
<g id="edge12" class="edge"><title>boneJ&#45;&gt;boneG</title>
<path fill="none" stroke="black" d="M415.905,-148.911C417.364,-140.277 419.16,-129.653 420.769,-120.132"/>
<polygon fill="black" stroke="black" points="423.549,-120.482 422.122,-112.127 418.028,-119.548 423.549,-120.482"/>
</g>
</g>
</svg>
