<?xml version="1.0" encoding="UTF-8" standalone="no"?>
<!DOCTYPE svg PUBLIC "-//W3C//DTD SVG 1.1//EN"
 "http://www.w3.org/Graphics/SVG/1.1/DTD/svg11.dtd">
<!-- Generated by graphviz version 2.38.0 (20140413.2041)
 -->
<!-- Pages: 1 -->
<svg width="445pt" height="340pt"
 viewBox="0.00 0.00 444.73 339.60" xmlns="http://www.w3.org/2000/svg" xmlns:xlink="http://www.w3.org/1999/xlink">
<g id="graph0" class="graph" transform="scale(1 1) rotate(0) translate(4 335.598)">
<polygon fill="white" stroke="none" points="-4,4 -4,-335.598 440.725,-335.598 440.725,4 -4,4"/>
<!-- boneRoot -->
<g id="node1" class="node"><title>boneRoot</title>
<polygon fill="lightyellow" stroke="black" points="265.225,-295.098 265.225,-331.098 327.225,-331.098 327.225,-295.098 265.225,-295.098"/>
<text text-anchor="middle" x="296.225" y="-310.898" font-family="Verdana" font-size="9.00">boneRoot</text>
</g>
<!-- boneA -->
<g id="node2" class="node"><title>boneA</title>
<polygon fill="lightyellow" stroke="black" points="158.725,-222.098 158.725,-258.098 279.725,-258.098 279.725,-222.098 158.725,-222.098"/>
<text text-anchor="middle" x="219.225" y="-246.898" font-family="Verdana" font-size="9.00">boneA</text>
<polyline fill="none" stroke="black" points="158.725,-240.098 279.725,-240.098 "/>
<text text-anchor="start" x="166.725" y="-228.898" font-family="Verdana" font-size="9.00">Set to incompressible.</text>
</g>
<!-- boneRoot&#45;&gt;boneA -->
<g id="edge1" class="edge"><title>boneRoot&#45;&gt;boneA</title>
<path fill="none" stroke="black" d="M277.586,-294.911C267.371,-285.492 254.588,-273.705 243.591,-263.565"/>
<polygon fill="black" stroke="black" points="245.473,-261.491 237.693,-258.127 241.677,-265.608 245.473,-261.491"/>
</g>
<!-- boneF -->
<g id="node3" class="node"><title>boneF</title>
<polygon fill="lightyellow" stroke="black" points="326.725,-222.098 326.725,-258.098 421.725,-258.098 421.725,-222.098 326.725,-222.098"/>
<text text-anchor="middle" x="374.225" y="-246.898" font-family="Verdana" font-size="9.00">boneF</text>
<polyline fill="none" stroke="black" points="326.725,-240.098 421.725,-240.098 "/>
<text text-anchor="middle" x="374.225" y="-228.898" font-family="Verdana" font-size="9.00">Use for skinning.</text>
</g>
<!-- boneRoot&#45;&gt;boneF -->
<g id="edge6" class="edge"><title>boneRoot&#45;&gt;boneF</title>
<path fill="none" stroke="black" d="M315.107,-294.911C325.454,-285.492 338.404,-273.705 349.543,-263.565"/>
<polygon fill="black" stroke="black" points="351.486,-265.583 355.518,-258.127 347.717,-261.441 351.486,-265.583"/>
</g>
<!-- shapeX -->
<g id="node7" class="node"><title>shapeX</title>
<ellipse fill="moccasin" stroke="black" cx="62.2254" cy="-165.799" rx="62.4516" ry="19.6"/>
<text text-anchor="middle" x="62.2254" y="-168.599" font-family="Verdana" font-size="9.00">shapeX</text>
<text text-anchor="middle" x="62.2254" y="-158.599" font-family="Verdana" font-size="9.00">(With skinning)</text>
</g>
<!-- boneA&#45;&gt;shapeX -->
<g id="edge2" class="edge"><title>boneA&#45;&gt;shapeX</title>
<path fill="none" stroke="black" d="M182.019,-221.964C158.434,-211.103 127.897,-197.041 103.558,-185.833"/>
<polygon fill="black" stroke="black" points="104.656,-183.256 96.218,-182.453 102.313,-188.342 104.656,-183.256"/>
</g>
<!-- shapeY -->
<g id="node8" class="node"><title>shapeY</title>
<ellipse fill="moccasin" stroke="black" cx="204.225" cy="-165.799" rx="62.4516" ry="19.6"/>
<text text-anchor="middle" x="204.225" y="-168.599" font-family="Verdana" font-size="9.00">shapeY</text>
<text text-anchor="middle" x="204.225" y="-158.599" font-family="Verdana" font-size="9.00">(With skinning)</text>
</g>
<!-- boneA&#45;&gt;shapeY -->
<g id="edge3" class="edge"><title>boneA&#45;&gt;shapeY</title>
<path fill="none" stroke="black" d="M215.671,-221.964C213.915,-213.502 211.756,-203.097 209.789,-193.613"/>
<polygon fill="black" stroke="black" points="212.49,-192.851 208.123,-185.587 207.007,-193.989 212.49,-192.851"/>
</g>
<!-- shapeZ -->
<g id="node9" class="node"><title>shapeZ</title>
<ellipse fill="moccasin" stroke="black" cx="314.225" cy="-165.799" rx="30.0444" ry="18"/>
<text text-anchor="middle" x="314.225" y="-163.599" font-family="Verdana" font-size="9.00">shapeZ</text>
</g>
<!-- boneA&#45;&gt;shapeZ -->
<g id="edge4" class="edge"><title>boneA&#45;&gt;shapeZ</title>
<path fill="none" stroke="black" d="M241.739,-221.964C256.204,-210.956 274.99,-196.659 289.813,-185.378"/>
<polygon fill="black" stroke="black" points="291.644,-187.503 296.315,-180.43 288.253,-183.046 291.644,-187.503"/>
</g>
<!-- boneJ -->
<g id="node6" class="node"><title>boneJ</title>
<polygon fill="lightyellow" stroke="black" points="362.225,-147.799 362.225,-183.799 416.225,-183.799 416.225,-147.799 362.225,-147.799"/>
<text text-anchor="middle" x="389.225" y="-163.599" font-family="Verdana" font-size="9.00">boneJ</text>
</g>
<!-- boneF&#45;&gt;boneJ -->
<g id="edge7" class="edge"><title>boneF&#45;&gt;boneJ</title>
<path fill="none" stroke="black" d="M377.78,-221.964C379.648,-212.96 381.973,-201.756 384.038,-191.802"/>
<polygon fill="black" stroke="black" points="386.812,-192.212 385.696,-183.81 381.329,-191.074 386.812,-192.212"/>
</g>
<!-- boneG -->
<g id="node4" class="node"><title>boneG</title>
<polygon fill="lightyellow" stroke="black" points="341.725,-73.5 341.725,-109.5 436.725,-109.5 436.725,-73.5 341.725,-73.5"/>
<text text-anchor="middle" x="389.225" y="-98.3" font-family="Verdana" font-size="9.00">boneG</text>
<polyline fill="none" stroke="black" points="341.725,-91.5 436.725,-91.5 "/>
<text text-anchor="middle" x="389.225" y="-80.3" font-family="Verdana" font-size="9.00">Use for skinning.</text>
</g>
<!-- boneH -->
<g id="node5" class="node"><title>boneH</title>
<polygon fill="lightyellow" stroke="black" points="362.225,-0.5 362.225,-36.5 416.225,-36.5 416.225,-0.5 362.225,-0.5"/>
<text text-anchor="middle" x="389.225" y="-16.3" font-family="Verdana" font-size="9.00">boneH</text>
</g>
<!-- boneG&#45;&gt;boneH -->
<g id="edge5" class="edge"><title>boneG&#45;&gt;boneH</title>
<path fill="none" stroke="black" d="M389.225,-73.3129C389.225,-64.679 389.225,-54.0551 389.225,-44.5341"/>
<polygon fill="black" stroke="black" points="392.025,-44.5288 389.225,-36.5288 386.425,-44.5289 392.025,-44.5288"/>
</g>
<!-- boneJ&#45;&gt;boneG -->
<g id="edge8" class="edge"><title>boneJ&#45;&gt;boneG</title>
<path fill="none" stroke="black" d="M389.225,-147.665C389.225,-138.751 389.225,-127.681 389.225,-117.802"/>
<polygon fill="black" stroke="black" points="392.025,-117.511 389.225,-109.511 386.425,-117.511 392.025,-117.511"/>
</g>
</g>
</svg>
