<?xml version="1.0" encoding="UTF-8" standalone="no"?>
<!DOCTYPE svg PUBLIC "-//W3C//DTD SVG 1.1//EN"
 "http://www.w3.org/Graphics/SVG/1.1/DTD/svg11.dtd">
<!-- Generated by graphviz version 2.38.0 (20140413.2041)
 -->
<!-- Pages: 1 -->
<svg width="680pt" height="190pt"
 viewBox="0.00 0.00 679.50 189.54" xmlns="http://www.w3.org/2000/svg" xmlns:xlink="http://www.w3.org/1999/xlink">
<g id="graph0" class="graph" transform="scale(1 1) rotate(0) translate(4 185.539)">
<polygon fill="white" stroke="none" points="-4,4 -4,-185.539 675.5,-185.539 675.5,4 -4,4"/>
<!-- g3dEditor -->
<g id="node1" class="node"><title>g3dEditor</title>
<polygon fill="honeydew" stroke="black" points="340,-181.539 286,-181.539 286,-145.539 340,-145.539 340,-181.539"/>
<text text-anchor="middle" x="313" y="-161.339" font-family="meiryo" font-size="9.00">3DEditor</text>
</g>
<!-- editMat -->
<g id="node3" class="node"><title>editMat</title>
<ellipse fill="none" stroke="black" stroke-dasharray="5,2" cx="127" cy="-91.1543" rx="116.698" ry="18"/>
<text text-anchor="middle" x="127" y="-89.2543" font-family="meiryo" font-size="8.00">Reference the UI definitions in the annotations</text>
</g>
<!-- g3dEditor&#45;&gt;editMat -->
<g id="edge1" class="edge"><title>g3dEditor&#45;&gt;editMat</title>
<path fill="none" stroke="black" d="M285.954,-152.305C255.224,-140.676 204.699,-121.557 168.868,-107.998"/>
</g>
<!-- editMatM -->
<g id="node4" class="node"><title>editMatM</title>
<ellipse fill="none" stroke="black" stroke-dasharray="5,2" cx="500" cy="-91.1543" rx="105.218" ry="18.2703"/>
<text text-anchor="middle" x="500" y="-93.7543" font-family="meiryo" font-size="8.00">Edit the material</text>
<text text-anchor="middle" x="500" y="-84.7543" font-family="meiryo" font-size="8.00">Edit the &lt;shader_assign&gt; values</text>
</g>
<!-- g3dEditor&#45;&gt;editMatM -->
<g id="edge5" class="edge"><title>g3dEditor&#45;&gt;editMatM</title>
<path fill="none" stroke="black" d="M340.191,-152.305C370.986,-140.714 421.551,-121.682 457.552,-108.131"/>
</g>
<!-- fmdb -->
<g id="node2" class="node"><title>fmdb</title>
<polygon fill="lightyellow" stroke="black" points="671.5,-36.3848 462.5,-36.3848 462.5,-0.384776 671.5,-0.384776 671.5,-36.3848"/>
<text text-anchor="middle" x="567" y="-16.1848" font-family="meiryo" font-size="9.00">Model Intermediate Files (FMDA and FMDB)</text>
</g>
<!-- fsdb -->
<g id="node6" class="node"><title>fsdb</title>
<polygon fill="#ffe1ff" stroke="black" points="122,-36.3848 7.10543e-015,-36.3848 7.10543e-015,-0.384776 122,-0.384776 122,-36.3848"/>
<text text-anchor="middle" x="61" y="-16.4848" font-family="meiryo" font-size="8.00">Shader Definitions (FSDB)</text>
</g>
<!-- editMat&#45;&gt;fsdb -->
<g id="edge2" class="edge"><title>editMat&#45;&gt;fsdb</title>
<path fill="none" stroke="black" d="M111.023,-73.023C102.556,-63.9442 92.0305,-52.6577 82.8216,-42.7833"/>
<polygon fill="black" stroke="black" points="84.7921,-40.7909 77.2881,-36.85 80.6967,-44.6103 84.7921,-40.7909"/>
</g>
<!-- editMatM&#45;&gt;fmdb -->
<g id="edge6" class="edge"><title>editMatM&#45;&gt;fmdb</title>
<path fill="none" stroke="black" d="M516.562,-72.6607C525.162,-63.5765 535.784,-52.3574 545.058,-42.5611"/>
<polygon fill="black" stroke="black" points="547.162,-44.4117 550.629,-36.6771 543.095,-40.5616 547.162,-44.4117"/>
</g>
<!-- Assign -->
<g id="node5" class="node"><title>Assign</title>
<ellipse fill="none" stroke="black" stroke-dasharray="5,2" cx="292" cy="-18.3848" rx="152.056" ry="18.2703"/>
<text text-anchor="middle" x="292" y="-20.9848" font-family="meiryo" font-size="8.00">Add shader information to the model&#39;s </text>
<text text-anchor="middle" x="292" y="-11.9848" font-family="meiryo" font-size="8.00">&lt;shader_assign&gt; element with the assign utility.</text>
</g>
<!-- Assign&#45;&gt;fmdb -->
<g id="edge4" class="edge"><title>Assign&#45;&gt;fmdb</title>
<path fill="none" stroke="black" d="M444.271,-18.3848C447.591,-18.3848 450.912,-18.3848 454.233,-18.3848"/>
<polygon fill="black" stroke="black" points="454.488,-21.1849 462.488,-18.3848 454.488,-15.5849 454.488,-21.1849"/>
</g>
<!-- fsdb&#45;&gt;Assign -->
<g id="edge3" class="edge"><title>fsdb&#45;&gt;Assign</title>
<path fill="none" stroke="black" d="M122.359,-18.3848C125.469,-18.3848 128.579,-18.3848 131.688,-18.3848"/>
<polygon fill="black" stroke="black" points="131.92,-21.1849 139.92,-18.3848 131.92,-15.5849 131.92,-21.1849"/>
</g>
</g>
</svg>
