<?xml version="1.0" encoding="UTF-8" standalone="no"?>
<!DOCTYPE svg PUBLIC "-//W3C//DTD SVG 1.1//EN"
 "http://www.w3.org/Graphics/SVG/1.1/DTD/svg11.dtd">
<!-- Generated by graphviz version 2.38.0 (20140413.2041)
 -->
<!-- Pages: 1 -->
<svg width="670pt" height="382pt"
 viewBox="0.00 0.00 670.22 381.54" xmlns="http://www.w3.org/2000/svg" xmlns:xlink="http://www.w3.org/1999/xlink">
<g id="graph0" class="graph" transform="scale(1 1) rotate(0) translate(4 377.539)">
<polygon fill="white" stroke="none" points="-4,4 -4,-377.539 666.217,-377.539 666.217,4 -4,4"/>
<g id="clust1" class="cluster"><title>cluster_modelObj</title>
<polygon fill="lightyellow" stroke="black" points="156.217,-136.77 156.217,-214.77 334.217,-214.77 334.217,-136.77 156.217,-136.77"/>
<text text-anchor="middle" x="245.217" y="-204.37" font-family="meiryo" font-size="8.00">Model Instance</text>
<text text-anchor="middle" x="245.217" y="-195.37" font-family="meiryo" font-size="8.00">nn::g3d::ModelObj</text>
</g>
<g id="clust2" class="cluster"><title>cluster_resShadingModel</title>
<polygon fill="#ffe1ff" stroke="black" points="496.217,-136.77 496.217,-365.539 654.217,-365.539 654.217,-136.77 496.217,-136.77"/>
<text text-anchor="middle" x="575.217" y="-355.139" font-family="meiryo" font-size="8.00">Shading Model</text>
<text text-anchor="middle" x="575.217" y="-346.139" font-family="meiryo" font-size="8.00">nn::g3d::ResShadingModel</text>
</g>
<!-- model -->
<g id="node1" class="node"><title>model</title>
<polygon fill="lightyellow" stroke="black" points="266.717,-331.539 167.717,-331.539 167.717,-295.539 266.717,-295.539 266.717,-331.539"/>
<text text-anchor="middle" x="217.217" y="-316.339" font-family="meiryo" font-size="9.00">Model Binary</text>
<text text-anchor="middle" x="217.217" y="-306.339" font-family="meiryo" font-size="9.00">nn::g3d::ResModel</text>
</g>
<!-- choice -->
<g id="node6" class="node"><title>choice</title>
<ellipse fill="none" stroke="black" stroke-dasharray="5,2" cx="344.217" cy="-241.154" rx="143.585" ry="18.2703"/>
<text text-anchor="middle" x="344.217" y="-243.754" font-family="meiryo" font-size="8.00">Select the shader program the model will use</text>
<text text-anchor="middle" x="344.217" y="-234.754" font-family="meiryo" font-size="8.00">based on the model&#39;s option variables.</text>
</g>
<!-- model&#45;&gt;choice -->
<g id="edge3" class="edge"><title>model&#45;&gt;choice</title>
<path fill="none" stroke="black" d="M247.96,-295.501C265.458,-285.803 287.526,-273.573 306.116,-263.27"/>
<polygon fill="black" stroke="black" points="307.677,-265.607 313.317,-259.28 304.962,-260.709 307.677,-265.607"/>
</g>
<!-- instance -->
<g id="node8" class="node"><title>instance</title>
<ellipse fill="none" stroke="black" stroke-dasharray="5,2" cx="91.2168" cy="-241.154" rx="91.4341" ry="18.2703"/>
<text text-anchor="middle" x="91.2168" y="-243.754" font-family="meiryo" font-size="8.00">Create a model instance</text>
<text text-anchor="middle" x="91.2168" y="-234.754" font-family="meiryo" font-size="8.00">based on the model binary.</text>
</g>
<!-- model&#45;&gt;instance -->
<g id="edge1" class="edge"><title>model&#45;&gt;instance</title>
<path fill="none" stroke="black" d="M186.716,-295.501C169.098,-285.66 146.812,-273.21 128.2,-262.814"/>
<polygon fill="black" stroke="black" points="129.352,-260.25 121.002,-258.793 126.621,-265.139 129.352,-260.25"/>
</g>
<!-- obj -->
<g id="node2" class="node"><title>obj</title>
<polygon fill="lightyellow" stroke="black" points="326.217,-180.77 164.217,-180.77 164.217,-144.77 326.217,-144.77 326.217,-180.77"/>
<text text-anchor="middle" x="245.217" y="-165.57" font-family="meiryo" font-size="9.00">Values to apply to uniform blocks</text>
<text text-anchor="middle" x="245.217" y="-155.57" font-family="meiryo" font-size="9.00">Shape, Skeleton, Material</text>
</g>
<!-- set -->
<g id="node7" class="node"><title>set</title>
<ellipse fill="none" stroke="black" stroke-dasharray="5,2" cx="330.217" cy="-90.3848" rx="131.544" ry="18.2703"/>
<text text-anchor="middle" x="330.217" y="-92.9848" font-family="meiryo" font-size="8.00">Set the values held by the model instance</text>
<text text-anchor="middle" x="330.217" y="-83.9848" font-family="meiryo" font-size="8.00">in the shader&#39;s uniform blocks.</text>
</g>
<!-- obj&#45;&gt;set -->
<g id="edge6" class="edge"><title>obj&#45;&gt;set</title>
<path fill="none" stroke="black" d="M265.793,-144.731C276.903,-135.532 290.766,-124.052 302.783,-114.102"/>
<polygon fill="black" stroke="black" points="304.864,-116.014 309.24,-108.755 301.292,-111.701 304.864,-116.014"/>
</g>
<!-- ResShaderProgram00 -->
<g id="node3" class="node"><title>ResShaderProgram00</title>
<polygon fill="lightpink" stroke="black" points="646.217,-331.539 504.217,-331.539 504.217,-295.539 646.217,-295.539 646.217,-331.539"/>
<text text-anchor="middle" x="575.217" y="-316.339" font-family="meiryo" font-size="9.00">Shader Program 0</text>
<text text-anchor="middle" x="575.217" y="-306.339" font-family="meiryo" font-size="9.00">nn::g3d::ResShaderProgram</text>
</g>
<!-- ResShaderProgram01 -->
<g id="node4" class="node"><title>ResShaderProgram01</title>
<polygon fill="lightpink" stroke="black" points="646.217,-180.77 504.217,-180.77 504.217,-144.77 646.217,-144.77 646.217,-180.77"/>
<text text-anchor="middle" x="575.217" y="-165.57" font-family="meiryo" font-size="9.00">Shader Program 1</text>
<text text-anchor="middle" x="575.217" y="-155.57" font-family="meiryo" font-size="9.00">nn::g3d::ResShaderProgram</text>
</g>
<!-- ResShaderProgram -->
<g id="node5" class="node"><title>ResShaderProgram</title>
<polygon fill="lightpink" stroke="black" points="519.717,-36 342.717,-36 342.717,-0 519.717,-0 519.717,-36"/>
<text text-anchor="middle" x="431.217" y="-20.8" font-family="meiryo" font-size="9.00">Shader program to use for rendering</text>
<text text-anchor="middle" x="431.217" y="-10.8" font-family="meiryo" font-size="9.00">nn::g3d::ResShaderProgram</text>
</g>
<!-- ResShaderProgram01&#45;&gt;ResShaderProgram -->
<g id="edge5" class="edge"><title>ResShaderProgram01&#45;&gt;ResShaderProgram</title>
<path fill="none" stroke="black" d="M557.847,-144.548C532.008,-118.93 483.395,-70.7325 454.5,-42.0839"/>
<polygon fill="black" stroke="black" points="456.301,-39.9266 448.648,-36.2824 452.358,-43.9034 456.301,-39.9266"/>
</g>
<!-- choice&#45;&gt;ResShaderProgram01 -->
<g id="edge4" class="edge"><title>choice&#45;&gt;ResShaderProgram01</title>
<path fill="none" stroke="black" d="M393.489,-223.862C421.156,-214.713 456.481,-203.032 488.617,-192.406"/>
<polygon fill="black" stroke="black" points="489.562,-195.042 496.278,-189.872 487.804,-189.725 489.562,-195.042"/>
</g>
<!-- set&#45;&gt;ResShaderProgram -->
<g id="edge7" class="edge"><title>set&#45;&gt;ResShaderProgram</title>
<path fill="none" stroke="black" d="M354.924,-72.1667C368.475,-62.7235 385.412,-50.9201 399.884,-40.8352"/>
<polygon fill="black" stroke="black" points="401.802,-42.9115 406.764,-36.0403 398.6,-38.3171 401.802,-42.9115"/>
</g>
<!-- instance&#45;&gt;obj -->
<g id="edge2" class="edge"><title>instance&#45;&gt;obj</title>
<path fill="none" stroke="black" d="M123.876,-223.955C131.607,-220.121 140.243,-215.837 149.247,-211.371"/>
<polygon fill="black" stroke="black" points="150.615,-213.818 156.538,-207.755 148.126,-208.801 150.615,-213.818"/>
</g>
</g>
</svg>
