<?xml version="1.0" encoding="UTF-8" standalone="no"?>
<!DOCTYPE svg PUBLIC "-//W3C//DTD SVG 1.1//EN"
 "http://www.w3.org/Graphics/SVG/1.1/DTD/svg11.dtd">
<!-- Generated by graphviz version 2.38.0 (20140413.2041)
 -->
<!-- Pages: 1 -->
<svg width="785pt" height="260pt"
 viewBox="0.00 0.00 785.00 260.00" xmlns="http://www.w3.org/2000/svg" xmlns:xlink="http://www.w3.org/1999/xlink">
<g id="graph0" class="graph" transform="scale(1 1) rotate(0) translate(4 256)">
<polygon fill="white" stroke="none" points="-4,4 -4,-256 781,-256 781,4 -4,4"/>
<!-- ShaderArchive -->
<g id="node1" class="node"><title>ShaderArchive</title>
<polygon fill="lavender" stroke="black" points="417,-252 280,-252 280,-216 417,-216 417,-252"/>
<text text-anchor="middle" x="348.5" y="-236.6" font-family="Verdana" font-size="8.00">Shader Archive</text>
<text text-anchor="middle" x="348.5" y="-227.6" font-family="Verdana" font-size="8.00">nn::g3d::ResShaderArchive</text>
</g>
<!-- ShadingModel0 -->
<g id="node2" class="node"><title>ShadingModel0</title>
<polygon fill="#ffe1ff" stroke="black" points="296,-180 163,-180 163,-144 296,-144 296,-180"/>
<text text-anchor="middle" x="229.5" y="-164.6" font-family="Verdana" font-size="8.00">Shading Model</text>
<text text-anchor="middle" x="229.5" y="-155.6" font-family="Verdana" font-size="8.00">nn::g3d::ResShadingModel</text>
</g>
<!-- ShaderArchive&#45;&gt;ShadingModel0 -->
<g id="edge1" class="edge"><title>ShaderArchive&#45;&gt;ShadingModel0</title>
<path fill="none" stroke="black" d="M319.389,-215.876C303.254,-206.385 283.042,-194.496 265.874,-184.396"/>
<polygon fill="black" stroke="black" points="267.038,-181.833 258.723,-180.19 264.198,-186.659 267.038,-181.833"/>
</g>
<!-- ShadingModel1 -->
<g id="node3" class="node"><title>ShadingModel1</title>
<polygon fill="#ffe1ff" stroke="black" points="534,-180 401,-180 401,-144 534,-144 534,-180"/>
<text text-anchor="middle" x="467.5" y="-164.6" font-family="Verdana" font-size="8.00">Shading Model</text>
<text text-anchor="middle" x="467.5" y="-155.6" font-family="Verdana" font-size="8.00">nn::g3d::ResShadingModel</text>
</g>
<!-- ShaderArchive&#45;&gt;ShadingModel1 -->
<g id="edge2" class="edge"><title>ShaderArchive&#45;&gt;ShadingModel1</title>
<path fill="none" stroke="black" d="M377.611,-215.876C393.746,-206.385 413.958,-194.496 431.126,-184.396"/>
<polygon fill="black" stroke="black" points="432.802,-186.659 438.277,-180.19 429.962,-181.833 432.802,-186.659"/>
</g>
<!-- ShaderProgram00 -->
<g id="node4" class="node"><title>ShaderProgram00</title>
<polygon fill="lightpink" stroke="black" points="141,-108 0,-108 0,-72 141,-72 141,-108"/>
<text text-anchor="middle" x="70.5" y="-92.6" font-family="Verdana" font-size="8.00">Shader Program</text>
<text text-anchor="middle" x="70.5" y="-83.6" font-family="Verdana" font-size="8.00">nn::g3d::ResShaderProgram</text>
</g>
<!-- ShadingModel0&#45;&gt;ShaderProgram00 -->
<g id="edge3" class="edge"><title>ShadingModel0&#45;&gt;ShaderProgram00</title>
<path fill="none" stroke="black" d="M190.604,-143.876C168.288,-134.051 140.138,-121.658 116.7,-111.34"/>
<polygon fill="black" stroke="black" points="117.72,-108.729 109.269,-108.068 115.463,-113.854 117.72,-108.729"/>
</g>
<!-- ShaderProgram01 -->
<g id="node5" class="node"><title>ShaderProgram01</title>
<polygon fill="lightpink" stroke="black" points="300,-108 159,-108 159,-72 300,-72 300,-108"/>
<text text-anchor="middle" x="229.5" y="-92.6" font-family="Verdana" font-size="8.00">Shader Program</text>
<text text-anchor="middle" x="229.5" y="-83.6" font-family="Verdana" font-size="8.00">nn::g3d::ResShaderProgram</text>
</g>
<!-- ShadingModel0&#45;&gt;ShaderProgram01 -->
<g id="edge4" class="edge"><title>ShadingModel0&#45;&gt;ShaderProgram01</title>
<path fill="none" stroke="black" d="M229.5,-143.697C229.5,-135.389 229.5,-125.277 229.5,-116.141"/>
<polygon fill="black" stroke="black" points="232.3,-116.104 229.5,-108.104 226.7,-116.104 232.3,-116.104"/>
</g>
<!-- ShaderProgram02 -->
<g id="node6" class="node"><title>ShaderProgram02</title>
<polygon fill="lightpink" stroke="black" points="459,-108 318,-108 318,-72 459,-72 459,-108"/>
<text text-anchor="middle" x="388.5" y="-92.6" font-family="Verdana" font-size="8.00">Shader Program</text>
<text text-anchor="middle" x="388.5" y="-83.6" font-family="Verdana" font-size="8.00">nn::g3d::ResShaderProgram</text>
</g>
<!-- ShadingModel1&#45;&gt;ShaderProgram02 -->
<g id="edge5" class="edge"><title>ShadingModel1&#45;&gt;ShaderProgram02</title>
<path fill="none" stroke="black" d="M447.972,-143.697C437.736,-134.626 425.071,-123.404 414.063,-113.65"/>
<polygon fill="black" stroke="black" points="415.648,-111.314 407.803,-108.104 411.934,-115.506 415.648,-111.314"/>
</g>
<!-- ShaderProgram10 -->
<g id="node7" class="node"><title>ShaderProgram10</title>
<polygon fill="lightpink" stroke="black" points="618,-108 477,-108 477,-72 618,-72 618,-108"/>
<text text-anchor="middle" x="547.5" y="-92.6" font-family="Verdana" font-size="8.00">Shader Program</text>
<text text-anchor="middle" x="547.5" y="-83.6" font-family="Verdana" font-size="8.00">nn::g3d::ResShaderProgram</text>
</g>
<!-- ShadingModel1&#45;&gt;ShaderProgram10 -->
<g id="edge6" class="edge"><title>ShadingModel1&#45;&gt;ShaderProgram10</title>
<path fill="none" stroke="black" d="M487.275,-143.697C497.738,-134.542 510.706,-123.195 521.926,-113.377"/>
<polygon fill="black" stroke="black" points="523.775,-115.48 527.952,-108.104 520.088,-111.265 523.775,-115.48"/>
</g>
<!-- ShaderProgram11 -->
<g id="node8" class="node"><title>ShaderProgram11</title>
<polygon fill="lightpink" stroke="black" points="777,-108 636,-108 636,-72 777,-72 777,-108"/>
<text text-anchor="middle" x="706.5" y="-92.6" font-family="Verdana" font-size="8.00">Shader Program</text>
<text text-anchor="middle" x="706.5" y="-83.6" font-family="Verdana" font-size="8.00">nn::g3d::ResShaderProgram</text>
</g>
<!-- ShadingModel1&#45;&gt;ShaderProgram11 -->
<g id="edge7" class="edge"><title>ShadingModel1&#45;&gt;ShaderProgram11</title>
<path fill="none" stroke="black" d="M525.66,-143.966C560.216,-133.845 604.159,-120.974 640.075,-110.455"/>
<polygon fill="black" stroke="black" points="641.188,-113.047 648.079,-108.111 639.614,-107.672 641.188,-113.047"/>
</g>
<!-- ShaderVariation00 -->
<g id="node9" class="node"><title>ShaderVariation00</title>
<polygon fill="lightpink" stroke="black" points="140.5,-36 0.5,-36 0.5,-0 140.5,-0 140.5,-36"/>
<text text-anchor="middle" x="70.5" y="-20.6" font-family="Verdana" font-size="8.00">Shader Variation</text>
<text text-anchor="middle" x="70.5" y="-11.6" font-family="Verdana" font-size="8.00">nn::gfx::ResShaderVariation</text>
</g>
<!-- ShaderProgram00&#45;&gt;ShaderVariation00 -->
<g id="edge8" class="edge"><title>ShaderProgram00&#45;&gt;ShaderVariation00</title>
<path fill="none" stroke="black" d="M70.5,-71.6966C70.5,-60.8463 70.5,-46.9167 70.5,-36.1043"/>
</g>
<!-- ShaderVariation01 -->
<g id="node10" class="node"><title>ShaderVariation01</title>
<polygon fill="lightpink" stroke="black" points="299.5,-36 159.5,-36 159.5,-0 299.5,-0 299.5,-36"/>
<text text-anchor="middle" x="229.5" y="-20.6" font-family="Verdana" font-size="8.00">Shader Variation</text>
<text text-anchor="middle" x="229.5" y="-11.6" font-family="Verdana" font-size="8.00">nn::gfx::ResShaderVariation</text>
</g>
<!-- ShaderProgram01&#45;&gt;ShaderVariation01 -->
<g id="edge9" class="edge"><title>ShaderProgram01&#45;&gt;ShaderVariation01</title>
<path fill="none" stroke="black" d="M229.5,-71.6966C229.5,-60.8463 229.5,-46.9167 229.5,-36.1043"/>
</g>
<!-- ShaderVariation02 -->
<g id="node11" class="node"><title>ShaderVariation02</title>
<polygon fill="lightpink" stroke="black" points="458.5,-36 318.5,-36 318.5,-0 458.5,-0 458.5,-36"/>
<text text-anchor="middle" x="388.5" y="-20.6" font-family="Verdana" font-size="8.00">Shader Variation</text>
<text text-anchor="middle" x="388.5" y="-11.6" font-family="Verdana" font-size="8.00">nn::gfx::ResShaderVariation</text>
</g>
<!-- ShaderProgram02&#45;&gt;ShaderVariation02 -->
<g id="edge10" class="edge"><title>ShaderProgram02&#45;&gt;ShaderVariation02</title>
<path fill="none" stroke="black" d="M388.5,-71.6966C388.5,-60.8463 388.5,-46.9167 388.5,-36.1043"/>
</g>
<!-- ShaderVariation10 -->
<g id="node12" class="node"><title>ShaderVariation10</title>
<polygon fill="lightpink" stroke="black" points="617.5,-36 477.5,-36 477.5,-0 617.5,-0 617.5,-36"/>
<text text-anchor="middle" x="547.5" y="-20.6" font-family="Verdana" font-size="8.00">Shader Variation</text>
<text text-anchor="middle" x="547.5" y="-11.6" font-family="Verdana" font-size="8.00">nn::gfx::ResShaderVariation</text>
</g>
<!-- ShaderProgram10&#45;&gt;ShaderVariation10 -->
<g id="edge11" class="edge"><title>ShaderProgram10&#45;&gt;ShaderVariation10</title>
<path fill="none" stroke="black" d="M547.5,-71.6966C547.5,-60.8463 547.5,-46.9167 547.5,-36.1043"/>
</g>
<!-- ShaderVariation11 -->
<g id="node13" class="node"><title>ShaderVariation11</title>
<polygon fill="lightpink" stroke="black" points="776.5,-36 636.5,-36 636.5,-0 776.5,-0 776.5,-36"/>
<text text-anchor="middle" x="706.5" y="-20.6" font-family="Verdana" font-size="8.00">Shader Variation</text>
<text text-anchor="middle" x="706.5" y="-11.6" font-family="Verdana" font-size="8.00">nn::gfx::ResShaderVariation</text>
</g>
<!-- ShaderProgram11&#45;&gt;ShaderVariation11 -->
<g id="edge12" class="edge"><title>ShaderProgram11&#45;&gt;ShaderVariation11</title>
<path fill="none" stroke="black" d="M706.5,-71.6966C706.5,-60.8463 706.5,-46.9167 706.5,-36.1043"/>
</g>
</g>
</svg>
