<?xml version="1.0" encoding="UTF-8" standalone="no"?>
<!DOCTYPE svg PUBLIC "-//W3C//DTD SVG 1.1//EN"
 "http://www.w3.org/Graphics/SVG/1.1/DTD/svg11.dtd">
<!-- Generated by graphviz version 2.38.0 (20140413.2041)
 -->
<!-- Pages: 1 -->
<svg width="1071pt" height="118pt"
 viewBox="0.00 0.00 1070.50 118.00" xmlns="http://www.w3.org/2000/svg" xmlns:xlink="http://www.w3.org/1999/xlink">
<g id="graph0" class="graph" transform="scale(1 1) rotate(0) translate(4 114)">
<polygon fill="white" stroke="none" points="-4,4 -4,-114 1066.5,-114 1066.5,4 -4,4"/>
<!-- glsl -->
<g id="node1" class="node"><title>glsl</title>
<polygon fill="lightpink" stroke="black" points="97,-38 0,-38 0,-0 97,-0 97,-38"/>
<text text-anchor="middle" x="48.5" y="-26.8" font-family="meiryo" font-size="9.00">Shader source</text>
<text text-anchor="middle" x="48.5" y="-16.8" font-family="meiryo" font-size="9.00">+</text>
<text text-anchor="middle" x="48.5" y="-6.8" font-family="meiryo" font-size="9.00">Shader annotation</text>
</g>
<!-- fsc -->
<g id="node4" class="node"><title>fsc</title>
<polygon fill="#ffe1ff" stroke="black" points="268,-110 59,-110 59,-74 268,-74 268,-110"/>
<text text-anchor="middle" x="163.5" y="-89.8" font-family="meiryo" font-size="9.00">Shader Configuration (FSCA and FSCB) Files</text>
</g>
<!-- glsl&#45;&gt;fsc -->
<g id="edge1" class="edge"><title>glsl&#45;&gt;fsc</title>
<path fill="none" stroke="black" d="M77.8309,-38.1086C95.7089,-49.1464 118.412,-63.1632 135.955,-73.9937"/>
</g>
<!-- glsl2 -->
<g id="node2" class="node"><title>glsl2</title>
<polygon fill="lightpink" stroke="black" points="212,-38 115,-38 115,-0 212,-0 212,-38"/>
<text text-anchor="middle" x="163.5" y="-26.8" font-family="meiryo" font-size="9.00">Shader source</text>
<text text-anchor="middle" x="163.5" y="-16.8" font-family="meiryo" font-size="9.00">+</text>
<text text-anchor="middle" x="163.5" y="-6.8" font-family="meiryo" font-size="9.00">Shader annotation</text>
</g>
<!-- glsl2&#45;&gt;fsc -->
<g id="edge2" class="edge"><title>glsl2&#45;&gt;fsc</title>
<path fill="none" stroke="black" d="M163.5,-38.0196C163.5,-49.0096 163.5,-62.9782 163.5,-73.8129"/>
</g>
<!-- glsl3 -->
<g id="node3" class="node"><title>glsl3</title>
<polygon fill="lightpink" stroke="black" points="327,-38 230,-38 230,-0 327,-0 327,-38"/>
<text text-anchor="middle" x="278.5" y="-26.8" font-family="meiryo" font-size="9.00">Shader source</text>
<text text-anchor="middle" x="278.5" y="-16.8" font-family="meiryo" font-size="9.00">+</text>
<text text-anchor="middle" x="278.5" y="-6.8" font-family="meiryo" font-size="9.00">Shader annotation</text>
</g>
<!-- glsl3&#45;&gt;fsc -->
<g id="edge3" class="edge"><title>glsl3&#45;&gt;fsc</title>
<path fill="none" stroke="black" d="M249.169,-38.1086C231.291,-49.1464 208.588,-63.1632 191.045,-73.9937"/>
</g>
<!-- g3dconverter1 -->
<g id="node8" class="node"><title>g3dconverter1</title>
<ellipse fill="none" stroke="black" stroke-dasharray="5,2" cx="392.5" cy="-92" rx="106.143" ry="18"/>
<text text-anchor="middle" x="392.5" y="-90.1" font-family="meiryo" font-size="8.00">Converted using the 3D Shader Converter</text>
</g>
<!-- fsc&#45;&gt;g3dconverter1 -->
<g id="edge4" class="edge"><title>fsc&#45;&gt;g3dconverter1</title>
<path fill="none" stroke="black" d="M268.16,-92C271.436,-92 274.712,-92 277.988,-92"/>
<polygon fill="black" stroke="black" points="278.131,-94.8001 286.131,-92 278.131,-89.2001 278.131,-94.8001"/>
</g>
<!-- fsd -->
<g id="node5" class="node"><title>fsd</title>
<polygon fill="#ffe1ff" stroke="black" points="660.5,-110 516.5,-110 516.5,-74 660.5,-74 660.5,-110"/>
<text text-anchor="middle" x="588.5" y="-89.8" font-family="meiryo" font-size="9.00">Shader Definition (FSDB) File</text>
</g>
<!-- g3dconverter2 -->
<g id="node9" class="node"><title>g3dconverter2</title>
<ellipse fill="none" stroke="black" stroke-dasharray="5,2" cx="784.5" cy="-92" rx="106.143" ry="18"/>
<text text-anchor="middle" x="784.5" y="-90.1" font-family="meiryo" font-size="8.00">Converted using the 3D Shader Converter</text>
</g>
<!-- fsd&#45;&gt;g3dconverter2 -->
<g id="edge6" class="edge"><title>fsd&#45;&gt;g3dconverter2</title>
<path fill="none" stroke="black" d="M660.852,-92C663.931,-92 667.01,-92 670.089,-92"/>
<polygon fill="black" stroke="black" points="670.24,-94.8001 678.24,-92 670.24,-89.2001 670.24,-94.8001"/>
</g>
<!-- fsv -->
<g id="node6" class="node"><title>fsv</title>
<polygon fill="#ffe1ff" stroke="black" points="878.5,-37 690.5,-37 690.5,-1 878.5,-1 878.5,-37"/>
<text text-anchor="middle" x="784.5" y="-16.8" font-family="meiryo" font-size="9.00">Shader variation files (FSVA and FSVB)</text>
</g>
<!-- fsv&#45;&gt;g3dconverter2 -->
<g id="edge7" class="edge"><title>fsv&#45;&gt;g3dconverter2</title>
<path fill="none" stroke="black" d="M784.5,-37.0288C784.5,-45.6382 784.5,-56.2566 784.5,-65.791"/>
<polygon fill="black" stroke="black" points="781.7,-65.8128 784.5,-73.8129 787.3,-65.8129 781.7,-65.8128"/>
</g>
<!-- bfsha -->
<g id="node7" class="node"><title>bfsha</title>
<polygon fill="lavender" stroke="black" points="1062.5,-110 908.5,-110 908.5,-74 1062.5,-74 1062.5,-110"/>
<text text-anchor="middle" x="985.5" y="-89.8" font-family="meiryo" font-size="9.00">Shader archive file (BFSHA file)</text>
</g>
<!-- g3dconverter1&#45;&gt;fsd -->
<g id="edge5" class="edge"><title>g3dconverter1&#45;&gt;fsd</title>
<path fill="none" stroke="black" d="M498.922,-92C502.02,-92 505.118,-92 508.216,-92"/>
<polygon fill="black" stroke="black" points="508.418,-94.8001 516.418,-92 508.418,-89.2001 508.418,-94.8001"/>
</g>
<!-- g3dconverter2&#45;&gt;bfsha -->
<g id="edge8" class="edge"><title>g3dconverter2&#45;&gt;bfsha</title>
<path fill="none" stroke="black" d="M890.889,-92C893.965,-92 897.041,-92 900.117,-92"/>
<polygon fill="black" stroke="black" points="900.259,-94.8001 908.259,-92 900.259,-89.2001 900.259,-94.8001"/>
</g>
</g>
</svg>
