<?xml version="1.0" encoding="UTF-8" standalone="no"?>
<!DOCTYPE svg PUBLIC "-//W3C//DTD SVG 1.1//EN"
 "http://www.w3.org/Graphics/SVG/1.1/DTD/svg11.dtd">
<!-- Generated by graphviz version 2.38.0 (20140413.2041)
 -->
<!-- Pages: 1 -->
<svg width="563pt" height="555pt"
 viewBox="0.00 0.00 563.00 555.00" xmlns="http://www.w3.org/2000/svg" xmlns:xlink="http://www.w3.org/1999/xlink">
<g id="graph0" class="graph" transform="scale(1 1) rotate(0) translate(4 551)">
<polygon fill="white" stroke="none" points="-4,4 -4,-551 559,-551 559,4 -4,4"/>
<!-- DescriptorPool -->
<g id="node1" class="node"><title>DescriptorPool</title>
<ellipse fill="lightyellow" stroke="blue" cx="161.979" cy="-298.182" rx="49.1497" ry="18"/>
<text text-anchor="middle" x="161.979" y="-295.982" font-family="Verdana" font-size="9.00">DescriptorPool</text>
</g>
<!-- DescriptorSlot -->
<g id="node2" class="node"><title>DescriptorSlot</title>
<ellipse fill="lightyellow" stroke="blue" cx="204.555" cy="-251.87" rx="47.8403" ry="18"/>
<text text-anchor="middle" x="204.555" y="-249.67" font-family="Verdana" font-size="9.00">DescriptorSlot</text>
</g>
<!-- DescriptorPool&#45;&gt;DescriptorSlot -->
<g id="edge2" class="edge"><title>DescriptorPool&#45;&gt;DescriptorSlot</title>
<path fill="none" stroke="black" d="M177.833,-280.937C179.63,-278.983 181.482,-276.968 183.333,-274.954"/>
<polygon fill="black" stroke="black" points="185.477,-276.759 188.83,-268.975 181.354,-272.969 185.477,-276.759"/>
</g>
<!-- CommandBuffer -->
<g id="node4" class="node"><title>CommandBuffer</title>
<ellipse fill="lightyellow" stroke="black" cx="323.929" cy="-292.807" rx="53.2327" ry="18"/>
<text text-anchor="middle" x="323.929" y="-290.607" font-family="Verdana" font-size="9.00">CommandBuffer</text>
</g>
<!-- DescriptorPool&#45;&gt;CommandBuffer -->
<g id="edge3" class="edge"><title>DescriptorPool&#45;&gt;CommandBuffer</title>
<path fill="none" stroke="black" d="M211.009,-296.555C227.25,-296.016 245.533,-295.409 262.581,-294.843"/>
<polygon fill="black" stroke="black" points="262.934,-297.633 270.837,-294.569 262.748,-292.036 262.934,-297.633"/>
</g>
<!-- DescriptorSlot&#45;&gt;CommandBuffer -->
<g id="edge4" class="edge"><title>DescriptorSlot&#45;&gt;CommandBuffer</title>
<path fill="none" stroke="black" d="M240.048,-264.041C252.114,-268.179 265.768,-272.861 278.502,-277.228"/>
<polygon fill="black" stroke="black" points="277.813,-279.952 286.289,-279.899 279.63,-274.655 277.813,-279.952"/>
</g>
<!-- Pipeline -->
<g id="node3" class="node"><title>Pipeline</title>
<ellipse fill="lightyellow" stroke="blue" cx="359.275" cy="-156.242" rx="30.6995" ry="18"/>
<text text-anchor="middle" x="359.275" y="-154.042" font-family="Verdana" font-size="9.00">Pipeline</text>
</g>
<!-- Pipeline&#45;&gt;CommandBuffer -->
<g id="edge14" class="edge"><title>Pipeline&#45;&gt;CommandBuffer</title>
<path fill="none" stroke="black" d="M354.654,-174.096C348.549,-197.683 337.749,-239.411 330.716,-266.584"/>
<polygon fill="black" stroke="black" points="327.958,-266.067 328.664,-274.513 333.379,-267.47 327.958,-266.067"/>
</g>
<!-- Queue -->
<g id="node5" class="node"><title>Queue</title>
<ellipse fill="lightyellow" stroke="black" cx="352.63" cy="-434.826" rx="27.9273" ry="18"/>
<text text-anchor="middle" x="352.63" y="-432.626" font-family="Verdana" font-size="9.00">Queue</text>
</g>
<!-- CommandBuffer&#45;&gt;Queue -->
<g id="edge1" class="edge"><title>CommandBuffer&#45;&gt;Queue</title>
<path fill="none" stroke="black" d="M327.564,-310.793C332.561,-335.521 341.586,-380.18 347.334,-408.623"/>
<polygon fill="black" stroke="black" points="344.604,-409.25 348.934,-416.537 350.093,-408.141 344.604,-409.25"/>
</g>
<!-- Buffer -->
<g id="node6" class="node"><title>Buffer</title>
<ellipse fill="lightyellow" stroke="black" cx="80.2316" cy="-376.856" rx="27" ry="18"/>
<text text-anchor="middle" x="80.2316" y="-374.656" font-family="Verdana" font-size="9.00">Buffer</text>
</g>
<!-- Buffer&#45;&gt;DescriptorPool -->
<g id="edge5" class="edge"><title>Buffer&#45;&gt;DescriptorPool</title>
<path fill="none" stroke="black" d="M95.6078,-362.058C107.64,-350.478 124.581,-334.174 138.335,-320.937"/>
<polygon fill="black" stroke="black" points="140.579,-322.664 144.402,-315.099 136.696,-318.629 140.579,-322.664"/>
</g>
<!-- TextureView -->
<g id="node7" class="node"><title>TextureView</title>
<ellipse fill="lightyellow" stroke="black" cx="43.7881" cy="-240.785" rx="43.1034" ry="18"/>
<text text-anchor="middle" x="43.7881" y="-238.585" font-family="Verdana" font-size="9.00">TextureView</text>
</g>
<!-- TextureView&#45;&gt;DescriptorPool -->
<g id="edge6" class="edge"><title>TextureView&#45;&gt;DescriptorPool</title>
<path fill="none" stroke="black" d="M72.0979,-254.533C87.8511,-262.183 107.654,-271.8 124.659,-280.058"/>
<polygon fill="black" stroke="black" points="123.832,-282.769 132.251,-283.745 126.278,-277.732 123.832,-282.769"/>
</g>
<!-- Sampler -->
<g id="node8" class="node"><title>Sampler</title>
<ellipse fill="lightyellow" stroke="black" cx="44.6558" cy="-316.619" rx="31.5104" ry="18"/>
<text text-anchor="middle" x="44.6558" y="-314.419" font-family="Verdana" font-size="9.00">Sampler</text>
</g>
<!-- Sampler&#45;&gt;DescriptorPool -->
<g id="edge7" class="edge"><title>Sampler&#45;&gt;DescriptorPool</title>
<path fill="none" stroke="black" d="M75.4812,-311.775C85.6428,-310.178 97.2551,-308.353 108.602,-306.57"/>
<polygon fill="black" stroke="black" points="109.324,-309.291 116.792,-305.283 108.454,-303.759 109.324,-309.291"/>
</g>
<!-- Shader -->
<g id="node9" class="node"><title>Shader</title>
<ellipse fill="lightyellow" stroke="black" cx="319.307" cy="-63.6028" rx="28.7356" ry="18"/>
<text text-anchor="middle" x="319.307" y="-61.4028" font-family="Verdana" font-size="9.00">Shader</text>
</g>
<!-- Shader&#45;&gt;Pipeline -->
<g id="edge8" class="edge"><title>Shader&#45;&gt;Pipeline</title>
<path fill="none" stroke="black" d="M326.825,-81.0276C332.927,-95.1709 341.611,-115.298 348.46,-131.174"/>
<polygon fill="black" stroke="black" points="345.915,-132.344 351.655,-138.581 351.057,-130.126 345.915,-132.344"/>
</g>
<!-- RasterizerState -->
<g id="node10" class="node"><title>RasterizerState</title>
<ellipse fill="lightyellow" stroke="black" cx="447.821" cy="-61.7925" rx="51.9231" ry="18"/>
<text text-anchor="middle" x="447.821" y="-59.5925" font-family="Verdana" font-size="9.00">RasterizerState</text>
</g>
<!-- RasterizerState&#45;&gt;Pipeline -->
<g id="edge9" class="edge"><title>RasterizerState&#45;&gt;Pipeline</title>
<path fill="none" stroke="black" d="M431.58,-79.1161C416.995,-94.6734 395.516,-117.585 379.757,-134.395"/>
<polygon fill="black" stroke="black" points="377.662,-132.536 374.233,-140.287 381.747,-136.366 377.662,-132.536"/>
</g>
<!-- BlendState -->
<g id="node11" class="node"><title>BlendState</title>
<ellipse fill="lightyellow" stroke="black" cx="458.092" cy="-108.092" rx="39.0211" ry="18"/>
<text text-anchor="middle" x="458.092" y="-105.892" font-family="Verdana" font-size="9.00">BlendState</text>
</g>
<!-- BlendState&#45;&gt;Pipeline -->
<g id="edge10" class="edge"><title>BlendState&#45;&gt;Pipeline</title>
<path fill="none" stroke="black" d="M431.09,-121.249C418.479,-127.394 403.397,-134.743 390.317,-141.117"/>
<polygon fill="black" stroke="black" points="388.847,-138.718 382.882,-144.74 391.3,-143.753 388.847,-138.718"/>
</g>
<!-- DepthStencilState -->
<g id="node12" class="node"><title>DepthStencilState</title>
<ellipse fill="lightyellow" stroke="black" cx="353.315" cy="-17.7204" rx="58.1254" ry="18"/>
<text text-anchor="middle" x="353.315" y="-15.5204" font-family="Verdana" font-size="9.00">DepthStencilState</text>
</g>
<!-- DepthStencilState&#45;&gt;Pipeline -->
<g id="edge11" class="edge"><title>DepthStencilState&#45;&gt;Pipeline</title>
<path fill="none" stroke="black" d="M354.094,-35.8297C355.13,-59.8885 356.965,-102.552 358.151,-130.101"/>
<polygon fill="black" stroke="black" points="355.355,-130.256 358.496,-138.129 360.949,-130.016 355.355,-130.256"/>
</g>
<!-- VertexState -->
<g id="node13" class="node"><title>VertexState</title>
<ellipse fill="lightyellow" stroke="black" cx="255.72" cy="-109.133" rx="42.2937" ry="18"/>
<text text-anchor="middle" x="255.72" y="-106.933" font-family="Verdana" font-size="9.00">VertexState</text>
</g>
<!-- VertexState&#45;&gt;Pipeline -->
<g id="edge12" class="edge"><title>VertexState&#45;&gt;Pipeline</title>
<path fill="none" stroke="black" d="M284.842,-122.381C298.167,-128.443 313.986,-135.64 327.607,-141.836"/>
<polygon fill="black" stroke="black" points="326.477,-144.398 334.918,-145.162 328.796,-139.301 326.477,-144.398"/>
</g>
<!-- RenderTargetState -->
<g id="node14" class="node"><title>RenderTargetState</title>
<ellipse fill="lightyellow" stroke="black" cx="493.095" cy="-158.787" rx="61.5538" ry="18"/>
<text text-anchor="middle" x="493.095" y="-156.587" font-family="Verdana" font-size="9.00">RenderTargetState</text>
</g>
<!-- RenderTargetState&#45;&gt;Pipeline -->
<g id="edge13" class="edge"><title>RenderTargetState&#45;&gt;Pipeline</title>
<path fill="none" stroke="black" d="M431.277,-157.612C419.93,-157.396 408.385,-157.176 397.96,-156.978"/>
<polygon fill="black" stroke="black" points="397.917,-154.177 389.865,-156.824 397.81,-159.776 397.917,-154.177"/>
</g>
<!-- ColorTargetView -->
<g id="node15" class="node"><title>ColorTargetView</title>
<ellipse fill="lightyellow" stroke="black" cx="448.045" cy="-368.503" rx="54.697" ry="18"/>
<text text-anchor="middle" x="448.045" y="-366.303" font-family="Verdana" font-size="9.00">ColorTargetView</text>
</g>
<!-- ColorTargetView&#45;&gt;CommandBuffer -->
<g id="edge15" class="edge"><title>ColorTargetView&#45;&gt;CommandBuffer</title>
<path fill="none" stroke="black" d="M422.026,-352.634C403.078,-341.078 377.269,-325.337 356.879,-312.902"/>
<polygon fill="black" stroke="black" points="358.202,-310.429 349.914,-308.654 355.286,-315.21 358.202,-310.429"/>
</g>
<!-- DepthStencilView -->
<g id="node16" class="node"><title>DepthStencilView</title>
<ellipse fill="lightyellow" stroke="black" cx="469.031" cy="-294.58" rx="56.6608" ry="18"/>
<text text-anchor="middle" x="469.031" y="-292.38" font-family="Verdana" font-size="9.00">DepthStencilView</text>
</g>
<!-- DepthStencilView&#45;&gt;CommandBuffer -->
<g id="edge16" class="edge"><title>DepthStencilView&#45;&gt;CommandBuffer</title>
<path fill="none" stroke="black" d="M412.099,-293.884C403.346,-293.777 394.274,-293.666 385.426,-293.558"/>
<polygon fill="black" stroke="black" points="385.414,-290.758 377.38,-293.46 385.345,-296.358 385.414,-290.758"/>
</g>
<!-- ViewportScissorState -->
<g id="node17" class="node"><title>ViewportScissorState</title>
<ellipse fill="lightyellow" stroke="black" cx="283.039" cy="-343.983" rx="67.6" ry="18"/>
<text text-anchor="middle" x="283.039" y="-341.783" font-family="Verdana" font-size="9.00">ViewportScissorState</text>
</g>
<!-- ViewportScissorState&#45;&gt;CommandBuffer -->
<g id="edge17" class="edge"><title>ViewportScissorState&#45;&gt;CommandBuffer</title>
<path fill="none" stroke="black" d="M297.111,-326.371C299.645,-323.2 302.324,-319.847 304.97,-316.535"/>
<polygon fill="black" stroke="black" points="307.163,-318.276 309.97,-310.278 302.788,-314.78 307.163,-318.276"/>
</g>
<!-- SwapChain -->
<g id="node18" class="node"><title>SwapChain</title>
<ellipse fill="lightyellow" stroke="black" cx="288.924" cy="-525.467" rx="40.3292" ry="18"/>
<text text-anchor="middle" x="288.924" y="-523.267" font-family="Verdana" font-size="9.00">SwapChain</text>
</g>
<!-- SwapChain&#45;&gt;Queue -->
<g id="edge18" class="edge"><title>SwapChain&#45;&gt;Queue</title>
<path fill="none" stroke="black" d="M301.207,-507.991C311.178,-493.804 325.325,-473.675 336.258,-458.12"/>
<polygon fill="black" stroke="black" points="338.719,-459.488 341.028,-451.333 334.137,-456.268 338.719,-459.488"/>
</g>
<!-- Fence -->
<g id="node19" class="node"><title>Fence</title>
<ellipse fill="lightyellow" stroke="black" cx="371.331" cy="-529.066" rx="27" ry="18"/>
<text text-anchor="middle" x="371.331" y="-526.866" font-family="Verdana" font-size="9.00">Fence</text>
</g>
<!-- Fence&#45;&gt;Queue -->
<g id="edge19" class="edge"><title>Fence&#45;&gt;Queue</title>
<path fill="none" stroke="black" d="M367.725,-510.896C364.905,-496.685 360.947,-476.739 357.791,-460.836"/>
<polygon fill="black" stroke="black" points="360.528,-460.243 356.224,-452.941 355.035,-461.333 360.528,-460.243"/>
</g>
<!-- Semaphore -->
<g id="node20" class="node"><title>Semaphore</title>
<ellipse fill="lightyellow" stroke="black" cx="449.455" cy="-484.715" rx="40.9837" ry="18"/>
<text text-anchor="middle" x="449.455" y="-482.515" font-family="Verdana" font-size="9.00">Semaphore</text>
</g>
<!-- Semaphore&#45;&gt;Queue -->
<g id="edge20" class="edge"><title>Semaphore&#45;&gt;Queue</title>
<path fill="none" stroke="black" d="M422.741,-470.951C410.013,-464.393 394.763,-456.535 381.741,-449.826"/>
<polygon fill="black" stroke="black" points="382.761,-447.201 374.367,-446.026 380.196,-452.179 382.761,-447.201"/>
</g>
</g>
</svg>
