<?xml version="1.0" encoding="UTF-8" standalone="no"?>
<!DOCTYPE svg PUBLIC "-//W3C//DTD SVG 1.1//EN"
 "http://www.w3.org/Graphics/SVG/1.1/DTD/svg11.dtd">
<!-- Generated by graphviz version 2.38.0 (20140413.2041)
 -->
<!-- Pages: 1 -->
<svg width="419pt" height="582pt"
 viewBox="0.00 0.00 419.12 582.00" xmlns="http://www.w3.org/2000/svg" xmlns:xlink="http://www.w3.org/1999/xlink">
<g id="graph0" class="graph" transform="scale(1 1) rotate(0) translate(4 578)">
<polygon fill="white" stroke="none" points="-4,4 -4,-578 415.116,-578 415.116,4 -4,4"/>
<g id="clust1" class="cluster"><title>cluster_dccTool</title>
<polygon fill="honeydew" stroke="black" stroke-width="0.3" points="118,-363 118,-566 300,-566 300,-363 118,-363"/>
<text text-anchor="middle" x="209" y="-550.8" font-family="Times New Roman,serif" font-size="14.00">DCC Tools</text>
<text text-anchor="middle" x="209" y="-535.8" font-family="Times New Roman,serif" font-size="14.00">(Maya, 3ds Max, Photoshop)</text>
</g>
<g id="clust2" class="cluster"><title>cluster_viewer</title>
<polygon fill="bisque" stroke="black" stroke-width="0.3" points="8,-8 8,-83 348,-83 348,-8 8,-8"/>
<text text-anchor="middle" x="178" y="-15.8" font-family="Times New Roman,serif" font-size="14.00">Game Application</text>
</g>
<!-- ifFromDccPlugin -->
<g id="node1" class="node"><title>ifFromDccPlugin</title>
<polygon fill="lightyellow" stroke="black" stroke-width="0.5" points="291.222,-324 160.425,-324 126.778,-288 257.575,-288 291.222,-324"/>
<text text-anchor="middle" x="209" y="-303.8" font-family="Verdana" font-size="9.00">Intermediate File</text>
</g>
<!-- g3dEditor -->
<g id="node5" class="node"><title>g3dEditor</title>
<polygon fill="white" stroke="black" stroke-width="0.5" points="188.5,-241 131.5,-241 131.5,-205 188.5,-205 188.5,-241"/>
<text text-anchor="middle" x="160" y="-220.8" font-family="Verdana" font-size="9.00">3DEditor</text>
</g>
<!-- ifFromDccPlugin&#45;&gt;g3dEditor -->
<g id="edge3" class="edge"><title>ifFromDccPlugin&#45;&gt;g3dEditor</title>
<path fill="none" stroke="black" d="M180.396,-282.313C176.841,-278.508 173.562,-274.366 171,-270 167.297,-263.688 164.839,-256.195 163.208,-249.11"/>
<polygon fill="black" stroke="black" points="178.49,-284.365 186.148,-287.997 182.426,-280.382 178.49,-284.365"/>
<polygon fill="black" stroke="black" points="165.921,-248.393 161.648,-241.073 160.424,-249.46 165.921,-248.393"/>
<text text-anchor="middle" x="205.5" y="-262" font-family="Times New Roman,serif" font-size="10.00">Editing Materials</text>
</g>
<!-- binaryConverter -->
<g id="node9" class="node"><title>binaryConverter</title>
<polygon fill="white" stroke="black" stroke-width="0.5" points="359.5,-241 240.5,-241 240.5,-205 359.5,-205 359.5,-241"/>
<text text-anchor="middle" x="300" y="-225.8" font-family="Verdana" font-size="9.00">3D Binary Converter </text>
<text text-anchor="middle" x="300" y="-215.8" font-family="Verdana" font-size="9.00">3D Texture Converter</text>
</g>
<!-- ifFromDccPlugin&#45;&gt;binaryConverter -->
<g id="edge5" class="edge"><title>ifFromDccPlugin&#45;&gt;binaryConverter</title>
<path fill="none" stroke="black" d="M228.299,-287.822C241.811,-275.794 260.001,-259.604 274.678,-246.539"/>
<polygon fill="black" stroke="black" points="276.615,-248.564 280.729,-241.153 272.892,-244.381 276.615,-248.564"/>
<text text-anchor="middle" x="270" y="-262" font-family="Times New Roman,serif" font-size="10.00">Input</text>
</g>
<!-- binaryFile -->
<g id="node2" class="node"><title>binaryFile</title>
<polygon fill="lightyellow" stroke="black" stroke-width="0.5" points="411.231,-158 262.921,-158 224.769,-122 373.079,-122 411.231,-158"/>
<text text-anchor="middle" x="318" y="-137.8" font-family="Verdana" font-size="9.00">Personal Resources</text>
</g>
<!-- g3dRead -->
<g id="node7" class="node"><title>g3dRead</title>
<polygon fill="white" stroke="black" stroke-width="0.5" points="340,-75 234,-75 234,-39 340,-39 340,-75"/>
<text text-anchor="middle" x="287" y="-54.8" font-family="Verdana" font-size="9.00">3D Runtime Library</text>
</g>
<!-- binaryFile&#45;&gt;g3dRead -->
<g id="edge7" class="edge"><title>binaryFile&#45;&gt;g3dRead</title>
<path fill="none" stroke="black" d="M311.426,-121.822C307.069,-110.439 301.285,-95.3263 296.44,-82.6649"/>
<polygon fill="black" stroke="black" points="299.039,-81.6239 293.565,-75.1533 293.809,-83.6256 299.039,-81.6239"/>
<text text-anchor="middle" x="314.5" y="-96" font-family="Times New Roman,serif" font-size="10.00">Load</text>
</g>
<!-- dccData -->
<g id="node3" class="node"><title>dccData</title>
<polygon fill="lightyellow" stroke="black" stroke-width="0.5" points="276.278,-520 169.254,-520 141.722,-444 248.746,-444 276.278,-520"/>
<text text-anchor="middle" x="209" y="-489.8" font-family="Verdana" font-size="9.00">3D Models</text>
<text text-anchor="middle" x="209" y="-479.8" font-family="Verdana" font-size="9.00">Texture</text>
<text text-anchor="middle" x="209" y="-469.8" font-family="Verdana" font-size="9.00">Animation</text>
</g>
<!-- dccPlugin -->
<g id="node4" class="node"><title>dccPlugin</title>
<polygon fill="white" stroke="black" stroke-width="0.5" points="248.5,-407 169.5,-407 169.5,-371 248.5,-371 248.5,-407"/>
<text text-anchor="middle" x="209" y="-386.8" font-family="Verdana" font-size="9.00">DCC Plug&#45;Ins</text>
</g>
<!-- dccData&#45;&gt;dccPlugin -->
<g id="edge1" class="edge"><title>dccData&#45;&gt;dccPlugin</title>
<path fill="none" stroke="black" d="M209,-443.987C209,-434.292 209,-424.063 209,-415.148"/>
<polygon fill="black" stroke="black" points="211.8,-415.063 209,-407.063 206.2,-415.063 211.8,-415.063"/>
</g>
<!-- dccPlugin&#45;&gt;ifFromDccPlugin -->
<g id="edge2" class="edge"><title>dccPlugin&#45;&gt;ifFromDccPlugin</title>
<path fill="none" stroke="black" d="M209,-370.822C209,-359.653 209,-344.895 209,-332.384"/>
<polygon fill="black" stroke="black" points="211.8,-332.153 209,-324.153 206.2,-332.153 211.8,-332.153"/>
<text text-anchor="middle" x="222" y="-345" font-family="Times New Roman,serif" font-size="10.00">Export</text>
</g>
<!-- preview -->
<g id="node6" class="node"><title>preview</title>
<polygon fill="white" stroke="black" stroke-width="0.5" points="216,-75 132,-75 132,-39 216,-39 216,-75"/>
<text text-anchor="middle" x="174" y="-54.8" font-family="Verdana" font-size="9.00">Viewer Library</text>
</g>
<!-- g3dEditor&#45;&gt;preview -->
<g id="edge4" class="edge"><title>g3dEditor&#45;&gt;preview</title>
<path fill="none" stroke="black" d="M154.589,-196.785C151.045,-176.477 147.781,-147.252 152,-122 154.218,-108.724 158.857,-94.5131 163.305,-82.863"/>
<polygon fill="black" stroke="black" points="151.885,-197.555 156.105,-204.905 157.39,-196.527 151.885,-197.555"/>
<polygon fill="black" stroke="black" points="165.978,-83.7185 166.323,-75.2497 160.772,-81.6552 165.978,-83.7185"/>
<text text-anchor="middle" x="184" y="-137.5" font-family="Times New Roman,serif" font-size="10.00">In&#45;Game Editing</text>
</g>
<!-- miiHelper -->
<g id="node8" class="node"><title>miiHelper</title>
<polygon fill="white" stroke="black" stroke-width="0.5" points="114,-75 16,-75 16,-39 114,-39 114,-75"/>
<text text-anchor="middle" x="65" y="-54.8" font-family="Verdana" font-size="9.00">Mii Helper Library</text>
</g>
<!-- binaryConverter&#45;&gt;binaryFile -->
<g id="edge6" class="edge"><title>binaryConverter&#45;&gt;binaryFile</title>
<path fill="none" stroke="black" d="M303.817,-204.822C306.323,-193.546 309.642,-178.611 312.439,-166.024"/>
<polygon fill="black" stroke="black" points="315.186,-166.57 314.188,-158.153 309.719,-165.355 315.186,-166.57"/>
<text text-anchor="middle" x="340" y="-179" font-family="Times New Roman,serif" font-size="10.00">Predictive Text</text>
</g>
</g>
</svg>
