<?xml version="1.0" encoding="UTF-8" standalone="no"?>
<!DOCTYPE svg PUBLIC "-//W3C//DTD SVG 1.1//EN"
 "http://www.w3.org/Graphics/SVG/1.1/DTD/svg11.dtd">
<!-- Generated by graphviz version 2.38.0 (20140413.2041)
 -->
<!-- Pages: 1 -->
<svg width="734pt" height="354pt"
 viewBox="0.00 0.00 734.06 354.00" xmlns="http://www.w3.org/2000/svg" xmlns:xlink="http://www.w3.org/1999/xlink">
<g id="graph0" class="graph" transform="scale(1 1) rotate(0) translate(4 350)">
<polygon fill="white" stroke="none" points="-4,4 -4,-350 730.056,-350 730.056,4 -4,4"/>
<g id="clust1" class="cluster"><title>cluster_shape</title>
<polygon fill="none" stroke="orange" stroke-dasharray="5,2" points="305.528,-228 305.528,-302 427.528,-302 427.528,-228 305.528,-228"/>
<text text-anchor="middle" x="366.528" y="-288.4" font-family="Times New Roman,serif" font-size="12.00" fill="orange">Layer for Shapes</text>
</g>
<g id="clust2" class="cluster"><title>cluster_mesh</title>
<polygon fill="none" stroke="forestgreen" stroke-dasharray="5,2" points="242.528,-146 242.528,-220 488.528,-220 488.528,-146 242.528,-146"/>
<text text-anchor="middle" x="365.528" y="-206.4" font-family="Times New Roman,serif" font-size="12.00" fill="forestgreen">Layer for LOD Models</text>
</g>
<g id="clust3" class="cluster"><title>cluster_submesh</title>
<polygon fill="none" stroke="dodgerblue" stroke-dasharray="5,2" points="41.5278,-64 41.5278,-138 687.528,-138 687.528,-64 41.5278,-64"/>
<text text-anchor="middle" x="364.528" y="-124.4" font-family="Times New Roman,serif" font-size="12.00" fill="dodgerblue">Smallest Rendering Unit</text>
</g>
<!-- Model -->
<g id="node1" class="node"><title>Model</title>
<polygon fill="aliceblue" stroke="#c1cdcd" points="393.528,-346 339.528,-346 339.528,-310 393.528,-310 393.528,-346"/>
<text text-anchor="middle" x="366.528" y="-325.8" font-family="Verdana" font-size="9.00">Model</text>
</g>
<!-- Shape0 -->
<g id="node2" class="node"><title>Shape0</title>
<polygon fill="lightyellow" stroke="orange" points="313.528,-236.5 313.528,-272.5 419.528,-272.5 419.528,-236.5 313.528,-236.5"/>
<text text-anchor="middle" x="338.528" y="-252.3" font-family="hiragino" font-size="9.00">Shape 0</text>
<polyline fill="none" stroke="orange" points="363.528,-236.5 363.528,-272.5 "/>
<text text-anchor="middle" x="391.528" y="-252.3" font-family="hiragino" font-size="9.00">Shape 1..</text>
</g>
<!-- Model&#45;&gt;Shape0 -->
<g id="edge1" class="edge"><title>Model&#45;&gt;Shape0</title>
<path fill="none" stroke="black" d="M366.528,-309.692C366.528,-298.45 366.528,-283.858 366.528,-272.649"/>
<text text-anchor="middle" x="355.528" y="-276.449" font-family="Times New Roman,serif" font-size="14.00" fill="orange">0..*</text>
<text text-anchor="middle" x="363.028" y="-298.492" font-family="Times New Roman,serif" font-size="14.00" fill="orange">1</text>
</g>
<!-- Mesh0 -->
<g id="node3" class="node"><title>Mesh0</title>
<polygon fill="#c1ffc1" stroke="forestgreen" points="374.528,-154.5 374.528,-190.5 480.528,-190.5 480.528,-154.5 374.528,-154.5"/>
<text text-anchor="middle" x="399.528" y="-170.3" font-family="Verdana" font-size="9.00">Mesh 0</text>
<polyline fill="none" stroke="forestgreen" points="424.528,-154.5 424.528,-190.5 "/>
<text text-anchor="middle" x="452.528" y="-170.3" font-family="Verdana" font-size="9.00">Mesh 1..</text>
</g>
<!-- Shape0&#45;&gt;Mesh0 -->
<g id="edge2" class="edge"><title>Shape0:portR&#45;&gt;Mesh0</title>
<path fill="none" stroke="black" d="M391.528,-235.5C391.528,-218.697 401.539,-202.374 411.003,-190.698"/>
<text text-anchor="middle" x="422.003" y="-194.498" font-family="Times New Roman,serif" font-size="14.00" fill="orange">1..*</text>
<text text-anchor="middle" x="388.028" y="-224.3" font-family="Times New Roman,serif" font-size="14.00" fill="orange">1</text>
</g>
<!-- Mesh1 -->
<g id="node4" class="node"><title>Mesh1</title>
<polygon fill="#c1ffc1" stroke="forestgreen" points="250.528,-154.5 250.528,-190.5 356.528,-190.5 356.528,-154.5 250.528,-154.5"/>
<text text-anchor="middle" x="275.528" y="-170.3" font-family="Verdana" font-size="9.00">Mesh 0</text>
<polyline fill="none" stroke="forestgreen" points="300.528,-154.5 300.528,-190.5 "/>
<text text-anchor="middle" x="328.528" y="-170.3" font-family="Verdana" font-size="9.00">Mesh 1..</text>
</g>
<!-- Shape0&#45;&gt;Mesh1 -->
<g id="edge3" class="edge"><title>Shape0:portL&#45;&gt;Mesh1</title>
<path fill="none" stroke="black" d="M338.528,-235.5C338.528,-218.69 328.65,-202.242 319.389,-190.516"/>
<text text-anchor="middle" x="308.389" y="-194.316" font-family="Times New Roman,serif" font-size="14.00" fill="orange">1..*</text>
<text text-anchor="middle" x="335.028" y="-224.3" font-family="Times New Roman,serif" font-size="14.00" fill="orange">1</text>
</g>
<!-- Submesh0 -->
<g id="node5" class="node"><title>Submesh0</title>
<polygon fill="#cae1ff" stroke="dodgerblue" points="535.528,-72.5 535.528,-108.5 679.528,-108.5 679.528,-72.5 535.528,-72.5"/>
<text text-anchor="middle" x="570.028" y="-88.3" font-family="Verdana" font-size="9.00">Submesh 0</text>
<polyline fill="none" stroke="dodgerblue" points="604.528,-72.5 604.528,-108.5 "/>
<text text-anchor="middle" x="642.028" y="-88.3" font-family="Verdana" font-size="9.00">Submesh 1..</text>
</g>
<!-- Mesh0&#45;&gt;Submesh0 -->
<g id="edge4" class="edge"><title>Mesh0:portR&#45;&gt;Submesh0</title>
<path fill="none" stroke="black" d="M481.528,-172.5C528.337,-172.5 571.613,-132.455 593.183,-108.678"/>
<text text-anchor="middle" x="604.183" y="-112.478" font-family="Times New Roman,serif" font-size="14.00" fill="orange">1..*</text>
<text text-anchor="middle" x="485.028" y="-176.3" font-family="Times New Roman,serif" font-size="14.00" fill="orange">1</text>
</g>
<!-- Submesh1 -->
<g id="node6" class="node"><title>Submesh1</title>
<polygon fill="#cae1ff" stroke="dodgerblue" points="373.528,-72.5 373.528,-108.5 517.528,-108.5 517.528,-72.5 373.528,-72.5"/>
<text text-anchor="middle" x="408.028" y="-88.3" font-family="Verdana" font-size="9.00">Submesh 0</text>
<polyline fill="none" stroke="dodgerblue" points="442.528,-72.5 442.528,-108.5 "/>
<text text-anchor="middle" x="480.028" y="-88.3" font-family="Verdana" font-size="9.00">Submesh 1..</text>
</g>
<!-- Mesh0&#45;&gt;Submesh1 -->
<g id="edge5" class="edge"><title>Mesh0:portL&#45;&gt;Submesh1</title>
<path fill="none" stroke="black" d="M399.528,-153.5C399.528,-135.808 411.758,-119.877 423.606,-108.595"/>
<text text-anchor="middle" x="434.606" y="-112.395" font-family="Times New Roman,serif" font-size="14.00" fill="orange">1..*</text>
<text text-anchor="middle" x="396.028" y="-142.3" font-family="Times New Roman,serif" font-size="14.00" fill="orange">1</text>
</g>
<!-- Submesh2 -->
<g id="node7" class="node"><title>Submesh2</title>
<polygon fill="#cae1ff" stroke="dodgerblue" points="211.528,-72.5 211.528,-108.5 355.528,-108.5 355.528,-72.5 211.528,-72.5"/>
<text text-anchor="middle" x="246.028" y="-88.3" font-family="Verdana" font-size="9.00">Submesh 0</text>
<polyline fill="none" stroke="dodgerblue" points="280.528,-72.5 280.528,-108.5 "/>
<text text-anchor="middle" x="318.028" y="-88.3" font-family="Verdana" font-size="9.00">Submesh 1..</text>
</g>
<!-- Mesh1&#45;&gt;Submesh2 -->
<g id="edge6" class="edge"><title>Mesh1:portR&#45;&gt;Submesh2</title>
<path fill="none" stroke="black" d="M328.528,-153.5C328.528,-135.944 316.564,-120.008 304.973,-108.69"/>
<text text-anchor="middle" x="293.973" y="-112.49" font-family="Times New Roman,serif" font-size="14.00" fill="orange">1..*</text>
<text text-anchor="middle" x="325.028" y="-142.3" font-family="Times New Roman,serif" font-size="14.00" fill="orange">1</text>
</g>
<!-- Submesh3 -->
<g id="node8" class="node"><title>Submesh3</title>
<polygon fill="#cae1ff" stroke="dodgerblue" points="49.5278,-72.5 49.5278,-108.5 193.528,-108.5 193.528,-72.5 49.5278,-72.5"/>
<text text-anchor="middle" x="84.0278" y="-88.3" font-family="Verdana" font-size="9.00">Submesh 0</text>
<polyline fill="none" stroke="dodgerblue" points="118.528,-72.5 118.528,-108.5 "/>
<text text-anchor="middle" x="156.028" y="-88.3" font-family="Verdana" font-size="9.00">Submesh 1..</text>
</g>
<!-- Mesh1&#45;&gt;Submesh3 -->
<g id="edge7" class="edge"><title>Mesh1:portL&#45;&gt;Submesh3</title>
<path fill="none" stroke="black" d="M249.528,-172.5C202.191,-172.5 158.141,-132.455 136.157,-108.678"/>
<text text-anchor="middle" x="125.157" y="-112.478" font-family="Times New Roman,serif" font-size="14.00" fill="orange">1..*</text>
<text text-anchor="middle" x="246.028" y="-176.3" font-family="Times New Roman,serif" font-size="14.00" fill="orange">1</text>
</g>
<!-- Draw0 -->
<g id="node9" class="node"><title>Draw0</title>
<ellipse fill="lightyellow" stroke="black" cx="688.528" cy="-18" rx="37.5556" ry="18"/>
<text text-anchor="middle" x="688.528" y="-15.8" font-family="Verdana" font-size="9.00">Rendering</text>
</g>
<!-- Submesh0&#45;&gt;Draw0 -->
<g id="edge8" class="edge"><title>Submesh0:portR&#45;&gt;Draw0</title>
<path fill="none" stroke="black" d="M642.528,-71.5C642.528,-58.3781 650.757,-46.9641 660.255,-38.1607"/>
<polygon fill="black" stroke="black" points="662.325,-40.0763 666.606,-32.7609 658.697,-35.81 662.325,-40.0763"/>
</g>
<!-- Draw1 -->
<g id="node10" class="node"><title>Draw1</title>
<ellipse fill="lightyellow" stroke="black" cx="595.528" cy="-18" rx="37.5556" ry="18"/>
<text text-anchor="middle" x="595.528" y="-15.8" font-family="Verdana" font-size="9.00">Rendering</text>
</g>
<!-- Submesh0&#45;&gt;Draw1 -->
<g id="edge9" class="edge"><title>Submesh0:portL&#45;&gt;Draw1</title>
<path fill="none" stroke="black" d="M569.528,-71.5C569.528,-61.17 573.62,-50.7733 578.557,-41.9886"/>
<polygon fill="black" stroke="black" points="581.033,-43.3081 582.832,-35.0255 576.261,-40.3781 581.033,-43.3081"/>
</g>
<!-- Draw2 -->
<g id="node11" class="node"><title>Draw2</title>
<ellipse fill="lightyellow" stroke="black" cx="502.528" cy="-18" rx="37.5556" ry="18"/>
<text text-anchor="middle" x="502.528" y="-15.8" font-family="Verdana" font-size="9.00">Rendering</text>
</g>
<!-- Submesh1&#45;&gt;Draw2 -->
<g id="edge10" class="edge"><title>Submesh1:portR&#45;&gt;Draw2</title>
<path fill="none" stroke="black" d="M480.528,-71.5C480.528,-61.5635 483.922,-51.3336 488.043,-42.5736"/>
<polygon fill="black" stroke="black" points="490.616,-43.6929 491.786,-35.2981 485.636,-41.1314 490.616,-43.6929"/>
</g>
<!-- Draw3 -->
<g id="node12" class="node"><title>Draw3</title>
<ellipse fill="lightyellow" stroke="black" cx="409.528" cy="-18" rx="37.5556" ry="18"/>
<text text-anchor="middle" x="409.528" y="-15.8" font-family="Verdana" font-size="9.00">Rendering</text>
</g>
<!-- Submesh1&#45;&gt;Draw3 -->
<g id="edge11" class="edge"><title>Submesh1:portL&#45;&gt;Draw3</title>
<path fill="none" stroke="black" d="M407.528,-71.5C407.528,-62.6068 407.818,-52.8724 408.177,-44.2276"/>
<polygon fill="black" stroke="black" points="410.984,-44.1366 408.551,-36.0174 405.39,-43.8816 410.984,-44.1366"/>
</g>
<!-- Draw4 -->
<g id="node13" class="node"><title>Draw4</title>
<ellipse fill="lightyellow" stroke="black" cx="316.528" cy="-18" rx="37.5556" ry="18"/>
<text text-anchor="middle" x="316.528" y="-15.8" font-family="Verdana" font-size="9.00">Rendering</text>
</g>
<!-- Submesh2&#45;&gt;Draw4 -->
<g id="edge12" class="edge"><title>Submesh2:portR&#45;&gt;Draw4</title>
<path fill="none" stroke="black" d="M318.528,-71.5C318.528,-62.6068 318.238,-52.8724 317.878,-44.2276"/>
<polygon fill="black" stroke="black" points="320.666,-43.8816 317.504,-36.0174 315.071,-44.1366 320.666,-43.8816"/>
</g>
<!-- Draw5 -->
<g id="node14" class="node"><title>Draw5</title>
<ellipse fill="lightyellow" stroke="black" cx="223.528" cy="-18" rx="37.5556" ry="18"/>
<text text-anchor="middle" x="223.528" y="-15.8" font-family="Verdana" font-size="9.00">Rendering</text>
</g>
<!-- Submesh2&#45;&gt;Draw5 -->
<g id="edge13" class="edge"><title>Submesh2:portL&#45;&gt;Draw5</title>
<path fill="none" stroke="black" d="M245.528,-71.5C245.528,-61.5635 242.134,-51.3336 238.012,-42.5736"/>
<polygon fill="black" stroke="black" points="240.419,-41.1314 234.27,-35.2981 235.439,-43.6929 240.419,-41.1314"/>
</g>
<!-- Draw6 -->
<g id="node15" class="node"><title>Draw6</title>
<ellipse fill="lightyellow" stroke="black" cx="130.528" cy="-18" rx="37.5556" ry="18"/>
<text text-anchor="middle" x="130.528" y="-15.8" font-family="Verdana" font-size="9.00">Rendering</text>
</g>
<!-- Submesh3&#45;&gt;Draw6 -->
<g id="edge14" class="edge"><title>Submesh3:portR&#45;&gt;Draw6</title>
<path fill="none" stroke="black" d="M156.528,-71.5C156.528,-61.17 152.436,-50.7733 147.498,-41.9886"/>
<polygon fill="black" stroke="black" points="149.795,-40.3781 143.223,-35.0255 145.023,-43.3081 149.795,-40.3781"/>
</g>
<!-- Draw7 -->
<g id="node16" class="node"><title>Draw7</title>
<ellipse fill="lightyellow" stroke="black" cx="37.5278" cy="-18" rx="37.5556" ry="18"/>
<text text-anchor="middle" x="37.5278" y="-15.8" font-family="Verdana" font-size="9.00">Rendering</text>
</g>
<!-- Submesh3&#45;&gt;Draw7 -->
<g id="edge15" class="edge"><title>Submesh3:portL&#45;&gt;Draw7</title>
<path fill="none" stroke="black" d="M83.5278,-71.5C83.5278,-58.3781 75.2981,-46.9641 65.8005,-38.1607"/>
<polygon fill="black" stroke="black" points="67.3584,-35.81 59.45,-32.7609 63.7309,-40.0763 67.3584,-35.81"/>
</g>
</g>
</svg>
