<?xml version="1.0" encoding="UTF-8" standalone="no"?>
<!DOCTYPE svg PUBLIC "-//W3C//DTD SVG 1.1//EN"
 "http://www.w3.org/Graphics/SVG/1.1/DTD/svg11.dtd">
<!-- Generated by graphviz version 2.38.0 (20140413.2041)
 -->
<!-- Pages: 1 -->
<svg width="556pt" height="290pt"
 viewBox="0.00 0.00 556.00 290.00" xmlns="http://www.w3.org/2000/svg" xmlns:xlink="http://www.w3.org/1999/xlink">
<g id="graph0" class="graph" transform="scale(1 1) rotate(0) translate(4 286)">
<polygon fill="white" stroke="none" points="-4,4 -4,-286 552,-286 552,4 -4,4"/>
<g id="clust1" class="cluster"><title>cluster_mesh</title>
<polygon fill="none" stroke="forestgreen" stroke-dasharray="5,2" points="8,-95 8,-274 269,-274 269,-95 8,-95"/>
<text text-anchor="middle" x="138.5" y="-260.4" font-family="Times New Roman,serif" font-size="12.00" fill="forestgreen">Model Instance</text>
</g>
<g id="clust2" class="cluster"><title>cluster_submesh</title>
<polygon fill="none" stroke="dodgerblue" stroke-dasharray="5,2" points="277,-8 277,-168 540,-168 540,-8 277,-8"/>
<text text-anchor="middle" x="408.5" y="-154.4" font-family="Times New Roman,serif" font-size="12.00" fill="dodgerblue">Model Resource Layer</text>
</g>
<!-- modelObj -->
<g id="node1" class="node"><title>modelObj</title>
<polygon fill="#c1ffc1" stroke="forestgreen" points="209.5,-245 148.5,-245 148.5,-209 209.5,-209 209.5,-245"/>
<text text-anchor="middle" x="179" y="-224.8" font-family="Verdana" font-size="9.00">ModelObj</text>
</g>
<!-- shapeObj -->
<g id="node2" class="node"><title>shapeObj</title>
<polygon fill="#c1ffc1" stroke="forestgreen" points="79.5,-139 16.5,-139 16.5,-103 79.5,-103 79.5,-139"/>
<text text-anchor="middle" x="48" y="-118.8" font-family="Verdana" font-size="9.00">ShapeObj</text>
</g>
<!-- modelObj&#45;&gt;shapeObj -->
<g id="edge1" class="edge"><title>modelObj&#45;&gt;shapeObj:n</title>
<path fill="none" stroke="black" d="M148.286,-220C111.835,-211.006 55.1364,-190.362 48.6171,-148.137"/>
<polygon fill="black" stroke="black" points="51.3971,-147.765 48,-140 45.8131,-148.189 51.3971,-147.765"/>
</g>
<!-- materialObj -->
<g id="node3" class="node"><title>materialObj</title>
<polygon fill="#c1ffc1" stroke="forestgreen" points="168.5,-139 97.5,-139 97.5,-103 168.5,-103 168.5,-139"/>
<text text-anchor="middle" x="133" y="-118.8" font-family="Verdana" font-size="9.00">MaterialObj</text>
</g>
<!-- modelObj&#45;&gt;materialObj -->
<g id="edge2" class="edge"><title>modelObj&#45;&gt;materialObj:n</title>
<path fill="none" stroke="black" d="M163.426,-208.976C151.437,-194.237 136.431,-171.627 133.507,-148.03"/>
<polygon fill="black" stroke="black" points="136.298,-147.808 133,-140 130.71,-148.161 136.298,-147.808"/>
</g>
<!-- skeletonObj -->
<g id="node4" class="node"><title>skeletonObj</title>
<polygon fill="#c1ffc1" stroke="forestgreen" points="261,-139 187,-139 187,-103 261,-103 261,-139"/>
<text text-anchor="middle" x="224" y="-118.8" font-family="Verdana" font-size="9.00">SkeletonObj</text>
</g>
<!-- modelObj&#45;&gt;skeletonObj -->
<g id="edge3" class="edge"><title>modelObj&#45;&gt;skeletonObj:n</title>
<path fill="none" stroke="black" d="M194.235,-208.918C205.964,-194.142 220.643,-171.506 223.504,-147.996"/>
<polygon fill="black" stroke="black" points="226.299,-148.158 224,-140 220.71,-147.811 226.299,-148.158"/>
</g>
<!-- modelResource -->
<g id="node8" class="node"><title>modelResource</title>
<polygon fill="#cae1ff" stroke="dodgerblue" points="391,-139 329,-139 329,-103 391,-103 391,-139"/>
<text text-anchor="middle" x="360" y="-118.8" font-family="Verdana" font-size="9.00">ResModel</text>
</g>
<!-- modelObj&#45;&gt;modelResource -->
<g id="edge4" class="edge"><title>modelObj&#45;&gt;modelResource:n</title>
<path fill="none" stroke="black" d="M209.704,-224.923C259.125,-221.449 351.609,-207.067 359.465,-148.201"/>
<polygon fill="black" stroke="black" points="362.273,-148.165 360,-140 356.685,-147.801 362.273,-148.165"/>
<text text-anchor="middle" x="368.5" y="-179.8" font-family="Times New Roman,serif" font-size="14.00">Browse</text>
</g>
<!-- shapeResource -->
<g id="node5" class="node"><title>shapeResource</title>
<polygon fill="#cae1ff" stroke="dodgerblue" points="349,-52 285,-52 285,-16 349,-16 349,-52"/>
<text text-anchor="middle" x="317" y="-31.8" font-family="Verdana" font-size="9.00">ResShape</text>
</g>
<!-- shapeObj&#45;&gt;shapeResource -->
<g id="edge5" class="edge"><title>shapeObj&#45;&gt;shapeResource</title>
<path fill="none" stroke="black" d="M59.812,-102.825C68.4834,-91.618 81.2818,-77.6893 96,-70 126.703,-53.9598 221.886,-43.282 276.806,-38.28"/>
<polygon fill="black" stroke="black" points="277.212,-41.0549 284.932,-37.5545 276.714,-35.4771 277.212,-41.0549"/>
<text text-anchor="middle" x="117.5" y="-73.8" font-family="Times New Roman,serif" font-size="14.00">Browse</text>
</g>
<!-- materialResource -->
<g id="node6" class="node"><title>materialResource</title>
<polygon fill="#cae1ff" stroke="dodgerblue" points="438.5,-52 367.5,-52 367.5,-16 438.5,-16 438.5,-52"/>
<text text-anchor="middle" x="403" y="-31.8" font-family="Verdana" font-size="9.00">ResMaterial</text>
</g>
<!-- materialObj&#45;&gt;materialResource -->
<g id="edge6" class="edge"><title>materialObj&#45;&gt;materialResource</title>
<path fill="none" stroke="black" d="M147.881,-102.579C158.63,-91.2621 174.17,-77.3032 191,-70 259.482,-40.2831 285.387,-69.3304 358,-52 358.482,-51.8849 358.966,-51.766 359.452,-51.6435"/>
<polygon fill="black" stroke="black" points="360.466,-54.2661 367.396,-49.3847 358.935,-48.8797 360.466,-54.2661"/>
<text text-anchor="middle" x="212.5" y="-73.8" font-family="Times New Roman,serif" font-size="14.00">Browse</text>
</g>
<!-- skeletonResource -->
<g id="node7" class="node"><title>skeletonResource</title>
<polygon fill="#cae1ff" stroke="dodgerblue" points="531.5,-52 456.5,-52 456.5,-16 531.5,-16 531.5,-52"/>
<text text-anchor="middle" x="494" y="-31.8" font-family="Verdana" font-size="9.00">ResSkeleton</text>
</g>
<!-- skeletonObj&#45;&gt;skeletonResource -->
<g id="edge7" class="edge"><title>skeletonObj&#45;&gt;skeletonResource</title>
<path fill="none" stroke="black" d="M254.882,-102.891C260.789,-100.008 267.003,-97.2323 273,-95 348.059,-67.059 371.426,-75.4749 448,-52 448.259,-51.9205 448.52,-51.8403 448.78,-51.7594"/>
<polygon fill="black" stroke="black" points="449.718,-54.399 456.463,-49.2659 447.989,-49.0726 449.718,-54.399"/>
<text text-anchor="middle" x="389.5" y="-73.8" font-family="Times New Roman,serif" font-size="14.00">Browse</text>
</g>
<!-- modelResource&#45;&gt;shapeResource -->
<g id="edge8" class="edge"><title>modelResource&#45;&gt;shapeResource:n</title>
<path fill="none" stroke="black" d="M341.515,-102.812C331.499,-91.8522 320.593,-76.6455 317.724,-60.1743"/>
<polygon fill="black" stroke="black" points="320.495,-59.7218 317,-52 314.917,-60.2158 320.495,-59.7218"/>
</g>
<!-- modelResource&#45;&gt;materialResource -->
<g id="edge9" class="edge"><title>modelResource&#45;&gt;materialResource:n</title>
<path fill="none" stroke="black" d="M378.485,-102.812C388.501,-91.8522 399.407,-76.6455 402.276,-60.1743"/>
<polygon fill="black" stroke="black" points="405.083,-60.2158 403,-52 399.505,-59.7218 405.083,-60.2158"/>
</g>
<!-- modelResource&#45;&gt;skeletonResource -->
<g id="edge10" class="edge"><title>modelResource&#45;&gt;skeletonResource:n</title>
<path fill="none" stroke="black" d="M391.079,-117.68C428.19,-113.14 486.176,-99.7407 493.279,-60.2509"/>
<polygon fill="black" stroke="black" points="496.093,-60.2134 494,-52 490.514,-59.7259 496.093,-60.2134"/>
</g>
</g>
</svg>
