<?xml version="1.0" encoding="UTF-8" standalone="no"?><svg xmlns="http://www.w3.org/2000/svg" xmlns:xlink="http://www.w3.org/1999/xlink" contentScriptType="application/ecmascript" contentStyleType="text/css" height="501px" preserveAspectRatio="none" style="width:1249px;height:501px;" version="1.1" viewBox="0 0 1249 501" width="1249px" zoomAndPan="magnify"><defs><filter height="300%" id="f1oqbja0b687fb" width="300%" x="-1" y="-1"><feGaussianBlur result="blurOut" stdDeviation="2.0"/><feColorMatrix in="blurOut" result="blurOut2" type="matrix" values="0 0 0 0 0 0 0 0 0 0 0 0 0 0 0 0 0 0 .4 0"/><feOffset dx="4.0" dy="4.0" in="blurOut2" result="blurOut3"/><feBlend in="SourceGraphic" in2="blurOut3" mode="normal"/></filter></defs><g><!--MD5=[12a72647c4555f4a009734edf7187ae6]
class ResFile--><rect codeLine="1" fill="#FEFECE" filter="url(#f1oqbja0b687fb)" height="48" id="ResFile" style="stroke: #A80036; stroke-width: 1.5;" width="75" x="441" y="7"/><ellipse cx="456" cy="23" fill="#ADD1B2" rx="11" ry="11" style="stroke: #A80036; stroke-width: 1.0;"/><path d="M459.6875,24.2031 Q459.4375,27.6875 458.2969,28.8438 Q457.2656,29.8594 455.8594,29.8594 Q454.4531,29.8594 453.4219,28.8438 Q451.6719,27.0781 451.6719,23.4063 Q451.6719,19.1563 453.5469,17.25 Q454.5938,16.2344 455.9219,16.2344 Q457.3281,16.2344 458.1719,17.0469 Q459.6563,18.5625 459.5781,21.4375 L457.4531,21.4375 Q457.375,19.1094 456.7344,18.4688 Q456.4531,18.1719 455.9219,18.1719 Q455.4688,18.1719 455.1094,18.5469 Q453.875,19.7656 453.875,23.2813 Q453.875,26.3281 454.9219,27.3438 Q455.3438,27.7813 455.8594,27.7813 Q456.3125,27.7813 456.75,27.3438 Q457.3125,26.7969 457.3906,24.2031 L459.6875,24.2031 Z "/><text fill="#000000" font-family="sans-serif" font-size="12" lengthAdjust="spacingAndGlyphs" textLength="43" x="470" y="27.9102">ResFile</text><line style="stroke: #A80036; stroke-width: 1.5;" x1="442" x2="515" y1="39" y2="39"/><line style="stroke: #A80036; stroke-width: 1.5;" x1="442" x2="515" y1="47" y2="47"/><!--MD5=[ebf1445238a0ea5ff9992d5687efe951]
class ResModel--><rect codeLine="3" fill="#FEFECE" filter="url(#f1oqbja0b687fb)" height="48" id="ResModel" style="stroke: #A80036; stroke-width: 1.5;" width="88" x="434.5" y="115"/><ellipse cx="449.5" cy="131" fill="#ADD1B2" rx="11" ry="11" style="stroke: #A80036; stroke-width: 1.0;"/><path d="M453.1875,132.2031 Q452.9375,135.6875 451.7969,136.8438 Q450.7656,137.8594 449.3594,137.8594 Q447.9531,137.8594 446.9219,136.8438 Q445.1719,135.0781 445.1719,131.4063 Q445.1719,127.1563 447.0469,125.25 Q448.0938,124.2344 449.4219,124.2344 Q450.8281,124.2344 451.6719,125.0469 Q453.1563,126.5625 453.0781,129.4375 L450.9531,129.4375 Q450.875,127.1094 450.2344,126.4688 Q449.9531,126.1719 449.4219,126.1719 Q448.9688,126.1719 448.6094,126.5469 Q447.375,127.7656 447.375,131.2813 Q447.375,134.3281 448.4219,135.3438 Q448.8438,135.7813 449.3594,135.7813 Q449.8125,135.7813 450.25,135.3438 Q450.8125,134.7969 450.8906,132.2031 L453.1875,132.2031 Z "/><text fill="#000000" font-family="sans-serif" font-size="12" lengthAdjust="spacingAndGlyphs" textLength="56" x="463.5" y="135.9102">ResModel</text><line style="stroke: #A80036; stroke-width: 1.5;" x1="435.5" x2="521.5" y1="147" y2="147"/><line style="stroke: #A80036; stroke-width: 1.5;" x1="435.5" x2="521.5" y1="155" y2="155"/><!--MD5=[f8ebd83c4c13033a5d9f2e01beb05daf]
class ResVertex--><rect codeLine="5" fill="#FEFECE" filter="url(#f1oqbja0b687fb)" height="48" id="ResVertex" style="stroke: #A80036; stroke-width: 1.5;" width="88" x="25.5" y="331"/><ellipse cx="40.5" cy="347" fill="#ADD1B2" rx="11" ry="11" style="stroke: #A80036; stroke-width: 1.0;"/><path d="M44.1875,348.2031 Q43.9375,351.6875 42.7969,352.8438 Q41.7656,353.8594 40.3594,353.8594 Q38.9531,353.8594 37.9219,352.8438 Q36.1719,351.0781 36.1719,347.4063 Q36.1719,343.1563 38.0469,341.25 Q39.0938,340.2344 40.4219,340.2344 Q41.8281,340.2344 42.6719,341.0469 Q44.1563,342.5625 44.0781,345.4375 L41.9531,345.4375 Q41.875,343.1094 41.2344,342.4688 Q40.9531,342.1719 40.4219,342.1719 Q39.9688,342.1719 39.6094,342.5469 Q38.375,343.7656 38.375,347.2813 Q38.375,350.3281 39.4219,351.3438 Q39.8438,351.7813 40.3594,351.7813 Q40.8125,351.7813 41.25,351.3438 Q41.8125,350.7969 41.8906,348.2031 L44.1875,348.2031 Z "/><text fill="#000000" font-family="sans-serif" font-size="12" lengthAdjust="spacingAndGlyphs" textLength="56" x="54.5" y="351.9102">ResVertex</text><line style="stroke: #A80036; stroke-width: 1.5;" x1="26.5" x2="112.5" y1="363" y2="363"/><line style="stroke: #A80036; stroke-width: 1.5;" x1="26.5" x2="112.5" y1="371" y2="371"/><!--MD5=[2b67ea80214f6296056a48d3ce958035]
class ResShape--><rect codeLine="7" fill="#FEFECE" filter="url(#f1oqbja0b687fb)" height="48" id="ResShape" style="stroke: #A80036; stroke-width: 1.5;" width="91" x="212" y="223"/><ellipse cx="227" cy="239" fill="#ADD1B2" rx="11" ry="11" style="stroke: #A80036; stroke-width: 1.0;"/><path d="M230.6875,240.2031 Q230.4375,243.6875 229.2969,244.8438 Q228.2656,245.8594 226.8594,245.8594 Q225.4531,245.8594 224.4219,244.8438 Q222.6719,243.0781 222.6719,239.4063 Q222.6719,235.1563 224.5469,233.25 Q225.5938,232.2344 226.9219,232.2344 Q228.3281,232.2344 229.1719,233.0469 Q230.6563,234.5625 230.5781,237.4375 L228.4531,237.4375 Q228.375,235.1094 227.7344,234.4688 Q227.4531,234.1719 226.9219,234.1719 Q226.4688,234.1719 226.1094,234.5469 Q224.875,235.7656 224.875,239.2813 Q224.875,242.3281 225.9219,243.3438 Q226.3438,243.7813 226.8594,243.7813 Q227.3125,243.7813 227.75,243.3438 Q228.3125,242.7969 228.3906,240.2031 L230.6875,240.2031 Z "/><text fill="#000000" font-family="sans-serif" font-size="12" lengthAdjust="spacingAndGlyphs" textLength="59" x="241" y="243.9102">ResShape</text><line style="stroke: #A80036; stroke-width: 1.5;" x1="213" x2="302" y1="255" y2="255"/><line style="stroke: #A80036; stroke-width: 1.5;" x1="213" x2="302" y1="263" y2="263"/><!--MD5=[20233a383e7fffd30fdfed31ad2ce514]
class ResMaterial--><rect codeLine="9" fill="#FEFECE" filter="url(#f1oqbja0b687fb)" height="48" id="ResMaterial" style="stroke: #A80036; stroke-width: 1.5;" width="98" x="668.5" y="223"/><ellipse cx="683.5" cy="239" fill="#ADD1B2" rx="11" ry="11" style="stroke: #A80036; stroke-width: 1.0;"/><path d="M687.1875,240.2031 Q686.9375,243.6875 685.7969,244.8438 Q684.7656,245.8594 683.3594,245.8594 Q681.9531,245.8594 680.9219,244.8438 Q679.1719,243.0781 679.1719,239.4063 Q679.1719,235.1563 681.0469,233.25 Q682.0938,232.2344 683.4219,232.2344 Q684.8281,232.2344 685.6719,233.0469 Q687.1563,234.5625 687.0781,237.4375 L684.9531,237.4375 Q684.875,235.1094 684.2344,234.4688 Q683.9531,234.1719 683.4219,234.1719 Q682.9688,234.1719 682.6094,234.5469 Q681.375,235.7656 681.375,239.2813 Q681.375,242.3281 682.4219,243.3438 Q682.8438,243.7813 683.3594,243.7813 Q683.8125,243.7813 684.25,243.3438 Q684.8125,242.7969 684.8906,240.2031 L687.1875,240.2031 Z "/><text fill="#000000" font-family="sans-serif" font-size="12" lengthAdjust="spacingAndGlyphs" textLength="66" x="697.5" y="243.9102">ResMaterial</text><line style="stroke: #A80036; stroke-width: 1.5;" x1="669.5" x2="765.5" y1="255" y2="255"/><line style="stroke: #A80036; stroke-width: 1.5;" x1="669.5" x2="765.5" y1="263" y2="263"/><!--MD5=[84d4eec693f0f67e82047972d48d0741]
class ResMesh--><rect codeLine="11" fill="#FEFECE" filter="url(#f1oqbja0b687fb)" height="48" id="ResMesh" style="stroke: #A80036; stroke-width: 1.5;" width="85" x="149" y="331"/><ellipse cx="164" cy="347" fill="#ADD1B2" rx="11" ry="11" style="stroke: #A80036; stroke-width: 1.0;"/><path d="M167.6875,348.2031 Q167.4375,351.6875 166.2969,352.8438 Q165.2656,353.8594 163.8594,353.8594 Q162.4531,353.8594 161.4219,352.8438 Q159.6719,351.0781 159.6719,347.4063 Q159.6719,343.1563 161.5469,341.25 Q162.5938,340.2344 163.9219,340.2344 Q165.3281,340.2344 166.1719,341.0469 Q167.6563,342.5625 167.5781,345.4375 L165.4531,345.4375 Q165.375,343.1094 164.7344,342.4688 Q164.4531,342.1719 163.9219,342.1719 Q163.4688,342.1719 163.1094,342.5469 Q161.875,343.7656 161.875,347.2813 Q161.875,350.3281 162.9219,351.3438 Q163.3438,351.7813 163.8594,351.7813 Q164.3125,351.7813 164.75,351.3438 Q165.3125,350.7969 165.3906,348.2031 L167.6875,348.2031 Z "/><text fill="#000000" font-family="sans-serif" font-size="12" lengthAdjust="spacingAndGlyphs" textLength="53" x="178" y="351.9102">ResMesh</text><line style="stroke: #A80036; stroke-width: 1.5;" x1="150" x2="233" y1="363" y2="363"/><line style="stroke: #A80036; stroke-width: 1.5;" x1="150" x2="233" y1="371" y2="371"/><!--MD5=[ce4119024b043e8e3f5b93f701a451f7]
class ResSubmesh--><rect codeLine="13" fill="#FEFECE" filter="url(#f1oqbja0b687fb)" height="48" id="ResSubmesh" style="stroke: #A80036; stroke-width: 1.5;" width="109" x="147" y="439"/><ellipse cx="162" cy="455" fill="#ADD1B2" rx="11" ry="11" style="stroke: #A80036; stroke-width: 1.0;"/><path d="M165.6875,456.2031 Q165.4375,459.6875 164.2969,460.8438 Q163.2656,461.8594 161.8594,461.8594 Q160.4531,461.8594 159.4219,460.8438 Q157.6719,459.0781 157.6719,455.4063 Q157.6719,451.1563 159.5469,449.25 Q160.5938,448.2344 161.9219,448.2344 Q163.3281,448.2344 164.1719,449.0469 Q165.6563,450.5625 165.5781,453.4375 L163.4531,453.4375 Q163.375,451.1094 162.7344,450.4688 Q162.4531,450.1719 161.9219,450.1719 Q161.4688,450.1719 161.1094,450.5469 Q159.875,451.7656 159.875,455.2813 Q159.875,458.3281 160.9219,459.3438 Q161.3438,459.7813 161.8594,459.7813 Q162.3125,459.7813 162.75,459.3438 Q163.3125,458.7969 163.3906,456.2031 L165.6875,456.2031 Z "/><text fill="#000000" font-family="sans-serif" font-size="12" lengthAdjust="spacingAndGlyphs" textLength="77" x="176" y="459.9102">ResSubmesh</text><line style="stroke: #A80036; stroke-width: 1.5;" x1="148" x2="255" y1="471" y2="471"/><line style="stroke: #A80036; stroke-width: 1.5;" x1="148" x2="255" y1="479" y2="479"/><!--MD5=[c2bea5b618db2613e9130f2cf13b9190]
class ResSkeleton--><rect codeLine="15" fill="#FEFECE" filter="url(#f1oqbja0b687fb)" height="48" id="ResSkeleton" style="stroke: #A80036; stroke-width: 1.5;" width="103" x="1014" y="223"/><ellipse cx="1029" cy="239" fill="#ADD1B2" rx="11" ry="11" style="stroke: #A80036; stroke-width: 1.0;"/><path d="M1032.6875,240.2031 Q1032.4375,243.6875 1031.2969,244.8438 Q1030.2656,245.8594 1028.8594,245.8594 Q1027.4531,245.8594 1026.4219,244.8438 Q1024.6719,243.0781 1024.6719,239.4063 Q1024.6719,235.1563 1026.5469,233.25 Q1027.5938,232.2344 1028.9219,232.2344 Q1030.3281,232.2344 1031.1719,233.0469 Q1032.6563,234.5625 1032.5781,237.4375 L1030.4531,237.4375 Q1030.375,235.1094 1029.7344,234.4688 Q1029.4531,234.1719 1028.9219,234.1719 Q1028.4688,234.1719 1028.1094,234.5469 Q1026.875,235.7656 1026.875,239.2813 Q1026.875,242.3281 1027.9219,243.3438 Q1028.3438,243.7813 1028.8594,243.7813 Q1029.3125,243.7813 1029.75,243.3438 Q1030.3125,242.7969 1030.3906,240.2031 L1032.6875,240.2031 Z "/><text fill="#000000" font-family="sans-serif" font-size="12" lengthAdjust="spacingAndGlyphs" textLength="71" x="1043" y="243.9102">ResSkeleton</text><line style="stroke: #A80036; stroke-width: 1.5;" x1="1015" x2="1116" y1="255" y2="255"/><line style="stroke: #A80036; stroke-width: 1.5;" x1="1015" x2="1116" y1="263" y2="263"/><!--MD5=[c5f55df330ca5e8d20d69ca650d3e7a2]
class ResBone--><rect codeLine="17" fill="#FEFECE" filter="url(#f1oqbja0b687fb)" height="48" id="ResBone" style="stroke: #A80036; stroke-width: 1.5;" width="84" x="1151.5" y="331"/><ellipse cx="1166.5" cy="347" fill="#ADD1B2" rx="11" ry="11" style="stroke: #A80036; stroke-width: 1.0;"/><path d="M1170.1875,348.2031 Q1169.9375,351.6875 1168.7969,352.8438 Q1167.7656,353.8594 1166.3594,353.8594 Q1164.9531,353.8594 1163.9219,352.8438 Q1162.1719,351.0781 1162.1719,347.4063 Q1162.1719,343.1563 1164.0469,341.25 Q1165.0938,340.2344 1166.4219,340.2344 Q1167.8281,340.2344 1168.6719,341.0469 Q1170.1563,342.5625 1170.0781,345.4375 L1167.9531,345.4375 Q1167.875,343.1094 1167.2344,342.4688 Q1166.9531,342.1719 1166.4219,342.1719 Q1165.9688,342.1719 1165.6094,342.5469 Q1164.375,343.7656 1164.375,347.2813 Q1164.375,350.3281 1165.4219,351.3438 Q1165.8438,351.7813 1166.3594,351.7813 Q1166.8125,351.7813 1167.25,351.3438 Q1167.8125,350.7969 1167.8906,348.2031 L1170.1875,348.2031 Z "/><text fill="#000000" font-family="sans-serif" font-size="12" lengthAdjust="spacingAndGlyphs" textLength="52" x="1180.5" y="351.9102">ResBone</text><line style="stroke: #A80036; stroke-width: 1.5;" x1="1152.5" x2="1234.5" y1="363" y2="363"/><line style="stroke: #A80036; stroke-width: 1.5;" x1="1152.5" x2="1234.5" y1="371" y2="371"/><!--MD5=[39297e4c94421d2eeb8b1d1f0c1748da]
class ResVertexAttr--><rect codeLine="19" fill="#FEFECE" filter="url(#f1oqbja0b687fb)" height="48" id="ResVertexAttr" style="stroke: #A80036; stroke-width: 1.5;" width="105" x="7" y="439"/><ellipse cx="22" cy="455" fill="#ADD1B2" rx="11" ry="11" style="stroke: #A80036; stroke-width: 1.0;"/><path d="M25.6875,456.2031 Q25.4375,459.6875 24.2969,460.8438 Q23.2656,461.8594 21.8594,461.8594 Q20.4531,461.8594 19.4219,460.8438 Q17.6719,459.0781 17.6719,455.4063 Q17.6719,451.1563 19.5469,449.25 Q20.5938,448.2344 21.9219,448.2344 Q23.3281,448.2344 24.1719,449.0469 Q25.6563,450.5625 25.5781,453.4375 L23.4531,453.4375 Q23.375,451.1094 22.7344,450.4688 Q22.4531,450.1719 21.9219,450.1719 Q21.4688,450.1719 21.1094,450.5469 Q19.875,451.7656 19.875,455.2813 Q19.875,458.3281 20.9219,459.3438 Q21.3438,459.7813 21.8594,459.7813 Q22.3125,459.7813 22.75,459.3438 Q23.3125,458.7969 23.3906,456.2031 L25.6875,456.2031 Z "/><text fill="#000000" font-family="sans-serif" font-size="12" lengthAdjust="spacingAndGlyphs" textLength="73" x="36" y="459.9102">ResVertexAttr</text><line style="stroke: #A80036; stroke-width: 1.5;" x1="8" x2="111" y1="471" y2="471"/><line style="stroke: #A80036; stroke-width: 1.5;" x1="8" x2="111" y1="479" y2="479"/><!--MD5=[2ef491343584eae7f2d6f73a98875566]
class ResKeyShape--><rect codeLine="21" fill="#FEFECE" filter="url(#f1oqbja0b687fb)" height="48" id="ResKeyShape" style="stroke: #A80036; stroke-width: 1.5;" width="111" x="269" y="331"/><ellipse cx="284" cy="347" fill="#ADD1B2" rx="11" ry="11" style="stroke: #A80036; stroke-width: 1.0;"/><path d="M287.6875,348.2031 Q287.4375,351.6875 286.2969,352.8438 Q285.2656,353.8594 283.8594,353.8594 Q282.4531,353.8594 281.4219,352.8438 Q279.6719,351.0781 279.6719,347.4063 Q279.6719,343.1563 281.5469,341.25 Q282.5938,340.2344 283.9219,340.2344 Q285.3281,340.2344 286.1719,341.0469 Q287.6563,342.5625 287.5781,345.4375 L285.4531,345.4375 Q285.375,343.1094 284.7344,342.4688 Q284.4531,342.1719 283.9219,342.1719 Q283.4688,342.1719 283.1094,342.5469 Q281.875,343.7656 281.875,347.2813 Q281.875,350.3281 282.9219,351.3438 Q283.3438,351.7813 283.8594,351.7813 Q284.3125,351.7813 284.75,351.3438 Q285.3125,350.7969 285.3906,348.2031 L287.6875,348.2031 Z "/><text fill="#000000" font-family="sans-serif" font-size="12" lengthAdjust="spacingAndGlyphs" textLength="79" x="298" y="351.9102">ResKeyShape</text><line style="stroke: #A80036; stroke-width: 1.5;" x1="270" x2="379" y1="363" y2="363"/><line style="stroke: #A80036; stroke-width: 1.5;" x1="270" x2="379" y1="371" y2="371"/><!--MD5=[d09377b986d370b74325844f027fee29]
class ResRenderInfo--><rect codeLine="23" fill="#FEFECE" filter="url(#f1oqbja0b687fb)" height="48" id="ResRenderInfo" style="stroke: #A80036; stroke-width: 1.5;" width="116" x="415.5" y="331"/><ellipse cx="430.5" cy="347" fill="#ADD1B2" rx="11" ry="11" style="stroke: #A80036; stroke-width: 1.0;"/><path d="M434.1875,348.2031 Q433.9375,351.6875 432.7969,352.8438 Q431.7656,353.8594 430.3594,353.8594 Q428.9531,353.8594 427.9219,352.8438 Q426.1719,351.0781 426.1719,347.4063 Q426.1719,343.1563 428.0469,341.25 Q429.0938,340.2344 430.4219,340.2344 Q431.8281,340.2344 432.6719,341.0469 Q434.1563,342.5625 434.0781,345.4375 L431.9531,345.4375 Q431.875,343.1094 431.2344,342.4688 Q430.9531,342.1719 430.4219,342.1719 Q429.9688,342.1719 429.6094,342.5469 Q428.375,343.7656 428.375,347.2813 Q428.375,350.3281 429.4219,351.3438 Q429.8438,351.7813 430.3594,351.7813 Q430.8125,351.7813 431.25,351.3438 Q431.8125,350.7969 431.8906,348.2031 L434.1875,348.2031 Z "/><text fill="#000000" font-family="sans-serif" font-size="12" lengthAdjust="spacingAndGlyphs" textLength="84" x="444.5" y="351.9102">ResRenderInfo</text><line style="stroke: #A80036; stroke-width: 1.5;" x1="416.5" x2="530.5" y1="363" y2="363"/><line style="stroke: #A80036; stroke-width: 1.5;" x1="416.5" x2="530.5" y1="371" y2="371"/><!--MD5=[70f6a14c1ae59b1b3ed34d4bb7964656]
class ResShaderAssign--><rect codeLine="25" fill="#FEFECE" filter="url(#f1oqbja0b687fb)" height="48" id="ResShaderAssign" style="stroke: #A80036; stroke-width: 1.5;" width="133" x="567" y="331"/><ellipse cx="582" cy="347" fill="#ADD1B2" rx="11" ry="11" style="stroke: #A80036; stroke-width: 1.0;"/><path d="M585.6875,348.2031 Q585.4375,351.6875 584.2969,352.8438 Q583.2656,353.8594 581.8594,353.8594 Q580.4531,353.8594 579.4219,352.8438 Q577.6719,351.0781 577.6719,347.4063 Q577.6719,343.1563 579.5469,341.25 Q580.5938,340.2344 581.9219,340.2344 Q583.3281,340.2344 584.1719,341.0469 Q585.6563,342.5625 585.5781,345.4375 L583.4531,345.4375 Q583.375,343.1094 582.7344,342.4688 Q582.4531,342.1719 581.9219,342.1719 Q581.4688,342.1719 581.1094,342.5469 Q579.875,343.7656 579.875,347.2813 Q579.875,350.3281 580.9219,351.3438 Q581.3438,351.7813 581.8594,351.7813 Q582.3125,351.7813 582.75,351.3438 Q583.3125,350.7969 583.3906,348.2031 L585.6875,348.2031 Z "/><text fill="#000000" font-family="sans-serif" font-size="12" lengthAdjust="spacingAndGlyphs" textLength="101" x="596" y="351.9102">ResShaderAssign</text><line style="stroke: #A80036; stroke-width: 1.5;" x1="568" x2="699" y1="363" y2="363"/><line style="stroke: #A80036; stroke-width: 1.5;" x1="568" x2="699" y1="371" y2="371"/><!--MD5=[0188d915b56edb7671d66d3671f2bebb]
class ResShaderParam--><rect codeLine="27" fill="#FEFECE" filter="url(#f1oqbja0b687fb)" height="48" id="ResShaderParam" style="stroke: #A80036; stroke-width: 1.5;" width="132" x="735.5" y="331"/><ellipse cx="750.5" cy="347" fill="#ADD1B2" rx="11" ry="11" style="stroke: #A80036; stroke-width: 1.0;"/><path d="M754.1875,348.2031 Q753.9375,351.6875 752.7969,352.8438 Q751.7656,353.8594 750.3594,353.8594 Q748.9531,353.8594 747.9219,352.8438 Q746.1719,351.0781 746.1719,347.4063 Q746.1719,343.1563 748.0469,341.25 Q749.0938,340.2344 750.4219,340.2344 Q751.8281,340.2344 752.6719,341.0469 Q754.1563,342.5625 754.0781,345.4375 L751.9531,345.4375 Q751.875,343.1094 751.2344,342.4688 Q750.9531,342.1719 750.4219,342.1719 Q749.9688,342.1719 749.6094,342.5469 Q748.375,343.7656 748.375,347.2813 Q748.375,350.3281 749.4219,351.3438 Q749.8438,351.7813 750.3594,351.7813 Q750.8125,351.7813 751.25,351.3438 Q751.8125,350.7969 751.8906,348.2031 L754.1875,348.2031 Z "/><text fill="#000000" font-family="sans-serif" font-size="12" lengthAdjust="spacingAndGlyphs" textLength="100" x="764.5" y="351.9102">ResShaderParam</text><line style="stroke: #A80036; stroke-width: 1.5;" x1="736.5" x2="866.5" y1="363" y2="363"/><line style="stroke: #A80036; stroke-width: 1.5;" x1="736.5" x2="866.5" y1="371" y2="371"/><!--MD5=[c1863ae7a83f0d4114d1dc5ffc6f27df]
class Sampler--><rect codeLine="29" fill="#FEFECE" filter="url(#f1oqbja0b687fb)" height="48" id="Sampler" style="stroke: #A80036; stroke-width: 1.5;" width="79" x="903" y="331"/><ellipse cx="918" cy="347" fill="#ADD1B2" rx="11" ry="11" style="stroke: #A80036; stroke-width: 1.0;"/><path d="M921.6875,348.2031 Q921.4375,351.6875 920.2969,352.8438 Q919.2656,353.8594 917.8594,353.8594 Q916.4531,353.8594 915.4219,352.8438 Q913.6719,351.0781 913.6719,347.4063 Q913.6719,343.1563 915.5469,341.25 Q916.5938,340.2344 917.9219,340.2344 Q919.3281,340.2344 920.1719,341.0469 Q921.6563,342.5625 921.5781,345.4375 L919.4531,345.4375 Q919.375,343.1094 918.7344,342.4688 Q918.4531,342.1719 917.9219,342.1719 Q917.4688,342.1719 917.1094,342.5469 Q915.875,343.7656 915.875,347.2813 Q915.875,350.3281 916.9219,351.3438 Q917.3438,351.7813 917.8594,351.7813 Q918.3125,351.7813 918.75,351.3438 Q919.3125,350.7969 919.3906,348.2031 L921.6875,348.2031 Z "/><text fill="#000000" font-family="sans-serif" font-size="12" lengthAdjust="spacingAndGlyphs" textLength="47" x="932" y="351.9102">Sampler</text><line style="stroke: #A80036; stroke-width: 1.5;" x1="904" x2="981" y1="363" y2="363"/><line style="stroke: #A80036; stroke-width: 1.5;" x1="904" x2="981" y1="371" y2="371"/><!--MD5=[c859354928e89c42491a05c39e294cd2]
class SamplerInfo--><rect codeLine="31" fill="#FEFECE" filter="url(#f1oqbja0b687fb)" height="48" id="SamplerInfo" style="stroke: #A80036; stroke-width: 1.5;" width="99" x="1017" y="331"/><ellipse cx="1032" cy="347" fill="#ADD1B2" rx="11" ry="11" style="stroke: #A80036; stroke-width: 1.0;"/><path d="M1035.6875,348.2031 Q1035.4375,351.6875 1034.2969,352.8438 Q1033.2656,353.8594 1031.8594,353.8594 Q1030.4531,353.8594 1029.4219,352.8438 Q1027.6719,351.0781 1027.6719,347.4063 Q1027.6719,343.1563 1029.5469,341.25 Q1030.5938,340.2344 1031.9219,340.2344 Q1033.3281,340.2344 1034.1719,341.0469 Q1035.6563,342.5625 1035.5781,345.4375 L1033.4531,345.4375 Q1033.375,343.1094 1032.7344,342.4688 Q1032.4531,342.1719 1031.9219,342.1719 Q1031.4688,342.1719 1031.1094,342.5469 Q1029.875,343.7656 1029.875,347.2813 Q1029.875,350.3281 1030.9219,351.3438 Q1031.3438,351.7813 1031.8594,351.7813 Q1032.3125,351.7813 1032.75,351.3438 Q1033.3125,350.7969 1033.3906,348.2031 L1035.6875,348.2031 Z "/><text fill="#000000" font-family="sans-serif" font-size="12" lengthAdjust="spacingAndGlyphs" textLength="67" x="1046" y="351.9102">SamplerInfo</text><line style="stroke: #A80036; stroke-width: 1.5;" x1="1018" x2="1115" y1="363" y2="363"/><line style="stroke: #A80036; stroke-width: 1.5;" x1="1018" x2="1115" y1="371" y2="371"/><!--MD5=[d659b28de67a729f2c051c7209f2fc29]
link ResFile to ResModel--><path codeLine="34" d="M478.5,55 C478.5,71.003 478.5,92.446 478.5,109.528 " fill="none" id="ResFile-to-ResModel" style="stroke: #A80036; stroke-width: 1.0;"/><polygon fill="#A80036" points="478.5,114.678,482.5,105.678,478.5,109.678,474.5,105.678,478.5,114.678" style="stroke: #A80036; stroke-width: 1.0;"/><text fill="#000000" font-family="sans-serif" font-size="13" lengthAdjust="spacingAndGlyphs" textLength="7" x="470.6469" y="76.338">1</text><text fill="#000000" font-family="sans-serif" font-size="13" lengthAdjust="spacingAndGlyphs" textLength="20" x="456.0625" y="104.3375">0..*</text><!--MD5=[41a0abee4c84b504b6b6d1f0fa2908de]
link ResModel to ResVertex--><path codeLine="35" d="M434.261,145.637 C375.811,154.646 271.297,176.276 194.5,223 C150.09,250.02 110.895,296.794 88.7097,326.527 " fill="none" id="ResModel-to-ResVertex" style="stroke: #A80036; stroke-width: 1.0;"/><polygon fill="#A80036" points="85.5612,330.786,94.1283,325.9275,88.5339,326.7657,87.6958,321.1712,85.5612,330.786" style="stroke: #A80036; stroke-width: 1.0;"/><text fill="#000000" font-family="sans-serif" font-size="13" lengthAdjust="spacingAndGlyphs" textLength="7" x="419.3542" y="142.9355">1</text><text fill="#000000" font-family="sans-serif" font-size="13" lengthAdjust="spacingAndGlyphs" textLength="20" x="67.1144" y="320.0713">0..*</text><!--MD5=[29d2b41779a94fb0930a05238eb75d9b]
link ResModel to ResShape--><path codeLine="36" d="M434.309,161.196 C397.753,178.729 345.835,203.631 307.713,221.916 " fill="none" id="ResModel-to-ResShape" style="stroke: #A80036; stroke-width: 1.0;"/><polygon fill="#A80036" points="303.134,224.112,312.9788,223.8283,307.6427,221.9505,309.5204,216.6144,303.134,224.112" style="stroke: #A80036; stroke-width: 1.0;"/><text fill="#000000" font-family="sans-serif" font-size="13" lengthAdjust="spacingAndGlyphs" textLength="7" x="419.4102" y="179.7214">1</text><text fill="#000000" font-family="sans-serif" font-size="13" lengthAdjust="spacingAndGlyphs" textLength="20" x="310.9575" y="217.2882">0..*</text><!--MD5=[caee3c5e99528c2fff1b9b3e3bed6906]
link ResModel to ResMaterial--><path codeLine="37" d="M522.615,159.566 C562.437,177.227 621.135,203.261 663.699,222.138 " fill="none" id="ResModel-to-ResMaterial" style="stroke: #A80036; stroke-width: 1.0;"/><polygon fill="#A80036" points="668.286,224.173,661.6809,216.8673,663.7155,222.1456,658.4371,224.1801,668.286,224.173" style="stroke: #A80036; stroke-width: 1.0;"/><text fill="#000000" font-family="sans-serif" font-size="13" lengthAdjust="spacingAndGlyphs" textLength="7" x="530.5012" y="177.8215">1</text><text fill="#000000" font-family="sans-serif" font-size="13" lengthAdjust="spacingAndGlyphs" textLength="20" x="640.3291" y="217.5494">0..*</text><!--MD5=[59eaf648e5c993ff8466b2b15f6e5625]
link ResShape to ResKeyShape--><path codeLine="38" d="M272.038,271 C282.327,287.279 296.175,309.187 307.06,326.408 " fill="none" id="ResShape-to-ResKeyShape" style="stroke: #A80036; stroke-width: 1.0;"/><polygon fill="#A80036" points="309.759,330.678,308.3323,320.933,307.0879,326.4513,301.5696,325.2069,309.759,330.678" style="stroke: #A80036; stroke-width: 1.0;"/><text fill="#000000" font-family="sans-serif" font-size="13" lengthAdjust="spacingAndGlyphs" textLength="7" x="267.7285" y="292.338">1</text><text fill="#000000" font-family="sans-serif" font-size="13" lengthAdjust="spacingAndGlyphs" textLength="20" x="283.7284" y="320.3375">0..*</text><!--MD5=[988f47626a342a4bf0ce4e7570a4ebb5]
link ResMaterial to ResRenderInfo--><path codeLine="39" d="M668.416,269.323 C628.887,286.496 573.224,310.677 531.497,328.805 " fill="none" id="ResMaterial-to-ResRenderInfo" style="stroke: #A80036; stroke-width: 1.0;"/><polygon fill="#A80036" points="526.736,330.873,536.5845,330.9544,531.3217,328.8802,533.396,323.6173,526.736,330.873" style="stroke: #A80036; stroke-width: 1.0;"/><text fill="#000000" font-family="sans-serif" font-size="13" lengthAdjust="spacingAndGlyphs" textLength="7" x="653.3641" y="269.0382">1</text><text fill="#000000" font-family="sans-serif" font-size="13" lengthAdjust="spacingAndGlyphs" textLength="20" x="517.8152" y="320.1806">0..*</text><!--MD5=[ddb8e91697038e93a81551cad1cdb703]
link ResMaterial to ResShaderParam--><path codeLine="40" d="M735.727,271 C748.627,287.279 765.988,309.187 779.634,326.408 " fill="none" id="ResMaterial-to-ResShaderParam" style="stroke: #A80036; stroke-width: 1.0;"/><polygon fill="#A80036" points="783.019,330.678,780.5636,321.1401,779.9133,326.7595,774.294,326.1092,783.019,330.678" style="stroke: #A80036; stroke-width: 1.0;"/><text fill="#000000" font-family="sans-serif" font-size="13" lengthAdjust="spacingAndGlyphs" textLength="7" x="732.3167" y="292.338">1</text><text fill="#000000" font-family="sans-serif" font-size="13" lengthAdjust="spacingAndGlyphs" textLength="20" x="756.0768" y="320.3375">0..*</text><!--MD5=[0c9bdaff6e53f9100406d60b48307101]
link ResMaterial to SamplerInfo--><path codeLine="41" d="M766.608,261.738 C823.031,277.688 918.294,305.125 999.5,331 C1003.543,332.288 1007.71,333.647 1011.9,335.034 " fill="none" id="ResMaterial-to-SamplerInfo" style="stroke: #A80036; stroke-width: 1.0;"/><polygon fill="#A80036" points="1016.82,336.672,1009.5342,330.045,1012.0736,335.0999,1007.0188,337.6393,1016.82,336.672" style="stroke: #A80036; stroke-width: 1.0;"/><text fill="#000000" font-family="sans-serif" font-size="13" lengthAdjust="spacingAndGlyphs" textLength="7" x="774.6636" y="260.2918">1</text><text fill="#000000" font-family="sans-serif" font-size="13" lengthAdjust="spacingAndGlyphs" textLength="20" x="989.1758" y="330.8164">0..*</text><!--MD5=[49b5a931aede4d5c0f6487b909c5f7a2]
link ResMaterial to Sampler--><path codeLine="42" d="M766.322,271 C805.568,289.49 860.232,315.242 898.22,333.139 " fill="none" id="ResMaterial-to-Sampler" style="stroke: #A80036; stroke-width: 1.0;"/><polygon fill="#A80036" points="902.768,335.282,896.3319,327.827,898.2451,333.1505,892.9216,335.0637,902.768,335.282" style="stroke: #A80036; stroke-width: 1.0;"/><text fill="#000000" font-family="sans-serif" font-size="13" lengthAdjust="spacingAndGlyphs" textLength="7" x="770.3692" y="292.338">1</text><text fill="#000000" font-family="sans-serif" font-size="13" lengthAdjust="spacingAndGlyphs" textLength="20" x="875.1528" y="328.5597">0..*</text><!--MD5=[fde196c58d81535c1e24dcf24d0137c4]
link ResVertex to ResVertexAttr--><path codeLine="45" d="M67.3301,379 C65.8205,395.003 63.7975,416.4461 62.186,433.528 " fill="none" id="ResVertex-to-ResVertexAttr" style="stroke: #A80036; stroke-width: 1.0;"/><polygon fill="#A80036" points="61.7001,438.6784,66.5279,430.094,62.1698,433.7005,58.5633,429.3424,61.7001,438.6784" style="stroke: #A80036; stroke-width: 1.0;"/><text fill="#000000" font-family="sans-serif" font-size="13" lengthAdjust="spacingAndGlyphs" textLength="7" x="58.9481" y="400.338">1</text><text fill="#000000" font-family="sans-serif" font-size="13" lengthAdjust="spacingAndGlyphs" textLength="20" x="39.7989" y="428.338">1..*</text><!--MD5=[94aefec7b2942e5e222b77e6c0c7a8ac]
link ResShape to ResMesh--><path codeLine="46" d="M243.179,271 C233.043,287.279 219.402,309.187 208.68,326.408 " fill="none" id="ResShape-to-ResMesh" style="stroke: #A80036; stroke-width: 1.0;"/><polygon fill="#A80036" points="206.021,330.678,214.1738,325.1524,208.6639,326.4336,207.3828,320.9237,206.021,330.678" style="stroke: #A80036; stroke-width: 1.0;"/><text fill="#000000" font-family="sans-serif" font-size="13" lengthAdjust="spacingAndGlyphs" textLength="7" x="231.8351" y="292.338">1</text><text fill="#000000" font-family="sans-serif" font-size="13" lengthAdjust="spacingAndGlyphs" textLength="20" x="187.123" y="320.3375">1..*</text><!--MD5=[40f92a262dfd0f641a18489d404c2149]
link ResMesh to ResSubmesh--><path codeLine="47" d="M193.67,379 C195.18,395.003 197.202,416.4461 198.814,433.528 " fill="none" id="ResMesh-to-ResSubmesh" style="stroke: #A80036; stroke-width: 1.0;"/><polygon fill="#A80036" points="199.3,438.6784,202.4367,429.3424,198.8302,433.7005,194.4721,430.094,199.3,438.6784" style="stroke: #A80036; stroke-width: 1.0;"/><text fill="#000000" font-family="sans-serif" font-size="13" lengthAdjust="spacingAndGlyphs" textLength="7" x="186.3458" y="400.338">1</text><text fill="#000000" font-family="sans-serif" font-size="13" lengthAdjust="spacingAndGlyphs" textLength="20" x="176.3263" y="428.338">1..*</text><!--MD5=[75fc4eb091b9fa0da5e854a9e2c1a692]
link ResSkeleton to ResBone--><path codeLine="48" d="M1093.27,271 C1113.26,287.555 1140.29,309.931 1161.23,327.279 " fill="none" id="ResSkeleton-to-ResBone" style="stroke: #A80036; stroke-width: 1.0;"/><polygon fill="#A80036" points="1165.34,330.678,1160.9544,321.8594,1161.4872,327.4912,1155.8555,328.0239,1165.34,330.678" style="stroke: #A80036; stroke-width: 1.0;"/><text fill="#000000" font-family="sans-serif" font-size="13" lengthAdjust="spacingAndGlyphs" textLength="7" x="1092.1858" y="292.338">1</text><text fill="#000000" font-family="sans-serif" font-size="13" lengthAdjust="spacingAndGlyphs" textLength="20" x="1136.0385" y="320.3375">1..*</text><!--MD5=[1389e970be6a79ad22dc4965876b90ed]
link ResMaterial to ResShaderAssign--><path codeLine="49" d="M699.273,271 C686.373,287.279 669.012,309.187 655.366,326.408 " fill="none" id="ResMaterial-to-ResShaderAssign" style="stroke: #A80036; stroke-width: 1.0;"/><polygon fill="#A80036" points="651.981,330.678,660.706,326.1092,655.0867,326.7595,654.4364,321.1401,651.981,330.678" style="stroke: #A80036; stroke-width: 1.0;"/><text fill="#000000" font-family="sans-serif" font-size="13" lengthAdjust="spacingAndGlyphs" textLength="7" x="686.977" y="292.338">1</text><text fill="#000000" font-family="sans-serif" font-size="13" lengthAdjust="spacingAndGlyphs" textLength="20" x="634.0482" y="320.3375">1..*</text><!--MD5=[f9172bb8fa9d385655b48c5e271b0fc2]
link ResShape to ResVertex--><path codeLine="52" d="M216.707,271 C186.754,287.889 146.054,310.837 115.041,328.323 " fill="none" id="ResShape-to-ResVertex" style="stroke: #A80036; stroke-width: 1.0;"/><polygon fill="#A80036" points="110.538,330.862,120.3422,329.925,114.8931,328.4058,116.4123,322.9568,110.538,330.862" style="stroke: #A80036; stroke-width: 1.0;"/><text fill="#000000" font-family="sans-serif" font-size="13" lengthAdjust="spacingAndGlyphs" textLength="7" x="198.9106" y="292.338">1</text><text fill="#000000" font-family="sans-serif" font-size="13" lengthAdjust="spacingAndGlyphs" textLength="7" x="113.1569" y="320.1668">1</text><!--MD5=[2f8fe5526429b50cb7610425ff8e516f]
link ResModel to ResSkeleton--><path codeLine="53" d="M522.62,147.967 C627.578,166.92 892.051,214.679 1008.71,235.745 " fill="none" id="ResModel-to-ResSkeleton" style="stroke: #A80036; stroke-width: 1.0;"/><polygon fill="#A80036" points="1013.82,236.667,1005.6867,231.1128,1008.9016,235.7673,1004.2471,238.9822,1013.82,236.667" style="stroke: #A80036; stroke-width: 1.0;"/><text fill="#000000" font-family="sans-serif" font-size="13" lengthAdjust="spacingAndGlyphs" textLength="7" x="530.5071" y="145.6514">1</text><text fill="#000000" font-family="sans-serif" font-size="13" lengthAdjust="spacingAndGlyphs" textLength="7" x="999.0558" y="231.6088">1</text><!--MD5=[39f520ac91c262f29add4f9d2ddb7b69]
@startuml
class ResFile{
}
class ResModel{
}
class ResVertex{
}
class ResShape{
}
class ResMaterial{
}
class ResMesh{
}
class ResSubmesh{
}
class ResSkeleton{
}
class ResBone{
}
class ResVertexAttr{
}
class ResKeyShape{
}
class ResRenderInfo{
}
class ResShaderAssign{
}
class ResShaderParam{
}
class Sampler{
}
class SamplerInfo{
}

ResFile "1" - -> "0..*" ResModel
ResModel "1" - -> "0..*" ResVertex
ResModel "1" - -> "0..*" ResShape
ResModel "1" - -> "0..*" ResMaterial
ResShape "1" - -> "0..*" ResKeyShape
ResMaterial "1" - -> "0..*" ResRenderInfo
ResMaterial "1" - -> "0..*" ResShaderParam
ResMaterial "1" - -> "0..*" SamplerInfo
ResMaterial "1" - -> "0..*" Sampler


ResVertex "1" - -> "1..*" ResVertexAttr
ResShape "1" - -> "1..*" ResMesh
ResMesh "1" - -> "1..*" ResSubmesh
ResSkeleton "1" - -> "1..*" ResBone
ResMaterial "1" - -> "1..*" ResShaderAssign


ResShape "1" - -> "1" ResVertex
ResModel "1" - -> "1" ResSkeleton

@enduml

PlantUML version 1.2020.19(Tue Oct 13 00:10:01 JST 2020)
(GPL source distribution)
Java Runtime: OpenJDK Runtime Environment
JVM: OpenJDK 64-Bit Server VM
Default Encoding: MS932
Language: ja
Country: JP
--></g></svg>