<?xml version="1.0" encoding="UTF-8" standalone="no"?>
<!DOCTYPE svg PUBLIC "-//W3C//DTD SVG 1.1//EN"
 "http://www.w3.org/Graphics/SVG/1.1/DTD/svg11.dtd">
<!-- Generated by graphviz version 2.38.0 (20140413.2041)
 -->
<!-- Pages: 1 -->
<svg width="615pt" height="488pt"
 viewBox="0.00 0.00 615.39 488.00" xmlns="http://www.w3.org/2000/svg" xmlns:xlink="http://www.w3.org/1999/xlink">
<g id="graph0" class="graph" transform="scale(1 1) rotate(0) translate(4 484)">
<polygon fill="white" stroke="none" points="-4,4 -4,-484 611.392,-484 611.392,4 -4,4"/>
<g id="clust2" class="cluster"><title>cluster_gf2</title>
<path fill="none" stroke="red" d="M57.3917,-174C57.3917,-174 315.392,-174 315.392,-174 321.392,-174 327.392,-180 327.392,-186 327.392,-186 327.392,-352 327.392,-352 327.392,-358 321.392,-364 315.392,-364 315.392,-364 57.3917,-364 57.3917,-364 51.3917,-364 45.3917,-358 45.3917,-352 45.3917,-352 45.3917,-186 45.3917,-186 45.3917,-180 51.3917,-174 57.3917,-174"/>
<text text-anchor="middle" x="186.392" y="-350.4" font-family="Times New Roman,serif" font-size="12.00" fill="red">Creating Binary Resources</text>
<text text-anchor="middle" x="186.392" y="-337.4" font-family="Times New Roman,serif" font-size="12.00" fill="red">Without Gathering Material Animations</text>
</g>
<g id="clust1" class="cluster"><title>cluster_gf</title>
<path fill="none" stroke="red" d="M347.392,-8C347.392,-8 587.392,-8 587.392,-8 593.392,-8 599.392,-14 599.392,-20 599.392,-20 599.392,-352 599.392,-352 599.392,-358 593.392,-364 587.392,-364 587.392,-364 347.392,-364 347.392,-364 341.392,-364 335.392,-358 335.392,-352 335.392,-352 335.392,-20 335.392,-20 335.392,-14 341.392,-8 347.392,-8"/>
<text text-anchor="middle" x="467.392" y="-350.4" font-family="Times New Roman,serif" font-size="12.00" fill="red">Creating Binary Resources</text>
<text text-anchor="middle" x="467.392" y="-337.4" font-family="Times New Roman,serif" font-size="12.00" fill="red">After Gathering Material Animations</text>
</g>
<!-- G3dBinaryConvert -->
<g id="node1" class="node"><title>G3dBinaryConvert</title>
<polygon fill="lightyellow" stroke="orange" points="484.392,-146 372.392,-146 372.392,-110 484.392,-110 484.392,-146"/>
<text text-anchor="middle" x="428.392" y="-125.8" font-family="Verdana" font-size="9.00">3D Binary Converter</text>
</g>
<!-- MergedMaterialAnimBfres -->
<g id="node10" class="node"><title>MergedMaterialAnimBfres</title>
<polygon fill="lightyellow" stroke="black" points="499.892,-74 356.892,-74 356.892,-16 499.892,-16 499.892,-74"/>
<text text-anchor="middle" x="428.392" y="-62.8" font-family="Verdana" font-size="9.00">Human.bfres</text>
<text text-anchor="middle" x="428.392" y="-42.8" font-family="Verdana" font-size="9.00">Model: Human</text>
<text text-anchor="middle" x="428.392" y="-32.8" font-family="Verdana" font-size="9.00">Skeletal Animation: Human</text>
<text text-anchor="middle" x="428.392" y="-22.8" font-family="Verdana" font-size="9.00">Material Animation: Human</text>
</g>
<!-- G3dBinaryConvert&#45;&gt;MergedMaterialAnimBfres -->
<g id="edge3" class="edge"><title>G3dBinaryConvert&#45;&gt;MergedMaterialAnimBfres</title>
<path fill="none" stroke="black" d="M428.392,-109.822C428.392,-101.848 428.392,-92.0449 428.392,-82.5358"/>
<polygon fill="black" stroke="black" points="431.192,-82.3085 428.392,-74.3085 425.592,-82.3086 431.192,-82.3085"/>
</g>
<!-- G3dBinaryConvertWithoutCombine -->
<g id="node2" class="node"><title>G3dBinaryConvertWithoutCombine</title>
<polygon fill="lightyellow" stroke="orange" points="280.392,-322 168.392,-322 168.392,-286 280.392,-286 280.392,-322"/>
<text text-anchor="middle" x="224.392" y="-301.8" font-family="Verdana" font-size="9.00">3D Binary Converter</text>
</g>
<!-- SeparatedMaterialAnimBfres -->
<g id="node11" class="node"><title>SeparatedMaterialAnimBfres</title>
<polygon fill="lightyellow" stroke="black" points="319.392,-250 53.3917,-250 53.3917,-182 319.392,-182 319.392,-250"/>
<text text-anchor="middle" x="186.392" y="-238.8" font-family="Verdana" font-size="9.00">Human.bfres</text>
<text text-anchor="middle" x="186.392" y="-218.8" font-family="Verdana" font-size="9.00">Model: Human</text>
<text text-anchor="middle" x="186.392" y="-208.8" font-family="Verdana" font-size="9.00">Skeletal Animation: Human</text>
<text text-anchor="middle" x="186.392" y="-198.8" font-family="Verdana" font-size="9.00">Material Animation: Human</text>
<text text-anchor="middle" x="186.392" y="-188.8" font-family="Verdana" font-size="9.00">Material Animation: Human_CreatedByUsinG3dEditor</text>
</g>
<!-- G3dBinaryConvertWithoutCombine&#45;&gt;SeparatedMaterialAnimBfres -->
<g id="edge4" class="edge"><title>G3dBinaryConvertWithoutCombine&#45;&gt;SeparatedMaterialAnimBfres</title>
<path fill="none" stroke="black" d="M216.702,-285.597C213.107,-277.461 208.663,-267.404 204.297,-257.523"/>
<polygon fill="black" stroke="black" points="206.783,-256.22 200.988,-250.035 201.661,-258.484 206.783,-256.22"/>
</g>
<!-- DccToolPlugin -->
<g id="node3" class="node"><title>DccToolPlugin</title>
<polygon fill="lightyellow" stroke="orange" points="202.892,-480 41.8917,-480 41.8917,-444 202.892,-444 202.892,-480"/>
<text text-anchor="middle" x="122.392" y="-459.8" font-family="Verdana" font-size="9.00">Maya / 3ds Max Export Plug&#45;In</text>
</g>
<!-- DccToolMaterialAnimOutput -->
<g id="node6" class="node"><title>DccToolMaterialAnimOutput</title>
<polygon fill="lightyellow" stroke="black" points="309.392,-408 233.392,-408 233.392,-372 309.392,-372 309.392,-408"/>
<text text-anchor="middle" x="271.392" y="-387.8" font-family="Verdana" font-size="9.00">Human.fmab</text>
</g>
<!-- DccToolPlugin&#45;&gt;DccToolMaterialAnimOutput -->
<g id="edge6" class="edge"><title>DccToolPlugin&#45;&gt;DccToolMaterialAnimOutput</title>
<path fill="none" stroke="black" d="M158.841,-443.876C179.663,-434.094 205.905,-421.765 227.812,-411.474"/>
<polygon fill="black" stroke="black" points="229.01,-414.004 235.061,-408.068 226.629,-408.936 229.01,-414.004"/>
</g>
<!-- DccToolOtherOutputs -->
<g id="node8" class="node"><title>DccToolOtherOutputs</title>
<polygon fill="lightyellow" stroke="black" points="215.392,-408 139.392,-408 139.392,-372 215.392,-372 215.392,-408"/>
<text text-anchor="middle" x="177.392" y="-392.8" font-family="Verdana" font-size="9.00">Human.fmdb</text>
<text text-anchor="middle" x="177.392" y="-382.8" font-family="Verdana" font-size="9.00">Human.fskb</text>
</g>
<!-- DccToolPlugin&#45;&gt;DccToolOtherOutputs -->
<g id="edge5" class="edge"><title>DccToolPlugin&#45;&gt;DccToolOtherOutputs</title>
<path fill="none" stroke="black" d="M135.987,-443.697C142.914,-434.881 151.438,-424.032 158.948,-414.474"/>
<polygon fill="black" stroke="black" points="161.212,-416.125 163.953,-408.104 156.808,-412.665 161.212,-416.125"/>
</g>
<!-- G3dEditor -->
<g id="node4" class="node"><title>G3dEditor</title>
<polygon fill="lightyellow" stroke="orange" points="433.892,-480 220.892,-480 220.892,-444 433.892,-444 433.892,-480"/>
<text text-anchor="middle" x="327.392" y="-464.8" font-family="Verdana" font-size="9.00">3dEditor</text>
<text text-anchor="middle" x="327.392" y="-454.8" font-family="Verdana" font-size="9.00">(Editing Tool for Other Intermediate Files)</text>
</g>
<!-- G3dEditor&#45;&gt;DccToolMaterialAnimOutput -->
<g id="edge7" class="edge"><title>G3dEditor&#45;&gt;DccToolMaterialAnimOutput</title>
<path fill="none" stroke="black" d="M307.633,-443.697C299.748,-434.965 290.996,-424.24 283.962,-414.75"/>
<polygon fill="black" stroke="black" points="286.125,-412.963 279.18,-408.104 281.58,-416.233 286.125,-412.963"/>
</g>
<!-- G3dEditorMaterialAnimOutput -->
<g id="node7" class="node"><title>G3dEditorMaterialAnimOutput</title>
<polygon fill="lightyellow" stroke="black" points="524.892,-408 327.892,-408 327.892,-372 524.892,-372 524.892,-408"/>
<text text-anchor="middle" x="426.392" y="-387.8" font-family="Verdana" font-size="9.00">Human_CreatedByUsing3dEditor.fmab</text>
</g>
<!-- G3dEditor&#45;&gt;G3dEditorMaterialAnimOutput -->
<g id="edge9" class="edge"><title>G3dEditor&#45;&gt;G3dEditorMaterialAnimOutput</title>
<path fill="none" stroke="black" d="M345.948,-443.697C358.285,-434.287 374.743,-422.562 389.609,-412.563"/>
<polygon fill="black" stroke="black" points="391.198,-414.868 396.306,-408.104 388.095,-410.207 391.198,-414.868"/>
</g>
<!-- G3dEditor&#45;&gt;DccToolOtherOutputs -->
<g id="edge8" class="edge"><title>G3dEditor&#45;&gt;DccToolOtherOutputs</title>
<path fill="none" stroke="black" d="M284.8,-443.876C262.992,-434.173 236.721,-421.964 215.574,-411.723"/>
<polygon fill="black" stroke="black" points="216.741,-409.177 208.323,-408.19 214.288,-414.211 216.741,-409.177"/>
</g>
<!-- G3dOptimizer -->
<g id="node5" class="node"><title>G3dOptimizer</title>
<polygon fill="lightyellow" stroke="orange" points="591.392,-322 343.392,-322 343.392,-286 591.392,-286 591.392,-322"/>
<text text-anchor="middle" x="467.392" y="-301.8" font-family="Verdana" font-size="9.00">Combine Function for Intermediate File Optimizer</text>
</g>
<!-- TmpOutputMergedMaterialAnim -->
<g id="node9" class="node"><title>TmpOutputMergedMaterialAnim</title>
<polygon fill="lightyellow" stroke="black" points="503.392,-234 405.392,-234 405.392,-198 503.392,-198 503.392,-234"/>
<text text-anchor="middle" x="454.392" y="-213.8" font-family="Verdana" font-size="9.00">tmp/Human.fmab</text>
</g>
<!-- G3dOptimizer&#45;&gt;TmpOutputMergedMaterialAnim -->
<g id="edge1" class="edge"><title>G3dOptimizer&#45;&gt;TmpOutputMergedMaterialAnim</title>
<path fill="none" stroke="black" d="M464.761,-285.597C462.881,-273.159 460.322,-256.23 458.216,-242.302"/>
<polygon fill="black" stroke="black" points="460.938,-241.576 456.974,-234.084 455.401,-242.413 460.938,-241.576"/>
</g>
<!-- DccToolMaterialAnimOutput&#45;&gt;G3dBinaryConvertWithoutCombine -->
<g id="edge18" class="edge"><title>DccToolMaterialAnimOutput&#45;&gt;G3dBinaryConvertWithoutCombine</title>
<path fill="none" stroke="black" d="M261.653,-371.595C254.802,-359.35 245.541,-342.799 237.966,-329.26"/>
<polygon fill="black" stroke="black" points="240.307,-327.709 233.957,-322.095 235.42,-330.444 240.307,-327.709"/>
</g>
<!-- DccToolMaterialAnimOutput&#45;&gt;G3dEditor -->
<g id="edge11" class="edge"><title>DccToolMaterialAnimOutput&#45;&gt;G3dEditor</title>
<path fill="none" stroke="black" d="M290.97,-408.104C298.842,-416.805 307.6,-427.524 314.661,-437.033"/>
<polygon fill="black" stroke="black" points="312.515,-438.845 319.465,-443.697 317.058,-435.57 312.515,-438.845"/>
</g>
<!-- DccToolMaterialAnimOutput&#45;&gt;G3dOptimizer -->
<g id="edge15" class="edge"><title>DccToolMaterialAnimOutput&#45;&gt;G3dOptimizer</title>
<path fill="none" stroke="black" d="M309.515,-373.213C316.786,-370.174 324.33,-367.003 331.392,-364 361.248,-351.305 394.677,-336.806 420.921,-325.359"/>
<polygon fill="black" stroke="black" points="422.26,-327.829 428.472,-322.063 420.02,-322.697 422.26,-327.829"/>
</g>
<!-- G3dEditorMaterialAnimOutput&#45;&gt;G3dBinaryConvertWithoutCombine -->
<g id="edge16" class="edge"><title>G3dEditorMaterialAnimOutput&#45;&gt;G3dBinaryConvertWithoutCombine</title>
<path fill="none" stroke="black" d="M353.941,-371.936C346.241,-369.531 338.596,-366.883 331.392,-364 305.846,-353.778 278.718,-338.768 258.17,-326.447"/>
<polygon fill="black" stroke="black" points="259.481,-323.968 251.189,-322.213 256.577,-328.756 259.481,-323.968"/>
</g>
<!-- G3dEditorMaterialAnimOutput&#45;&gt;G3dEditor -->
<g id="edge12" class="edge"><title>G3dEditorMaterialAnimOutput&#45;&gt;G3dEditor</title>
<path fill="none" stroke="black" d="M407.984,-408.19C395.645,-417.607 379.137,-429.371 364.225,-439.403"/>
<polygon fill="black" stroke="black" points="362.614,-437.112 357.507,-443.876 365.718,-441.773 362.614,-437.112"/>
</g>
<!-- G3dEditorMaterialAnimOutput&#45;&gt;G3dOptimizer -->
<g id="edge14" class="edge"><title>G3dEditorMaterialAnimOutput&#45;&gt;G3dOptimizer</title>
<path fill="none" stroke="black" d="M434.887,-371.595C440.808,-359.464 448.793,-343.105 455.366,-329.637"/>
<polygon fill="black" stroke="black" points="458.055,-330.513 459.048,-322.095 453.022,-328.056 458.055,-330.513"/>
</g>
<!-- DccToolOtherOutputs&#45;&gt;G3dBinaryConvert -->
<g id="edge13" class="edge"><title>DccToolOtherOutputs&#45;&gt;G3dBinaryConvert</title>
<path fill="none" stroke="black" d="M139.21,-387.292C103.423,-384.795 53.6447,-378.711 41.3917,-364 -12.653,-299.115 -14.7654,-237.065 41.3917,-174 62.4411,-150.361 259.606,-137.233 364.09,-131.883"/>
<polygon fill="black" stroke="black" points="364.521,-134.665 372.37,-131.465 364.239,-129.072 364.521,-134.665"/>
</g>
<!-- DccToolOtherOutputs&#45;&gt;G3dBinaryConvertWithoutCombine -->
<g id="edge17" class="edge"><title>DccToolOtherOutputs&#45;&gt;G3dBinaryConvertWithoutCombine</title>
<path fill="none" stroke="black" d="M187.13,-371.595C193.981,-359.35 203.242,-342.799 210.818,-329.26"/>
<polygon fill="black" stroke="black" points="213.364,-330.444 214.827,-322.095 208.477,-327.709 213.364,-330.444"/>
</g>
<!-- DccToolOtherOutputs&#45;&gt;G3dEditor -->
<g id="edge10" class="edge"><title>DccToolOtherOutputs&#45;&gt;G3dEditor</title>
<path fill="none" stroke="black" d="M215.558,-406.162C238.148,-416.136 266.58,-429.319 289.173,-440.26"/>
<polygon fill="black" stroke="black" points="288.176,-442.889 296.595,-443.876 290.63,-437.855 288.176,-442.889"/>
</g>
<!-- TmpOutputMergedMaterialAnim&#45;&gt;G3dBinaryConvert -->
<g id="edge2" class="edge"><title>TmpOutputMergedMaterialAnim&#45;&gt;G3dBinaryConvert</title>
<path fill="none" stroke="black" d="M449.13,-197.597C445.335,-185.042 440.155,-167.91 435.922,-153.908"/>
<polygon fill="black" stroke="black" points="438.552,-152.931 433.557,-146.084 433.192,-154.552 438.552,-152.931"/>
</g>
</g>
</svg>
