<?xml version="1.0" encoding="UTF-8" standalone="no"?>
<!DOCTYPE svg PUBLIC "-//W3C//DTD SVG 1.1//EN"
 "http://www.w3.org/Graphics/SVG/1.1/DTD/svg11.dtd">
<!-- Generated by graphviz version 2.38.0 (20140413.2041)
 -->
<!-- Pages: 1 -->
<svg width="549pt" height="520pt"
 viewBox="0.00 0.00 548.50 520.00" xmlns="http://www.w3.org/2000/svg" xmlns:xlink="http://www.w3.org/1999/xlink">
<g id="graph0" class="graph" transform="scale(1 1) rotate(0) translate(4 516)">
<polygon fill="white" stroke="none" points="-4,4 -4,-516 544.5,-516 544.5,4 -4,4"/>
<g id="clust2" class="cluster"><title>cluster_gf2</title>
<path fill="none" stroke="red" d="M79.5,-174C79.5,-174 248.5,-174 248.5,-174 254.5,-174 260.5,-180 260.5,-186 260.5,-186 260.5,-382 260.5,-382 260.5,-388 254.5,-394 248.5,-394 248.5,-394 79.5,-394 79.5,-394 73.5,-394 67.5,-388 67.5,-382 67.5,-382 67.5,-186 67.5,-186 67.5,-180 73.5,-174 79.5,-174"/>
<text text-anchor="middle" x="164" y="-380.4" font-family="Times New Roman,serif" font-size="12.00" fill="red">Creating Binary Resources</text>
<text text-anchor="middle" x="164" y="-367.4" font-family="Times New Roman,serif" font-size="12.00" fill="red">Without Gathering Material Animations</text>
</g>
<g id="clust1" class="cluster"><title>cluster_gf</title>
<path fill="none" stroke="red" d="M280.5,-8C280.5,-8 520.5,-8 520.5,-8 526.5,-8 532.5,-14 532.5,-20 532.5,-20 532.5,-382 532.5,-382 532.5,-388 526.5,-394 520.5,-394 520.5,-394 280.5,-394 280.5,-394 274.5,-394 268.5,-388 268.5,-382 268.5,-382 268.5,-20 268.5,-20 268.5,-14 274.5,-8 280.5,-8"/>
<text text-anchor="middle" x="400.5" y="-380.4" font-family="Times New Roman,serif" font-size="12.00" fill="red">Creating Binary Resources</text>
<text text-anchor="middle" x="400.5" y="-367.4" font-family="Times New Roman,serif" font-size="12.00" fill="red">After Gathering Material Animations</text>
</g>
<!-- G3dBinaryConvert -->
<g id="node1" class="node"><title>G3dBinaryConvert</title>
<polygon fill="lightyellow" stroke="orange" points="417.5,-146 305.5,-146 305.5,-110 417.5,-110 417.5,-146"/>
<text text-anchor="middle" x="361.5" y="-125.8" font-family="Verdana" font-size="9.00">3D Binary Converter</text>
</g>
<!-- MergedMaterialAnimBfres -->
<g id="node10" class="node"><title>MergedMaterialAnimBfres</title>
<polygon fill="lightyellow" stroke="black" points="433,-74 290,-74 290,-16 433,-16 433,-74"/>
<text text-anchor="middle" x="361.5" y="-62.8" font-family="Verdana" font-size="9.00">Human.bfres</text>
<text text-anchor="middle" x="361.5" y="-42.8" font-family="Verdana" font-size="9.00">Model: Human</text>
<text text-anchor="middle" x="361.5" y="-32.8" font-family="Verdana" font-size="9.00">Skeletal Animation: Human</text>
<text text-anchor="middle" x="361.5" y="-22.8" font-family="Verdana" font-size="9.00">Material Animation: Human</text>
</g>
<!-- G3dBinaryConvert&#45;&gt;MergedMaterialAnimBfres -->
<g id="edge3" class="edge"><title>G3dBinaryConvert&#45;&gt;MergedMaterialAnimBfres</title>
<path fill="none" stroke="black" d="M361.5,-109.822C361.5,-101.848 361.5,-92.0449 361.5,-82.5358"/>
<polygon fill="black" stroke="black" points="364.3,-82.3085 361.5,-74.3085 358.7,-82.3086 364.3,-82.3085"/>
</g>
<!-- G3dBinaryConvertWithoutCombine -->
<g id="node2" class="node"><title>G3dBinaryConvertWithoutCombine</title>
<polygon fill="lightyellow" stroke="orange" points="238.5,-352 126.5,-352 126.5,-316 238.5,-316 238.5,-352"/>
<text text-anchor="middle" x="182.5" y="-331.8" font-family="Verdana" font-size="9.00">3D Binary Converter</text>
</g>
<!-- SeparatedMaterialAnimBfres -->
<g id="node11" class="node"><title>SeparatedMaterialAnimBfres</title>
<polygon fill="lightyellow" stroke="black" points="252.5,-280 86.5,-280 86.5,-182 252.5,-182 252.5,-280"/>
<text text-anchor="middle" x="169.5" y="-268.8" font-family="Verdana" font-size="9.00">Human.bfres</text>
<text text-anchor="middle" x="169.5" y="-248.8" font-family="Verdana" font-size="9.00">Model: Human</text>
<text text-anchor="middle" x="169.5" y="-238.8" font-family="Verdana" font-size="9.00">Skeletal Animation: Human</text>
<text text-anchor="middle" x="169.5" y="-228.8" font-family="Verdana" font-size="9.00">Material Animation: Human_fcl</text>
<text text-anchor="middle" x="169.5" y="-218.8" font-family="Verdana" font-size="9.00">Material Animation: Human_fts</text>
<text text-anchor="middle" x="169.5" y="-208.8" font-family="Verdana" font-size="9.00">Material Animation: Human_ftp</text>
<text text-anchor="middle" x="169.5" y="-198.8" font-family="Verdana" font-size="9.00">Material Animation: Human_fsp</text>
<text text-anchor="middle" x="169.5" y="-188.8" font-family="Verdana" font-size="9.00">Material Animation: Human_fvm</text>
</g>
<!-- G3dBinaryConvertWithoutCombine&#45;&gt;SeparatedMaterialAnimBfres -->
<g id="edge4" class="edge"><title>G3dBinaryConvertWithoutCombine&#45;&gt;SeparatedMaterialAnimBfres</title>
<path fill="none" stroke="black" d="M180.295,-315.867C179.289,-308.051 178.034,-298.305 176.74,-288.25"/>
<polygon fill="black" stroke="black" points="179.496,-287.729 175.698,-280.152 173.942,-288.444 179.496,-287.729"/>
</g>
<!-- DccToolPlugin -->
<g id="node3" class="node"><title>DccToolPlugin</title>
<polygon fill="lightyellow" stroke="orange" points="161,-512 0,-512 0,-476 161,-476 161,-512"/>
<text text-anchor="middle" x="80.5" y="-491.8" font-family="Verdana" font-size="9.00">Maya / 3ds Max Export Plug&#45;In</text>
</g>
<!-- DccToolMaterialAnimOutput -->
<g id="node6" class="node"><title>DccToolMaterialAnimOutput</title>
<polygon fill="lightyellow" stroke="black" points="282,-440 187,-440 187,-402 282,-402 282,-440"/>
<text text-anchor="middle" x="234.5" y="-428.8" font-family="Verdana" font-size="9.00">Human_fcl.fmab</text>
<text text-anchor="middle" x="234.5" y="-418.8" font-family="Verdana" font-size="9.00">Human_fts.fmab</text>
<text text-anchor="middle" x="234.5" y="-408.8" font-family="Verdana" font-size="9.00">Human_ftp.fmab</text>
</g>
<!-- DccToolPlugin&#45;&gt;DccToolMaterialAnimOutput -->
<g id="edge6" class="edge"><title>DccToolPlugin&#45;&gt;DccToolMaterialAnimOutput</title>
<path fill="none" stroke="black" d="M117.387,-475.994C138.493,-466.263 165.177,-453.961 187.742,-443.557"/>
<polygon fill="black" stroke="black" points="189.129,-446.001 195.222,-440.109 186.785,-440.915 189.129,-446.001"/>
</g>
<!-- DccToolOtherOutputs -->
<g id="node8" class="node"><title>DccToolOtherOutputs</title>
<polygon fill="lightyellow" stroke="black" points="168.5,-439 92.5,-439 92.5,-403 168.5,-403 168.5,-439"/>
<text text-anchor="middle" x="130.5" y="-423.8" font-family="Verdana" font-size="9.00">Human.fmdb</text>
<text text-anchor="middle" x="130.5" y="-413.8" font-family="Verdana" font-size="9.00">Human.fskb</text>
</g>
<!-- DccToolPlugin&#45;&gt;DccToolOtherOutputs -->
<g id="edge5" class="edge"><title>DccToolPlugin&#45;&gt;DccToolOtherOutputs</title>
<path fill="none" stroke="black" d="M92.6036,-475.813C98.9909,-466.743 106.925,-455.477 113.88,-445.6"/>
<polygon fill="black" stroke="black" points="116.191,-447.182 118.508,-439.029 111.612,-443.958 116.191,-447.182"/>
</g>
<!-- G3dEditor -->
<g id="node4" class="node"><title>G3dEditor</title>
<polygon fill="lightyellow" stroke="orange" points="392,-512 179,-512 179,-476 392,-476 392,-512"/>
<text text-anchor="middle" x="285.5" y="-496.8" font-family="Verdana" font-size="9.00">3DEditor</text>
<text text-anchor="middle" x="285.5" y="-486.8" font-family="Verdana" font-size="9.00">(Editing Tool for Other Intermediate Files)</text>
</g>
<!-- G3dEditor&#45;&gt;DccToolMaterialAnimOutput -->
<g id="edge7" class="edge"><title>G3dEditor&#45;&gt;DccToolMaterialAnimOutput</title>
<path fill="none" stroke="black" d="M267.276,-475.813C260.101,-467.094 252.185,-456.347 245.814,-446.754"/>
<polygon fill="black" stroke="black" points="248.164,-445.232 241.481,-440.02 243.455,-448.262 248.164,-445.232"/>
</g>
<!-- G3dEditorMaterialAnimOutput -->
<g id="node7" class="node"><title>G3dEditorMaterialAnimOutput</title>
<polygon fill="lightyellow" stroke="black" points="398.5,-440 300.5,-440 300.5,-402 398.5,-402 398.5,-440"/>
<text text-anchor="middle" x="349.5" y="-428.8" font-family="Verdana" font-size="9.00">Human_fsp.fmab</text>
<text text-anchor="middle" x="349.5" y="-418.8" font-family="Verdana" font-size="9.00">Human_fvm.fmab</text>
<text text-anchor="middle" x="349.5" y="-408.8" font-family="Verdana" font-size="9.00">...</text>
</g>
<!-- G3dEditor&#45;&gt;G3dEditorMaterialAnimOutput -->
<g id="edge9" class="edge"><title>G3dEditor&#45;&gt;G3dEditorMaterialAnimOutput</title>
<path fill="none" stroke="black" d="M295.114,-475.813C302.264,-466.84 312.108,-455.719 321.519,-445.919"/>
<polygon fill="black" stroke="black" points="323.699,-447.695 327.294,-440.02 319.697,-443.778 323.699,-447.695"/>
</g>
<!-- G3dEditor&#45;&gt;DccToolOtherOutputs -->
<g id="edge8" class="edge"><title>G3dEditor&#45;&gt;DccToolOtherOutputs</title>
<path fill="none" stroke="black" d="M242.514,-475.994C219.564,-465.968 191.606,-453.213 169.317,-442.617"/>
<polygon fill="black" stroke="black" points="170.415,-440.039 161.99,-439.114 167.999,-445.091 170.415,-440.039"/>
</g>
<!-- G3dOptimizer -->
<g id="node5" class="node"><title>G3dOptimizer</title>
<polygon fill="lightyellow" stroke="orange" points="524.5,-352 276.5,-352 276.5,-316 524.5,-316 524.5,-352"/>
<text text-anchor="middle" x="400.5" y="-331.8" font-family="Verdana" font-size="9.00">Combine Function for Intermediate File Optimizer</text>
</g>
<!-- TmpOutputMergedMaterialAnim -->
<g id="node9" class="node"><title>TmpOutputMergedMaterialAnim</title>
<polygon fill="lightyellow" stroke="black" points="436.5,-249 338.5,-249 338.5,-213 436.5,-213 436.5,-249"/>
<text text-anchor="middle" x="387.5" y="-228.8" font-family="Verdana" font-size="9.00">tmp/Human.fmab</text>
</g>
<!-- G3dOptimizer&#45;&gt;TmpOutputMergedMaterialAnim -->
<g id="edge1" class="edge"><title>G3dOptimizer&#45;&gt;TmpOutputMergedMaterialAnim</title>
<path fill="none" stroke="black" d="M398.295,-315.867C396.222,-299.761 393.094,-275.459 390.738,-257.154"/>
<polygon fill="black" stroke="black" points="393.515,-256.794 389.716,-249.217 387.96,-257.509 393.515,-256.794"/>
</g>
<!-- DccToolMaterialAnimOutput&#45;&gt;G3dBinaryConvertWithoutCombine -->
<g id="edge18" class="edge"><title>DccToolMaterialAnimOutput&#45;&gt;G3dBinaryConvertWithoutCombine</title>
<path fill="none" stroke="black" d="M223.472,-401.974C215.875,-389.556 205.692,-372.91 197.378,-359.32"/>
<polygon fill="black" stroke="black" points="199.543,-357.494 192.98,-352.131 194.766,-360.416 199.543,-357.494"/>
</g>
<!-- DccToolMaterialAnimOutput&#45;&gt;G3dEditor -->
<g id="edge11" class="edge"><title>DccToolMaterialAnimOutput&#45;&gt;G3dEditor</title>
<path fill="none" stroke="black" d="M253.406,-440.02C260.555,-448.777 268.361,-459.426 274.602,-468.874"/>
<polygon fill="black" stroke="black" points="272.367,-470.577 279.033,-475.813 277.087,-467.563 272.367,-470.577"/>
</g>
<!-- DccToolMaterialAnimOutput&#45;&gt;G3dOptimizer -->
<g id="edge15" class="edge"><title>DccToolMaterialAnimOutput&#45;&gt;G3dOptimizer</title>
<path fill="none" stroke="black" d="M269.704,-401.974C296.088,-388.464 332.247,-369.949 359.86,-355.81"/>
<polygon fill="black" stroke="black" points="361.2,-358.269 367.045,-352.131 358.648,-353.285 361.2,-358.269"/>
</g>
<!-- G3dEditorMaterialAnimOutput&#45;&gt;G3dBinaryConvertWithoutCombine -->
<g id="edge16" class="edge"><title>G3dEditorMaterialAnimOutput&#45;&gt;G3dBinaryConvertWithoutCombine</title>
<path fill="none" stroke="black" d="M300.282,-404.988C281.629,-399.291 264.746,-394.122 264.5,-394 244.427,-384.048 223.967,-369.336 208.506,-357.093"/>
<polygon fill="black" stroke="black" points="210.189,-354.854 202.202,-352.018 206.678,-359.216 210.189,-354.854"/>
</g>
<!-- G3dEditorMaterialAnimOutput&#45;&gt;G3dEditor -->
<g id="edge12" class="edge"><title>G3dEditorMaterialAnimOutput&#45;&gt;G3dEditor</title>
<path fill="none" stroke="black" d="M339.22,-440.02C331.908,-449.121 321.997,-460.265 312.616,-469.98"/>
<polygon fill="black" stroke="black" points="310.489,-468.148 306.871,-475.813 314.479,-472.078 310.489,-468.148"/>
</g>
<!-- G3dEditorMaterialAnimOutput&#45;&gt;G3dOptimizer -->
<g id="edge14" class="edge"><title>G3dEditorMaterialAnimOutput&#45;&gt;G3dOptimizer</title>
<path fill="none" stroke="black" d="M360.316,-401.974C367.766,-389.556 377.754,-372.91 385.908,-359.32"/>
<polygon fill="black" stroke="black" points="388.507,-360.431 390.222,-352.131 383.705,-357.55 388.507,-360.431"/>
</g>
<!-- DccToolOtherOutputs&#45;&gt;G3dBinaryConvert -->
<g id="edge13" class="edge"><title>DccToolOtherOutputs&#45;&gt;G3dBinaryConvert</title>
<path fill="none" stroke="black" d="M92.2771,-413.69C81.1488,-409.883 70.1959,-403.781 63.5,-394 8.26528,-313.318 -0.269033,-248.122 63.5,-174 93.0084,-139.701 218.656,-131.207 297.075,-129.306"/>
<polygon fill="black" stroke="black" points="297.515,-132.097 305.452,-129.123 297.393,-126.498 297.515,-132.097"/>
</g>
<!-- DccToolOtherOutputs&#45;&gt;G3dBinaryConvertWithoutCombine -->
<g id="edge17" class="edge"><title>DccToolOtherOutputs&#45;&gt;G3dBinaryConvertWithoutCombine</title>
<path fill="none" stroke="black" d="M141.023,-402.799C148.706,-390.241 159.223,-373.049 167.744,-359.12"/>
<polygon fill="black" stroke="black" points="170.206,-360.461 171.993,-352.175 165.429,-357.539 170.206,-360.461"/>
</g>
<!-- DccToolOtherOutputs&#45;&gt;G3dEditor -->
<g id="edge10" class="edge"><title>DccToolOtherOutputs&#45;&gt;G3dEditor</title>
<path fill="none" stroke="black" d="M168.737,-436.94C192.505,-447.24 222.872,-461.063 246.732,-472.406"/>
<polygon fill="black" stroke="black" points="245.808,-475.068 254.233,-475.994 248.224,-470.016 245.808,-475.068"/>
</g>
<!-- TmpOutputMergedMaterialAnim&#45;&gt;G3dBinaryConvert -->
<g id="edge2" class="edge"><title>TmpOutputMergedMaterialAnim&#45;&gt;G3dBinaryConvert</title>
<path fill="none" stroke="black" d="M383.089,-212.867C378.943,-196.761 372.687,-172.459 367.975,-154.154"/>
<polygon fill="black" stroke="black" points="370.638,-153.267 365.932,-146.217 365.215,-154.663 370.638,-153.267"/>
</g>
</g>
</svg>
