<?xml version="1.0" encoding="UTF-8" standalone="no"?>
<!DOCTYPE svg PUBLIC "-//W3C//DTD SVG 1.1//EN"
 "http://www.w3.org/Graphics/SVG/1.1/DTD/svg11.dtd">
<!-- Generated by graphviz version 2.38.0 (20140413.2041)
 -->
<!-- Pages: 1 -->
<svg width="514pt" height="378pt"
 viewBox="0.00 0.00 514.33 378.00" xmlns="http://www.w3.org/2000/svg" xmlns:xlink="http://www.w3.org/1999/xlink">
<g id="graph0" class="graph" transform="scale(1 1) rotate(0) translate(4 374)">
<polygon fill="white" stroke="none" points="-4,4 -4,-374 510.328,-374 510.328,4 -4,4"/>
<!-- Parent -->
<g id="node1" class="node"><title>Parent</title>
<ellipse fill="white" stroke="black" cx="423.513" cy="-279" rx="82.631" ry="18"/>
<text text-anchor="middle" x="423.513" y="-277.1" font-family="Verdana" font-size="8.00">What type is the parent node?</text>
</g>
<!-- Found -->
<g id="node2" class="node"><title>Found</title>
<ellipse fill="white" stroke="black" cx="338.513" cy="-105" rx="108.181" ry="18"/>
<text text-anchor="middle" x="338.513" y="-103.1" font-family="Verdana" font-size="8.00">Are there bilaterally symmetrical nodes?</text>
</g>
<!-- Parent&#45;&gt;Found -->
<g id="edge2" class="edge"><title>Parent&#45;&gt;Found</title>
<path fill="none" stroke="black" d="M419.883,-260.971C417.507,-251.127 414.007,-238.627 409.513,-228 394.377,-192.203 370.746,-153.937 354.954,-129.999"/>
<polygon fill="black" stroke="black" points="357.089,-128.154 350.323,-123.049 352.429,-131.259 357.089,-128.154"/>
<text text-anchor="middle" x="413.013" y="-188.3" font-family="Times New Roman,serif" font-size="14.00">side</text>
</g>
<!-- X -->
<g id="node3" class="node"><title>X</title>
<ellipse fill="white" stroke="black" cx="181.513" cy="-192" rx="181.526" ry="18"/>
<text text-anchor="middle" x="181.513" y="-190.1" font-family="Verdana" font-size="8.00">Is the x&#45;coordinate absolute value less than the error tolerance value?</text>
</g>
<!-- Parent&#45;&gt;X -->
<g id="edge6" class="edge"><title>Parent&#45;&gt;X</title>
<path fill="none" stroke="black" d="M340.869,-277.76C276.352,-275.605 194.139,-267.851 172.513,-243 166.512,-236.104 166.845,-226.597 169.367,-217.723"/>
<polygon fill="black" stroke="black" points="172.011,-218.645 172.043,-210.169 166.732,-216.775 172.011,-218.645"/>
<text text-anchor="middle" x="291.013" y="-231.8" font-family="Times New Roman,serif" font-size="14.00">The center or target node is the root node.</text>
</g>
<!-- None -->
<g id="node7" class="node"><title>None</title>
<polygon fill="lightyellow" stroke="black" points="459.513,-36 405.513,-36 405.513,-0 459.513,-0 459.513,-36"/>
<text text-anchor="middle" x="432.513" y="-16.1" font-family="Verdana" font-size="8.00">none</text>
</g>
<!-- Parent&#45;&gt;None -->
<g id="edge5" class="edge"><title>Parent&#45;&gt;None</title>
<path fill="none" stroke="black" d="M430.192,-260.884C442.388,-227.468 466.076,-151.195 455.513,-87 453.083,-72.2337 447.873,-56.359 443.024,-43.6644"/>
<polygon fill="black" stroke="black" points="445.623,-42.622 440.081,-36.2095 440.415,-44.6788 445.623,-42.622"/>
<text text-anchor="middle" x="471.513" y="-144.8" font-family="Times New Roman,serif" font-size="14.00">none</text>
</g>
<!-- Side -->
<g id="node5" class="node"><title>Side</title>
<polygon fill="lightyellow" stroke="black" points="365.513,-36 311.513,-36 311.513,-0 365.513,-0 365.513,-36"/>
<text text-anchor="middle" x="338.513" y="-16.1" font-family="Verdana" font-size="8.00">side</text>
</g>
<!-- Found&#45;&gt;Side -->
<g id="edge3" class="edge"><title>Found&#45;&gt;Side</title>
<path fill="none" stroke="black" d="M338.513,-86.799C338.513,-74.5865 338.513,-57.9921 338.513,-44.2776"/>
<polygon fill="black" stroke="black" points="341.313,-44.1754 338.513,-36.1754 335.713,-44.1755 341.313,-44.1754"/>
<text text-anchor="middle" x="349.513" y="-57.8" font-family="Times New Roman,serif" font-size="14.00">Yes</text>
</g>
<!-- Found&#45;&gt;None -->
<g id="edge4" class="edge"><title>Found&#45;&gt;None</title>
<path fill="none" stroke="black" d="M357.084,-87.2067C371.538,-74.1368 391.738,-55.8713 407.596,-41.5311"/>
<polygon fill="black" stroke="black" points="409.603,-43.4918 413.658,-36.0493 405.847,-39.3382 409.603,-43.4918"/>
<text text-anchor="middle" x="400.513" y="-57.8" font-family="Times New Roman,serif" font-size="14.00">No</text>
</g>
<!-- X&#45;&gt;Found -->
<g id="edge8" class="edge"><title>X&#45;&gt;Found</title>
<path fill="none" stroke="black" d="M212.531,-174.207C237.935,-160.453 273.966,-140.946 300.992,-126.314"/>
<polygon fill="black" stroke="black" points="302.657,-128.596 308.359,-122.325 299.991,-123.672 302.657,-128.596"/>
<text text-anchor="middle" x="278.513" y="-144.8" font-family="Times New Roman,serif" font-size="14.00">No</text>
</g>
<!-- Center -->
<g id="node6" class="node"><title>Center</title>
<polygon fill="lightyellow" stroke="black" points="208.513,-36 154.513,-36 154.513,-0 208.513,-0 208.513,-36"/>
<text text-anchor="middle" x="181.513" y="-16.1" font-family="Verdana" font-size="8.00">center</text>
</g>
<!-- X&#45;&gt;Center -->
<g id="edge7" class="edge"><title>X&#45;&gt;Center</title>
<path fill="none" stroke="black" d="M181.513,-173.879C181.513,-143.486 181.513,-79.9693 181.513,-44.4433"/>
<polygon fill="black" stroke="black" points="184.313,-44.0516 181.513,-36.0516 178.713,-44.0516 184.313,-44.0516"/>
<text text-anchor="middle" x="192.513" y="-101.3" font-family="Times New Roman,serif" font-size="14.00">Yes</text>
</g>
<!-- Auto -->
<g id="node4" class="node"><title>Auto</title>
<polygon fill="lightyellow" stroke="black" points="450.513,-370 396.513,-370 396.513,-334 450.513,-334 450.513,-370"/>
<text text-anchor="middle" x="423.513" y="-350.1" font-family="Verdana" font-size="8.00">auto</text>
</g>
<!-- Auto&#45;&gt;Parent -->
<g id="edge1" class="edge"><title>Auto&#45;&gt;Parent</title>
<path fill="none" stroke="black" d="M423.513,-333.813C423.513,-325.179 423.513,-314.555 423.513,-305.034"/>
<polygon fill="black" stroke="black" points="426.313,-305.029 423.513,-297.029 420.713,-305.029 426.313,-305.029"/>
</g>
</g>
</svg>
