<?xml version="1.0" encoding="UTF-8" standalone="no"?>
<!DOCTYPE svg PUBLIC "-//W3C//DTD SVG 1.1//EN"
 "http://www.w3.org/Graphics/SVG/1.1/DTD/svg11.dtd">
<!-- Generated by graphviz version 2.38.0 (20140413.2041)
 -->
<!-- Pages: 1 -->
<svg width="625pt" height="45pt"
 viewBox="0.00 0.00 624.50 44.77" xmlns="http://www.w3.org/2000/svg" xmlns:xlink="http://www.w3.org/1999/xlink">
<g id="graph0" class="graph" transform="scale(1 1) rotate(0) translate(4 40.7696)">
<polygon fill="white" stroke="none" points="-4,4 -4,-40.7696 620.5,-40.7696 620.5,4 -4,4"/>
<!-- fmdb -->
<g id="node1" class="node"><title>fmdb</title>
<polygon fill="lightyellow" stroke="black" points="616.5,-36.3848 459.5,-36.3848 459.5,-0.384776 616.5,-0.384776 616.5,-36.3848"/>
<text text-anchor="middle" x="538" y="-16.1848" font-family="meiryo" font-size="9.00">Intermediate Model File (FMDB)</text>
</g>
<!-- Assign -->
<g id="node2" class="node"><title>Assign</title>
<ellipse fill="none" stroke="black" stroke-dasharray="5,2" cx="291" cy="-18.3848" rx="150.728" ry="18.2703"/>
<text text-anchor="middle" x="291" y="-20.9848" font-family="meiryo" font-size="8.00">Use the assign utility to add shader information </text>
<text text-anchor="middle" x="291" y="-11.9848" font-family="meiryo" font-size="8.00">to the &lt;shader_assign&gt; element in the model.</text>
</g>
<!-- Assign&#45;&gt;fmdb -->
<g id="edge2" class="edge"><title>Assign&#45;&gt;fmdb</title>
<path fill="none" stroke="black" d="M441.998,-18.3848C445.053,-18.3848 448.108,-18.3848 451.162,-18.3848"/>
<polygon fill="black" stroke="black" points="451.248,-21.1849 459.248,-18.3848 451.248,-15.5849 451.248,-21.1849"/>
</g>
<!-- fsdb -->
<g id="node3" class="node"><title>fsdb</title>
<polygon fill="#ffe1ff" stroke="black" points="122,-36.3848 7.10543e-015,-36.3848 7.10543e-015,-0.384776 122,-0.384776 122,-36.3848"/>
<text text-anchor="middle" x="61" y="-16.4848" font-family="meiryo" font-size="8.00">Shader Definitions (FSDB)</text>
</g>
<!-- fsdb&#45;&gt;Assign -->
<g id="edge1" class="edge"><title>fsdb&#45;&gt;Assign</title>
<path fill="none" stroke="black" d="M122.094,-18.3848C125.401,-18.3848 128.709,-18.3848 132.016,-18.3848"/>
<polygon fill="black" stroke="black" points="132.238,-21.1849 140.238,-18.3848 132.238,-15.5849 132.238,-21.1849"/>
</g>
</g>
</svg>
