<?xml version="1.0" encoding="UTF-8" standalone="no"?>
<!DOCTYPE svg PUBLIC "-//W3C//DTD SVG 1.1//EN"
 "http://www.w3.org/Graphics/SVG/1.1/DTD/svg11.dtd">
<!-- Generated by graphviz version 2.38.0 (20140413.2041)
 -->
<!-- Pages: 1 -->
<svg width="653pt" height="699pt"
 viewBox="0.00 0.00 653.38 698.77" xmlns="http://www.w3.org/2000/svg" xmlns:xlink="http://www.w3.org/1999/xlink">
<g id="graph0" class="graph" transform="scale(1 1) rotate(0) translate(4 694.77)">
<polygon fill="white" stroke="none" points="-4,4 -4,-694.77 649.378,-694.77 649.378,4 -4,4"/>
<g id="clust2" class="cluster"><title>cluster_glsl</title>
<polygon fill="lightpink" stroke="black" points="158.378,-611.77 158.378,-682.77 272.378,-682.77 272.378,-611.77 158.378,-611.77"/>
<text text-anchor="middle" x="215.378" y="-670.77" font-family="meiryo" font-size="10.00">Shader Source Code</text>
</g>
<g id="clust1" class="cluster"><title>cluster_fmdb</title>
<polygon fill="honeydew" stroke="black" points="148.378,-8 148.378,-79 277.378,-79 277.378,-8 148.378,-8"/>
<text text-anchor="middle" x="212.878" y="-67" font-family="meiryo" font-size="10.00">Model Intermediate File</text>
</g>
<g id="clust4" class="cluster"><title>cluster_glsl3</title>
<polygon fill="lightpink" stroke="black" points="402.378,-611.77 402.378,-682.77 516.378,-682.77 516.378,-611.77 402.378,-611.77"/>
<text text-anchor="middle" x="459.378" y="-670.77" font-family="meiryo" font-size="10.00">Shader Source Code</text>
</g>
<g id="clust3" class="cluster"><title>cluster_glsl2</title>
<polygon fill="lightpink" stroke="black" points="280.378,-611.77 280.378,-682.77 394.378,-682.77 394.378,-611.77 280.378,-611.77"/>
<text text-anchor="middle" x="337.378" y="-670.77" font-family="meiryo" font-size="10.00">Shader Source Code</text>
</g>
<g id="clust6" class="cluster"><title>cluster_fsdb</title>
<polygon fill="#ffe1ff" stroke="black" points="265.378,-224.77 265.378,-312.77 409.378,-312.77 409.378,-224.77 265.378,-224.77"/>
<text text-anchor="middle" x="337.378" y="-300.77" font-family="meiryo" font-size="10.00">Shader Definitions (FSDB)</text>
</g>
<g id="clust5" class="cluster"><title>cluster_fsca</title>
<polygon fill="#ffe1ff" stroke="black" points="257.378,-422.77 257.378,-501.77 417.378,-501.77 417.378,-422.77 257.378,-422.77"/>
<text text-anchor="middle" x="337.378" y="-489.77" font-family="meiryo" font-size="10.00">Shader Settings (FSCA, FSCB)</text>
</g>
<g id="clust7" class="cluster"><title>cluster_fsva</title>
<polygon fill="#ffe1ff" stroke="black" points="417.378,-233.27 417.378,-304.27 618.378,-304.27 618.378,-233.27 417.378,-233.27"/>
<text text-anchor="middle" x="517.878" y="-292.27" font-family="meiryo" font-size="10.00">Shader variation files (FSVA and FSVB)</text>
</g>
<g id="clust8" class="cluster"><title>cluster_bfsha</title>
<polygon fill="lavender" stroke="black" points="334.378,-8 334.378,-79 467.378,-79 467.378,-8 334.378,-8"/>
<text text-anchor="middle" x="400.878" y="-67" font-family="meiryo" font-size="10.00">Shader Archive (BFSHA)</text>
</g>
<!-- g3DEditor -->
<g id="node1" class="node"><title>g3DEditor</title>
<polygon fill="honeydew" stroke="black" points="60.3783,-277.27 6.37825,-277.27 6.37825,-241.27 60.3783,-241.27 60.3783,-277.27"/>
<text text-anchor="middle" x="33.3783" y="-257.07" font-family="meiryo" font-size="9.00">3DEditor</text>
</g>
<!-- editMat -->
<g id="node8" class="node"><title>editMat</title>
<ellipse fill="none" stroke="black" stroke-dasharray="5,2" cx="158.378" cy="-259.27" rx="79.8063" ry="18.2703"/>
<text text-anchor="middle" x="158.378" y="-261.87" font-family="meiryo" font-size="8.00">Reference</text>
<text text-anchor="middle" x="158.378" y="-252.87" font-family="meiryo" font-size="8.00">(Used to edit materials)</text>
</g>
<!-- g3DEditor&#45;&gt;editMat -->
<g id="edge5" class="edge"><title>g3DEditor&#45;&gt;editMat</title>
<path fill="none" stroke="black" d="M60.722,-259.27C66.5712,-259.27 72.4204,-259.27 78.2696,-259.27"/>
</g>
<!-- editMatM -->
<g id="node9" class="node"><title>editMatM</title>
<ellipse fill="none" stroke="black" stroke-dasharray="5,2" cx="45.3783" cy="-178.77" rx="45.2568" ry="18"/>
<text text-anchor="middle" x="45.3783" y="-176.87" font-family="meiryo" font-size="8.00">Material Editing</text>
</g>
<!-- g3DEditor&#45;&gt;editMatM -->
<g id="edge9" class="edge"><title>g3DEditor&#45;&gt;editMatM</title>
<path fill="none" stroke="black" d="M35.9821,-241.236C37.9949,-228.069 40.768,-209.928 42.7795,-196.77"/>
</g>
<!-- g3d -->
<g id="node2" class="node"><title>g3d</title>
<polygon fill="honeydew" stroke="black" points="343.378,-196.77 273.378,-196.77 273.378,-160.77 343.378,-160.77 343.378,-196.77"/>
<text text-anchor="middle" x="308.378" y="-176.57" font-family="meiryo" font-size="9.00">g3d runtime</text>
</g>
<!-- g3dref -->
<g id="node11" class="node"><title>g3dref</title>
<ellipse fill="none" stroke="black" stroke-dasharray="5,2" cx="356.378" cy="-106.385" rx="32.1649" ry="18"/>
<text text-anchor="middle" x="356.378" y="-104.485" font-family="meiryo" font-size="8.00">Reference</text>
</g>
<!-- g3d&#45;&gt;g3dref -->
<g id="edge11" class="edge"><title>g3d&#45;&gt;g3dref</title>
<path fill="none" stroke="black" d="M319.998,-160.731C327.655,-149.502 337.629,-134.878 345.196,-123.781"/>
</g>
<!-- fmdbMember -->
<g id="node3" class="node"><title>fmdbMember</title>
<polygon fill="honeydew" stroke="black" points="214.378,-52 160.378,-52 160.378,-16 214.378,-16 214.378,-52"/>
<text text-anchor="middle" x="187.378" y="-31.8" font-family="meiryo" font-size="9.00">Material</text>
</g>
<!-- glslMember -->
<g id="node4" class="node"><title>glslMember</title>
<polygon fill="lightyellow" stroke="black" points="264.378,-655.77 168.378,-655.77 168.378,-619.77 264.378,-619.77 264.378,-655.77"/>
<text text-anchor="start" x="176.378" y="-635.87" font-family="meiryo" font-size="8.00">Shader Annotations</text>
</g>
<!-- includeSource -->
<g id="node7" class="node"><title>includeSource</title>
<ellipse fill="none" stroke="black" stroke-dasharray="5,2" cx="337.378" cy="-528.77" rx="28.2235" ry="18"/>
<text text-anchor="middle" x="337.378" y="-526.87" font-family="meiryo" font-size="8.00">Includes</text>
</g>
<!-- glslMember&#45;&gt;includeSource -->
<g id="edge1" class="edge"><title>glslMember&#45;&gt;includeSource</title>
<path fill="none" stroke="black" d="M250.336,-606.741C273.626,-586.146 303.461,-559.762 321.462,-543.844"/>
<polygon fill="black" stroke="black" points="248.4,-604.715 244.262,-612.112 252.11,-608.91 248.4,-604.715"/>
</g>
<!-- glslMember2 -->
<g id="node5" class="node"><title>glslMember2</title>
<polygon fill="lightyellow" stroke="black" points="385.378,-655.77 289.378,-655.77 289.378,-619.77 385.378,-619.77 385.378,-655.77"/>
<text text-anchor="start" x="297.378" y="-635.87" font-family="meiryo" font-size="8.00">Shader Annotations</text>
</g>
<!-- glslMember2&#45;&gt;includeSource -->
<g id="edge2" class="edge"><title>glslMember2&#45;&gt;includeSource</title>
<path fill="none" stroke="black" d="M337.378,-611.541C337.378,-591.625 337.378,-564.374 337.378,-546.918"/>
<polygon fill="black" stroke="black" points="334.582,-603.768 337.378,-611.77 340.182,-603.771 334.582,-603.768"/>
</g>
<!-- glslMember3 -->
<g id="node6" class="node"><title>glslMember3</title>
<polygon fill="lightyellow" stroke="black" points="506.378,-655.77 410.378,-655.77 410.378,-619.77 506.378,-619.77 506.378,-655.77"/>
<text text-anchor="start" x="418.378" y="-635.87" font-family="meiryo" font-size="8.00">Shader Annotations</text>
</g>
<!-- glslMember3&#45;&gt;includeSource -->
<g id="edge3" class="edge"><title>glslMember3&#45;&gt;includeSource</title>
<path fill="none" stroke="black" d="M424.421,-606.741C401.131,-586.146 371.295,-559.762 353.294,-543.844"/>
<polygon fill="black" stroke="black" points="422.647,-608.91 430.495,-612.112 426.356,-604.715 422.647,-608.91"/>
</g>
<!-- fscaMember -->
<g id="node14" class="node"><title>fscaMember</title>
<polygon fill="lightyellow" stroke="black" points="408.878,-474.77 265.878,-474.77 265.878,-430.77 408.878,-430.77 408.878,-474.77"/>
<text text-anchor="start" x="273.878" y="-464.37" font-family="meiryo" font-size="8.00">Include path</text>
<text text-anchor="start" x="273.878" y="-455.37" font-family="meiryo" font-size="8.00">Shading model declarations</text>
<text text-anchor="start" x="273.878" y="-446.37" font-family="meiryo" font-size="8.00">Range of variations</text>
<text text-anchor="start" x="273.878" y="-437.37" font-family="meiryo" font-size="8.00">Switch variations and branches</text>
</g>
<!-- includeSource&#45;&gt;fscaMember -->
<g id="edge4" class="edge"><title>includeSource&#45;&gt;fscaMember</title>
<path fill="none" stroke="black" d="M337.378,-510.606C337.378,-507.771 337.378,-504.715 337.378,-501.544"/>
</g>
<!-- fsdbMember -->
<g id="node15" class="node"><title>fsdbMember</title>
<polygon fill="lightyellow" stroke="black" points="401.378,-285.77 273.378,-285.77 273.378,-232.77 401.378,-232.77 401.378,-285.77"/>
<text text-anchor="start" x="281.378" y="-275.37" font-family="meiryo" font-size="8.00">Shading model definitions</text>
<text text-anchor="start" x="281.378" y="-266.37" font-family="meiryo" font-size="8.00">Shader variation definitions</text>
<text text-anchor="start" x="281.378" y="-257.37" font-family="meiryo" font-size="8.00">Symbol information</text>
<text text-anchor="start" x="281.378" y="-248.37" font-family="meiryo" font-size="8.00">UI definitions</text>
<text text-anchor="start" x="281.378" y="-239.37" font-family="meiryo" font-size="8.00">Shader resources</text>
</g>
<!-- editMat&#45;&gt;fsdbMember -->
<g id="edge6" class="edge"><title>editMat&#45;&gt;fsdbMember</title>
<path fill="none" stroke="black" d="M238.439,-259.27C247.316,-259.27 256.193,-259.27 265.07,-259.27"/>
<polygon fill="black" stroke="black" points="257.379,-262.072 265.378,-259.27 257.377,-256.472 257.379,-262.072"/>
</g>
<!-- editMatM&#45;&gt;fmdbMember -->
<g id="edge10" class="edge"><title>editMatM&#45;&gt;fmdbMember</title>
<path fill="none" stroke="black" d="M57.2258,-161.293C71.0785,-142.557 95.2037,-111.522 119.378,-88 126.422,-81.1462 134.326,-74.3216 142.185,-67.9621"/>
<polygon fill="black" stroke="black" points="144.236,-69.9088 148.757,-62.7391 140.752,-65.5248 144.236,-69.9088"/>
</g>
<!-- Assign -->
<g id="node10" class="node"><title>Assign</title>
<ellipse fill="none" stroke="black" stroke-dasharray="5,2" cx="204.378" cy="-106.385" rx="75.8212" ry="18.2703"/>
<text text-anchor="middle" x="204.378" y="-108.985" font-family="meiryo" font-size="8.00">Assign shaders</text>
<text text-anchor="middle" x="204.378" y="-99.9848" font-family="meiryo" font-size="8.00">using the assign utility</text>
</g>
<!-- Assign&#45;&gt;fmdbMember -->
<g id="edge8" class="edge"><title>Assign&#45;&gt;fmdbMember</title>
<path fill="none" stroke="black" d="M200.176,-87.9863C200.067,-87.5331 199.956,-87.0745 199.844,-86.611"/>
<polygon fill="black" stroke="black" points="202.544,-85.8639 197.944,-78.7449 197.101,-87.1787 202.544,-85.8639"/>
</g>
<!-- bfshaMember -->
<g id="node17" class="node"><title>bfshaMember</title>
<polygon fill="lightyellow" stroke="black" points="436.378,-52 352.378,-52 352.378,-16 436.378,-16 436.378,-52"/>
<text text-anchor="start" x="360.378" y="-32.1" font-family="meiryo" font-size="8.00">Shader Program</text>
</g>
<!-- g3dref&#45;&gt;bfshaMember -->
<g id="edge12" class="edge"><title>g3dref&#45;&gt;bfshaMember</title>
<path fill="none" stroke="black" d="M365.192,-89.0602C365.725,-88.0716 366.274,-87.0549 366.836,-86.0149"/>
<polygon fill="black" stroke="black" points="369.359,-87.2349 370.696,-78.8651 364.431,-84.5744 369.359,-87.2349"/>
</g>
<!-- g3dconverter1 -->
<g id="node12" class="node"><title>g3dconverter1</title>
<ellipse fill="none" stroke="black" stroke-dasharray="5,2" cx="337.378" cy="-376.77" rx="106.143" ry="18"/>
<text text-anchor="middle" x="337.378" y="-374.87" font-family="meiryo" font-size="8.00">Converted using the 3D Shader Converter</text>
</g>
<!-- g3dconverter1&#45;&gt;fsdbMember -->
<g id="edge14" class="edge"><title>g3dconverter1&#45;&gt;fsdbMember</title>
<path fill="none" stroke="black" d="M337.378,-358.727C337.378,-348.487 337.378,-334.772 337.378,-320.838"/>
<polygon fill="black" stroke="black" points="340.178,-320.633 337.378,-312.633 334.578,-320.633 340.178,-320.633"/>
</g>
<!-- g3dconverter2 -->
<g id="node13" class="node"><title>g3dconverter2</title>
<ellipse fill="none" stroke="black" stroke-dasharray="5,2" cx="467.378" cy="-178.77" rx="106.143" ry="18"/>
<text text-anchor="middle" x="467.378" y="-176.87" font-family="meiryo" font-size="8.00">Converted using the 3D Shader Converter</text>
</g>
<!-- g3dconverter2&#45;&gt;bfshaMember -->
<g id="edge17" class="edge"><title>g3dconverter2&#45;&gt;bfshaMember</title>
<path fill="none" stroke="black" d="M458.573,-160.548C449.145,-142.11 433.737,-111.977 420.38,-85.8529"/>
<polygon fill="black" stroke="black" points="422.809,-84.4522 416.674,-78.604 417.823,-87.0017 422.809,-84.4522"/>
</g>
<!-- fscaMember&#45;&gt;g3dconverter1 -->
<g id="edge13" class="edge"><title>fscaMember&#45;&gt;g3dconverter1</title>
<path fill="none" stroke="black" d="M337.378,-423.064C337.378,-413.619 337.378,-403.413 337.378,-395.084"/>
</g>
<!-- fsdbMember&#45;&gt;Assign -->
<g id="edge7" class="edge"><title>fsdbMember&#45;&gt;Assign</title>
<path fill="none" stroke="black" d="M294.336,-225.436C284.003,-216.651 273.367,-206.795 264.378,-196.77 243.916,-173.948 225.047,-143.683 214.128,-124.877"/>
</g>
<!-- fsdbMember&#45;&gt;g3dconverter2 -->
<g id="edge15" class="edge"><title>fsdbMember&#45;&gt;g3dconverter2</title>
<path fill="none" stroke="black" d="M392.264,-225.127C408.693,-215.207 426.005,-204.753 439.863,-196.384"/>
</g>
<!-- fsvaMember -->
<g id="node16" class="node"><title>fsvaMember</title>
<polygon fill="lightyellow" stroke="black" points="540.878,-277.27 425.878,-277.27 425.878,-241.27 540.878,-241.27 540.878,-277.27"/>
<text text-anchor="middle" x="483.378" y="-257.37" font-family="meiryo" font-size="8.00">Specify Variation Details</text>
</g>
<!-- fsvaMember&#45;&gt;g3dconverter2 -->
<g id="edge16" class="edge"><title>fsvaMember&#45;&gt;g3dconverter2</title>
<path fill="none" stroke="black" d="M478.303,-233.371C475.872,-221.441 473.022,-207.461 470.843,-196.77"/>
</g>
<!-- GroupA -->
<g id="node18" class="node"><title>GroupA</title>
</g>
<!-- GroupB -->
<g id="node19" class="node"><title>GroupB</title>
</g>
<!-- GroupA&#45;&gt;GroupB -->
<g id="edge18" class="edge"><title>GroupA&#45;&gt;GroupB</title>
<path fill="none" stroke="white" d="M618.378,-52.3703C618.378,-63.3379 618.378,-77.4431 618.378,-88.3466"/>
</g>
<!-- GroupC -->
<g id="node20" class="node"><title>GroupC</title>
</g>
<!-- GroupB&#45;&gt;GroupC -->
<g id="edge19" class="edge"><title>GroupB&#45;&gt;GroupC</title>
<path fill="none" stroke="white" d="M618.378,-124.755C618.378,-135.723 618.378,-149.828 618.378,-160.731"/>
</g>
</g>
</svg>
