<?xml version="1.0" encoding="UTF-8" standalone="no"?>
<!DOCTYPE svg PUBLIC "-//W3C//DTD SVG 1.1//EN"
 "http://www.w3.org/Graphics/SVG/1.1/DTD/svg11.dtd">
<!-- Generated by graphviz version 2.38.0 (20140413.2041)
 -->
<!-- Pages: 1 -->
<svg width="470pt" height="189pt"
 viewBox="0.00 0.00 470.21 188.77" xmlns="http://www.w3.org/2000/svg" xmlns:xlink="http://www.w3.org/1999/xlink">
<g id="graph0" class="graph" transform="scale(1 1) rotate(0) translate(4 184.77)">
<polygon fill="white" stroke="none" points="-4,4 -4,-184.77 466.208,-184.77 466.208,4 -4,4"/>
<!-- g3DEditor -->
<g id="node1" class="node"><title>g3DEditor</title>
<polygon fill="honeydew" stroke="black" points="263.849,-180.77 209.849,-180.77 209.849,-144.77 263.849,-144.77 263.849,-180.77"/>
<text text-anchor="middle" x="236.849" y="-160.57" font-family="meiryo" font-size="9.00">3DEditor</text>
</g>
<!-- editMat -->
<g id="node3" class="node"><title>editMat</title>
<ellipse fill="none" stroke="black" stroke-dasharray="5,2" cx="116.849" cy="-90.3848" rx="116.698" ry="18"/>
<text text-anchor="middle" x="116.849" y="-88.4848" font-family="meiryo" font-size="8.00">Reference the UI definitions in the annotations</text>
</g>
<!-- g3DEditor&#45;&gt;editMat -->
<g id="edge1" class="edge"><title>g3DEditor&#45;&gt;editMat</title>
<path fill="none" stroke="black" d="M209.619,-145.798C190.395,-134.523 164.697,-119.45 145.223,-108.027"/>
</g>
<!-- editMatM -->
<g id="node4" class="node"><title>editMatM</title>
<ellipse fill="none" stroke="black" stroke-dasharray="5,2" cx="356.849" cy="-90.3848" rx="105.218" ry="18.2703"/>
<text text-anchor="middle" x="356.849" y="-92.9848" font-family="meiryo" font-size="8.00">Edit the material</text>
<text text-anchor="middle" x="356.849" y="-83.9848" font-family="meiryo" font-size="8.00">Edit the &lt;shader_assign&gt; values</text>
</g>
<!-- g3DEditor&#45;&gt;editMatM -->
<g id="edge3" class="edge"><title>g3DEditor&#45;&gt;editMatM</title>
<path fill="none" stroke="black" d="M264.079,-145.798C283.164,-134.604 308.631,-119.666 328.054,-108.274"/>
</g>
<!-- fmdb -->
<g id="node2" class="node"><title>fmdb</title>
<polygon fill="lightyellow" stroke="black" points="435.349,-36 278.349,-36 278.349,-0 435.349,-0 435.349,-36"/>
<text text-anchor="middle" x="356.849" y="-15.8" font-family="meiryo" font-size="9.00">Intermediate Model File (FMDB)</text>
</g>
<!-- fsdb -->
<g id="node5" class="node"><title>fsdb</title>
<polygon fill="#ffe1ff" stroke="black" points="177.849,-36 55.849,-36 55.849,-0 177.849,-0 177.849,-36"/>
<text text-anchor="middle" x="116.849" y="-16.1" font-family="meiryo" font-size="8.00">Shader Definitions (FSDB)</text>
</g>
<!-- editMat&#45;&gt;fsdb -->
<g id="edge2" class="edge"><title>editMat&#45;&gt;fsdb</title>
<path fill="none" stroke="black" d="M116.849,-72.3466C116.849,-63.9986 116.849,-53.7738 116.849,-44.5173"/>
<polygon fill="black" stroke="black" points="119.649,-44.3702 116.849,-36.3703 114.049,-44.3703 119.649,-44.3702"/>
</g>
<!-- editMatM&#45;&gt;fmdb -->
<g id="edge4" class="edge"><title>editMatM&#45;&gt;fmdb</title>
<path fill="none" stroke="black" d="M356.849,-71.9863C356.849,-63.6333 356.849,-53.4655 356.849,-44.2789"/>
<polygon fill="black" stroke="black" points="359.649,-44.1983 356.849,-36.1984 354.049,-44.1984 359.649,-44.1983"/>
</g>
</g>
</svg>
