<?xml version="1.0" encoding="UTF-8" standalone="no"?>
<!DOCTYPE svg PUBLIC "-//W3C//DTD SVG 1.1//EN"
 "http://www.w3.org/Graphics/SVG/1.1/DTD/svg11.dtd">
<!-- Generated by graphviz version 2.38.0 (20140413.2041)
 -->
<!-- Pages: 1 -->
<svg width="951pt" height="481pt"
 viewBox="0.00 0.00 950.57 480.98" xmlns="http://www.w3.org/2000/svg" xmlns:xlink="http://www.w3.org/1999/xlink">
<g id="graph0" class="graph" transform="scale(1 1) rotate(0) translate(4 476.983)">
<polygon fill="white" stroke="none" points="-4,4 -4,-476.983 946.566,-476.983 946.566,4 -4,4"/>
<!-- compile1 -->
<g id="node1" class="node"><title>compile1</title>
<polygon fill="mistyrose" stroke="black" points="215,-379 0,-379 0,-308 215,-308 215,-379"/>
<text text-anchor="start" x="84.5" y="-363.3" font-family="Verdana" font-size="9.00">Compile 1</text>
<text text-anchor="start" x="12.5" y="-348.1" font-family="Verdana" font-size="8.00">&#45;&#45;shader&#45;cache&#45;directory=&quot;Shader Cache 1&quot;</text>
<text text-anchor="start" x="77.5" y="-333.1" font-family="Verdana" font-size="8.00">&#45;&#45;skip&#45;convert</text>
<text text-anchor="start" x="70" y="-318.1" font-family="Verdana" font-size="8.00">Variations: 0 &#45; 24</text>
</g>
<!-- cache1 -->
<g id="node7" class="node"><title>cache1</title>
<ellipse fill="lightyellow" stroke="black" cx="189.5" cy="-254" rx="53.2327" ry="18"/>
<text text-anchor="middle" x="189.5" y="-251.8" font-family="Verdana" font-size="9.00">Shader Cache 1</text>
</g>
<!-- compile1&#45;&gt;cache1 -->
<g id="edge5" class="edge"><title>compile1&#45;&gt;cache1</title>
<path fill="none" stroke="black" d="M139.909,-307.918C149.603,-297.573 159.969,-286.512 168.704,-277.191"/>
<polygon fill="black" stroke="black" points="170.757,-279.095 174.185,-271.343 166.671,-275.265 170.757,-279.095"/>
</g>
<!-- compile2 -->
<g id="node2" class="node"><title>compile2</title>
<polygon fill="mistyrose" stroke="black" points="448,-379 233,-379 233,-308 448,-308 448,-379"/>
<text text-anchor="start" x="317.5" y="-363.3" font-family="Verdana" font-size="9.00">Compile 2</text>
<text text-anchor="start" x="245.5" y="-348.1" font-family="Verdana" font-size="8.00">&#45;&#45;shader&#45;cache&#45;directory=&quot;Shader Cache 2&quot;</text>
<text text-anchor="start" x="310.5" y="-333.1" font-family="Verdana" font-size="8.00">&#45;&#45;skip&#45;convert</text>
<text text-anchor="start" x="300.5" y="-318.1" font-family="Verdana" font-size="8.00">Variations: 25 &#45; 49</text>
</g>
<!-- cache2 -->
<g id="node8" class="node"><title>cache2</title>
<ellipse fill="lightyellow" stroke="black" cx="395.5" cy="-254" rx="53.2327" ry="18"/>
<text text-anchor="middle" x="395.5" y="-251.8" font-family="Verdana" font-size="9.00">Shader Cache 2</text>
</g>
<!-- compile2&#45;&gt;cache2 -->
<g id="edge6" class="edge"><title>compile2&#45;&gt;cache2</title>
<path fill="none" stroke="black" d="M362.237,-307.918C368.398,-298.118 374.962,-287.675 380.617,-278.678"/>
<polygon fill="black" stroke="black" points="383.045,-280.076 384.932,-271.813 378.304,-277.096 383.045,-280.076"/>
</g>
<!-- compile3 -->
<g id="node3" class="node"><title>compile3</title>
<polygon fill="mistyrose" stroke="black" points="681,-379 466,-379 466,-308 681,-308 681,-379"/>
<text text-anchor="start" x="550.5" y="-363.3" font-family="Verdana" font-size="9.00">Compile 3</text>
<text text-anchor="start" x="478.5" y="-348.1" font-family="Verdana" font-size="8.00">&#45;&#45;shader&#45;cache&#45;directory=&quot;Shader Cache 3&quot;</text>
<text text-anchor="start" x="543.5" y="-333.1" font-family="Verdana" font-size="8.00">&#45;&#45;skip&#45;convert</text>
<text text-anchor="start" x="533.5" y="-318.1" font-family="Verdana" font-size="8.00">Variations: 50 &#45; 74</text>
</g>
<!-- cache3 -->
<g id="node9" class="node"><title>cache3</title>
<ellipse fill="lightyellow" stroke="black" cx="573.5" cy="-254" rx="53.2327" ry="18"/>
<text text-anchor="middle" x="573.5" y="-251.8" font-family="Verdana" font-size="9.00">Shader Cache 3</text>
</g>
<!-- compile3&#45;&gt;cache3 -->
<g id="edge7" class="edge"><title>compile3&#45;&gt;cache3</title>
<path fill="none" stroke="black" d="M573.5,-307.918C573.5,-298.746 573.5,-289.012 573.5,-280.426"/>
<polygon fill="black" stroke="black" points="576.3,-280.287 573.5,-272.287 570.7,-280.287 576.3,-280.287"/>
</g>
<!-- compile4 -->
<g id="node4" class="node"><title>compile4</title>
<polygon fill="mistyrose" stroke="black" points="914,-379 699,-379 699,-308 914,-308 914,-379"/>
<text text-anchor="start" x="783.5" y="-363.3" font-family="Verdana" font-size="9.00">Compile 4</text>
<text text-anchor="start" x="711.5" y="-348.1" font-family="Verdana" font-size="8.00">&#45;&#45;shader&#45;cache&#45;directory=&quot;Shader Cache 4&quot;</text>
<text text-anchor="start" x="776.5" y="-333.1" font-family="Verdana" font-size="8.00">&#45;&#45;skip&#45;convert</text>
<text text-anchor="start" x="766.5" y="-318.1" font-family="Verdana" font-size="8.00">Variations: 75 &#45; 99</text>
</g>
<!-- cache4 -->
<g id="node10" class="node"><title>cache4</title>
<ellipse fill="lightyellow" stroke="black" cx="752.5" cy="-254" rx="53.2327" ry="18"/>
<text text-anchor="middle" x="752.5" y="-251.8" font-family="Verdana" font-size="9.00">Shader Cache 4</text>
</g>
<!-- compile4&#45;&gt;cache4 -->
<g id="edge8" class="edge"><title>compile4&#45;&gt;cache4</title>
<path fill="none" stroke="black" d="M785.158,-307.918C779.11,-298.118 772.665,-287.675 767.113,-278.678"/>
<polygon fill="black" stroke="black" points="769.46,-277.15 762.876,-271.813 764.695,-280.091 769.46,-277.15"/>
</g>
<!-- convert -->
<g id="node5" class="node"><title>convert</title>
<polygon fill="mistyrose" stroke="black" points="861,-128 654,-128 654,-72 861,-72 861,-128"/>
<text text-anchor="start" x="739" y="-112.8" font-family="Verdana" font-size="9.00">Convert</text>
<text text-anchor="start" x="666.5" y="-97.6" font-family="Verdana" font-size="8.00">&#45;&#45;shader&#45;cache&#45;directory=&quot;Shader Cache&quot;</text>
<text text-anchor="start" x="720" y="-82.6" font-family="Verdana" font-size="8.00">Variations: 0 &#45; 99</text>
</g>
<!-- binary -->
<g id="node12" class="node"><title>binary</title>
<ellipse fill="lightyellow" stroke="black" cx="757.5" cy="-18" rx="27" ry="18"/>
<text text-anchor="middle" x="757.5" y="-15.8" font-family="Verdana" font-size="9.00">Binary</text>
</g>
<!-- convert&#45;&gt;binary -->
<g id="edge15" class="edge"><title>convert&#45;&gt;binary</title>
<path fill="none" stroke="black" d="M757.5,-71.9156C757.5,-62.9844 757.5,-53.0907 757.5,-44.298"/>
<polygon fill="black" stroke="black" points="760.3,-44.2726 757.5,-36.2726 754.7,-44.2727 760.3,-44.2726"/>
</g>
<!-- source -->
<g id="node6" class="node"><title>source</title>
<ellipse fill="lightyellow" stroke="black" cx="573.5" cy="-443.991" rx="60.623" ry="28.9828"/>
<text text-anchor="start" x="557" y="-448.791" font-family="Verdana" font-size="9.00">Source</text>
<text text-anchor="start" x="542.5" y="-433.591" font-family="Verdana" font-size="8.00">100 Variations</text>
</g>
<!-- source&#45;&gt;compile1 -->
<g id="edge1" class="edge"><title>source&#45;&gt;compile1</title>
<path fill="none" stroke="black" d="M515.81,-434.407C446.103,-423.585 325.475,-403.411 223.5,-379 223.328,-378.959 223.155,-378.917 222.982,-378.876"/>
<polygon fill="black" stroke="black" points="223.578,-376.139 215.141,-376.945 222.239,-381.577 223.578,-376.139"/>
</g>
<!-- source&#45;&gt;compile2 -->
<g id="edge2" class="edge"><title>source&#45;&gt;compile2</title>
<path fill="none" stroke="black" d="M528.851,-424.118C500.841,-412.278 463.741,-396.595 429.878,-382.281"/>
<polygon fill="black" stroke="black" points="430.714,-379.595 422.255,-379.059 428.534,-384.753 430.714,-379.595"/>
</g>
<!-- source&#45;&gt;compile3 -->
<g id="edge3" class="edge"><title>source&#45;&gt;compile3</title>
<path fill="none" stroke="black" d="M573.5,-414.768C573.5,-406.151 573.5,-396.476 573.5,-387.126"/>
<polygon fill="black" stroke="black" points="576.3,-387.027 573.5,-379.027 570.7,-387.028 576.3,-387.027"/>
</g>
<!-- source&#45;&gt;compile4 -->
<g id="edge4" class="edge"><title>source&#45;&gt;compile4</title>
<path fill="none" stroke="black" d="M618.149,-424.118C646.159,-412.278 683.259,-396.595 717.122,-382.281"/>
<polygon fill="black" stroke="black" points="718.466,-384.753 724.745,-379.059 716.286,-379.595 718.466,-384.753"/>
</g>
<!-- source&#45;&gt;convert -->
<g id="edge14" class="edge"><title>source&#45;&gt;convert</title>
<path fill="none" stroke="black" d="M634.018,-440.893C724.026,-436.356 886.466,-422.242 922.5,-379 989.677,-298.385 870.717,-187.237 801.676,-133.156"/>
<polygon fill="black" stroke="black" points="803.197,-130.792 795.159,-128.103 799.766,-135.218 803.197,-130.792"/>
</g>
<!-- cache -->
<g id="node11" class="node"><title>cache</title>
<ellipse fill="lightyellow" stroke="black" cx="573.5" cy="-182" rx="47.8403" ry="18"/>
<text text-anchor="middle" x="573.5" y="-179.8" font-family="Verdana" font-size="9.00">Shader Cache</text>
</g>
<!-- cache1&#45;&gt;cache -->
<g id="edge9" class="edge"><title>cache1&#45;&gt;cache</title>
<path fill="none" stroke="black" d="M235.058,-244.695C307.418,-231.505 448.101,-205.859 523.28,-192.155"/>
<polygon fill="black" stroke="black" points="523.862,-194.895 531.231,-190.705 522.858,-189.386 523.862,-194.895"/>
</g>
<!-- cache2&#45;&gt;cache -->
<g id="edge10" class="edge"><title>cache2&#45;&gt;cache</title>
<path fill="none" stroke="black" d="M428.98,-239.834C458.782,-228.114 502.412,-210.956 533.93,-198.561"/>
<polygon fill="black" stroke="black" points="535.246,-201.053 541.666,-195.519 533.196,-195.841 535.246,-201.053"/>
</g>
<!-- cache3&#45;&gt;cache -->
<g id="edge11" class="edge"><title>cache3&#45;&gt;cache</title>
<path fill="none" stroke="black" d="M573.5,-235.697C573.5,-227.389 573.5,-217.277 573.5,-208.141"/>
<polygon fill="black" stroke="black" points="576.3,-208.104 573.5,-200.104 570.7,-208.104 576.3,-208.104"/>
</g>
<!-- cache4&#45;&gt;cache -->
<g id="edge12" class="edge"><title>cache4&#45;&gt;cache</title>
<path fill="none" stroke="black" d="M718.831,-239.834C688.862,-228.114 644.988,-210.956 613.293,-198.561"/>
<polygon fill="black" stroke="black" points="613.983,-195.825 605.513,-195.519 611.944,-201.04 613.983,-195.825"/>
</g>
<!-- cache&#45;&gt;convert -->
<g id="edge13" class="edge"><title>cache&#45;&gt;convert</title>
<path fill="none" stroke="black" d="M603.884,-167.79C626.653,-157.89 658.74,-143.939 687.705,-131.346"/>
<polygon fill="black" stroke="black" points="689.166,-133.764 695.386,-128.006 686.933,-128.628 689.166,-133.764"/>
</g>
</g>
</svg>
