<?xml version="1.0" encoding="UTF-8" standalone="no"?>
<!DOCTYPE svg PUBLIC "-//W3C//DTD SVG 1.1//EN"
 "http://www.w3.org/Graphics/SVG/1.1/DTD/svg11.dtd">
<!-- Generated by graphviz version 2.38.0 (20140413.2041)
 -->
<!-- Pages: 1 -->
<svg width="858pt" height="519pt"
 viewBox="0.00 0.00 857.81 519.18" xmlns="http://www.w3.org/2000/svg" xmlns:xlink="http://www.w3.org/1999/xlink">
<g id="graph0" class="graph" transform="scale(1 1) rotate(0) translate(4 515.179)">
<polygon fill="white" stroke="none" points="-4,4 -4,-515.179 853.808,-515.179 853.808,4 -4,4"/>
<!-- compile1 -->
<g id="node1" class="node"><title>compile1</title>
<polygon fill="mistyrose" stroke="black" points="126.308,-302 63.3084,-302 63.3084,-266 126.308,-266 126.308,-302"/>
<text text-anchor="middle" x="94.8084" y="-281.8" font-family="Verdana" font-size="9.00">Convert 1</text>
</g>
<!-- file1 -->
<g id="node7" class="node"><title>file1</title>
<ellipse fill="lightyellow" stroke="black" cx="141.808" cy="-212" rx="43.7576" ry="18"/>
<text text-anchor="middle" x="141.808" y="-209.8" font-family="Verdana" font-size="9.00">Shader file 1</text>
</g>
<!-- compile1&#45;&gt;file1 -->
<g id="edge10" class="edge"><title>compile1&#45;&gt;file1</title>
<path fill="none" stroke="black" d="M106.426,-265.697C112.376,-256.835 119.705,-245.92 126.147,-236.326"/>
<polygon fill="black" stroke="black" points="128.513,-237.825 130.648,-229.622 123.864,-234.703 128.513,-237.825"/>
</g>
<!-- compile2 -->
<g id="node2" class="node"><title>compile2</title>
<polygon fill="mistyrose" stroke="black" points="325.308,-302 262.308,-302 262.308,-266 325.308,-266 325.308,-302"/>
<text text-anchor="middle" x="293.808" y="-281.8" font-family="Verdana" font-size="9.00">Convert 2</text>
</g>
<!-- file2 -->
<g id="node8" class="node"><title>file2</title>
<ellipse fill="lightyellow" stroke="black" cx="293.808" cy="-212" rx="43.7576" ry="18"/>
<text text-anchor="middle" x="293.808" y="-209.8" font-family="Verdana" font-size="9.00">Shader file 2</text>
</g>
<!-- compile2&#45;&gt;file2 -->
<g id="edge11" class="edge"><title>compile2&#45;&gt;file2</title>
<path fill="none" stroke="black" d="M293.808,-265.697C293.808,-257.389 293.808,-247.277 293.808,-238.141"/>
<polygon fill="black" stroke="black" points="296.608,-238.104 293.808,-230.104 291.008,-238.104 296.608,-238.104"/>
</g>
<!-- compile3 -->
<g id="node3" class="node"><title>compile3</title>
<polygon fill="mistyrose" stroke="black" points="431.308,-302 368.308,-302 368.308,-266 431.308,-266 431.308,-302"/>
<text text-anchor="middle" x="399.808" y="-281.8" font-family="Verdana" font-size="9.00">Convert 3</text>
</g>
<!-- file3 -->
<g id="node9" class="node"><title>file3</title>
<ellipse fill="lightyellow" stroke="black" cx="399.808" cy="-212" rx="43.7576" ry="18"/>
<text text-anchor="middle" x="399.808" y="-209.8" font-family="Verdana" font-size="9.00">Shader file 3</text>
</g>
<!-- compile3&#45;&gt;file3 -->
<g id="edge12" class="edge"><title>compile3&#45;&gt;file3</title>
<path fill="none" stroke="black" d="M399.808,-265.697C399.808,-257.389 399.808,-247.277 399.808,-238.141"/>
<polygon fill="black" stroke="black" points="402.608,-238.104 399.808,-230.104 397.008,-238.104 402.608,-238.104"/>
</g>
<!-- compile4 -->
<g id="node4" class="node"><title>compile4</title>
<polygon fill="mistyrose" stroke="black" points="633.308,-302 570.308,-302 570.308,-266 633.308,-266 633.308,-302"/>
<text text-anchor="middle" x="601.808" y="-281.8" font-family="Verdana" font-size="9.00">Convert 4</text>
</g>
<!-- file4 -->
<g id="node10" class="node"><title>file4</title>
<ellipse fill="lightyellow" stroke="black" cx="553.808" cy="-212" rx="43.7576" ry="18"/>
<text text-anchor="middle" x="553.808" y="-209.8" font-family="Verdana" font-size="9.00">Shader file 4</text>
</g>
<!-- compile4&#45;&gt;file4 -->
<g id="edge13" class="edge"><title>compile4&#45;&gt;file4</title>
<path fill="none" stroke="black" d="M589.943,-265.697C583.867,-256.835 576.382,-245.92 569.803,-236.326"/>
<polygon fill="black" stroke="black" points="572.04,-234.637 565.207,-229.622 567.422,-237.804 572.04,-234.637"/>
</g>
<!-- convert -->
<g id="node5" class="node"><title>convert</title>
<polygon fill="mistyrose" stroke="black" points="432.808,-158 260.808,-158 260.808,-72 432.808,-72 432.808,-158"/>
<text text-anchor="start" x="331.808" y="-142.8" font-family="Verdana" font-size="9.00">Merge</text>
<text text-anchor="start" x="272.808" y="-127.6" font-family="Verdana" font-size="8.00">&#45;&#45;merge&#45;shader&#45;file=Shader File 1</text>
<text text-anchor="start" x="272.808" y="-112.6" font-family="Verdana" font-size="8.00">&#45;&#45;merge&#45;shader&#45;file=Shader File 2</text>
<text text-anchor="start" x="272.808" y="-97.6" font-family="Verdana" font-size="8.00">&#45;&#45;merge&#45;shader&#45;file=Shader File 3</text>
<text text-anchor="start" x="272.808" y="-82.6" font-family="Verdana" font-size="8.00">&#45;&#45;merge&#45;shader&#45;file=Shader File 4</text>
</g>
<!-- binary -->
<g id="node11" class="node"><title>binary</title>
<ellipse fill="lightyellow" stroke="black" cx="346.808" cy="-18" rx="27" ry="18"/>
<text text-anchor="middle" x="346.808" y="-15.8" font-family="Verdana" font-size="9.00">Binary</text>
</g>
<!-- convert&#45;&gt;binary -->
<g id="edge18" class="edge"><title>convert&#45;&gt;binary</title>
<path fill="none" stroke="black" d="M346.808,-71.7784C346.808,-62.51 346.808,-52.9703 346.808,-44.5942"/>
<polygon fill="black" stroke="black" points="349.608,-44.3467 346.808,-36.3468 344.008,-44.3468 349.608,-44.3467"/>
</g>
<!-- source -->
<g id="node6" class="node"><title>source</title>
<ellipse fill="lightyellow" stroke="black" cx="295.808" cy="-482.187" rx="60.623" ry="28.9828"/>
<text text-anchor="start" x="279.308" y="-486.987" font-family="Verdana" font-size="9.00">Source</text>
<text text-anchor="start" x="264.808" y="-471.787" font-family="Verdana" font-size="8.00">100 Variations</text>
</g>
<!-- source&#45;&gt;compile1 -->
<g id="edge2" class="edge"><title>source&#45;&gt;compile1</title>
<path fill="none" stroke="black" d="M236.142,-476.17C162.015,-468.556 41.9568,-451.222 14.8084,-417.196 -7.14408,-389.682 -1.84499,-369.009 14.8084,-338 23.6947,-321.453 40.2685,-309.202 56.0358,-300.672"/>
<polygon fill="black" stroke="black" points="57.3448,-303.147 63.193,-297.012 54.7953,-298.161 57.3448,-303.147"/>
</g>
<!-- source&#45;&gt;compile2 -->
<g id="edge4" class="edge"><title>source&#45;&gt;compile2</title>
<path fill="none" stroke="black" d="M255.103,-460.582C238.811,-450.018 221.801,-435.483 212.808,-417.196 197.277,-385.61 196.067,-368.962 212.808,-338 221.889,-321.207 238.861,-308.881 254.932,-300.365"/>
<polygon fill="black" stroke="black" points="256.32,-302.801 262.222,-296.717 253.814,-297.793 256.32,-302.801"/>
</g>
<!-- source&#45;&gt;compile3 -->
<g id="edge6" class="edge"><title>source&#45;&gt;compile3</title>
<path fill="none" stroke="black" d="M335.174,-459.857C351.218,-449.158 368.405,-434.719 378.808,-417.196 398.483,-384.057 401.479,-338.375 401.15,-310.309"/>
<polygon fill="black" stroke="black" points="403.946,-310.128 400.955,-302.197 398.348,-310.262 403.946,-310.128"/>
</g>
<!-- source&#45;&gt;compile4 -->
<g id="edge8" class="edge"><title>source&#45;&gt;compile4</title>
<path fill="none" stroke="black" d="M355.35,-475.796C430.188,-467.736 552.543,-449.875 582.808,-417.196 609.48,-388.398 609.185,-339.878 605.926,-310.313"/>
<polygon fill="black" stroke="black" points="608.675,-309.737 604.897,-302.15 603.119,-310.437 608.675,-309.737"/>
</g>
<!-- file1&#45;&gt;convert -->
<g id="edge14" class="edge"><title>file1&#45;&gt;convert</title>
<path fill="none" stroke="black" d="M169.883,-197.99C191.608,-187.922 223.011,-173.37 253.349,-159.31"/>
<polygon fill="black" stroke="black" points="254.538,-161.845 260.62,-155.941 252.184,-156.764 254.538,-161.845"/>
</g>
<!-- file2&#45;&gt;convert -->
<g id="edge15" class="edge"><title>file2&#45;&gt;convert</title>
<path fill="none" stroke="black" d="M303.284,-194.016C307.832,-185.864 313.54,-175.632 319.312,-165.287"/>
<polygon fill="black" stroke="black" points="321.851,-166.481 323.304,-158.131 316.961,-163.753 321.851,-166.481"/>
</g>
<!-- file3&#45;&gt;convert -->
<g id="edge16" class="edge"><title>file3&#45;&gt;convert</title>
<path fill="none" stroke="black" d="M390.333,-194.016C385.785,-185.864 380.077,-175.632 374.305,-165.287"/>
<polygon fill="black" stroke="black" points="376.656,-163.753 370.313,-158.131 371.765,-166.481 376.656,-163.753"/>
</g>
<!-- file4&#45;&gt;convert -->
<g id="edge17" class="edge"><title>file4&#45;&gt;convert</title>
<path fill="none" stroke="black" d="M525.46,-197.99C503.318,-187.828 471.22,-173.097 440.321,-158.916"/>
<polygon fill="black" stroke="black" points="441.357,-156.311 432.918,-155.519 439.021,-161.401 441.357,-156.311"/>
</g>
<!-- R1 -->
<!-- R2 -->
<!-- R1&#45;&gt;R2 -->
<!-- variation1 -->
<g id="node14" class="node"><title>variation1</title>
<ellipse fill="lightyellow" stroke="black" cx="94.8084" cy="-377.598" rx="70.922" ry="39.6962"/>
<text text-anchor="start" x="59.8084" y="-390.398" font-family="Verdana" font-size="9.00">Variation File 1</text>
<text text-anchor="start" x="69.8084" y="-375.198" font-family="Verdana" font-size="8.00">length = 25</text>
<text text-anchor="start" x="56.8084" y="-360.198" font-family="Verdana" font-size="8.00">Variations: 0 &#45; 24</text>
</g>
<!-- variation1&#45;&gt;compile1 -->
<g id="edge3" class="edge"><title>variation1&#45;&gt;compile1</title>
<path fill="none" stroke="black" d="M94.8084,-337.752C94.8084,-328.39 94.8084,-318.632 94.8084,-310.09"/>
<polygon fill="black" stroke="black" points="97.6085,-310.014 94.8084,-302.014 92.0085,-310.014 97.6085,-310.014"/>
</g>
<!-- variation2 -->
<g id="node15" class="node"><title>variation2</title>
<ellipse fill="lightyellow" stroke="black" cx="295.808" cy="-377.598" rx="74.4932" ry="39.6962"/>
<text text-anchor="start" x="261.308" y="-390.398" font-family="Verdana" font-size="9.00">Variation File 2</text>
<text text-anchor="start" x="271.308" y="-375.198" font-family="Verdana" font-size="8.00">length = 25</text>
<text text-anchor="start" x="255.808" y="-360.198" font-family="Verdana" font-size="8.00">Variations: 25 &#45; 49</text>
</g>
<!-- variation2&#45;&gt;compile2 -->
<g id="edge5" class="edge"><title>variation2&#45;&gt;compile2</title>
<path fill="none" stroke="black" d="M294.96,-337.752C294.756,-328.39 294.543,-318.632 294.356,-310.09"/>
<polygon fill="black" stroke="black" points="297.154,-309.951 294.18,-302.014 291.555,-310.073 297.154,-309.951"/>
</g>
<!-- variation3 -->
<g id="node16" class="node"><title>variation3</title>
<ellipse fill="lightyellow" stroke="black" cx="499.808" cy="-377.598" rx="74.4932" ry="39.6962"/>
<text text-anchor="start" x="465.308" y="-390.398" font-family="Verdana" font-size="9.00">Variation File 3</text>
<text text-anchor="start" x="475.308" y="-375.198" font-family="Verdana" font-size="8.00">length = 25</text>
<text text-anchor="start" x="459.808" y="-360.198" font-family="Verdana" font-size="8.00">Variations: 50 &#45; 74</text>
</g>
<!-- variation3&#45;&gt;compile3 -->
<g id="edge7" class="edge"><title>variation3&#45;&gt;compile3</title>
<path fill="none" stroke="black" d="M463.14,-343.01C450.347,-331.292 436.298,-318.424 424.69,-307.791"/>
<polygon fill="black" stroke="black" points="426.306,-305.474 418.515,-302.135 422.523,-309.603 426.306,-305.474"/>
</g>
<!-- variation4 -->
<g id="node17" class="node"><title>variation4</title>
<ellipse fill="lightyellow" stroke="black" cx="703.808" cy="-377.598" rx="74.4932" ry="39.6962"/>
<text text-anchor="start" x="669.308" y="-390.398" font-family="Verdana" font-size="9.00">Variation File 4</text>
<text text-anchor="start" x="679.308" y="-375.198" font-family="Verdana" font-size="8.00">length = 25</text>
<text text-anchor="start" x="663.808" y="-360.198" font-family="Verdana" font-size="8.00">Variations: 75 &#45; 99</text>
</g>
<!-- variation4&#45;&gt;compile4 -->
<g id="edge9" class="edge"><title>variation4&#45;&gt;compile4</title>
<path fill="none" stroke="black" d="M666.696,-343.27C653.502,-331.422 638.966,-318.368 627.002,-307.625"/>
<polygon fill="black" stroke="black" points="628.824,-305.498 621.001,-302.236 625.083,-309.664 628.824,-305.498"/>
</g>
</g>
</svg>
