<?xml version="1.0" encoding="UTF-8" standalone="no"?>
<!DOCTYPE svg PUBLIC "-//W3C//DTD SVG 1.1//EN"
 "http://www.w3.org/Graphics/SVG/1.1/DTD/svg11.dtd">
<!-- Generated by graphviz version 2.38.0 (20140413.2041)
 -->
<!-- Pages: 1 -->
<svg width="950pt" height="466pt"
 viewBox="0.00 0.00 949.92 465.98" xmlns="http://www.w3.org/2000/svg" xmlns:xlink="http://www.w3.org/1999/xlink">
<g id="graph0" class="graph" transform="scale(1 1) rotate(0) translate(4 461.983)">
<polygon fill="white" stroke="none" points="-4,4 -4,-461.983 945.922,-461.983 945.922,4 -4,4"/>
<!-- compile1 -->
<g id="node1" class="node"><title>compile1</title>
<polygon fill="mistyrose" stroke="black" points="215,-364 0,-364 0,-293 215,-293 215,-364"/>
<text text-anchor="start" x="84.5" y="-348.3" font-family="Verdana" font-size="9.00">Compile 1</text>
<text text-anchor="start" x="12.5" y="-333.1" font-family="Verdana" font-size="8.00">&#45;&#45;shader&#45;cache&#45;directory=&quot;Shader Cache 1&quot;</text>
<text text-anchor="start" x="64.5" y="-318.1" font-family="Verdana" font-size="8.00">variationCount = 25</text>
<text text-anchor="start" x="70" y="-303.1" font-family="Verdana" font-size="8.00">Variations: 0 &#45; 24</text>
</g>
<!-- cache1 -->
<g id="node7" class="node"><title>cache1</title>
<ellipse fill="lightyellow" stroke="black" cx="189.5" cy="-239" rx="53.2327" ry="18"/>
<text text-anchor="middle" x="189.5" y="-236.8" font-family="Verdana" font-size="9.00">Shader Cache 1</text>
</g>
<!-- compile1&#45;&gt;cache1 -->
<g id="edge5" class="edge"><title>compile1&#45;&gt;cache1</title>
<path fill="none" stroke="black" d="M139.909,-292.918C149.603,-282.573 159.969,-271.512 168.704,-262.191"/>
<polygon fill="black" stroke="black" points="170.757,-264.095 174.185,-256.343 166.671,-260.265 170.757,-264.095"/>
</g>
<!-- compile2 -->
<g id="node2" class="node"><title>compile2</title>
<polygon fill="mistyrose" stroke="black" points="448,-364 233,-364 233,-293 448,-293 448,-364"/>
<text text-anchor="start" x="317.5" y="-348.3" font-family="Verdana" font-size="9.00">Compile 2</text>
<text text-anchor="start" x="245.5" y="-333.1" font-family="Verdana" font-size="8.00">&#45;&#45;shader&#45;cache&#45;directory=&quot;Shader Cache 2&quot;</text>
<text text-anchor="start" x="297.5" y="-318.1" font-family="Verdana" font-size="8.00">variationCount = 25</text>
<text text-anchor="start" x="300.5" y="-303.1" font-family="Verdana" font-size="8.00">Variations: 25 &#45; 49</text>
</g>
<!-- cache2 -->
<g id="node8" class="node"><title>cache2</title>
<ellipse fill="lightyellow" stroke="black" cx="395.5" cy="-239" rx="53.2327" ry="18"/>
<text text-anchor="middle" x="395.5" y="-236.8" font-family="Verdana" font-size="9.00">Shader Cache 2</text>
</g>
<!-- compile2&#45;&gt;cache2 -->
<g id="edge6" class="edge"><title>compile2&#45;&gt;cache2</title>
<path fill="none" stroke="black" d="M362.237,-292.918C368.398,-283.118 374.962,-272.675 380.617,-263.678"/>
<polygon fill="black" stroke="black" points="383.045,-265.076 384.932,-256.813 378.304,-262.096 383.045,-265.076"/>
</g>
<!-- compile3 -->
<g id="node3" class="node"><title>compile3</title>
<polygon fill="mistyrose" stroke="black" points="681,-364 466,-364 466,-293 681,-293 681,-364"/>
<text text-anchor="start" x="550.5" y="-348.3" font-family="Verdana" font-size="9.00">Compile 3</text>
<text text-anchor="start" x="478.5" y="-333.1" font-family="Verdana" font-size="8.00">&#45;&#45;shader&#45;cache&#45;directory=&quot;Shader Cache 3&quot;</text>
<text text-anchor="start" x="530.5" y="-318.1" font-family="Verdana" font-size="8.00">variationCount = 25</text>
<text text-anchor="start" x="533.5" y="-303.1" font-family="Verdana" font-size="8.00">Variations: 50 &#45; 74</text>
</g>
<!-- cache3 -->
<g id="node9" class="node"><title>cache3</title>
<ellipse fill="lightyellow" stroke="black" cx="573.5" cy="-239" rx="53.2327" ry="18"/>
<text text-anchor="middle" x="573.5" y="-236.8" font-family="Verdana" font-size="9.00">Shader Cache 3</text>
</g>
<!-- compile3&#45;&gt;cache3 -->
<g id="edge7" class="edge"><title>compile3&#45;&gt;cache3</title>
<path fill="none" stroke="black" d="M573.5,-292.918C573.5,-283.746 573.5,-274.012 573.5,-265.426"/>
<polygon fill="black" stroke="black" points="576.3,-265.287 573.5,-257.287 570.7,-265.287 576.3,-265.287"/>
</g>
<!-- compile4 -->
<g id="node4" class="node"><title>compile4</title>
<polygon fill="mistyrose" stroke="black" points="914,-364 699,-364 699,-293 914,-293 914,-364"/>
<text text-anchor="start" x="783.5" y="-348.3" font-family="Verdana" font-size="9.00">Compile 4</text>
<text text-anchor="start" x="711.5" y="-333.1" font-family="Verdana" font-size="8.00">&#45;&#45;shader&#45;cache&#45;directory=&quot;Shader Cache 4&quot;</text>
<text text-anchor="start" x="763.5" y="-318.1" font-family="Verdana" font-size="8.00">variationCount = 25</text>
<text text-anchor="start" x="766.5" y="-303.1" font-family="Verdana" font-size="8.00">Variations: 75 &#45; 99</text>
</g>
<!-- cache4 -->
<g id="node10" class="node"><title>cache4</title>
<ellipse fill="lightyellow" stroke="black" cx="752.5" cy="-239" rx="53.2327" ry="18"/>
<text text-anchor="middle" x="752.5" y="-236.8" font-family="Verdana" font-size="9.00">Shader Cache 4</text>
</g>
<!-- compile4&#45;&gt;cache4 -->
<g id="edge8" class="edge"><title>compile4&#45;&gt;cache4</title>
<path fill="none" stroke="black" d="M785.158,-292.918C779.11,-283.118 772.665,-272.675 767.113,-263.678"/>
<polygon fill="black" stroke="black" points="769.46,-262.15 762.876,-256.813 764.695,-265.091 769.46,-262.15"/>
</g>
<!-- convert -->
<g id="node5" class="node"><title>convert</title>
<polygon fill="mistyrose" stroke="black" points="861,-113 654,-113 654,-72 861,-72 861,-113"/>
<text text-anchor="start" x="739" y="-97.3" font-family="Verdana" font-size="9.00">Convert</text>
<text text-anchor="start" x="666.5" y="-82.1" font-family="Verdana" font-size="8.00">&#45;&#45;shader&#45;cache&#45;directory=&quot;Shader Cache&quot;</text>
</g>
<!-- binary -->
<g id="node12" class="node"><title>binary</title>
<ellipse fill="lightyellow" stroke="black" cx="757.5" cy="-18" rx="27" ry="18"/>
<text text-anchor="middle" x="757.5" y="-15.8" font-family="Verdana" font-size="9.00">Binary</text>
</g>
<!-- convert&#45;&gt;binary -->
<g id="edge15" class="edge"><title>convert&#45;&gt;binary</title>
<path fill="none" stroke="black" d="M757.5,-71.6891C757.5,-63.3013 757.5,-53.4238 757.5,-44.5014"/>
<polygon fill="black" stroke="black" points="760.3,-44.3194 757.5,-36.3195 754.7,-44.3195 760.3,-44.3194"/>
</g>
<!-- source -->
<g id="node6" class="node"><title>source</title>
<ellipse fill="lightyellow" stroke="black" cx="573.5" cy="-428.991" rx="60.623" ry="28.9828"/>
<text text-anchor="start" x="557" y="-433.791" font-family="Verdana" font-size="9.00">Source</text>
<text text-anchor="start" x="542.5" y="-418.591" font-family="Verdana" font-size="8.00">100 Variations</text>
</g>
<!-- source&#45;&gt;compile1 -->
<g id="edge1" class="edge"><title>source&#45;&gt;compile1</title>
<path fill="none" stroke="black" d="M515.81,-419.407C446.103,-408.585 325.475,-388.411 223.5,-364 223.328,-363.959 223.155,-363.917 222.982,-363.876"/>
<polygon fill="black" stroke="black" points="223.578,-361.139 215.141,-361.945 222.239,-366.577 223.578,-361.139"/>
</g>
<!-- source&#45;&gt;compile2 -->
<g id="edge2" class="edge"><title>source&#45;&gt;compile2</title>
<path fill="none" stroke="black" d="M528.851,-409.118C500.841,-397.278 463.741,-381.595 429.878,-367.281"/>
<polygon fill="black" stroke="black" points="430.714,-364.595 422.255,-364.059 428.534,-369.753 430.714,-364.595"/>
</g>
<!-- source&#45;&gt;compile3 -->
<g id="edge3" class="edge"><title>source&#45;&gt;compile3</title>
<path fill="none" stroke="black" d="M573.5,-399.768C573.5,-391.151 573.5,-381.476 573.5,-372.126"/>
<polygon fill="black" stroke="black" points="576.3,-372.027 573.5,-364.027 570.7,-372.028 576.3,-372.027"/>
</g>
<!-- source&#45;&gt;compile4 -->
<g id="edge4" class="edge"><title>source&#45;&gt;compile4</title>
<path fill="none" stroke="black" d="M618.149,-409.118C646.159,-397.278 683.259,-381.595 717.122,-367.281"/>
<polygon fill="black" stroke="black" points="718.466,-369.753 724.745,-364.059 716.286,-364.595 718.466,-369.753"/>
</g>
<!-- source&#45;&gt;convert -->
<g id="edge14" class="edge"><title>source&#45;&gt;convert</title>
<path fill="none" stroke="black" d="M634.018,-425.893C724.026,-421.356 886.466,-407.242 922.5,-364 991.273,-281.47 859.094,-167.438 792.537,-117.997"/>
<polygon fill="black" stroke="black" points="794.027,-115.617 785.923,-113.135 790.711,-120.129 794.027,-115.617"/>
</g>
<!-- cache -->
<g id="node11" class="node"><title>cache</title>
<ellipse fill="lightyellow" stroke="black" cx="573.5" cy="-167" rx="47.8403" ry="18"/>
<text text-anchor="middle" x="573.5" y="-164.8" font-family="Verdana" font-size="9.00">Shader Cache</text>
</g>
<!-- cache1&#45;&gt;cache -->
<g id="edge9" class="edge"><title>cache1&#45;&gt;cache</title>
<path fill="none" stroke="black" d="M235.058,-229.695C307.418,-216.505 448.101,-190.859 523.28,-177.155"/>
<polygon fill="black" stroke="black" points="523.862,-179.895 531.231,-175.705 522.858,-174.386 523.862,-179.895"/>
</g>
<!-- cache2&#45;&gt;cache -->
<g id="edge10" class="edge"><title>cache2&#45;&gt;cache</title>
<path fill="none" stroke="black" d="M428.98,-224.834C458.782,-213.114 502.412,-195.956 533.93,-183.561"/>
<polygon fill="black" stroke="black" points="535.246,-186.053 541.666,-180.519 533.196,-180.841 535.246,-186.053"/>
</g>
<!-- cache3&#45;&gt;cache -->
<g id="edge11" class="edge"><title>cache3&#45;&gt;cache</title>
<path fill="none" stroke="black" d="M573.5,-220.697C573.5,-212.389 573.5,-202.277 573.5,-193.141"/>
<polygon fill="black" stroke="black" points="576.3,-193.104 573.5,-185.104 570.7,-193.104 576.3,-193.104"/>
</g>
<!-- cache4&#45;&gt;cache -->
<g id="edge12" class="edge"><title>cache4&#45;&gt;cache</title>
<path fill="none" stroke="black" d="M718.831,-224.834C688.862,-213.114 644.988,-195.956 613.293,-183.561"/>
<polygon fill="black" stroke="black" points="613.983,-180.825 605.513,-180.519 611.944,-186.04 613.983,-180.825"/>
</g>
<!-- cache&#45;&gt;convert -->
<g id="edge13" class="edge"><title>cache&#45;&gt;convert</title>
<path fill="none" stroke="black" d="M605.55,-153.371C631.558,-143.124 668.888,-128.415 700.037,-116.142"/>
<polygon fill="black" stroke="black" points="701.396,-118.616 707.813,-113.078 699.343,-113.405 701.396,-118.616"/>
</g>
</g>
</svg>
