<?xml version="1.0" encoding="UTF-8" standalone="no"?>
<!DOCTYPE svg PUBLIC "-//W3C//DTD SVG 1.1//EN"
 "http://www.w3.org/Graphics/SVG/1.1/DTD/svg11.dtd">
<!-- Generated by graphviz version 2.38.0 (20140413.2041)
 -->
<!-- Pages: 1 -->
<svg width="846pt" height="424pt"
 viewBox="0.00 0.00 846.30 423.98" xmlns="http://www.w3.org/2000/svg" xmlns:xlink="http://www.w3.org/1999/xlink">
<g id="graph0" class="graph" transform="scale(1 1) rotate(0) translate(4 419.983)">
<polygon fill="white" stroke="none" points="-4,4 -4,-419.983 842.299,-419.983 842.299,4 -4,4"/>
<!-- compile1 -->
<g id="node1" class="node"><title>compile1</title>
<polygon fill="mistyrose" stroke="black" points="206.15,-322 58.1495,-322 58.1495,-266 206.15,-266 206.15,-322"/>
<text text-anchor="start" x="108.65" y="-306.8" font-family="Verdana" font-size="9.00">Compile 1</text>
<text text-anchor="start" x="70.1495" y="-291.6" font-family="Verdana" font-size="8.00">&#45;&#45;variation&#45;begin&#45;ratio=&quot;0.0&quot;</text>
<text text-anchor="start" x="71.6495" y="-276.6" font-family="Verdana" font-size="8.00">&#45;&#45;variation&#45;end&#45;ratio=&quot;0.25&quot;</text>
</g>
<!-- cache1 -->
<g id="node7" class="node"><title>cache1</title>
<ellipse fill="lightyellow" stroke="black" cx="98.1495" cy="-212" rx="98.2993" ry="18"/>
<text text-anchor="middle" x="98.1495" y="-209.8" font-family="Verdana" font-size="9.00">Shader archive file 1 (BFSHA file)</text>
</g>
<!-- compile1&#45;&gt;cache1 -->
<g id="edge5" class="edge"><title>compile1&#45;&gt;cache1</title>
<path fill="none" stroke="black" d="M120.639,-265.916C116.765,-256.8 112.465,-246.682 108.671,-237.756"/>
<polygon fill="black" stroke="black" points="111.197,-236.54 105.49,-230.273 106.043,-238.73 111.197,-236.54"/>
</g>
<!-- compile2 -->
<g id="node2" class="node"><title>compile2</title>
<polygon fill="mistyrose" stroke="black" points="399.65,-322 246.65,-322 246.65,-266 399.65,-266 399.65,-322"/>
<text text-anchor="start" x="300.15" y="-306.8" font-family="Verdana" font-size="9.00">Compile 2</text>
<text text-anchor="start" x="259.15" y="-291.6" font-family="Verdana" font-size="8.00">&#45;&#45;variation&#45;begin&#45;ratio=&quot;0.25&quot;</text>
<text text-anchor="start" x="265.65" y="-276.6" font-family="Verdana" font-size="8.00">&#45;&#45;variation&#45;end&#45;ratio=&quot;0.5&quot;</text>
</g>
<!-- cache2 -->
<g id="node8" class="node"><title>cache2</title>
<ellipse fill="lightyellow" stroke="black" cx="312.15" cy="-212" rx="98.2993" ry="18"/>
<text text-anchor="middle" x="312.15" y="-209.8" font-family="Verdana" font-size="9.00">Shader archive file 2 (BFSHA file)</text>
</g>
<!-- compile2&#45;&gt;cache2 -->
<g id="edge6" class="edge"><title>compile2&#45;&gt;cache2</title>
<path fill="none" stroke="black" d="M319.425,-265.916C318.197,-256.984 316.837,-247.091 315.628,-238.298"/>
<polygon fill="black" stroke="black" points="318.388,-237.817 314.525,-230.273 312.84,-238.579 318.388,-237.817"/>
</g>
<!-- compile3 -->
<g id="node3" class="node"><title>compile3</title>
<polygon fill="mistyrose" stroke="black" points="588.15,-322 440.15,-322 440.15,-266 588.15,-266 588.15,-322"/>
<text text-anchor="start" x="490.65" y="-306.8" font-family="Verdana" font-size="9.00">Compile 3</text>
<text text-anchor="start" x="452.15" y="-291.6" font-family="Verdana" font-size="8.00">&#45;&#45;variation&#45;begin&#45;ratio=&quot;0.5&quot;</text>
<text text-anchor="start" x="453.65" y="-276.6" font-family="Verdana" font-size="8.00">&#45;&#45;variation&#45;end&#45;ratio=&quot;0.75&quot;</text>
</g>
<!-- cache3 -->
<g id="node9" class="node"><title>cache3</title>
<ellipse fill="lightyellow" stroke="black" cx="526.15" cy="-212" rx="98.2993" ry="18"/>
<text text-anchor="middle" x="526.15" y="-209.8" font-family="Verdana" font-size="9.00">Shader archive file 3 (BFSHA file)</text>
</g>
<!-- compile3&#45;&gt;cache3 -->
<g id="edge7" class="edge"><title>compile3&#45;&gt;cache3</title>
<path fill="none" stroke="black" d="M518.212,-265.916C519.552,-256.984 521.036,-247.091 522.355,-238.298"/>
<polygon fill="black" stroke="black" points="525.141,-238.599 523.559,-230.273 519.603,-237.769 525.141,-238.599"/>
</g>
<!-- compile4 -->
<g id="node4" class="node"><title>compile4</title>
<polygon fill="mistyrose" stroke="black" points="793.65,-322 640.65,-322 640.65,-266 793.65,-266 793.65,-322"/>
<text text-anchor="start" x="694.15" y="-306.8" font-family="Verdana" font-size="9.00">Compile 4</text>
<text text-anchor="start" x="653.15" y="-291.6" font-family="Verdana" font-size="8.00">&#45;&#45;variation&#45;begin&#45;ratio=&quot;0.75&quot;</text>
<text text-anchor="start" x="659.65" y="-276.6" font-family="Verdana" font-size="8.00">&#45;&#45;variation&#45;end&#45;ratio=&quot;1.0&quot;</text>
</g>
<!-- cache4 -->
<g id="node10" class="node"><title>cache4</title>
<ellipse fill="lightyellow" stroke="black" cx="740.15" cy="-212" rx="98.2993" ry="18"/>
<text text-anchor="middle" x="740.15" y="-209.8" font-family="Verdana" font-size="9.00">Shader archive file 4 (BFSHA file)</text>
</g>
<!-- compile4&#45;&gt;cache4 -->
<g id="edge8" class="edge"><title>compile4&#45;&gt;cache4</title>
<path fill="none" stroke="black" d="M724.936,-265.916C727.531,-256.892 730.407,-246.887 732.954,-238.026"/>
<polygon fill="black" stroke="black" points="735.664,-238.735 735.184,-230.273 730.282,-237.187 735.664,-238.735"/>
</g>
<!-- convert -->
<g id="node5" class="node"><title>convert</title>
<polygon fill="mistyrose" stroke="black" points="570.65,-158 267.65,-158 267.65,-72 570.65,-72 570.65,-158"/>
<text text-anchor="start" x="404.65" y="-142.8" font-family="Verdana" font-size="9.00">Merge</text>
<text text-anchor="start" x="280.15" y="-127.6" font-family="Verdana" font-size="8.00">&#45;&#45;merge&#45;shader&#45;archive&#45;file=&quot;Shader archive file 1 (BFSHA file)&quot;</text>
<text text-anchor="start" x="280.15" y="-112.6" font-family="Verdana" font-size="8.00">&#45;&#45;merge&#45;shader&#45;archive&#45;file=&quot;Shader archive file 2 (BFSHA file)&quot;</text>
<text text-anchor="start" x="280.15" y="-97.6" font-family="Verdana" font-size="8.00">&#45;&#45;merge&#45;shader&#45;archive&#45;file=&quot;Shader archive file 3 (BFSHA file)&quot;</text>
<text text-anchor="start" x="280.15" y="-82.6" font-family="Verdana" font-size="8.00">&#45;&#45;merge&#45;shader&#45;archive&#45;file=&quot;Shader archive file 4 (BFSHA file)&quot;</text>
</g>
<!-- binary -->
<g id="node11" class="node"><title>binary</title>
<ellipse fill="lightyellow" stroke="black" cx="419.15" cy="-18" rx="92.9068" ry="18"/>
<text text-anchor="middle" x="419.15" y="-15.8" font-family="Verdana" font-size="9.00">Shader archive file (BFSHA file)</text>
</g>
<!-- convert&#45;&gt;binary -->
<g id="edge13" class="edge"><title>convert&#45;&gt;binary</title>
<path fill="none" stroke="black" d="M419.15,-71.7784C419.15,-62.51 419.15,-52.9703 419.15,-44.5942"/>
<polygon fill="black" stroke="black" points="421.95,-44.3467 419.15,-36.3468 416.35,-44.3468 421.95,-44.3467"/>
</g>
<!-- source -->
<g id="node6" class="node"><title>source</title>
<ellipse fill="lightyellow" stroke="black" cx="418.15" cy="-386.991" rx="111.032" ry="28.9828"/>
<text text-anchor="start" x="352.15" y="-391.791" font-family="Verdana" font-size="9.00">Shader Definition (FSDB file)</text>
<text text-anchor="start" x="387.65" y="-376.591" font-family="Verdana" font-size="8.00">100 Variations</text>
</g>
<!-- source&#45;&gt;compile1 -->
<g id="edge1" class="edge"><title>source&#45;&gt;compile1</title>
<path fill="none" stroke="black" d="M349.281,-364.081C308.591,-351.135 256.833,-334.668 214.056,-321.059"/>
<polygon fill="black" stroke="black" points="214.651,-318.31 206.178,-318.552 212.953,-323.646 214.651,-318.31"/>
</g>
<!-- source&#45;&gt;compile2 -->
<g id="edge2" class="edge"><title>source&#45;&gt;compile2</title>
<path fill="none" stroke="black" d="M389.904,-358.937C379.659,-349.125 367.975,-337.934 357.277,-327.688"/>
<polygon fill="black" stroke="black" points="359.165,-325.619 351.451,-322.107 355.291,-329.663 359.165,-325.619"/>
</g>
<!-- source&#45;&gt;compile3 -->
<g id="edge3" class="edge"><title>source&#45;&gt;compile3</title>
<path fill="none" stroke="black" d="M446.693,-358.937C457.046,-349.125 468.852,-337.934 479.663,-327.688"/>
<polygon fill="black" stroke="black" points="481.67,-329.643 485.551,-322.107 477.818,-325.578 481.67,-329.643"/>
</g>
<!-- source&#45;&gt;compile4 -->
<g id="edge4" class="edge"><title>source&#45;&gt;compile4</title>
<path fill="none" stroke="black" d="M488.63,-364.543C531.799,-351.406 587.303,-334.515 632.8,-320.669"/>
<polygon fill="black" stroke="black" points="633.753,-323.306 640.591,-318.298 632.123,-317.949 633.753,-323.306"/>
</g>
<!-- cache1&#45;&gt;convert -->
<g id="edge9" class="edge"><title>cache1&#45;&gt;convert</title>
<path fill="none" stroke="black" d="M147.602,-196.364C180.368,-186.667 225.246,-173.386 269.081,-160.413"/>
<polygon fill="black" stroke="black" points="270.086,-163.036 276.963,-158.08 268.497,-157.666 270.086,-163.036"/>
</g>
<!-- cache2&#45;&gt;convert -->
<g id="edge10" class="edge"><title>cache2&#45;&gt;convert</title>
<path fill="none" stroke="black" d="M331.279,-194.016C340.991,-185.393 353.323,-174.444 365.655,-163.495"/>
<polygon fill="black" stroke="black" points="367.574,-165.536 371.697,-158.131 363.856,-161.348 367.574,-165.536"/>
</g>
<!-- cache3&#45;&gt;convert -->
<g id="edge11" class="edge"><title>cache3&#45;&gt;convert</title>
<path fill="none" stroke="black" d="M507.02,-194.016C497.308,-185.393 484.976,-174.444 472.644,-163.495"/>
<polygon fill="black" stroke="black" points="474.444,-161.348 466.602,-158.131 470.726,-165.536 474.444,-161.348"/>
</g>
<!-- cache4&#45;&gt;convert -->
<g id="edge12" class="edge"><title>cache4&#45;&gt;convert</title>
<path fill="none" stroke="black" d="M690.697,-196.364C657.931,-186.667 613.053,-173.386 569.218,-160.413"/>
<polygon fill="black" stroke="black" points="569.802,-157.666 561.337,-158.08 568.213,-163.036 569.802,-157.666"/>
</g>
</g>
</svg>
