<?xml version="1.0" encoding="UTF-8" standalone="no"?>
<!DOCTYPE svg PUBLIC "-//W3C//DTD SVG 1.1//EN"
 "http://www.w3.org/Graphics/SVG/1.1/DTD/svg11.dtd">
<!-- Generated by graphviz version 2.38.0 (20140413.2041)
 -->
<!-- Pages: 1 -->
<svg width="951pt" height="481pt"
 viewBox="0.00 0.00 951.16 480.98" xmlns="http://www.w3.org/2000/svg" xmlns:xlink="http://www.w3.org/1999/xlink">
<g id="graph0" class="graph" transform="scale(1 1) rotate(0) translate(4 476.983)">
<polygon fill="white" stroke="none" points="-4,4 -4,-476.983 947.156,-476.983 947.156,4 -4,4"/>
<!-- compile1 -->
<g id="node1" class="node"><title>compile1</title>
<polygon fill="mistyrose" stroke="black" points="215,-379 0,-379 0,-293 215,-293 215,-379"/>
<text text-anchor="start" x="84.5" y="-363.8" font-family="Verdana" font-size="9.00">Compile 1</text>
<text text-anchor="start" x="12.5" y="-348.6" font-family="Verdana" font-size="8.00">&#45;&#45;shader&#45;cache&#45;directory=&quot;Shader Cache 1&quot;</text>
<text text-anchor="start" x="77.5" y="-333.6" font-family="Verdana" font-size="8.00">&#45;&#45;skip&#45;convert</text>
<text text-anchor="start" x="46" y="-318.6" font-family="Verdana" font-size="8.00">&#45;&#45;variation&#45;begin&#45;ratio=&quot;0.0&quot;</text>
<text text-anchor="start" x="47.5" y="-303.6" font-family="Verdana" font-size="8.00">&#45;&#45;variation&#45;end&#45;ratio=&quot;0.25&quot;</text>
</g>
<!-- cache1 -->
<g id="node7" class="node"><title>cache1</title>
<ellipse fill="lightyellow" stroke="black" cx="189.5" cy="-239" rx="53.2327" ry="18"/>
<text text-anchor="middle" x="189.5" y="-236.8" font-family="Verdana" font-size="9.00">Shader Cache 1</text>
</g>
<!-- compile1&#45;&gt;cache1 -->
<g id="edge5" class="edge"><title>compile1&#45;&gt;cache1</title>
<path fill="none" stroke="black" d="M143.944,-292.778C152.893,-282.411 162.135,-271.703 169.937,-262.665"/>
<polygon fill="black" stroke="black" points="172.23,-264.293 175.338,-256.407 167.991,-260.634 172.23,-264.293"/>
</g>
<!-- compile2 -->
<g id="node2" class="node"><title>compile2</title>
<polygon fill="mistyrose" stroke="black" points="448,-379 233,-379 233,-293 448,-293 448,-379"/>
<text text-anchor="start" x="317.5" y="-363.8" font-family="Verdana" font-size="9.00">Compile 2</text>
<text text-anchor="start" x="245.5" y="-348.6" font-family="Verdana" font-size="8.00">&#45;&#45;shader&#45;cache&#45;directory=&quot;Shader Cache 2&quot;</text>
<text text-anchor="start" x="310.5" y="-333.6" font-family="Verdana" font-size="8.00">&#45;&#45;skip&#45;convert</text>
<text text-anchor="start" x="276.5" y="-318.6" font-family="Verdana" font-size="8.00">&#45;&#45;variation&#45;begin&#45;ratio=&quot;0.25&quot;</text>
<text text-anchor="start" x="283" y="-303.6" font-family="Verdana" font-size="8.00">&#45;&#45;variation&#45;end&#45;ratio=&quot;0.5&quot;</text>
</g>
<!-- cache2 -->
<g id="node8" class="node"><title>cache2</title>
<ellipse fill="lightyellow" stroke="black" cx="395.5" cy="-239" rx="53.2327" ry="18"/>
<text text-anchor="middle" x="395.5" y="-236.8" font-family="Verdana" font-size="9.00">Shader Cache 2</text>
</g>
<!-- compile2&#45;&gt;cache2 -->
<g id="edge6" class="edge"><title>compile2&#45;&gt;cache2</title>
<path fill="none" stroke="black" d="M364.944,-292.778C370.682,-282.867 376.6,-272.646 381.681,-263.869"/>
<polygon fill="black" stroke="black" points="384.145,-265.201 385.73,-256.875 379.299,-262.395 384.145,-265.201"/>
</g>
<!-- compile3 -->
<g id="node3" class="node"><title>compile3</title>
<polygon fill="mistyrose" stroke="black" points="681,-379 466,-379 466,-293 681,-293 681,-379"/>
<text text-anchor="start" x="550.5" y="-363.8" font-family="Verdana" font-size="9.00">Compile 3</text>
<text text-anchor="start" x="478.5" y="-348.6" font-family="Verdana" font-size="8.00">&#45;&#45;shader&#45;cache&#45;directory=&quot;Shader Cache 3&quot;</text>
<text text-anchor="start" x="543.5" y="-333.6" font-family="Verdana" font-size="8.00">&#45;&#45;skip&#45;convert</text>
<text text-anchor="start" x="512" y="-318.6" font-family="Verdana" font-size="8.00">&#45;&#45;variation&#45;begin&#45;ratio=&quot;0.5&quot;</text>
<text text-anchor="start" x="513.5" y="-303.6" font-family="Verdana" font-size="8.00">&#45;&#45;variation&#45;end&#45;ratio=&quot;0.75&quot;</text>
</g>
<!-- cache3 -->
<g id="node9" class="node"><title>cache3</title>
<ellipse fill="lightyellow" stroke="black" cx="573.5" cy="-239" rx="53.2327" ry="18"/>
<text text-anchor="middle" x="573.5" y="-236.8" font-family="Verdana" font-size="9.00">Shader Cache 3</text>
</g>
<!-- compile3&#45;&gt;cache3 -->
<g id="edge7" class="edge"><title>compile3&#45;&gt;cache3</title>
<path fill="none" stroke="black" d="M573.5,-292.778C573.5,-283.51 573.5,-273.97 573.5,-265.594"/>
<polygon fill="black" stroke="black" points="576.3,-265.347 573.5,-257.347 570.7,-265.347 576.3,-265.347"/>
</g>
<!-- compile4 -->
<g id="node4" class="node"><title>compile4</title>
<polygon fill="mistyrose" stroke="black" points="914,-379 699,-379 699,-293 914,-293 914,-379"/>
<text text-anchor="start" x="783.5" y="-363.8" font-family="Verdana" font-size="9.00">Compile 4</text>
<text text-anchor="start" x="711.5" y="-348.6" font-family="Verdana" font-size="8.00">&#45;&#45;shader&#45;cache&#45;directory=&quot;Shader Cache 4&quot;</text>
<text text-anchor="start" x="776.5" y="-333.6" font-family="Verdana" font-size="8.00">&#45;&#45;skip&#45;convert</text>
<text text-anchor="start" x="742.5" y="-318.6" font-family="Verdana" font-size="8.00">&#45;&#45;variation&#45;begin&#45;ratio=&quot;0.75&quot;</text>
<text text-anchor="start" x="749" y="-303.6" font-family="Verdana" font-size="8.00">&#45;&#45;variation&#45;end&#45;ratio=&quot;1.0&quot;</text>
</g>
<!-- cache4 -->
<g id="node10" class="node"><title>cache4</title>
<ellipse fill="lightyellow" stroke="black" cx="752.5" cy="-239" rx="53.2327" ry="18"/>
<text text-anchor="middle" x="752.5" y="-236.8" font-family="Verdana" font-size="9.00">Shader Cache 4</text>
</g>
<!-- compile4&#45;&gt;cache4 -->
<g id="edge8" class="edge"><title>compile4&#45;&gt;cache4</title>
<path fill="none" stroke="black" d="M782.5,-292.778C776.867,-282.867 771.057,-272.646 766.068,-263.869"/>
<polygon fill="black" stroke="black" points="768.48,-262.446 762.092,-256.875 763.611,-265.213 768.48,-262.446"/>
</g>
<!-- convert -->
<g id="node5" class="node"><title>convert</title>
<polygon fill="mistyrose" stroke="black" points="861,-113 654,-113 654,-72 861,-72 861,-113"/>
<text text-anchor="start" x="739" y="-97.3" font-family="Verdana" font-size="9.00">Convert</text>
<text text-anchor="start" x="666.5" y="-82.1" font-family="Verdana" font-size="8.00">&#45;&#45;shader&#45;cache&#45;directory=&quot;Shader Cache&quot;</text>
</g>
<!-- binary -->
<g id="node12" class="node"><title>binary</title>
<ellipse fill="lightyellow" stroke="black" cx="757.5" cy="-18" rx="92.9068" ry="18"/>
<text text-anchor="middle" x="757.5" y="-15.8" font-family="Verdana" font-size="9.00">Shader archive file (BFSHA file)</text>
</g>
<!-- convert&#45;&gt;binary -->
<g id="edge15" class="edge"><title>convert&#45;&gt;binary</title>
<path fill="none" stroke="black" d="M757.5,-71.6891C757.5,-63.3013 757.5,-53.4238 757.5,-44.5014"/>
<polygon fill="black" stroke="black" points="760.3,-44.3194 757.5,-36.3195 754.7,-44.3195 760.3,-44.3194"/>
</g>
<!-- source -->
<g id="node6" class="node"><title>source</title>
<ellipse fill="lightyellow" stroke="black" cx="573.5" cy="-443.991" rx="111.032" ry="28.9828"/>
<text text-anchor="start" x="507.5" y="-448.791" font-family="Verdana" font-size="9.00">Shader Definition (FSDB file)</text>
<text text-anchor="start" x="543" y="-433.591" font-family="Verdana" font-size="8.00">100 Variations</text>
</g>
<!-- source&#45;&gt;compile1 -->
<g id="edge1" class="edge"><title>source&#45;&gt;compile1</title>
<path fill="none" stroke="black" d="M476.72,-429.732C405.907,-418.961 307.875,-401.817 223.5,-379 223.326,-378.953 223.151,-378.906 222.976,-378.858"/>
<polygon fill="black" stroke="black" points="223.512,-376.1 215.053,-376.63 221.996,-381.491 223.512,-376.1"/>
</g>
<!-- source&#45;&gt;compile2 -->
<g id="edge2" class="edge"><title>source&#45;&gt;compile2</title>
<path fill="none" stroke="black" d="M519.753,-418.542C496.289,-407.868 467.985,-394.993 440.869,-382.658"/>
<polygon fill="black" stroke="black" points="441.699,-379.959 433.258,-379.195 439.38,-385.057 441.699,-379.959"/>
</g>
<!-- source&#45;&gt;compile3 -->
<g id="edge3" class="edge"><title>source&#45;&gt;compile3</title>
<path fill="none" stroke="black" d="M573.5,-414.866C573.5,-406.423 573.5,-396.89 573.5,-387.465"/>
<polygon fill="black" stroke="black" points="576.3,-387.239 573.5,-379.239 570.7,-387.239 576.3,-387.239"/>
</g>
<!-- source&#45;&gt;compile4 -->
<g id="edge4" class="edge"><title>source&#45;&gt;compile4</title>
<path fill="none" stroke="black" d="M627.247,-418.542C650.711,-407.868 679.015,-394.993 706.131,-382.658"/>
<polygon fill="black" stroke="black" points="707.62,-385.057 713.742,-379.195 705.301,-379.959 707.62,-385.057"/>
</g>
<!-- source&#45;&gt;convert -->
<g id="edge14" class="edge"><title>source&#45;&gt;convert</title>
<path fill="none" stroke="black" d="M682.432,-437.865C773.176,-431.04 892.283,-415.261 922.5,-379 994.604,-292.473 858.425,-170.316 791.519,-118.401"/>
<polygon fill="black" stroke="black" points="792.932,-115.956 784.882,-113.305 789.522,-120.398 792.932,-115.956"/>
</g>
<!-- cache -->
<g id="node11" class="node"><title>cache</title>
<ellipse fill="lightyellow" stroke="black" cx="573.5" cy="-167" rx="47.8403" ry="18"/>
<text text-anchor="middle" x="573.5" y="-164.8" font-family="Verdana" font-size="9.00">Shader Cache</text>
</g>
<!-- cache1&#45;&gt;cache -->
<g id="edge9" class="edge"><title>cache1&#45;&gt;cache</title>
<path fill="none" stroke="black" d="M235.058,-229.695C307.418,-216.505 448.101,-190.859 523.28,-177.155"/>
<polygon fill="black" stroke="black" points="523.862,-179.895 531.231,-175.705 522.858,-174.386 523.862,-179.895"/>
</g>
<!-- cache2&#45;&gt;cache -->
<g id="edge10" class="edge"><title>cache2&#45;&gt;cache</title>
<path fill="none" stroke="black" d="M428.98,-224.834C458.782,-213.114 502.412,-195.956 533.93,-183.561"/>
<polygon fill="black" stroke="black" points="535.246,-186.053 541.666,-180.519 533.196,-180.841 535.246,-186.053"/>
</g>
<!-- cache3&#45;&gt;cache -->
<g id="edge11" class="edge"><title>cache3&#45;&gt;cache</title>
<path fill="none" stroke="black" d="M573.5,-220.697C573.5,-212.389 573.5,-202.277 573.5,-193.141"/>
<polygon fill="black" stroke="black" points="576.3,-193.104 573.5,-185.104 570.7,-193.104 576.3,-193.104"/>
</g>
<!-- cache4&#45;&gt;cache -->
<g id="edge12" class="edge"><title>cache4&#45;&gt;cache</title>
<path fill="none" stroke="black" d="M718.831,-224.834C688.862,-213.114 644.988,-195.956 613.293,-183.561"/>
<polygon fill="black" stroke="black" points="613.983,-180.825 605.513,-180.519 611.944,-186.04 613.983,-180.825"/>
</g>
<!-- cache&#45;&gt;convert -->
<g id="edge13" class="edge"><title>cache&#45;&gt;convert</title>
<path fill="none" stroke="black" d="M605.55,-153.371C631.558,-143.124 668.888,-128.415 700.037,-116.142"/>
<polygon fill="black" stroke="black" points="701.396,-118.616 707.813,-113.078 699.343,-113.405 701.396,-118.616"/>
</g>
</g>
</svg>
