<?xml version="1.0" encoding="UTF-8" standalone="no"?>
<!DOCTYPE svg PUBLIC "-//W3C//DTD SVG 1.1//EN"
 "http://www.w3.org/Graphics/SVG/1.1/DTD/svg11.dtd">
<!-- Generated by graphviz version 2.38.0 (20140413.2041)
 -->
<!-- Pages: 1 -->
<svg width="1033pt" height="551pt"
 viewBox="0.00 0.00 1032.50 551.18" xmlns="http://www.w3.org/2000/svg" xmlns:xlink="http://www.w3.org/1999/xlink">
<g id="graph0" class="graph" transform="scale(1 1) rotate(0) translate(4 547.179)">
<polygon fill="white" stroke="none" points="-4,4 -4,-547.179 1028.5,-547.179 1028.5,4 -4,4"/>
<!-- compile1 -->
<g id="node1" class="node"><title>compile1</title>
<polygon fill="mistyrose" stroke="black" points="215,-334 0,-334 0,-293 215,-293 215,-334"/>
<text text-anchor="start" x="84.5" y="-318.3" font-family="Verdana" font-size="9.00">Compile 1</text>
<text text-anchor="start" x="12.5" y="-303.1" font-family="Verdana" font-size="8.00">&#45;&#45;shader&#45;cache&#45;directory=&quot;Shader Cache 1&quot;</text>
</g>
<!-- cache1 -->
<g id="node7" class="node"><title>cache1</title>
<ellipse fill="lightyellow" stroke="black" cx="162.5" cy="-239" rx="53.2327" ry="18"/>
<text text-anchor="middle" x="162.5" y="-236.8" font-family="Verdana" font-size="9.00">Shader Cache 1</text>
</g>
<!-- compile1&#45;&gt;cache1 -->
<g id="edge10" class="edge"><title>compile1&#45;&gt;cache1</title>
<path fill="none" stroke="black" d="M122.529,-292.689C129.388,-283.648 137.56,-272.875 144.723,-263.434"/>
<polygon fill="black" stroke="black" points="147.122,-264.904 149.726,-256.838 142.66,-261.519 147.122,-264.904"/>
</g>
<!-- compile2 -->
<g id="node2" class="node"><title>compile2</title>
<polygon fill="mistyrose" stroke="black" points="448,-334 233,-334 233,-293 448,-293 448,-334"/>
<text text-anchor="start" x="317.5" y="-318.3" font-family="Verdana" font-size="9.00">Compile 2</text>
<text text-anchor="start" x="245.5" y="-303.1" font-family="Verdana" font-size="8.00">&#45;&#45;shader&#45;cache&#45;directory=&quot;Shader Cache 2&quot;</text>
</g>
<!-- cache2 -->
<g id="node8" class="node"><title>cache2</title>
<ellipse fill="lightyellow" stroke="black" cx="395.5" cy="-239" rx="53.2327" ry="18"/>
<text text-anchor="middle" x="395.5" y="-236.8" font-family="Verdana" font-size="9.00">Shader Cache 2</text>
</g>
<!-- compile2&#45;&gt;cache2 -->
<g id="edge11" class="edge"><title>compile2&#45;&gt;cache2</title>
<path fill="none" stroke="black" d="M355.529,-292.689C362.388,-283.648 370.56,-272.875 377.723,-263.434"/>
<polygon fill="black" stroke="black" points="380.122,-264.904 382.726,-256.838 375.66,-261.519 380.122,-264.904"/>
</g>
<!-- compile3 -->
<g id="node3" class="node"><title>compile3</title>
<polygon fill="mistyrose" stroke="black" points="681,-334 466,-334 466,-293 681,-293 681,-334"/>
<text text-anchor="start" x="550.5" y="-318.3" font-family="Verdana" font-size="9.00">Compile 3</text>
<text text-anchor="start" x="478.5" y="-303.1" font-family="Verdana" font-size="8.00">&#45;&#45;shader&#45;cache&#45;directory=&quot;Shader Cache 3&quot;</text>
</g>
<!-- cache3 -->
<g id="node9" class="node"><title>cache3</title>
<ellipse fill="lightyellow" stroke="black" cx="573.5" cy="-239" rx="53.2327" ry="18"/>
<text text-anchor="middle" x="573.5" y="-236.8" font-family="Verdana" font-size="9.00">Shader Cache 3</text>
</g>
<!-- compile3&#45;&gt;cache3 -->
<g id="edge12" class="edge"><title>compile3&#45;&gt;cache3</title>
<path fill="none" stroke="black" d="M573.5,-292.689C573.5,-284.301 573.5,-274.424 573.5,-265.501"/>
<polygon fill="black" stroke="black" points="576.3,-265.319 573.5,-257.319 570.7,-265.32 576.3,-265.319"/>
</g>
<!-- compile4 -->
<g id="node4" class="node"><title>compile4</title>
<polygon fill="mistyrose" stroke="black" points="914,-334 699,-334 699,-293 914,-293 914,-334"/>
<text text-anchor="start" x="783.5" y="-318.3" font-family="Verdana" font-size="9.00">Compile 4</text>
<text text-anchor="start" x="711.5" y="-303.1" font-family="Verdana" font-size="8.00">&#45;&#45;shader&#45;cache&#45;directory=&quot;Shader Cache 4&quot;</text>
</g>
<!-- cache4 -->
<g id="node10" class="node"><title>cache4</title>
<ellipse fill="lightyellow" stroke="black" cx="752.5" cy="-239" rx="53.2327" ry="18"/>
<text text-anchor="middle" x="752.5" y="-236.8" font-family="Verdana" font-size="9.00">Shader Cache 4</text>
</g>
<!-- compile4&#45;&gt;cache4 -->
<g id="edge13" class="edge"><title>compile4&#45;&gt;cache4</title>
<path fill="none" stroke="black" d="M791.744,-292.689C785.01,-283.648 776.986,-272.875 769.954,-263.434"/>
<polygon fill="black" stroke="black" points="772.066,-261.581 765.041,-256.838 767.575,-264.926 772.066,-261.581"/>
</g>
<!-- convert -->
<g id="node5" class="node"><title>convert</title>
<polygon fill="mistyrose" stroke="black" points="861,-113 654,-113 654,-72 861,-72 861,-113"/>
<text text-anchor="start" x="739" y="-97.3" font-family="Verdana" font-size="9.00">Convert</text>
<text text-anchor="start" x="666.5" y="-82.1" font-family="Verdana" font-size="8.00">&#45;&#45;shader&#45;cache&#45;directory=&quot;Shader Cache&quot;</text>
</g>
<!-- binary -->
<g id="node12" class="node"><title>binary</title>
<ellipse fill="lightyellow" stroke="black" cx="757.5" cy="-18" rx="27" ry="18"/>
<text text-anchor="middle" x="757.5" y="-15.8" font-family="Verdana" font-size="9.00">Binary</text>
</g>
<!-- convert&#45;&gt;binary -->
<g id="edge20" class="edge"><title>convert&#45;&gt;binary</title>
<path fill="none" stroke="black" d="M757.5,-71.6891C757.5,-63.3013 757.5,-53.4238 757.5,-44.5014"/>
<polygon fill="black" stroke="black" points="760.3,-44.3194 757.5,-36.3195 754.7,-44.3195 760.3,-44.3194"/>
</g>
<!-- source -->
<g id="node6" class="node"><title>source</title>
<ellipse fill="lightyellow" stroke="black" cx="522.5" cy="-514.187" rx="60.623" ry="28.9828"/>
<text text-anchor="start" x="506" y="-518.987" font-family="Verdana" font-size="9.00">Source</text>
<text text-anchor="start" x="491.5" y="-503.787" font-family="Verdana" font-size="8.00">100 Variations</text>
</g>
<!-- source&#45;&gt;compile1 -->
<g id="edge2" class="edge"><title>source&#45;&gt;compile1</title>
<path fill="none" stroke="black" d="M461.637,-511.882C362.369,-508.409 172.079,-495.699 126.5,-449.196 98.9996,-421.138 99.2174,-372.665 102.742,-342.159"/>
<polygon fill="black" stroke="black" points="105.539,-342.359 103.803,-334.063 99.987,-341.631 105.539,-342.359"/>
</g>
<!-- source&#45;&gt;compile2 -->
<g id="edge4" class="edge"><title>source&#45;&gt;compile2</title>
<path fill="none" stroke="black" d="M462.218,-509.867C419.734,-504.002 365.595,-488.642 337.5,-449.196 315.298,-418.023 322.701,-371.676 330.936,-342.285"/>
<polygon fill="black" stroke="black" points="333.663,-342.937 333.257,-334.471 328.295,-341.343 333.663,-342.937"/>
</g>
<!-- source&#45;&gt;compile3 -->
<g id="edge6" class="edge"><title>source&#45;&gt;compile3</title>
<path fill="none" stroke="black" d="M523.019,-485.007C524.295,-455.588 528.433,-408.466 541.5,-370 544.887,-360.028 550.147,-349.84 555.43,-340.96"/>
<polygon fill="black" stroke="black" points="557.816,-342.426 559.637,-334.148 553.051,-339.484 557.816,-342.426"/>
</g>
<!-- source&#45;&gt;compile4 -->
<g id="edge8" class="edge"><title>source&#45;&gt;compile4</title>
<path fill="none" stroke="black" d="M580.584,-505.095C620.361,-496.916 672.116,-480.749 707.5,-449.196 736.638,-423.213 722.186,-401.315 745.5,-370 753.713,-358.968 764.352,-348.4 774.439,-339.502"/>
<polygon fill="black" stroke="black" points="776.38,-341.526 780.622,-334.188 772.73,-337.279 776.38,-341.526"/>
</g>
<!-- source&#45;&gt;convert -->
<g id="edge19" class="edge"><title>source&#45;&gt;convert</title>
<path fill="none" stroke="black" d="M583.047,-511.24C680.275,-506.839 865.03,-492.819 911.5,-449.196 956.287,-407.152 942.5,-375.93 942.5,-314.5 942.5,-314.5 942.5,-314.5 942.5,-238 942.5,-177.112 879.49,-138.077 827.016,-116.126"/>
<polygon fill="black" stroke="black" points="827.825,-113.433 819.36,-113.011 825.714,-118.62 827.825,-113.433"/>
</g>
<!-- cache -->
<g id="node11" class="node"><title>cache</title>
<ellipse fill="lightyellow" stroke="black" cx="573.5" cy="-167" rx="47.8403" ry="18"/>
<text text-anchor="middle" x="573.5" y="-164.8" font-family="Verdana" font-size="9.00">Shader Cache</text>
</g>
<!-- cache1&#45;&gt;cache -->
<g id="edge14" class="edge"><title>cache1&#45;&gt;cache</title>
<path fill="none" stroke="black" d="M208.848,-230.106C286.482,-216.884 442.198,-190.363 522.706,-176.651"/>
<polygon fill="black" stroke="black" points="523.312,-179.388 530.728,-175.285 522.371,-173.868 523.312,-179.388"/>
</g>
<!-- cache2&#45;&gt;cache -->
<g id="edge15" class="edge"><title>cache2&#45;&gt;cache</title>
<path fill="none" stroke="black" d="M428.98,-224.834C458.782,-213.114 502.412,-195.956 533.93,-183.561"/>
<polygon fill="black" stroke="black" points="535.246,-186.053 541.666,-180.519 533.196,-180.841 535.246,-186.053"/>
</g>
<!-- cache3&#45;&gt;cache -->
<g id="edge16" class="edge"><title>cache3&#45;&gt;cache</title>
<path fill="none" stroke="black" d="M573.5,-220.697C573.5,-212.389 573.5,-202.277 573.5,-193.141"/>
<polygon fill="black" stroke="black" points="576.3,-193.104 573.5,-185.104 570.7,-193.104 576.3,-193.104"/>
</g>
<!-- cache4&#45;&gt;cache -->
<g id="edge17" class="edge"><title>cache4&#45;&gt;cache</title>
<path fill="none" stroke="black" d="M718.831,-224.834C688.862,-213.114 644.988,-195.956 613.293,-183.561"/>
<polygon fill="black" stroke="black" points="613.983,-180.825 605.513,-180.519 611.944,-186.04 613.983,-180.825"/>
</g>
<!-- cache&#45;&gt;convert -->
<g id="edge18" class="edge"><title>cache&#45;&gt;convert</title>
<path fill="none" stroke="black" d="M605.55,-153.371C631.558,-143.124 668.888,-128.415 700.037,-116.142"/>
<polygon fill="black" stroke="black" points="701.396,-118.616 707.813,-113.078 699.343,-113.405 701.396,-118.616"/>
</g>
<!-- R1 -->
<!-- R2 -->
<!-- R1&#45;&gt;R2 -->
<!-- variation1 -->
<g id="node15" class="node"><title>variation1</title>
<ellipse fill="lightyellow" stroke="black" cx="206.5" cy="-409.598" rx="70.922" ry="39.6962"/>
<text text-anchor="start" x="171.5" y="-422.398" font-family="Verdana" font-size="9.00">Variation File 1</text>
<text text-anchor="start" x="181.5" y="-407.198" font-family="Verdana" font-size="8.00">length = 25</text>
<text text-anchor="start" x="168.5" y="-392.198" font-family="Verdana" font-size="8.00">Variations: 0 &#45; 24</text>
</g>
<!-- variation1&#45;&gt;compile1 -->
<g id="edge3" class="edge"><title>variation1&#45;&gt;compile1</title>
<path fill="none" stroke="black" d="M171.318,-375.158C159.125,-363.569 145.665,-350.775 134.262,-339.937"/>
<polygon fill="black" stroke="black" points="135.887,-337.619 128.159,-334.137 132.029,-341.678 135.887,-337.619"/>
</g>
<!-- variation2 -->
<g id="node16" class="node"><title>variation2</title>
<ellipse fill="lightyellow" stroke="black" cx="420.5" cy="-409.598" rx="74.4932" ry="39.6962"/>
<text text-anchor="start" x="386" y="-422.398" font-family="Verdana" font-size="9.00">Variation File 2</text>
<text text-anchor="start" x="396" y="-407.198" font-family="Verdana" font-size="8.00">length = 25</text>
<text text-anchor="start" x="380.5" y="-392.198" font-family="Verdana" font-size="8.00">Variations: 25 &#45; 49</text>
</g>
<!-- variation2&#45;&gt;compile2 -->
<g id="edge5" class="edge"><title>variation2&#45;&gt;compile2</title>
<path fill="none" stroke="black" d="M390.483,-373.292C381.157,-362.322 371.058,-350.443 362.395,-340.253"/>
<polygon fill="black" stroke="black" points="364.521,-338.431 357.206,-334.15 360.255,-342.059 364.521,-338.431"/>
</g>
<!-- variation3 -->
<g id="node17" class="node"><title>variation3</title>
<ellipse fill="lightyellow" stroke="black" cx="624.5" cy="-409.598" rx="74.4932" ry="39.6962"/>
<text text-anchor="start" x="590" y="-422.398" font-family="Verdana" font-size="9.00">Variation File 3</text>
<text text-anchor="start" x="600" y="-407.198" font-family="Verdana" font-size="8.00">length = 25</text>
<text text-anchor="start" x="584.5" y="-392.198" font-family="Verdana" font-size="8.00">Variations: 50 &#45; 74</text>
</g>
<!-- variation3&#45;&gt;compile3 -->
<g id="edge7" class="edge"><title>variation3&#45;&gt;compile3</title>
<path fill="none" stroke="black" d="M604.343,-371.408C598.895,-361.355 593.106,-350.674 588.032,-341.313"/>
<polygon fill="black" stroke="black" points="590.411,-339.825 584.137,-334.126 585.487,-342.493 590.411,-339.825"/>
</g>
<!-- variation4 -->
<g id="node18" class="node"><title>variation4</title>
<ellipse fill="lightyellow" stroke="black" cx="828.5" cy="-409.598" rx="74.4932" ry="39.6962"/>
<text text-anchor="start" x="794" y="-422.398" font-family="Verdana" font-size="9.00">Variation File 4</text>
<text text-anchor="start" x="804" y="-407.198" font-family="Verdana" font-size="8.00">length = 25</text>
<text text-anchor="start" x="788.5" y="-392.198" font-family="Verdana" font-size="8.00">Variations: 75 &#45; 99</text>
</g>
<!-- variation4&#45;&gt;compile4 -->
<g id="edge9" class="edge"><title>variation4&#45;&gt;compile4</title>
<path fill="none" stroke="black" d="M819.488,-370.053C817.294,-360.668 814.991,-350.817 812.943,-342.059"/>
<polygon fill="black" stroke="black" points="815.618,-341.201 811.071,-334.049 810.165,-342.476 815.618,-341.201"/>
</g>
</g>
</svg>
