<?xml version="1.0" encoding="UTF-8" standalone="no"?>
<!DOCTYPE svg PUBLIC "-//W3C//DTD SVG 1.1//EN"
 "http://www.w3.org/Graphics/SVG/1.1/DTD/svg11.dtd">
<!-- Generated by graphviz version 2.38.0 (20140413.2041)
 -->
<!-- Pages: 1 -->
<svg width="1297pt" height="707pt"
 viewBox="0.00 0.00 1297.13 707.30" xmlns="http://www.w3.org/2000/svg" xmlns:xlink="http://www.w3.org/1999/xlink">
<g id="graph0" class="graph" transform="scale(1 1) rotate(0) translate(4 703.304)">
<polygon fill="white" stroke="none" points="-4,4 -4,-703.304 1293.13,-703.304 1293.13,4 -4,4"/>
<g id="clust1" class="cluster"><title>cluster_Selector</title>
<polygon fill="moccasin" stroke="black" points="8,-137.539 8,-691.304 736,-691.304 736,-137.539 8,-137.539"/>
<text text-anchor="middle" x="372" y="-680.904" font-family="meiryo" font-size="8.00">Handle ShaderSelector</text>
<text text-anchor="middle" x="372" y="-671.904" font-family="meiryo" font-size="8.00">type=dynamic options</text>
</g>
<g id="clust2" class="cluster"><title>cluster_Class2</title>
<polygon fill="moccasin" stroke="black" points="16,-282.309 16,-657.304 200,-657.304 200,-282.309 16,-282.309"/>
</g>
<g id="clust3" class="cluster"><title>cluster_Class</title>
<polygon fill="lavender" stroke="black" points="208,-209.924 208,-505.078 560,-505.078 560,-209.924 208,-209.924"/>
<text text-anchor="middle" x="384" y="-494.678" font-family="meiryo" font-size="8.00">Handle ShadingModelObj</text>
<text text-anchor="middle" x="384" y="-485.678" font-family="meiryo" font-size="8.00">type=static options</text>
</g>
<g id="clust4" class="cluster"><title>cluster_Material</title>
<polygon fill="moccasin" stroke="black" points="803,-604.304 803,-673.304 911,-673.304 911,-604.304 803,-604.304"/>
<text text-anchor="middle" x="857" y="-662.904" font-family="meiryo" font-size="8.00">ResMateral</text>
</g>
<!-- shaderProgram -->
<g id="node1" class="node"><title>shaderProgram</title>
<polygon fill="lightyellow" stroke="black" points="636.5,-181.539 535.5,-181.539 535.5,-145.539 636.5,-145.539 636.5,-181.539"/>
<text text-anchor="middle" x="586" y="-161.339" font-family="meiryo" font-size="9.00">ResShaderProgram</text>
</g>
<!-- Load -->
<g id="node15" class="node"><title>Load</title>
<ellipse fill="none" stroke="black" stroke-dasharray="5,2" cx="621" cy="-91.1543" rx="119.502" ry="18.2703"/>
<text text-anchor="middle" x="621" y="-93.7543" font-family="meiryo" font-size="8.00">Set a shader to the command buffer.</text>
<text text-anchor="middle" x="621" y="-84.7543" font-family="meiryo" font-size="8.00">ResShaderProgram::Load()</text>
</g>
<!-- shaderProgram&#45;&gt;Load -->
<g id="edge3" class="edge"><title>shaderProgram&#45;&gt;Load</title>
<path fill="none" stroke="black" d="M594.473,-145.501C598.751,-136.897 604.02,-126.3 608.732,-116.824"/>
<polygon fill="black" stroke="black" points="611.307,-117.935 612.362,-109.525 606.293,-115.441 611.307,-117.935"/>
</g>
<!-- buffer -->
<g id="node2" class="node"><title>buffer</title>
<polygon fill="lightyellow" stroke="black" points="541,-253.924 405,-253.924 405,-217.924 541,-217.924 541,-253.924"/>
<text text-anchor="middle" x="473" y="-233.724" font-family="meiryo" font-size="9.00">Uniform block option buffer</text>
</g>
<!-- SetConstantBuffer -->
<g id="node18" class="node"><title>SetConstantBuffer</title>
<ellipse fill="none" stroke="black" stroke-dasharray="5,2" cx="621" cy="-18.3848" rx="120.831" ry="18.2703"/>
<text text-anchor="middle" x="621" y="-20.9848" font-family="meiryo" font-size="8.00">Set a uniform variable for the shader.</text>
<text text-anchor="middle" x="621" y="-11.9848" font-family="meiryo" font-size="8.00">CommandBuffer::SetConstantBuffer()</text>
</g>
<!-- buffer&#45;&gt;SetConstantBuffer -->
<g id="edge5" class="edge"><title>buffer&#45;&gt;SetConstantBuffer</title>
<path fill="none" stroke="black" d="M469.814,-217.726C464.899,-185.684 459.172,-116.175 492,-72.7696 504.77,-55.8851 523.842,-44.3077 543.43,-36.3815"/>
<polygon fill="black" stroke="black" points="544.47,-38.9818 550.95,-33.519 542.478,-33.7481 544.47,-38.9818"/>
</g>
<!-- false2 -->
<g id="node3" class="node"><title>false2</title>
<polygon fill="lightyellow" stroke="black" points="187,-326.309 37,-326.309 37,-290.309 187,-290.309 187,-326.309"/>
<text text-anchor="middle" x="112" y="-311.109" font-family="meiryo" font-size="9.00">Shader Key</text>
<text text-anchor="middle" x="112" y="-301.109" font-family="meiryo" font-size="9.00">Preprocessor Branching Option</text>
</g>
<!-- last -->
<g id="node10" class="node"><title>last</title>
<ellipse fill="none" stroke="black" stroke-dasharray="5,2" cx="108" cy="-235.924" rx="91.8478" ry="18.2703"/>
<text text-anchor="middle" x="108" y="-238.524" font-family="meiryo" font-size="8.00">ResShaderProgram updates</text>
<text text-anchor="middle" x="108" y="-229.524" font-family="meiryo" font-size="8.00">UpdateVariation()</text>
</g>
<!-- false2&#45;&gt;last -->
<g id="edge18" class="edge"><title>false2&#45;&gt;last</title>
<path fill="none" stroke="black" d="M111.032,-290.27C110.564,-282.047 109.994,-272.003 109.474,-262.856"/>
<polygon fill="black" stroke="black" points="112.265,-262.616 109.015,-254.787 106.674,-262.933 112.265,-262.616"/>
</g>
<!-- true2 -->
<g id="node4" class="node"><title>true2</title>
<polygon fill="lightyellow" stroke="black" points="191.5,-649.304 24.5,-649.304 24.5,-611.304 191.5,-611.304 191.5,-649.304"/>
<text text-anchor="middle" x="108" y="-638.104" font-family="meiryo" font-size="9.00">Shader Key</text>
<text text-anchor="middle" x="108" y="-628.104" font-family="meiryo" font-size="9.00">Uniform Variable Branching Option</text>
<text text-anchor="middle" x="108" y="-618.104" font-family="meiryo" font-size="9.00">Fixed Default Value</text>
</g>
<!-- false -->
<g id="node5" class="node"><title>false</title>
<polygon fill="lightyellow" stroke="black" points="366,-471.078 216,-471.078 216,-435.078 366,-435.078 366,-471.078"/>
<text text-anchor="middle" x="291" y="-455.878" font-family="meiryo" font-size="9.00">Rewrite Shader Key</text>
<text text-anchor="middle" x="291" y="-445.878" font-family="meiryo" font-size="9.00">Preprocessor Branching Option</text>
</g>
<!-- updateShaderRange -->
<g id="node9" class="node"><title>updateShaderRange</title>
<ellipse fill="none" stroke="black" stroke-dasharray="5,2" cx="297" cy="-380.693" rx="80.7205" ry="18.2703"/>
<text text-anchor="middle" x="297" y="-383.293" font-family="meiryo" font-size="8.00">Variation range updates</text>
<text text-anchor="middle" x="297" y="-374.293" font-family="meiryo" font-size="8.00">UpdateShaderRange()</text>
</g>
<!-- false&#45;&gt;updateShaderRange -->
<g id="edge12" class="edge"><title>false&#45;&gt;updateShaderRange</title>
<path fill="none" stroke="black" d="M292.452,-435.04C293.153,-426.817 294.01,-416.772 294.789,-407.626"/>
<polygon fill="black" stroke="black" points="297.588,-407.766 295.477,-399.557 292.008,-407.29 297.588,-407.766"/>
</g>
<!-- true -->
<g id="node6" class="node"><title>true</title>
<polygon fill="lightyellow" stroke="black" points="551.5,-471.078 384.5,-471.078 384.5,-435.078 551.5,-435.078 551.5,-471.078"/>
<text text-anchor="middle" x="468" y="-450.878" font-family="meiryo" font-size="9.00">Uniform Variable Branching Option</text>
</g>
<!-- calculate -->
<g id="node8" class="node"><title>calculate</title>
<ellipse fill="none" stroke="black" stroke-dasharray="5,2" cx="473" cy="-380.693" rx="77.1494" ry="18.2703"/>
<text text-anchor="middle" x="473" y="-383.293" font-family="meiryo" font-size="8.00"> Write value</text>
<text text-anchor="middle" x="473" y="-374.293" font-family="meiryo" font-size="8.00">CalculateOptionBlock()</text>
</g>
<!-- true&#45;&gt;calculate -->
<g id="edge15" class="edge"><title>true&#45;&gt;calculate</title>
<path fill="none" stroke="black" d="M469.21,-435.04C469.795,-426.817 470.508,-416.772 471.158,-407.626"/>
<polygon fill="black" stroke="black" points="473.957,-407.735 471.731,-399.557 468.371,-407.338 473.957,-407.735"/>
</g>
<!-- range -->
<g id="node7" class="node"><title>range</title>
<polygon fill="lightyellow" stroke="black" points="321,-326.309 235,-326.309 235,-290.309 321,-290.309 321,-326.309"/>
<text text-anchor="middle" x="278" y="-311.109" font-family="meiryo" font-size="9.00">ShaderRange</text>
<text text-anchor="middle" x="278" y="-301.109" font-family="meiryo" font-size="9.00">Variation Range</text>
</g>
<!-- range&#45;&gt;last -->
<g id="edge17" class="edge"><title>range&#45;&gt;last</title>
<path fill="none" stroke="black" d="M236.848,-290.27C211.716,-279.865 179.542,-266.544 153.632,-255.817"/>
<polygon fill="black" stroke="black" points="154.617,-253.194 146.155,-252.721 152.475,-258.368 154.617,-253.194"/>
</g>
<!-- calculate&#45;&gt;buffer -->
<g id="edge16" class="edge"><title>calculate&#45;&gt;buffer</title>
<path fill="none" stroke="black" d="M473,-362.187C473,-337.22 473,-291.229 473,-262.46"/>
<polygon fill="black" stroke="black" points="475.8,-262.127 473,-254.127 470.2,-262.128 475.8,-262.127"/>
</g>
<!-- updateShaderRange&#45;&gt;range -->
<g id="edge13" class="edge"><title>updateShaderRange&#45;&gt;range</title>
<path fill="none" stroke="black" d="M292.303,-362.295C290.026,-353.857 287.248,-343.566 284.748,-334.307"/>
<polygon fill="black" stroke="black" points="287.431,-333.501 282.643,-326.507 282.024,-334.96 287.431,-333.501"/>
</g>
<!-- last&#45;&gt;shaderProgram -->
<g id="edge14" class="edge"><title>last&#45;&gt;shaderProgram</title>
<path fill="none" stroke="black" d="M158.526,-220.386C173.109,-216.566 189.107,-212.734 204,-209.924 317.502,-188.506 451.992,-175.313 527.309,-169.007"/>
<polygon fill="black" stroke="black" points="527.561,-171.796 535.303,-168.345 527.099,-166.215 527.561,-171.796"/>
</g>
<!-- WriteDynamicKey -->
<g id="node11" class="node"><title>WriteDynamicKey</title>
<ellipse fill="none" stroke="black" stroke-dasharray="5,2" cx="648" cy="-380.693" rx="79.8062" ry="18.2703"/>
<text text-anchor="middle" x="648" y="-383.293" font-family="meiryo" font-size="8.00">Changing dynamic keys</text>
<text text-anchor="middle" x="648" y="-374.293" font-family="meiryo" font-size="8.00">WriteDynamicKey()</text>
</g>
<!-- WriteDynamicKey&#45;&gt;false2 -->
<g id="edge11" class="edge"><title>WriteDynamicKey&#45;&gt;false2</title>
<path fill="none" stroke="black" d="M592.571,-367.369C583.071,-365.502 573.274,-363.728 564,-362.309 405.053,-337.981 363.198,-348.937 204,-326.309 201.095,-325.896 198.143,-325.457 195.163,-324.997"/>
<polygon fill="black" stroke="black" points="195.568,-322.226 187.228,-323.735 194.689,-327.757 195.568,-322.226"/>
</g>
<!-- ResShaderAssign -->
<g id="node12" class="node"><title>ResShaderAssign</title>
<polygon fill="lightyellow" stroke="black" points="902.5,-648.304 811.5,-648.304 811.5,-612.304 902.5,-612.304 902.5,-648.304"/>
<text text-anchor="middle" x="857" y="-628.104" font-family="meiryo" font-size="9.00">ResShaderAssign</text>
</g>
<!-- InitializeShaderKey -->
<g id="node16" class="node"><title>InitializeShaderKey</title>
<ellipse fill="none" stroke="black" stroke-dasharray="5,2" cx="857" cy="-544.191" rx="113.274" ry="18.2703"/>
<text text-anchor="middle" x="857" y="-546.791" font-family="meiryo" font-size="8.00">Initialize (write) a static key.</text>
<text text-anchor="middle" x="857" y="-537.791" font-family="meiryo" font-size="8.00">ShaderUtility::InitializeShaderKey()</text>
</g>
<!-- ResShaderAssign&#45;&gt;InitializeShaderKey -->
<g id="edge6" class="edge"><title>ResShaderAssign&#45;&gt;InitializeShaderKey</title>
<path fill="none" stroke="black" d="M857,-612.282C857,-600.469 857,-584.512 857,-571.124"/>
<polygon fill="black" stroke="black" points="859.8,-570.766 857,-562.766 854.2,-570.766 859.8,-570.766"/>
</g>
<!-- uniform -->
<g id="node13" class="node"><title>uniform</title>
<polygon fill="lightyellow" stroke="black" points="1150.5,-471.078 973.5,-471.078 973.5,-435.078 1150.5,-435.078 1150.5,-471.078"/>
<text text-anchor="middle" x="1062" y="-450.878" font-family="meiryo" font-size="9.00">Options other than uniform variables</text>
</g>
<!-- uniform&#45;&gt;SetConstantBuffer -->
<g id="edge2" class="edge"><title>uniform&#45;&gt;SetConstantBuffer</title>
<path fill="none" stroke="black" d="M1023.38,-435.043C979.824,-412.902 915,-369.788 915,-309.309 915,-309.309 915,-309.309 915,-162.539 915,-78.119 815.801,-43.4714 732.647,-29.2578"/>
<polygon fill="black" stroke="black" points="733.001,-26.4787 724.653,-27.9451 732.094,-32.0046 733.001,-26.4787"/>
</g>
<!-- value -->
<g id="node14" class="node"><title>value</title>
<polygon fill="lightyellow" stroke="black" points="1265.5,-648.304 1152.5,-648.304 1152.5,-612.304 1265.5,-612.304 1265.5,-648.304"/>
<text text-anchor="middle" x="1209" y="-633.104" font-family="meiryo" font-size="9.00">Dynamic option name</text>
<text text-anchor="middle" x="1209" y="-623.104" font-family="meiryo" font-size="9.00">Dynamic option value</text>
</g>
<!-- value&#45;&gt;uniform -->
<g id="edge1" class="edge"><title>value&#45;&gt;uniform</title>
<path fill="none" stroke="black" d="M1242.13,-612.281C1255.89,-603.306 1270.4,-590.893 1278,-575.304 1290.11,-550.442 1294.78,-535.06 1278,-513.078 1262.91,-493.318 1208.98,-478.575 1158.79,-468.769"/>
<polygon fill="black" stroke="black" points="1159.15,-465.988 1150.77,-467.237 1158.1,-471.488 1159.15,-465.988"/>
</g>
<!-- find -->
<g id="node17" class="node"><title>find</title>
<ellipse fill="none" stroke="black" stroke-dasharray="5,2" cx="1126" cy="-544.191" rx="137.772" ry="31.2258"/>
<text text-anchor="middle" x="1126" y="-555.791" font-family="meiryo" font-size="8.00">Gets the index and choice index</text>
<text text-anchor="middle" x="1126" y="-546.791" font-family="meiryo" font-size="8.00">of the dynamic option.</text>
<text text-anchor="middle" x="1126" y="-537.791" font-family="meiryo" font-size="8.00">ShaderSelector::FindDynamicOptionIndex()</text>
<text text-anchor="middle" x="1126" y="-528.791" font-family="meiryo" font-size="8.00">ResShaderOption::FindChoiceIndex()</text>
</g>
<!-- value&#45;&gt;find -->
<g id="edge9" class="edge"><title>value&#45;&gt;find</title>
<path fill="none" stroke="black" d="M1192.2,-612.282C1183.25,-603.209 1171.89,-591.693 1161.11,-580.773"/>
<polygon fill="black" stroke="black" points="1162.82,-578.514 1155.2,-574.787 1158.83,-582.448 1162.82,-578.514"/>
</g>
<!-- Load&#45;&gt;SetConstantBuffer -->
<g id="edge4" class="edge"><title>Load&#45;&gt;SetConstantBuffer</title>
<path fill="none" stroke="black" d="M621,-72.6607C621,-64.3875 621,-54.3434 621,-45.2161"/>
<polygon fill="black" stroke="black" points="623.8,-45.1687 621,-37.1687 618.2,-45.1687 623.8,-45.1687"/>
</g>
<!-- InitializeShaderKey&#45;&gt;false -->
<g id="edge7" class="edge"><title>InitializeShaderKey&#45;&gt;false</title>
<path fill="none" stroke="black" d="M803.431,-527.948C783.62,-522.697 760.901,-517.126 740,-513.078 613.375,-488.557 464.657,-471.235 374.159,-461.955"/>
<polygon fill="black" stroke="black" points="374.369,-459.162 366.126,-461.137 373.801,-464.733 374.369,-459.162"/>
</g>
<!-- InitializeShaderKey&#45;&gt;true -->
<g id="edge8" class="edge"><title>InitializeShaderKey&#45;&gt;true</title>
<path fill="none" stroke="black" d="M800.574,-528.203C781.389,-523.231 759.797,-517.771 740,-513.078 679.738,-498.793 611.637,-484.023 558.652,-472.834"/>
<polygon fill="black" stroke="black" points="559.02,-470.05 550.615,-471.14 557.865,-475.53 559.02,-470.05"/>
</g>
<!-- find&#45;&gt;WriteDynamicKey -->
<g id="edge10" class="edge"><title>find&#45;&gt;WriteDynamicKey</title>
<path fill="none" stroke="black" d="M1051.31,-517.957C953.155,-484.793 783.329,-427.416 698.817,-398.863"/>
<polygon fill="black" stroke="black" points="699.632,-396.182 691.157,-396.274 697.839,-401.488 699.632,-396.182"/>
</g>
</g>
</svg>
