<?xml version="1.0" encoding="UTF-8" standalone="no"?>
<!DOCTYPE svg PUBLIC "-//W3C//DTD SVG 1.1//EN"
 "http://www.w3.org/Graphics/SVG/1.1/DTD/svg11.dtd">
<!-- Generated by graphviz version 2.38.0 (20140413.2041)
 -->
<!-- Pages: 1 -->
<svg width="864pt" height="125pt"
 viewBox="0.00 0.00 864.00 125.10" xmlns="http://www.w3.org/2000/svg" xmlns:xlink="http://www.w3.org/1999/xlink">
<g id="graph0" class="graph" transform="scale(0.60436 0.60436) rotate(0) translate(4 203)">
<polygon fill="white" stroke="none" points="-4,4 -4,-203 1425.61,-203 1425.61,4 -4,4"/>
<g id="clust1" class="cluster"><title>cluster_dccTool</title>
<polygon fill="#eed2ee" stroke="black" stroke-width="0.3" points="8,-116 8,-191 282,-191 282,-116 8,-116"/>
<text text-anchor="middle" x="145" y="-175.8" font-family="Times New Roman,serif" font-size="14.00">DCC Tool</text>
</g>
<g id="clust3" class="cluster"><title>cluster_viewer</title>
<polygon fill="bisque" stroke="black" stroke-width="0.3" points="777.222,-62 777.222,-137 1009.22,-137 1009.22,-62 777.222,-62"/>
<text text-anchor="middle" x="893.222" y="-121.8" font-family="Times New Roman,serif" font-size="14.00">Viewer</text>
</g>
<g id="clust2" class="cluster"><title>cluster_3dEditor</title>
<polygon fill="azure" stroke="black" stroke-width="0.3" points="502.222,-8 502.222,-191 757.222,-191 757.222,-8 502.222,-8"/>
<text text-anchor="middle" x="629.722" y="-175.8" font-family="Times New Roman,serif" font-size="14.00">3DEditor</text>
</g>
<g id="clust4" class="cluster"><title>cluster_binaryConvert</title>
<polygon fill="floralwhite" stroke="black" stroke-width="0.3" points="1029.22,-8 1029.22,-83 1197.22,-83 1197.22,-8 1029.22,-8"/>
<text text-anchor="middle" x="1113.22" y="-67.8" font-family="Times New Roman,serif" font-size="14.00">3D Binary Converter</text>
</g>
<!-- dccPlugin -->
<g id="node1" class="node"><title>dccPlugin</title>
<polygon fill="lightyellow" stroke="black" stroke-width="0.5" points="274,-160 16,-160 16,-124 274,-124 274,-160"/>
<text text-anchor="middle" x="145" y="-139.8" font-family="Verdana" font-size="9.00">Exporting Intermediate Files Using the DCC Plug&#45;In</text>
</g>
<!-- ifFromDccPlugin -->
<g id="node2" class="node"><title>ifFromDccPlugin</title>
<polygon fill="lightyellow" stroke="black" stroke-width="0.5" points="474.333,-160 343.536,-160 309.889,-124 440.686,-124 474.333,-160"/>
<text text-anchor="middle" x="392.111" y="-139.8" font-family="Verdana" font-size="9.00">Intermediate File</text>
</g>
<!-- dccPlugin&#45;&gt;ifFromDccPlugin -->
<g id="edge1" class="edge"><title>dccPlugin&#45;&gt;ifFromDccPlugin</title>
<path fill="none" stroke="black" d="M274.298,-142C289.403,-142 304.392,-142 318.343,-142"/>
<polygon fill="black" stroke="black" points="318.431,-144.8 326.43,-142 318.43,-139.2 318.431,-144.8"/>
</g>
<!-- readIf -->
<g id="node5" class="node"><title>readIf</title>
<polygon fill="lightyellow" stroke="black" stroke-width="0.5" points="701.222,-160 558.222,-160 558.222,-124 701.222,-124 701.222,-160"/>
<text text-anchor="middle" x="629.722" y="-139.8" font-family="Verdana" font-size="9.00">Loading Intermediate Files</text>
</g>
<!-- ifFromDccPlugin&#45;&gt;readIf -->
<g id="edge2" class="edge"><title>ifFromDccPlugin&#45;&gt;readIf</title>
<path fill="none" stroke="black" d="M457.804,-142C486.196,-142 519.792,-142 549.653,-142"/>
<polygon fill="black" stroke="black" points="549.969,-144.8 557.969,-142 549.969,-139.2 549.969,-144.8"/>
</g>
<!-- ifFileFrom3dEditor -->
<g id="node3" class="node"><title>ifFileFrom3dEditor</title>
<polygon fill="lightyellow" stroke="black" stroke-width="0.5" points="975.444,-52 844.647,-52 811,-16 941.797,-16 975.444,-52"/>
<text text-anchor="middle" x="893.222" y="-31.8" font-family="Verdana" font-size="9.00">Intermediate File</text>
</g>
<!-- binaryConvert -->
<g id="node9" class="node"><title>binaryConvert</title>
<polygon fill="lightyellow" stroke="black" stroke-width="0.5" points="1189.22,-52 1037.22,-52 1037.22,-16 1189.22,-16 1189.22,-52"/>
<text text-anchor="middle" x="1113.22" y="-31.8" font-family="Verdana" font-size="9.00">Converting Binary Resources</text>
</g>
<!-- ifFileFrom3dEditor&#45;&gt;binaryConvert -->
<g id="edge5" class="edge"><title>ifFileFrom3dEditor&#45;&gt;binaryConvert</title>
<path fill="none" stroke="black" d="M958.744,-34C980.757,-34 1005.69,-34 1028.96,-34"/>
<polygon fill="black" stroke="black" points="1029.12,-36.8001 1037.12,-34 1029.12,-31.2001 1029.12,-36.8001"/>
</g>
<!-- binaryFile -->
<g id="node4" class="node"><title>binaryFile</title>
<polygon fill="lightyellow" stroke="black" stroke-width="0.5" points="1421.81,-52 1265.29,-52 1225.03,-16 1381.54,-16 1421.81,-52"/>
<text text-anchor="middle" x="1323.42" y="-31.8" font-family="Verdana" font-size="9.00">Binary Resource Files</text>
</g>
<!-- editIf -->
<g id="node6" class="node"><title>editIf</title>
<polygon fill="lightyellow" stroke="black" stroke-width="0.5" points="749.222,-106 510.222,-106 510.222,-70 749.222,-70 749.222,-106"/>
<text text-anchor="middle" x="629.722" y="-85.8" font-family="Verdana" font-size="9.00">Editing Intermediate Files: Creating Animations</text>
</g>
<!-- preview -->
<g id="node8" class="node"><title>preview</title>
<polygon fill="lightyellow" stroke="black" stroke-width="0.5" points="1001.22,-106 785.222,-106 785.222,-70 1001.22,-70 1001.22,-106"/>
<text text-anchor="middle" x="893.222" y="-85.8" font-family="Verdana" font-size="9.00">Real&#45;Time Editing Using the Viewer Library</text>
</g>
<!-- editIf&#45;&gt;preview -->
<g id="edge3" class="edge"><title>editIf&#45;&gt;preview</title>
<path fill="none" stroke="black" d="M757.329,-88C763.819,-88 770.322,-88 776.775,-88"/>
<polygon fill="black" stroke="black" points="757.23,-85.2001 749.23,-88 757.23,-90.8001 757.23,-85.2001"/>
<polygon fill="black" stroke="black" points="776.917,-90.8001 784.917,-88 776.917,-85.2001 776.917,-90.8001"/>
</g>
<!-- saveIf -->
<g id="node7" class="node"><title>saveIf</title>
<polygon fill="lightyellow" stroke="black" stroke-width="0.5" points="682.222,-52 577.222,-52 577.222,-16 682.222,-16 682.222,-52"/>
<text text-anchor="middle" x="629.722" y="-31.8" font-family="Verdana" font-size="9.00">Saving Edited Files</text>
</g>
<!-- saveIf&#45;&gt;ifFileFrom3dEditor -->
<g id="edge4" class="edge"><title>saveIf&#45;&gt;ifFileFrom3dEditor</title>
<path fill="none" stroke="black" d="M682.386,-34C721.621,-34 776.074,-34 819.677,-34"/>
<polygon fill="black" stroke="black" points="819.687,-36.8001 827.686,-34 819.686,-31.2001 819.687,-36.8001"/>
</g>
<!-- binaryConvert&#45;&gt;binaryFile -->
<g id="edge6" class="edge"><title>binaryConvert&#45;&gt;binaryFile</title>
<path fill="none" stroke="black" d="M1189.39,-34C1204.76,-34 1221.05,-34 1236.76,-34"/>
<polygon fill="black" stroke="black" points="1236.91,-36.8001 1244.91,-34 1236.91,-31.2001 1236.91,-36.8001"/>
</g>
</g>
</svg>
