<?xml version="1.0" encoding="UTF-8" standalone="no"?>
<!DOCTYPE svg PUBLIC "-//W3C//DTD SVG 1.1//EN"
 "http://www.w3.org/Graphics/SVG/1.1/DTD/svg11.dtd">
<!-- Generated by graphviz version 2.38.0 (20140413.2041)
 -->
<!-- Pages: 1 -->
<svg width="240pt" height="188pt"
 viewBox="0.00 0.00 240.00 188.00" xmlns="http://www.w3.org/2000/svg" xmlns:xlink="http://www.w3.org/1999/xlink">
<g id="graph0" class="graph" transform="scale(1 1) rotate(0) translate(4 184)">
<polygon fill="white" stroke="none" points="-4,4 -4,-184 236,-184 236,4 -4,4"/>
<!-- initFile -->
<g id="node1" class="node"><title>initFile</title>
<polygon fill="lightyellow" stroke="black" points="176,-180 83,-180 83,-144 176,-144 176,-180"/>
<text text-anchor="middle" x="129.5" y="-159.8" font-family="Verdana" font-size="9.00">File Initialization</text>
</g>
<!-- associateShaderAndModel -->
<g id="node2" class="node"><title>associateShaderAndModel</title>
<polygon fill="lightyellow" stroke="black" points="145,-108 0,-108 0,-72 145,-72 145,-108"/>
<text text-anchor="middle" x="72.5" y="-92.8" font-family="Verdana" font-size="9.00">Association Between</text>
<text text-anchor="middle" x="72.5" y="-82.8" font-family="Verdana" font-size="9.00">the Shader and the Models</text>
</g>
<!-- initFile&#45;&gt;associateShaderAndModel -->
<g id="edge1" class="edge"><title>initFile&#45;&gt;associateShaderAndModel</title>
<path fill="none" stroke="black" d="M115.41,-143.697C108.231,-134.881 99.3975,-124.032 91.6147,-114.474"/>
<polygon fill="black" stroke="black" points="93.6505,-112.54 86.4278,-108.104 89.308,-116.076 93.6505,-112.54"/>
</g>
<!-- buildAnimInstance -->
<g id="node4" class="node"><title>buildAnimInstance</title>
<polygon fill="lightyellow" stroke="black" points="232,-36 129,-36 129,-0 232,-0 232,-36"/>
<text text-anchor="middle" x="180.5" y="-20.8" font-family="Verdana" font-size="9.00">Building Animation</text>
<text text-anchor="middle" x="180.5" y="-10.8" font-family="Verdana" font-size="9.00">Instances</text>
</g>
<!-- initFile&#45;&gt;buildAnimInstance -->
<g id="edge3" class="edge"><title>initFile&#45;&gt;buildAnimInstance</title>
<path fill="none" stroke="black" d="M138.085,-143.576C142.947,-133.351 148.947,-120.101 153.5,-108 161.488,-86.7694 168.84,-62.0382 173.848,-44.0419"/>
<polygon fill="black" stroke="black" points="176.56,-44.7399 175.978,-36.284 171.16,-43.2571 176.56,-44.7399"/>
</g>
<!-- buildModelInstance -->
<g id="node3" class="node"><title>buildModelInstance</title>
<polygon fill="lightyellow" stroke="black" points="110.5,-36 22.5,-36 22.5,-0 110.5,-0 110.5,-36"/>
<text text-anchor="middle" x="66.5" y="-20.8" font-family="Verdana" font-size="9.00">Creating Model</text>
<text text-anchor="middle" x="66.5" y="-10.8" font-family="Verdana" font-size="9.00">Instances</text>
</g>
<!-- associateShaderAndModel&#45;&gt;buildModelInstance -->
<g id="edge2" class="edge"><title>associateShaderAndModel&#45;&gt;buildModelInstance</title>
<path fill="none" stroke="black" d="M71.0169,-71.6966C70.3048,-63.3893 69.438,-53.2771 68.6549,-44.1407"/>
<polygon fill="black" stroke="black" points="71.4392,-43.836 67.9661,-36.1043 65.8596,-44.3143 71.4392,-43.836"/>
</g>
</g>
</svg>
