<?xml version="1.0" encoding="UTF-8" standalone="no"?>
<!DOCTYPE svg PUBLIC "-//W3C//DTD SVG 1.1//EN"
 "http://www.w3.org/Graphics/SVG/1.1/DTD/svg11.dtd">
<!-- Generated by graphviz version 2.38.0 (20140413.2041)
 -->
<!-- Pages: 1 -->
<svg width="246pt" height="548pt"
 viewBox="0.00 0.00 245.58 548.00" xmlns="http://www.w3.org/2000/svg" xmlns:xlink="http://www.w3.org/1999/xlink">
<g id="graph0" class="graph" transform="scale(1 1) rotate(0) translate(4 544)">
<polygon fill="white" stroke="none" points="-4,4 -4,-544 241.583,-544 241.583,4 -4,4"/>
<!-- initialize -->
<g id="node1" class="node"><title>initialize</title>
<polygon fill="lightyellow" stroke="black" points="134,-540 60,-540 60,-504 134,-504 134,-540"/>
<text text-anchor="middle" x="97" y="-519.8" font-family="Verdana" font-size="9.00">Initialization</text>
</g>
<!-- initializeGfx -->
<g id="node2" class="node"><title>initializeGfx</title>
<polygon fill="lightyellow" stroke="black" points="141.5,-468 52.5,-468 52.5,-432 141.5,-432 141.5,-468"/>
<text text-anchor="middle" x="97" y="-452.8" font-family="Verdana" font-size="9.00">Initializing</text>
<text text-anchor="middle" x="97" y="-442.8" font-family="Verdana" font-size="9.00">nn::gfx Objects</text>
</g>
<!-- initialize&#45;&gt;initializeGfx -->
<g id="edge1" class="edge"><title>initialize&#45;&gt;initializeGfx</title>
<path fill="none" stroke="black" d="M97,-503.697C97,-495.389 97,-485.277 97,-476.141"/>
<polygon fill="black" stroke="black" points="99.8001,-476.104 97,-468.104 94.2001,-476.104 99.8001,-476.104"/>
</g>
<!-- update -->
<g id="node3" class="node"><title>update</title>
<polygon fill="lightyellow" stroke="black" points="143,-396 51,-396 51,-360 143,-360 143,-396"/>
<text text-anchor="middle" x="97" y="-380.8" font-family="Verdana" font-size="9.00">Updating</text>
<text text-anchor="middle" x="97" y="-370.8" font-family="Verdana" font-size="9.00">Animations, Etc.</text>
</g>
<!-- initializeGfx&#45;&gt;update -->
<g id="edge2" class="edge"><title>initializeGfx&#45;&gt;update</title>
<path fill="none" stroke="black" d="M97,-431.697C97,-423.389 97,-413.277 97,-404.141"/>
<polygon fill="black" stroke="black" points="99.8001,-404.104 97,-396.104 94.2001,-404.104 99.8001,-404.104"/>
</g>
<!-- updateGpuBuffers -->
<g id="node4" class="node"><title>updateGpuBuffers</title>
<polygon fill="lightyellow" stroke="black" points="142,-324 0,-324 0,-288 142,-288 142,-324"/>
<text text-anchor="middle" x="71" y="-308.8" font-family="Verdana" font-size="9.00">Updating Buffers Accessed</text>
<text text-anchor="middle" x="71" y="-298.8" font-family="Verdana" font-size="9.00">by the GPU</text>
</g>
<!-- update&#45;&gt;updateGpuBuffers -->
<g id="edge3" class="edge"><title>update&#45;&gt;updateGpuBuffers</title>
<path fill="none" stroke="black" d="M90.573,-359.697C87.456,-351.305 83.6548,-341.07 80.2342,-331.861"/>
<polygon fill="black" stroke="black" points="82.7634,-330.629 77.353,-324.104 77.5138,-332.579 82.7634,-330.629"/>
</g>
<!-- makeGpuCommands -->
<g id="node5" class="node"><title>makeGpuCommands</title>
<polygon fill="lightyellow" stroke="black" points="140,-252 4,-252 4,-216 140,-216 140,-252"/>
<text text-anchor="middle" x="72" y="-231.8" font-family="Verdana" font-size="9.00">Create a draw command.</text>
</g>
<!-- updateGpuBuffers&#45;&gt;makeGpuCommands -->
<g id="edge4" class="edge"><title>updateGpuBuffers&#45;&gt;makeGpuCommands</title>
<path fill="none" stroke="black" d="M71.2472,-287.697C71.3659,-279.389 71.5103,-269.277 71.6408,-260.141"/>
<polygon fill="black" stroke="black" points="74.441,-260.144 71.7557,-252.104 68.8416,-260.063 74.441,-260.144"/>
</g>
<!-- executeGpuCommands -->
<g id="node6" class="node"><title>executeGpuCommands</title>
<polygon fill="lightyellow" stroke="black" points="142,-180 2,-180 2,-144 142,-144 142,-180"/>
<text text-anchor="middle" x="72" y="-159.8" font-family="Verdana" font-size="9.00">Issue the draw command.</text>
</g>
<!-- makeGpuCommands&#45;&gt;executeGpuCommands -->
<g id="edge5" class="edge"><title>makeGpuCommands&#45;&gt;executeGpuCommands</title>
<path fill="none" stroke="black" d="M72,-215.697C72,-207.389 72,-197.277 72,-188.141"/>
<polygon fill="black" stroke="black" points="74.8001,-188.104 72,-180.104 69.2001,-188.104 74.8001,-188.104"/>
</g>
<!-- breakMainLoop -->
<g id="node7" class="node"><title>breakMainLoop</title>
<polygon fill="lightyellow" stroke="black" points="104,-108 71.1795,-90 104,-72 136.821,-90 104,-108"/>
<text text-anchor="middle" x="104" y="-87.8" font-family="Verdana" font-size="9.00">End?</text>
</g>
<!-- executeGpuCommands&#45;&gt;breakMainLoop -->
<g id="edge6" class="edge"><title>executeGpuCommands&#45;&gt;breakMainLoop</title>
<path fill="none" stroke="black" d="M79.9101,-143.697C84.2757,-134.147 89.7317,-122.212 94.3469,-112.116"/>
<polygon fill="black" stroke="black" points="96.9006,-113.264 97.6802,-104.825 91.8076,-110.936 96.9006,-113.264"/>
</g>
<!-- breakMainLoop&#45;&gt;update -->
<g id="edge8" class="edge"><title>breakMainLoop:e&#45;&gt;update:e</title>
<path fill="none" stroke="black" d="M138,-90C263.277,-90 271.714,-365.758 152.066,-377.607"/>
<polygon fill="black" stroke="black" points="151.854,-374.814 144,-378 152.127,-380.407 151.854,-374.814"/>
<text text-anchor="middle" x="147" y="-93.8" font-family="Times New Roman,serif" font-size="14.00">No</text>
</g>
<!-- finalize -->
<g id="node8" class="node"><title>finalize</title>
<polygon fill="lightyellow" stroke="black" points="167,-36 41,-36 41,-0 167,-0 167,-36"/>
<text text-anchor="middle" x="104" y="-15.8" font-family="Verdana" font-size="9.00">Termination Processing</text>
</g>
<!-- breakMainLoop&#45;&gt;finalize -->
<g id="edge7" class="edge"><title>breakMainLoop&#45;&gt;finalize</title>
<path fill="none" stroke="black" d="M104,-71.6966C104,-63.3893 104,-53.2771 104,-44.1407"/>
<polygon fill="black" stroke="black" points="106.8,-44.1043 104,-36.1043 101.2,-44.1044 106.8,-44.1043"/>
<text text-anchor="middle" x="93" y="-60.4966" font-family="Times New Roman,serif" font-size="14.00">Yes</text>
</g>
</g>
</svg>
