<?xml version="1.0" encoding="UTF-8" standalone="no"?>
<!DOCTYPE svg PUBLIC "-//W3C//DTD SVG 1.1//EN"
 "http://www.w3.org/Graphics/SVG/1.1/DTD/svg11.dtd">
<!-- Generated by graphviz version 2.38.0 (20140413.2041)
 -->
<!-- Pages: 1 -->
<svg width="313pt" height="332pt"
 viewBox="0.00 0.00 312.68 332.00" xmlns="http://www.w3.org/2000/svg" xmlns:xlink="http://www.w3.org/1999/xlink">
<g id="graph0" class="graph" transform="scale(1 1) rotate(0) translate(4 328)">
<polygon fill="white" stroke="none" points="-4,4 -4,-328 308.682,-328 308.682,4 -4,4"/>
<!-- visibility -->
<g id="node1" class="node"><title>visibility</title>
<polygon fill="lightyellow" stroke="black" points="88.1816,-324 -0.182006,-306 88.1816,-288 176.545,-306 88.1816,-324"/>
<text text-anchor="middle" x="88.1816" y="-303.8" font-family="Verdana" font-size="9.00">Determine visibility.</text>
</g>
<!-- loadShader -->
<g id="node2" class="node"><title>loadShader</title>
<polygon fill="lightyellow" stroke="black" points="158.682,-252 55.6816,-252 55.6816,-216 158.682,-216 158.682,-252"/>
<text text-anchor="middle" x="107.182" y="-231.8" font-family="Verdana" font-size="9.00">Load the shaders.</text>
</g>
<!-- visibility&#45;&gt;loadShader -->
<g id="edge1" class="edge"><title>visibility:s&#45;&gt;loadShader</title>
<path fill="none" stroke="black" d="M88.1816,-288C88.1816,-278.421 90.966,-268.409 94.4029,-259.699"/>
<polygon fill="black" stroke="black" points="97.0766,-260.57 97.6816,-252.116 91.9365,-258.348 97.0766,-260.57"/>
<text text-anchor="middle" x="68.6816" y="-276.8" font-family="Times New Roman,serif" font-size="14.00">Visible</text>
</g>
<!-- goToNextShape -->
<g id="node3" class="node"><title>goToNextShape</title>
<polygon fill="lightyellow" stroke="black" points="304.682,-324 229.682,-324 229.682,-288 304.682,-288 304.682,-324"/>
<text text-anchor="middle" x="267.182" y="-303.8" font-family="Verdana" font-size="9.00">Next Shader</text>
</g>
<!-- visibility&#45;&gt;goToNextShape -->
<g id="edge2" class="edge"><title>visibility:e&#45;&gt;goToNextShape</title>
<path fill="none" stroke="black" d="M176.363,-306C190.963,-306 206.897,-306 221.237,-306"/>
<polygon fill="black" stroke="black" points="221.474,-308.8 229.474,-306 221.474,-303.2 221.474,-308.8"/>
<text text-anchor="middle" x="199.863" y="-309.8" font-family="Times New Roman,serif" font-size="14.00">Invisible</text>
</g>
<!-- sampler -->
<g id="node4" class="node"><title>sampler</title>
<polygon fill="lightyellow" stroke="black" points="229.182,-180 5.18163,-180 5.18163,-144 229.182,-144 229.182,-180"/>
<text text-anchor="middle" x="117.182" y="-159.8" font-family="Verdana" font-size="9.00">Configure the sampler and texture settings.</text>
</g>
<!-- loadShader&#45;&gt;sampler -->
<g id="edge3" class="edge"><title>loadShader&#45;&gt;sampler</title>
<path fill="none" stroke="black" d="M109.654,-215.697C110.84,-207.389 112.285,-197.277 113.59,-188.141"/>
<polygon fill="black" stroke="black" points="116.379,-188.42 114.738,-180.104 110.835,-187.628 116.379,-188.42"/>
</g>
<!-- uniform -->
<g id="node6" class="node"><title>uniform</title>
<polygon fill="lightyellow" stroke="black" points="222.682,-108 35.6816,-108 35.6816,-72 222.682,-72 222.682,-108"/>
<text text-anchor="middle" x="129.182" y="-92.8" font-family="Verdana" font-size="9.00">Loading the Uniform Block for</text>
<text text-anchor="middle" x="129.182" y="-82.8" font-family="Verdana" font-size="9.00">View, Material, Skeleton, and Shape</text>
</g>
<!-- sampler&#45;&gt;uniform -->
<g id="edge4" class="edge"><title>sampler&#45;&gt;uniform</title>
<path fill="none" stroke="black" d="M120.148,-143.697C121.572,-135.389 123.306,-125.277 124.872,-116.141"/>
<polygon fill="black" stroke="black" points="127.657,-116.462 126.249,-108.104 122.138,-115.516 127.657,-116.462"/>
</g>
<!-- draw -->
<g id="node5" class="node"><title>draw</title>
<polygon fill="lightyellow" stroke="black" points="209.182,-36 155.182,-36 155.182,-0 209.182,-0 209.182,-36"/>
<text text-anchor="middle" x="182.182" y="-15.8" font-family="Verdana" font-size="9.00">Draw.</text>
</g>
<!-- draw&#45;&gt;goToNextShape -->
<g id="edge6" class="edge"><title>draw:e&#45;&gt;goToNextShape</title>
<path fill="none" stroke="black" d="M210.182,-18C316.599,-18 287.022,-210.179 272.76,-280.017"/>
<polygon fill="black" stroke="black" points="270.007,-279.502 271.107,-287.906 275.488,-280.651 270.007,-279.502"/>
</g>
<!-- uniform&#45;&gt;draw -->
<g id="edge5" class="edge"><title>uniform&#45;&gt;draw</title>
<path fill="none" stroke="black" d="M142.283,-71.6966C148.893,-62.9655 157.014,-52.2405 164.199,-42.7503"/>
<polygon fill="black" stroke="black" points="166.634,-44.1726 169.231,-36.1043 162.17,-40.7922 166.634,-44.1726"/>
</g>
</g>
</svg>
