<?xml version="1.0" encoding="UTF-8" standalone="no"?>
<!DOCTYPE svg PUBLIC "-//W3C//DTD SVG 1.1//EN"
 "http://www.w3.org/Graphics/SVG/1.1/DTD/svg11.dtd">
<!-- Generated by graphviz version 2.38.0 (20140413.2041)
 -->
<!-- Pages: 1 -->
<svg width="276pt" height="188pt"
 viewBox="0.00 0.00 275.50 188.00" xmlns="http://www.w3.org/2000/svg" xmlns:xlink="http://www.w3.org/1999/xlink">
<g id="graph0" class="graph" transform="scale(1 1) rotate(0) translate(4 184)">
<polygon fill="white" stroke="none" points="-4,4 -4,-184 271.5,-184 271.5,4 -4,4"/>
<!-- calcAnim -->
<g id="node1" class="node"><title>calcAnim</title>
<polygon fill="lightyellow" stroke="black" points="193.5,-180 70.5,-180 70.5,-144 193.5,-144 193.5,-180"/>
<text text-anchor="middle" x="132" y="-159.8" font-family="Verdana" font-size="9.00">Animation Calculations</text>
</g>
<!-- applyAnim -->
<g id="node2" class="node"><title>applyAnim</title>
<polygon fill="lightyellow" stroke="black" points="185,-108 79,-108 79,-72 185,-72 185,-108"/>
<text text-anchor="middle" x="132" y="-87.8" font-family="Verdana" font-size="9.00">Applying Animation</text>
</g>
<!-- calcAnim&#45;&gt;applyAnim -->
<g id="edge1" class="edge"><title>calcAnim&#45;&gt;applyAnim</title>
<path fill="none" stroke="black" d="M132,-143.697C132,-135.389 132,-125.277 132,-116.141"/>
<polygon fill="black" stroke="black" points="134.8,-116.104 132,-108.104 129.2,-116.104 134.8,-116.104"/>
</g>
<!-- updateSkeleton -->
<g id="node3" class="node"><title>updateSkeleton</title>
<polygon fill="lightyellow" stroke="black" points="122,-36 7.10543e-015,-36 7.10543e-015,-0 122,-0 122,-36"/>
<text text-anchor="middle" x="61" y="-15.8" font-family="Verdana" font-size="9.00">Updating the Skeleton</text>
</g>
<!-- applyAnim&#45;&gt;updateSkeleton -->
<g id="edge2" class="edge"><title>applyAnim&#45;&gt;updateSkeleton</title>
<path fill="none" stroke="black" d="M114.449,-71.6966C105.336,-62.7112 94.08,-51.614 84.2518,-41.9243"/>
<polygon fill="black" stroke="black" points="86.0114,-39.7271 78.3487,-36.1043 82.0797,-43.7149 86.0114,-39.7271"/>
</g>
<!-- updateScene -->
<g id="node4" class="node"><title>updateScene</title>
<polygon fill="lightyellow" stroke="black" points="267.5,-36 140.5,-36 140.5,-0 267.5,-0 267.5,-36"/>
<text text-anchor="middle" x="204" y="-20.8" font-family="Verdana" font-size="9.00">Updating</text>
<text text-anchor="middle" x="204" y="-10.8" font-family="Verdana" font-size="9.00">Camera, Light, and Fog</text>
</g>
<!-- applyAnim&#45;&gt;updateScene -->
<g id="edge3" class="edge"><title>applyAnim&#45;&gt;updateScene</title>
<path fill="none" stroke="black" d="M149.798,-71.6966C159.04,-62.7112 170.454,-51.614 180.421,-41.9243"/>
<polygon fill="black" stroke="black" points="182.623,-43.6886 186.407,-36.1043 178.719,-39.6734 182.623,-43.6886"/>
</g>
</g>
</svg>
