<?xml version="1.0" encoding="UTF-8" standalone="no"?>
<!DOCTYPE svg PUBLIC "-//W3C//DTD SVG 1.1//EN"
 "http://www.w3.org/Graphics/SVG/1.1/DTD/svg11.dtd">
<!-- Generated by graphviz version 2.38.0 (20140413.2041)
 -->
<!-- Pages: 1 -->
<svg width="1118pt" height="212pt"
 viewBox="0.00 0.00 1118.31 212.00" xmlns="http://www.w3.org/2000/svg" xmlns:xlink="http://www.w3.org/1999/xlink">
<g id="graph0" class="graph" transform="scale(1 1) rotate(0) translate(4 208)">
<polygon fill="white" stroke="none" points="-4,4 -4,-208 1114.31,-208 1114.31,4 -4,4"/>
<g id="clust1" class="cluster"><title>cluster_Class</title>
<polygon fill="moccasin" stroke="black" points="166.593,-8 166.593,-117 707.742,-117 707.742,-8 166.593,-8"/>
<text text-anchor="middle" x="437.168" y="-105" font-family="meiryo" font-size="10.00">Management Class</text>
</g>
<g id="clust2" class="cluster"><title>cluster_GPU</title>
<polygon fill="moccasin" stroke="black" points="586.742,-19 586.742,-90 699.742,-90 699.742,-19 586.742,-19"/>
<text text-anchor="middle" x="643.242" y="-78" font-family="meiryo" font-size="10.00">Buffer Region (GPU)</text>
</g>
<g id="clust3" class="cluster"><title>cluster_location</title>
<polygon fill="moccasin" stroke="black" points="499.742,-125 499.742,-196 786.742,-196 786.742,-125 499.742,-125"/>
<text text-anchor="middle" x="643.242" y="-184" font-family="meiryo" font-size="10.00">Shader Uniform Block</text>
</g>
<!-- GPU -->
<g id="node1" class="node"><title>GPU</title>
<polygon fill="lightyellow" stroke="black" points="685.742,-63 600.742,-63 600.742,-27 685.742,-27 685.742,-63"/>
<text text-anchor="middle" x="643.242" y="-42.8" font-family="meiryo" font-size="9.00"> nn::gfx::Buffer</text>
</g>
<!-- setConstantBuffer -->
<g id="node6" class="node"><title>setConstantBuffer</title>
<ellipse fill="none" stroke="black" stroke-dasharray="5,2" cx="962.528" cy="-98" rx="147.571" ry="18.2703"/>
<text text-anchor="middle" x="962.528" y="-100.6" font-family="meiryo" font-size="8.00">Set the shader value to shader</text>
<text text-anchor="middle" x="962.528" y="-91.6" font-family="meiryo" font-size="8.00">nn::gfx::CommandBuffer::SetConstantBuffer()</text>
</g>
<!-- GPU&#45;&gt;setConstantBuffer -->
<g id="edge4" class="edge"><title>GPU&#45;&gt;setConstantBuffer</title>
<path fill="none" stroke="black" d="M699.541,-54.2373C745.228,-61.8688 811.158,-72.8819 865.448,-81.9507"/>
<polygon fill="black" stroke="black" points="865.075,-84.7271 873.427,-83.2836 865.998,-79.2037 865.075,-84.7271"/>
</g>
<!-- CPU -->
<g id="node2" class="node"><title>CPU</title>
<polygon fill="lightyellow" stroke="black" points="281.593,-71 174.593,-71 174.593,-35 281.593,-35 281.593,-71"/>
<text text-anchor="middle" x="228.093" y="-50.8" font-family="meiryo" font-size="9.00">Source Region (CPU)</text>
</g>
<!-- calculate -->
<g id="node3" class="node"><title>calculate</title>
<ellipse fill="none" stroke="black" stroke-dasharray="5,2" cx="394.668" cy="-53" rx="77.1494" ry="37.4533"/>
<text text-anchor="middle" x="394.668" y="-69.1" font-family="meiryo" font-size="8.00"> Write value</text>
<text text-anchor="middle" x="394.668" y="-60.1" font-family="meiryo" font-size="8.00">CalculateShape()</text>
<text text-anchor="middle" x="394.668" y="-51.1" font-family="meiryo" font-size="8.00">CalculateSkeleton()</text>
<text text-anchor="middle" x="394.668" y="-42.1" font-family="meiryo" font-size="8.00">CalculateMaterial()</text>
<text text-anchor="middle" x="394.668" y="-33.1" font-family="meiryo" font-size="8.00">CalculateOptionBlock()</text>
</g>
<!-- CPU&#45;&gt;calculate -->
<g id="edge2" class="edge"><title>CPU&#45;&gt;calculate</title>
<path fill="none" stroke="black" d="M281.618,-53C290.422,-53 299.75,-53 309.118,-53"/>
<polygon fill="black" stroke="black" points="309.349,-55.8001 317.349,-53 309.349,-50.2001 309.349,-55.8001"/>
</g>
<!-- calculate&#45;&gt;GPU -->
<g id="edge3" class="edge"><title>calculate&#45;&gt;GPU</title>
<path fill="none" stroke="black" d="M471.66,-50.5345C505.944,-49.4221 545.979,-48.1232 578.645,-47.0634"/>
<polygon fill="black" stroke="black" points="578.879,-49.8574 586.783,-46.7993 578.697,-44.2603 578.879,-49.8574"/>
</g>
<!-- location -->
<g id="node4" class="node"><title>location</title>
<polygon fill="lightyellow" stroke="black" points="778.742,-169 507.742,-169 507.742,-133 778.742,-133 778.742,-169"/>
<text text-anchor="middle" x="643.242" y="-148.8" font-family="meiryo" font-size="9.00"> nn::g3d::ResShaderProgram::GetUniformBlockLocation()</text>
</g>
<!-- location&#45;&gt;setConstantBuffer -->
<g id="edge5" class="edge"><title>location&#45;&gt;setConstantBuffer</title>
<path fill="none" stroke="black" d="M786.564,-127.226C813.246,-122.769 840.551,-118.208 865.416,-114.055"/>
<polygon fill="black" stroke="black" points="866.01,-116.794 873.439,-112.715 865.087,-111.271 866.01,-116.794"/>
</g>
<!-- change -->
<g id="node5" class="node"><title>change</title>
<ellipse fill="none" stroke="black" stroke-dasharray="5,2" cx="69.2965" cy="-53" rx="69.0935" ry="37.4533"/>
<text text-anchor="middle" x="69.2965" y="-69.1" font-family="meiryo" font-size="8.00">Change value</text>
<text text-anchor="middle" x="69.2965" y="-60.1" font-family="meiryo" font-size="8.00">GetUserArea()</text>
<text text-anchor="middle" x="69.2965" y="-51.1" font-family="meiryo" font-size="8.00">GetWorldMtxArray()</text>
<text text-anchor="middle" x="69.2965" y="-42.1" font-family="meiryo" font-size="8.00">EditShaderParam()</text>
<text text-anchor="middle" x="69.2965" y="-33.1" font-family="meiryo" font-size="8.00">WriteStaticKey()</text>
</g>
<!-- change&#45;&gt;CPU -->
<g id="edge1" class="edge"><title>change&#45;&gt;CPU</title>
<path fill="none" stroke="black" d="M138.614,-53C147.838,-53 157.253,-53 166.334,-53"/>
<polygon fill="black" stroke="black" points="166.565,-55.8001 174.565,-53 166.565,-50.2001 166.565,-55.8001"/>
</g>
</g>
</svg>
