<?xml version="1.0" encoding="UTF-8" standalone="no"?>
<!DOCTYPE svg PUBLIC "-//W3C//DTD SVG 1.1//EN"
 "http://www.w3.org/Graphics/SVG/1.1/DTD/svg11.dtd">
<!-- Generated by graphviz version 2.38.0 (20140413.2041)
 -->
<!-- Pages: 1 -->
<svg width="1778pt" height="295pt"
 viewBox="0.00 0.00 1777.50 295.00" xmlns="http://www.w3.org/2000/svg" xmlns:xlink="http://www.w3.org/1999/xlink">
<g id="graph0" class="graph" transform="scale(1 1) rotate(0) translate(4 291)">
<polygon fill="white" stroke="none" points="-4,4 -4,-291 1773.5,-291 1773.5,4 -4,4"/>
<g id="clust1" class="cluster"><title>cluster_problems</title>
<path fill="none" stroke="orange" d="M36,-168C36,-168 1306,-168 1306,-168 1312,-168 1318,-174 1318,-180 1318,-180 1318,-229 1318,-229 1318,-235 1312,-241 1306,-241 1306,-241 36,-241 36,-241 30,-241 24,-235 24,-229 24,-229 24,-180 24,-180 24,-174 30,-168 36,-168"/>
<text text-anchor="middle" x="671" y="-227.4" font-family="Times New Roman,serif" font-size="12.00">Problems Discovered With the Default Parameter</text>
</g>
<g id="clust2" class="cluster"><title>cluster_try</title>
<path fill="none" stroke="red" d="M279,-8C279,-8 759,-8 759,-8 765,-8 771,-14 771,-20 771,-20 771,-82 771,-82 771,-88 765,-94 759,-94 759,-94 279,-94 279,-94 273,-94 267,-88 267,-82 267,-82 267,-20 267,-20 267,-14 273,-8 279,-8"/>
<text text-anchor="middle" x="519" y="-80.4" font-family="Times New Roman,serif" font-size="12.00">Parameters That Have Significant Effects</text>
<text text-anchor="middle" x="519" y="-67.4" font-family="Times New Roman,serif" font-size="12.00">and Require Adjusting</text>
</g>
<!-- ExecuteDefaultParameter -->
<g id="node1" class="node"><title>ExecuteDefaultParameter</title>
<polygon fill="lightyellow" stroke="blue" points="696,-287 422,-287 422,-249 696,-249 696,-287"/>
<text text-anchor="middle" x="559" y="-275.8" font-family="Verdana" font-size="9.00">Step 1: Polygon Reduction With the Default Parameter</text>
<text text-anchor="middle" x="559" y="-255.8" font-family="Verdana" font-size="9.00">Parameter Name: Default Parameter</text>
</g>
<!-- FindHoles -->
<g id="node2" class="node"><title>FindHoles</title>
<polygon fill="lightyellow" stroke="orange" points="168,-212 32,-212 32,-176 168,-176 168,-212"/>
<text text-anchor="middle" x="100" y="-191.8" font-family="Verdana" font-size="9.00">Step 3: If There Is a Hole</text>
</g>
<!-- ExecuteDefaultParameter&#45;&gt;FindHoles -->
<g id="edge1" class="edge"><title>ExecuteDefaultParameter&#45;&gt;FindHoles</title>
<path fill="none" stroke="black" d="M421.649,-264.365C331.097,-261.345 221.329,-254.87 177,-241 160.042,-235.694 142.903,-225.979 129.113,-216.839"/>
<polygon fill="black" stroke="black" points="130.413,-214.336 122.227,-212.139 127.256,-218.961 130.413,-214.336"/>
</g>
<!-- IrregularUV -->
<g id="node3" class="node"><title>IrregularUV</title>
<polygon fill="lightyellow" stroke="orange" points="692,-212 426,-212 426,-176 692,-176 692,-212"/>
<text text-anchor="middle" x="559" y="-191.8" font-family="Verdana" font-size="9.00">Step 4 and Step 6: If the UV Appears to Be Distorted</text>
</g>
<!-- ExecuteDefaultParameter&#45;&gt;IrregularUV -->
<g id="edge3" class="edge"><title>ExecuteDefaultParameter&#45;&gt;IrregularUV</title>
<path fill="none" stroke="black" d="M559,-248.831C559,-240.283 559,-229.941 559,-220.616"/>
<polygon fill="black" stroke="black" points="561.8,-220.418 559,-212.418 556.2,-220.418 561.8,-220.418"/>
</g>
<!-- LostFeature -->
<g id="node4" class="node"><title>LostFeature</title>
<polygon fill="lightyellow" stroke="orange" points="1010,-212 710,-212 710,-176 1010,-176 1010,-212"/>
<text text-anchor="middle" x="860" y="-191.8" font-family="Verdana" font-size="9.00">Step 5: Characteristic Shapes Such as Corners Disappeared</text>
</g>
<!-- ExecuteDefaultParameter&#45;&gt;LostFeature -->
<g id="edge6" class="edge"><title>ExecuteDefaultParameter&#45;&gt;LostFeature</title>
<path fill="none" stroke="black" d="M664.322,-248.939C676.723,-246.452 689.168,-243.787 701,-241 733.48,-233.348 769.21,-223.174 798.557,-214.339"/>
<polygon fill="black" stroke="black" points="799.42,-217.003 806.265,-212.005 797.797,-211.644 799.42,-217.003"/>
</g>
<!-- IrregularPoly -->
<g id="node5" class="node"><title>IrregularPoly</title>
<polygon fill="lightyellow" stroke="orange" points="1309.5,-212 1028.5,-212 1028.5,-176 1309.5,-176 1309.5,-212"/>
<text text-anchor="middle" x="1169" y="-196.8" font-family="Verdana" font-size="9.00">Step 5: Output Results Include Strange Polygon Shapes</text>
<text text-anchor="middle" x="1169" y="-186.8" font-family="Verdana" font-size="9.00">Vertices Are Created at Abnormal Positions</text>
</g>
<!-- ExecuteDefaultParameter&#45;&gt;IrregularPoly -->
<g id="edge14" class="edge"><title>ExecuteDefaultParameter&#45;&gt;IrregularPoly</title>
<path fill="none" stroke="black" d="M696.277,-262.883C808.955,-258.828 959.306,-251.678 1019,-241 1051.84,-235.125 1087.59,-224.342 1115.96,-214.692"/>
<polygon fill="black" stroke="black" points="1117.1,-217.259 1123.75,-212.005 1115.27,-211.965 1117.1,-217.259"/>
</g>
<!-- LostOpenEdge -->
<g id="node6" class="node"><title>LostOpenEdge</title>
<polygon fill="lightyellow" stroke="orange" points="407.5,-212 186.5,-212 186.5,-176 407.5,-176 407.5,-212"/>
<text text-anchor="middle" x="297" y="-196.8" font-family="Verdana" font-size="9.00">Step 5 and step 6: Open Edges Get Broken</text>
<text text-anchor="middle" x="297" y="-186.8" font-family="Verdana" font-size="9.00">Small Polygons Disappear</text>
</g>
<!-- ExecuteDefaultParameter&#45;&gt;LostOpenEdge -->
<g id="edge11" class="edge"><title>ExecuteDefaultParameter&#45;&gt;LostOpenEdge</title>
<path fill="none" stroke="black" d="M448.841,-248.917C438.02,-246.517 427.255,-243.878 417,-241 392.307,-234.071 365.596,-224.09 343.657,-215.195"/>
<polygon fill="black" stroke="black" points="344.571,-212.544 336.107,-212.101 342.447,-217.726 344.571,-212.544"/>
</g>
<!-- ProtectOpenEdge -->
<g id="node9" class="node"><title>ProtectOpenEdge</title>
<polygon fill="lightyellow" stroke="green" points="200,-140 0,-140 0,-102 200,-102 200,-140"/>
<text text-anchor="middle" x="100" y="-128.8" font-family="Verdana" font-size="9.00">Adding an Open Edge Protection Angle</text>
<text text-anchor="middle" x="100" y="-108.8" font-family="Verdana" font-size="9.00">Parameter Name: Parameter C4</text>
</g>
<!-- FindHoles&#45;&gt;ProtectOpenEdge -->
<g id="edge2" class="edge"><title>FindHoles&#45;&gt;ProtectOpenEdge</title>
<path fill="none" stroke="black" stroke-dasharray="1,5" d="M100,-175.813C100,-167.518 100,-157.385 100,-148.159"/>
<polygon fill="black" stroke="black" points="102.8,-148.02 100,-140.02 97.2001,-148.02 102.8,-148.02"/>
</g>
<!-- AdoptUVCoard -->
<g id="node7" class="node"><title>AdoptUVCoard</title>
<polygon fill="lightyellow" stroke="green" points="636.5,-140 427.5,-140 427.5,-102 636.5,-102 636.5,-140"/>
<text text-anchor="middle" x="532" y="-128.8" font-family="Verdana" font-size="9.00">Polygon Reduction Using UV Coordinates</text>
<text text-anchor="middle" x="532" y="-108.8" font-family="Verdana" font-size="9.00">Parameter Name: Parameter B</text>
</g>
<!-- IrregularUV&#45;&gt;AdoptUVCoard -->
<g id="edge4" class="edge"><title>IrregularUV&#45;&gt;AdoptUVCoard</title>
<path fill="none" stroke="red" d="M552.464,-175.813C549.245,-167.348 545.299,-156.971 541.733,-147.595"/>
<polygon fill="red" stroke="red" points="544.313,-146.502 538.853,-140.02 539.079,-148.492 544.313,-146.502"/>
</g>
<!-- ProtectHardEdge -->
<g id="node10" class="node"><title>ProtectHardEdge</title>
<polygon fill="lightyellow" stroke="green" points="409.5,-140 218.5,-140 218.5,-102 409.5,-102 409.5,-140"/>
<text text-anchor="middle" x="314" y="-128.8" font-family="Verdana" font-size="9.00">Adding a Hard Edge Protection Angle</text>
<text text-anchor="middle" x="314" y="-108.8" font-family="Verdana" font-size="9.00">Parameter Name: Parameter C5</text>
</g>
<!-- IrregularUV&#45;&gt;ProtectHardEdge -->
<g id="edge5" class="edge"><title>IrregularUV&#45;&gt;ProtectHardEdge</title>
<path fill="none" stroke="red" d="M500.316,-175.994C465.425,-165.882 420.951,-152.994 384.205,-142.345"/>
<polygon fill="red" stroke="red" points="384.951,-139.646 376.488,-140.109 383.392,-145.025 384.951,-139.646"/>
</g>
<!-- ProtectFeature -->
<g id="node8" class="node"><title>ProtectFeature</title>
<polygon fill="lightyellow" stroke="green" points="1153,-140 945,-140 945,-102 1153,-102 1153,-140"/>
<text text-anchor="middle" x="1049" y="-128.8" font-family="Verdana" font-size="9.00">Polygon Reduction Using Vertex Normals</text>
<text text-anchor="middle" x="1049" y="-108.8" font-family="Verdana" font-size="9.00">Parameter Name: Parameter C3</text>
</g>
<!-- LostFeature&#45;&gt;ProtectFeature -->
<g id="edge7" class="edge"><title>LostFeature&#45;&gt;ProtectFeature</title>
<path fill="none" stroke="red" d="M905.27,-175.994C931.623,-166.094 965.063,-153.532 993.055,-143.016"/>
<polygon fill="red" stroke="red" points="994.291,-145.543 1000.8,-140.109 992.322,-140.301 994.291,-145.543"/>
</g>
<!-- ChangePosOption -->
<g id="node11" class="node"><title>ChangePosOption</title>
<polygon fill="lightyellow" stroke="green" points="1482.5,-140 1171.5,-140 1171.5,-102 1482.5,-102 1482.5,-140"/>
<text text-anchor="middle" x="1327" y="-128.8" font-family="Verdana" font-size="9.00">Changing Position Calculation Method After Polygon Reduction</text>
<text text-anchor="middle" x="1327" y="-108.8" font-family="Verdana" font-size="9.00">Parameter Name: Parameter C2</text>
</g>
<!-- LostFeature&#45;&gt;ChangePosOption -->
<g id="edge8" class="edge"><title>LostFeature&#45;&gt;ChangePosOption</title>
<path fill="none" stroke="black" stroke-dasharray="1,5" d="M967.748,-175.944C984.889,-173.263 1002.43,-170.54 1019,-168 1077.32,-159.06 1141.89,-149.382 1196.78,-141.221"/>
<polygon fill="black" stroke="black" points="1197.31,-143.974 1204.81,-140.028 1196.49,-138.435 1197.31,-143.974"/>
</g>
<!-- Smoothing -->
<g id="node13" class="node"><title>Smoothing</title>
<polygon fill="lightyellow" stroke="blue" points="729,-139 655,-139 655,-103 729,-103 729,-139"/>
<text text-anchor="middle" x="692" y="-123.8" font-family="Verdana" font-size="9.00">Smoothing</text>
<text text-anchor="middle" x="692" y="-113.8" font-family="Verdana" font-size="9.00">&#45;&#45;smoothing</text>
</g>
<!-- LostFeature&#45;&gt;Smoothing -->
<g id="edge9" class="edge"><title>LostFeature&#45;&gt;Smoothing</title>
<path fill="none" stroke="blue" d="M819.76,-175.994C794.668,-165.389 762.349,-151.731 736.495,-140.804"/>
<polygon fill="blue" stroke="blue" points="737.499,-138.189 729.041,-137.654 735.319,-143.347 737.499,-138.189"/>
</g>
<!-- FeatureAngle -->
<g id="node14" class="node"><title>FeatureAngle</title>
<polygon fill="lightyellow" stroke="blue" points="927,-139 747,-139 747,-103 927,-103 927,-139"/>
<text text-anchor="middle" x="837" y="-123.8" font-family="Verdana" font-size="9.00">Weighting Characteristic Vertices</text>
<text text-anchor="middle" x="837" y="-113.8" font-family="Verdana" font-size="9.00">Parameter Name: Parameter C4_1</text>
</g>
<!-- LostFeature&#45;&gt;FeatureAngle -->
<g id="edge10" class="edge"><title>LostFeature&#45;&gt;FeatureAngle</title>
<path fill="none" stroke="blue" d="M854.432,-175.813C851.607,-167.092 848.124,-156.34 845.016,-146.746"/>
<polygon fill="blue" stroke="blue" points="847.646,-145.777 842.516,-139.029 842.318,-147.502 847.646,-145.777"/>
</g>
<!-- IrregularPoly&#45;&gt;ChangePosOption -->
<g id="edge15" class="edge"><title>IrregularPoly&#45;&gt;ChangePosOption</title>
<path fill="none" stroke="black" d="M1206.84,-175.994C1228.59,-166.221 1256.11,-153.854 1279.33,-143.422"/>
<polygon fill="black" stroke="black" points="1280.55,-145.942 1286.7,-140.109 1278.26,-140.834 1280.55,-145.942"/>
</g>
<!-- ChangePolyWeight -->
<g id="node12" class="node"><title>ChangePolyWeight</title>
<polygon fill="lightyellow" stroke="blue" points="1769.5,-139 1500.5,-139 1500.5,-103 1769.5,-103 1769.5,-139"/>
<text text-anchor="middle" x="1635" y="-123.8" font-family="Verdana" font-size="9.00">Changing Shape Weighting During Polygon Reduction</text>
<text text-anchor="middle" x="1635" y="-113.8" font-family="Verdana" font-size="9.00">&#45;&#45;policy=&lt;value&gt;</text>
</g>
<!-- IrregularPoly&#45;&gt;ChangePolyWeight -->
<g id="edge16" class="edge"><title>IrregularPoly&#45;&gt;ChangePolyWeight</title>
<path fill="none" stroke="blue" d="M1280.62,-175.994C1351.27,-165.229 1442.58,-151.317 1514.82,-140.311"/>
<polygon fill="blue" stroke="blue" points="1515.59,-143.025 1523.08,-139.052 1514.75,-137.489 1515.59,-143.025"/>
</g>
<!-- LostOpenEdge&#45;&gt;ProtectOpenEdge -->
<g id="edge12" class="edge"><title>LostOpenEdge&#45;&gt;ProtectOpenEdge</title>
<path fill="none" stroke="red" d="M249.814,-175.994C222.228,-166.052 187.192,-153.425 157.939,-142.882"/>
<polygon fill="red" stroke="red" points="158.721,-140.187 150.245,-140.109 156.822,-145.455 158.721,-140.187"/>
</g>
<!-- LostOpenEdge&#45;&gt;ProtectHardEdge -->
<g id="edge13" class="edge"><title>LostOpenEdge&#45;&gt;ProtectHardEdge</title>
<path fill="none" stroke="black" stroke-dasharray="1,5" d="M301.115,-175.813C303.122,-167.433 305.577,-157.178 307.804,-147.877"/>
<polygon fill="black" stroke="black" points="310.546,-148.452 309.685,-140.02 305.1,-147.148 310.546,-148.452"/>
</g>
<!-- OptUVWeight -->
<g id="node15" class="node"><title>OptUVWeight</title>
<polygon fill="lightyellow" stroke="red" points="563,-52 435,-52 435,-16 563,-16 563,-52"/>
<text text-anchor="middle" x="499" y="-31.8" font-family="Verdana" font-size="9.00">Adjusting UV Weighting</text>
</g>
<!-- AdoptUVCoard&#45;&gt;OptUVWeight -->
<g id="edge17" class="edge"><title>AdoptUVCoard&#45;&gt;OptUVWeight</title>
<path fill="none" stroke="red" d="M525.002,-101.974C520.225,-89.671 513.838,-73.2179 508.589,-59.6983"/>
<polygon fill="red" stroke="red" points="511.156,-58.575 505.651,-52.1307 505.936,-60.6018 511.156,-58.575"/>
</g>
<!-- OptNmlWeight -->
<g id="node16" class="node"><title>OptNmlWeight</title>
<polygon fill="lightyellow" stroke="red" points="762.5,-52 581.5,-52 581.5,-16 762.5,-16 762.5,-52"/>
<text text-anchor="middle" x="672" y="-31.8" font-family="Verdana" font-size="9.00">Adjusting Normal Vector Weighting</text>
</g>
<!-- ProtectFeature&#45;&gt;OptNmlWeight -->
<g id="edge18" class="edge"><title>ProtectFeature&#45;&gt;OptNmlWeight</title>
<path fill="none" stroke="black" d="M969.048,-101.974C906.347,-87.8368 819.338,-68.2195 755.695,-53.8703"/>
<polygon fill="black" stroke="black" points="756.081,-51.0871 747.661,-52.0589 754.849,-56.5499 756.081,-51.0871"/>
</g>
<!-- OptLockEdgeAngle -->
<g id="node17" class="node"><title>OptLockEdgeAngle</title>
<polygon fill="lightyellow" stroke="red" points="416.5,-52 275.5,-52 275.5,-16 416.5,-16 416.5,-52"/>
<text text-anchor="middle" x="346" y="-31.8" font-family="Verdana" font-size="9.00">Adjusting Protection Angle</text>
</g>
<!-- ProtectOpenEdge&#45;&gt;OptLockEdgeAngle -->
<g id="edge20" class="edge"><title>ProtectOpenEdge&#45;&gt;OptLockEdgeAngle</title>
<path fill="none" stroke="black" d="M152.17,-101.974C192.185,-88.1476 247.37,-69.0794 288.626,-54.8242"/>
<polygon fill="black" stroke="black" points="289.775,-57.3899 296.422,-52.1307 287.946,-52.097 289.775,-57.3899"/>
</g>
<!-- ProtectHardEdge&#45;&gt;OptLockEdgeAngle -->
<g id="edge19" class="edge"><title>ProtectHardEdge&#45;&gt;OptLockEdgeAngle</title>
<path fill="none" stroke="black" d="M320.786,-101.974C325.418,-89.671 331.612,-73.2179 336.702,-59.6983"/>
<polygon fill="black" stroke="black" points="339.353,-60.6043 339.551,-52.1307 334.112,-58.6312 339.353,-60.6043"/>
</g>
</g>
</svg>
