<?xml version="1.0" encoding="UTF-8" standalone="no"?>
<!DOCTYPE svg PUBLIC "-//W3C//DTD SVG 1.1//EN"
 "http://www.w3.org/Graphics/SVG/1.1/DTD/svg11.dtd">
<!-- Generated by graphviz version 2.38.0 (20140413.2041)
 -->
<!-- Pages: 1 -->
<svg width="550pt" height="634pt"
 viewBox="0.00 0.00 549.50 634.00" xmlns="http://www.w3.org/2000/svg" xmlns:xlink="http://www.w3.org/1999/xlink">
<g id="graph0" class="graph" transform="scale(1 1) rotate(0) translate(4 630)">
<polygon fill="white" stroke="none" points="-4,4 -4,-630 545.5,-630 545.5,4 -4,4"/>
<!-- fmdb -->
<g id="node1" class="node"><title>fmdb</title>
<polygon fill="lightyellow" stroke="black" points="269.5,-398 96.5,-398 96.5,-362 275.5,-362 275.5,-392 269.5,-398"/>
<polyline fill="none" stroke="black" points="269.5,-398 269.5,-392 "/>
<polyline fill="none" stroke="black" points="275.5,-392 269.5,-392 "/>
<text text-anchor="middle" x="186" y="-377.8" font-family="Verdana" font-size="9.00">FMDB File After Material Resolution</text>
</g>
<!-- packtool -->
<g id="node8" class="node"><title>packtool</title>
<polygon fill="moccasin" stroke="black" points="372,-326 0,-326 0,-288 372,-288 372,-326"/>
<text text-anchor="middle" x="186" y="-314.8" font-family="Verdana" font-size="9.00">Vertex Attribute Merge Tool (3dIntermediateFileVertexAttributeCompositor)</text>
<text text-anchor="middle" x="186" y="-294.8" font-family="Verdana" font-size="9.00">model vertex attribute merge processing</text>
</g>
<!-- fmdb&#45;&gt;packtool -->
<g id="edge4" class="edge"><title>fmdb&#45;&gt;packtool</title>
<path fill="none" stroke="black" d="M186,-361.813C186,-353.518 186,-343.385 186,-334.159"/>
<polygon fill="black" stroke="black" points="188.8,-334.02 186,-326.02 183.2,-334.02 188.8,-334.02"/>
</g>
<!-- packedfmdb -->
<g id="node2" class="node"><title>packedfmdb</title>
<polygon fill="lightyellow" stroke="black" points="241,-252 147,-252 147,-216 247,-216 247,-246 241,-252"/>
<polyline fill="none" stroke="black" points="241,-252 241,-246 "/>
<polyline fill="none" stroke="black" points="247,-246 241,-246 "/>
<text text-anchor="middle" x="197" y="-231.8" font-family="Verdana" font-size="9.00">FMDB After Merge</text>
</g>
<!-- binConv -->
<g id="node9" class="node"><title>binConv</title>
<polygon fill="moccasin" stroke="black" points="273,-180 161,-180 161,-144 273,-144 273,-180"/>
<text text-anchor="middle" x="217" y="-159.8" font-family="Verdana" font-size="9.00">3D Binary Converter</text>
</g>
<!-- packedfmdb&#45;&gt;binConv -->
<g id="edge9" class="edge"><title>packedfmdb&#45;&gt;binConv</title>
<path fill="none" stroke="black" d="M201.944,-215.697C204.342,-207.305 207.266,-197.07 209.897,-187.861"/>
<polygon fill="black" stroke="black" points="212.607,-188.566 212.113,-180.104 207.223,-187.027 212.607,-188.566"/>
</g>
<!-- glsl -->
<g id="node3" class="node"><title>glsl</title>
<polygon fill="lightyellow" stroke="black" points="494.5,-626 297.5,-626 297.5,-590 500.5,-590 500.5,-620 494.5,-626"/>
<polyline fill="none" stroke="black" points="494.5,-626 494.5,-620 "/>
<polyline fill="none" stroke="black" points="500.5,-620 494.5,-620 "/>
<text text-anchor="middle" x="399" y="-605.8" font-family="Verdana" font-size="9.00">GLSL File Component Was Declared For</text>
</g>
<!-- fsc -->
<g id="node4" class="node"><title>fsc</title>
<polygon fill="lightyellow" stroke="black" points="420,-554 372,-554 372,-518 426,-518 426,-548 420,-554"/>
<polyline fill="none" stroke="black" points="420,-554 420,-548 "/>
<polyline fill="none" stroke="black" points="426,-548 420,-548 "/>
<text text-anchor="middle" x="399" y="-533.8" font-family="Verdana" font-size="9.00">FSC File</text>
</g>
<!-- glsl&#45;&gt;fsc -->
<g id="edge1" class="edge"><title>glsl&#45;&gt;fsc</title>
<path fill="none" stroke="black" d="M399,-589.697C399,-581.389 399,-571.277 399,-562.141"/>
<polygon fill="black" stroke="black" points="401.8,-562.104 399,-554.104 396.2,-562.104 401.8,-562.104"/>
</g>
<!-- shaderConv0 -->
<g id="node10" class="node"><title>shaderConv0</title>
<polygon fill="moccasin" stroke="black" points="541.5,-482 256.5,-482 256.5,-434 541.5,-434 541.5,-482"/>
<text text-anchor="middle" x="399" y="-470.8" font-family="Verdana" font-size="9.00">Added</text>
<text text-anchor="middle" x="399" y="-460.8" font-family="Verdana" font-size="9.00">&lt;packed_attrib_var&gt; based on the 3D Shader Converter</text>
<text text-anchor="middle" x="399" y="-440.8" font-family="Verdana" font-size="9.00">component declaration.</text>
</g>
<!-- fsc&#45;&gt;shaderConv0 -->
<g id="edge2" class="edge"><title>fsc&#45;&gt;shaderConv0</title>
<path fill="none" stroke="black" d="M399,-517.754C399,-509.625 399,-499.667 399,-490.276"/>
<polygon fill="black" stroke="black" points="401.8,-490.228 399,-482.228 396.2,-490.228 401.8,-490.228"/>
</g>
<!-- fsdb -->
<g id="node5" class="node"><title>fsdb</title>
<polygon fill="lightyellow" stroke="black" points="497,-398 295,-398 295,-362 503,-362 503,-392 497,-398"/>
<polyline fill="none" stroke="black" points="497,-398 497,-392 "/>
<polyline fill="none" stroke="black" points="503,-392 497,-392 "/>
<text text-anchor="middle" x="399" y="-377.8" font-family="Verdana" font-size="9.00">FSDB File Including &lt;packed_attrib_var&gt;</text>
</g>
<!-- fsdb&#45;&gt;packtool -->
<g id="edge5" class="edge"><title>fsdb&#45;&gt;packtool</title>
<path fill="none" stroke="black" d="M347.981,-361.994C318.028,-352.009 279.951,-339.317 248.242,-328.747"/>
<polygon fill="black" stroke="black" points="248.801,-325.982 240.326,-326.109 247.03,-331.295 248.801,-325.982"/>
</g>
<!-- shaderConv1 -->
<g id="node11" class="node"><title>shaderConv1</title>
<polygon fill="moccasin" stroke="black" points="417,-180 301,-180 301,-144 417,-144 417,-180"/>
<text text-anchor="middle" x="359" y="-159.8" font-family="Verdana" font-size="9.00">3D Shader Converter</text>
</g>
<!-- fsdb&#45;&gt;shaderConv1 -->
<g id="edge6" class="edge"><title>fsdb&#45;&gt;shaderConv1</title>
<path fill="none" stroke="black" d="M395.794,-361.689C388.741,-323.599 371.852,-232.398 363.64,-188.056"/>
<polygon fill="black" stroke="black" points="366.375,-187.45 362.165,-180.094 360.869,-188.47 366.375,-187.45"/>
</g>
<!-- bfsha -->
<g id="node6" class="node"><title>bfsha</title>
<polygon fill="lightyellow" stroke="black" points="369.5,-108 310.5,-108 310.5,-72 375.5,-72 375.5,-102 369.5,-108"/>
<polyline fill="none" stroke="black" points="369.5,-108 369.5,-102 "/>
<polyline fill="none" stroke="black" points="375.5,-102 369.5,-102 "/>
<text text-anchor="middle" x="343" y="-87.8" font-family="Verdana" font-size="9.00">BFSHA File</text>
</g>
<!-- game -->
<g id="node12" class="node"><title>game</title>
<polygon fill="moccasin" stroke="black" points="345,-36 247,-36 247,-0 345,-0 345,-36"/>
<text text-anchor="middle" x="296" y="-15.8" font-family="Verdana" font-size="9.00">Game Application</text>
</g>
<!-- bfsha&#45;&gt;game -->
<g id="edge11" class="edge"><title>bfsha&#45;&gt;game</title>
<path fill="none" stroke="black" d="M331.382,-71.6966C325.52,-62.9655 318.319,-52.2405 311.947,-42.7503"/>
<polygon fill="black" stroke="black" points="314.268,-41.1853 307.484,-36.1043 309.619,-44.307 314.268,-41.1853"/>
</g>
<!-- bfres -->
<g id="node7" class="node"><title>bfres</title>
<polygon fill="lightyellow" stroke="black" points="270,-108 222,-108 222,-72 276,-72 276,-102 270,-108"/>
<polyline fill="none" stroke="black" points="270,-108 270,-102 "/>
<polyline fill="none" stroke="black" points="276,-102 270,-102 "/>
<text text-anchor="middle" x="249" y="-87.8" font-family="Verdana" font-size="9.00">BFRES</text>
</g>
<!-- bfres&#45;&gt;game -->
<g id="edge12" class="edge"><title>bfres&#45;&gt;game</title>
<path fill="none" stroke="black" d="M260.618,-71.6966C266.48,-62.9655 273.681,-52.2405 280.053,-42.7503"/>
<polygon fill="black" stroke="black" points="282.381,-44.307 284.516,-36.1043 277.732,-41.1853 282.381,-44.307"/>
</g>
<!-- packtool&#45;&gt;packedfmdb -->
<g id="edge8" class="edge"><title>packtool&#45;&gt;packedfmdb</title>
<path fill="none" stroke="black" d="M188.833,-287.716C190.139,-279.285 191.71,-269.145 193.124,-260.02"/>
<polygon fill="black" stroke="black" points="195.908,-260.338 194.366,-252.003 190.374,-259.48 195.908,-260.338"/>
</g>
<!-- binConv&#45;&gt;bfres -->
<g id="edge10" class="edge"><title>binConv&#45;&gt;bfres</title>
<path fill="none" stroke="black" d="M224.91,-143.697C228.785,-135.22 233.52,-124.864 237.762,-115.583"/>
<polygon fill="black" stroke="black" points="240.401,-116.544 241.181,-108.104 235.308,-114.216 240.401,-116.544"/>
</g>
<!-- shaderConv0&#45;&gt;fsdb -->
<g id="edge3" class="edge"><title>shaderConv0&#45;&gt;fsdb</title>
<path fill="none" stroke="black" d="M399,-433.785C399,-425.051 399,-415.084 399,-406.18"/>
<polygon fill="black" stroke="black" points="401.8,-406.044 399,-398.044 396.2,-406.044 401.8,-406.044"/>
</g>
<!-- shaderConv1&#45;&gt;bfsha -->
<g id="edge7" class="edge"><title>shaderConv1&#45;&gt;bfsha</title>
<path fill="none" stroke="black" d="M355.045,-143.697C353.146,-135.389 350.835,-125.277 348.746,-116.141"/>
<polygon fill="black" stroke="black" points="351.422,-115.279 346.91,-108.104 345.963,-116.527 351.422,-115.279"/>
</g>
</g>
</svg>
