<?xml version="1.0" encoding="UTF-8" standalone="no"?><svg xmlns="http://www.w3.org/2000/svg" xmlns:xlink="http://www.w3.org/1999/xlink" contentScriptType="application/ecmascript" contentStyleType="text/css" height="393px" preserveAspectRatio="none" style="width:1147px;height:393px;" version="1.1" viewBox="0 0 1147 393" width="1147px" zoomAndPan="magnify"><defs><filter height="300%" id="f12387g3mat90w" width="300%" x="-1" y="-1"><feGaussianBlur result="blurOut" stdDeviation="2.0"/><feColorMatrix in="blurOut" result="blurOut2" type="matrix" values="0 0 0 0 0 0 0 0 0 0 0 0 0 0 0 0 0 0 .4 0"/><feOffset dx="4.0" dy="4.0" in="blurOut2" result="blurOut3"/><feBlend in="SourceGraphic" in2="blurOut3" mode="normal"/></filter></defs><g><!--MD5=[12a72647c4555f4a009734edf7187ae6]
class ResFile--><rect codeLine="1" fill="#FEFECE" filter="url(#f12387g3mat90w)" height="48" id="ResFile" style="stroke: #A80036; stroke-width: 1.5;" width="75" x="619.5" y="7"/><ellipse cx="634.5" cy="23" fill="#ADD1B2" rx="11" ry="11" style="stroke: #A80036; stroke-width: 1.0;"/><path d="M638.1875,24.2031 Q637.9375,27.6875 636.7969,28.8438 Q635.7656,29.8594 634.3594,29.8594 Q632.9531,29.8594 631.9219,28.8438 Q630.1719,27.0781 630.1719,23.4063 Q630.1719,19.1563 632.0469,17.25 Q633.0938,16.2344 634.4219,16.2344 Q635.8281,16.2344 636.6719,17.0469 Q638.1563,18.5625 638.0781,21.4375 L635.9531,21.4375 Q635.875,19.1094 635.2344,18.4688 Q634.9531,18.1719 634.4219,18.1719 Q633.9688,18.1719 633.6094,18.5469 Q632.375,19.7656 632.375,23.2813 Q632.375,26.3281 633.4219,27.3438 Q633.8438,27.7813 634.3594,27.7813 Q634.8125,27.7813 635.25,27.3438 Q635.8125,26.7969 635.8906,24.2031 L638.1875,24.2031 Z "/><text fill="#000000" font-family="sans-serif" font-size="12" lengthAdjust="spacingAndGlyphs" textLength="43" x="648.5" y="27.9102">ResFile</text><line style="stroke: #A80036; stroke-width: 1.5;" x1="620.5" x2="693.5" y1="39" y2="39"/><line style="stroke: #A80036; stroke-width: 1.5;" x1="620.5" x2="693.5" y1="47" y2="47"/><!--MD5=[f7eda66695711980aed43a0d5ccb2a45]
class ResSkeletalAnim--><rect codeLine="3" fill="#FEFECE" filter="url(#f12387g3mat90w)" height="48" id="ResSkeletalAnim" style="stroke: #A80036; stroke-width: 1.5;" width="127" x="402.5" y="115"/><ellipse cx="417.5" cy="131" fill="#ADD1B2" rx="11" ry="11" style="stroke: #A80036; stroke-width: 1.0;"/><path d="M421.1875,132.2031 Q420.9375,135.6875 419.7969,136.8438 Q418.7656,137.8594 417.3594,137.8594 Q415.9531,137.8594 414.9219,136.8438 Q413.1719,135.0781 413.1719,131.4063 Q413.1719,127.1563 415.0469,125.25 Q416.0938,124.2344 417.4219,124.2344 Q418.8281,124.2344 419.6719,125.0469 Q421.1563,126.5625 421.0781,129.4375 L418.9531,129.4375 Q418.875,127.1094 418.2344,126.4688 Q417.9531,126.1719 417.4219,126.1719 Q416.9688,126.1719 416.6094,126.5469 Q415.375,127.7656 415.375,131.2813 Q415.375,134.3281 416.4219,135.3438 Q416.8438,135.7813 417.3594,135.7813 Q417.8125,135.7813 418.25,135.3438 Q418.8125,134.7969 418.8906,132.2031 L421.1875,132.2031 Z "/><text fill="#000000" font-family="sans-serif" font-size="12" lengthAdjust="spacingAndGlyphs" textLength="95" x="431.5" y="135.9102">ResSkeletalAnim</text><line style="stroke: #A80036; stroke-width: 1.5;" x1="403.5" x2="528.5" y1="147" y2="147"/><line style="stroke: #A80036; stroke-width: 1.5;" x1="403.5" x2="528.5" y1="155" y2="155"/><!--MD5=[3f5877226f9c7278568c632706136b6e]
class ResBoneAnim--><rect codeLine="5" fill="#FEFECE" filter="url(#f12387g3mat90w)" height="48" id="ResBoneAnim" style="stroke: #A80036; stroke-width: 1.5;" width="112" x="313" y="223"/><ellipse cx="328" cy="239" fill="#ADD1B2" rx="11" ry="11" style="stroke: #A80036; stroke-width: 1.0;"/><path d="M331.6875,240.2031 Q331.4375,243.6875 330.2969,244.8438 Q329.2656,245.8594 327.8594,245.8594 Q326.4531,245.8594 325.4219,244.8438 Q323.6719,243.0781 323.6719,239.4063 Q323.6719,235.1563 325.5469,233.25 Q326.5938,232.2344 327.9219,232.2344 Q329.3281,232.2344 330.1719,233.0469 Q331.6563,234.5625 331.5781,237.4375 L329.4531,237.4375 Q329.375,235.1094 328.7344,234.4688 Q328.4531,234.1719 327.9219,234.1719 Q327.4688,234.1719 327.1094,234.5469 Q325.875,235.7656 325.875,239.2813 Q325.875,242.3281 326.9219,243.3438 Q327.3438,243.7813 327.8594,243.7813 Q328.3125,243.7813 328.75,243.3438 Q329.3125,242.7969 329.3906,240.2031 L331.6875,240.2031 Z "/><text fill="#000000" font-family="sans-serif" font-size="12" lengthAdjust="spacingAndGlyphs" textLength="80" x="342" y="243.9102">ResBoneAnim</text><line style="stroke: #A80036; stroke-width: 1.5;" x1="314" x2="424" y1="255" y2="255"/><line style="stroke: #A80036; stroke-width: 1.5;" x1="314" x2="424" y1="263" y2="263"/><!--MD5=[1cfa1e5406a956edfbe0d55eab4dc39a]
class ResAnimCurve--><rect codeLine="7" fill="#FEFECE" filter="url(#f12387g3mat90w)" height="48" id="ResAnimCurve" style="stroke: #A80036; stroke-width: 1.5;" width="115" x="599.5" y="331"/><ellipse cx="614.5" cy="347" fill="#ADD1B2" rx="11" ry="11" style="stroke: #A80036; stroke-width: 1.0;"/><path d="M618.1875,348.2031 Q617.9375,351.6875 616.7969,352.8438 Q615.7656,353.8594 614.3594,353.8594 Q612.9531,353.8594 611.9219,352.8438 Q610.1719,351.0781 610.1719,347.4063 Q610.1719,343.1563 612.0469,341.25 Q613.0938,340.2344 614.4219,340.2344 Q615.8281,340.2344 616.6719,341.0469 Q618.1563,342.5625 618.0781,345.4375 L615.9531,345.4375 Q615.875,343.1094 615.2344,342.4688 Q614.9531,342.1719 614.4219,342.1719 Q613.9688,342.1719 613.6094,342.5469 Q612.375,343.7656 612.375,347.2813 Q612.375,350.3281 613.4219,351.3438 Q613.8438,351.7813 614.3594,351.7813 Q614.8125,351.7813 615.25,351.3438 Q615.8125,350.7969 615.8906,348.2031 L618.1875,348.2031 Z "/><text fill="#000000" font-family="sans-serif" font-size="12" lengthAdjust="spacingAndGlyphs" textLength="83" x="628.5" y="351.9102">ResAnimCurve</text><line style="stroke: #A80036; stroke-width: 1.5;" x1="600.5" x2="713.5" y1="363" y2="363"/><line style="stroke: #A80036; stroke-width: 1.5;" x1="600.5" x2="713.5" y1="371" y2="371"/><!--MD5=[e6572dc2081b3fbcd42130571f25cbdb]
class ResMaterialAnim--><rect codeLine="9" fill="#FEFECE" filter="url(#f12387g3mat90w)" height="48" id="ResMaterialAnim" style="stroke: #A80036; stroke-width: 1.5;" width="126" x="175" y="115"/><ellipse cx="190" cy="131" fill="#ADD1B2" rx="11" ry="11" style="stroke: #A80036; stroke-width: 1.0;"/><path d="M193.6875,132.2031 Q193.4375,135.6875 192.2969,136.8438 Q191.2656,137.8594 189.8594,137.8594 Q188.4531,137.8594 187.4219,136.8438 Q185.6719,135.0781 185.6719,131.4063 Q185.6719,127.1563 187.5469,125.25 Q188.5938,124.2344 189.9219,124.2344 Q191.3281,124.2344 192.1719,125.0469 Q193.6563,126.5625 193.5781,129.4375 L191.4531,129.4375 Q191.375,127.1094 190.7344,126.4688 Q190.4531,126.1719 189.9219,126.1719 Q189.4688,126.1719 189.1094,126.5469 Q187.875,127.7656 187.875,131.2813 Q187.875,134.3281 188.9219,135.3438 Q189.3438,135.7813 189.8594,135.7813 Q190.3125,135.7813 190.75,135.3438 Q191.3125,134.7969 191.3906,132.2031 L193.6875,132.2031 Z "/><text fill="#000000" font-family="sans-serif" font-size="12" lengthAdjust="spacingAndGlyphs" textLength="94" x="204" y="135.9102">ResMaterialAnim</text><line style="stroke: #A80036; stroke-width: 1.5;" x1="176" x2="300" y1="147" y2="147"/><line style="stroke: #A80036; stroke-width: 1.5;" x1="176" x2="300" y1="155" y2="155"/><!--MD5=[e14b2528374e8e296348fc1d1f35c979]
class ResPerMaterialAnim--><rect codeLine="11" fill="#FEFECE" filter="url(#f12387g3mat90w)" height="48" id="ResPerMaterialAnim" style="stroke: #A80036; stroke-width: 1.5;" width="145" x="132.5" y="223"/><ellipse cx="147.5" cy="239" fill="#ADD1B2" rx="11" ry="11" style="stroke: #A80036; stroke-width: 1.0;"/><path d="M151.1875,240.2031 Q150.9375,243.6875 149.7969,244.8438 Q148.7656,245.8594 147.3594,245.8594 Q145.9531,245.8594 144.9219,244.8438 Q143.1719,243.0781 143.1719,239.4063 Q143.1719,235.1563 145.0469,233.25 Q146.0938,232.2344 147.4219,232.2344 Q148.8281,232.2344 149.6719,233.0469 Q151.1563,234.5625 151.0781,237.4375 L148.9531,237.4375 Q148.875,235.1094 148.2344,234.4688 Q147.9531,234.1719 147.4219,234.1719 Q146.9688,234.1719 146.6094,234.5469 Q145.375,235.7656 145.375,239.2813 Q145.375,242.3281 146.4219,243.3438 Q146.8438,243.7813 147.3594,243.7813 Q147.8125,243.7813 148.25,243.3438 Q148.8125,242.7969 148.8906,240.2031 L151.1875,240.2031 Z "/><text fill="#000000" font-family="sans-serif" font-size="12" lengthAdjust="spacingAndGlyphs" textLength="113" x="161.5" y="243.9102">ResPerMaterialAnim</text><line style="stroke: #A80036; stroke-width: 1.5;" x1="133.5" x2="276.5" y1="255" y2="255"/><line style="stroke: #A80036; stroke-width: 1.5;" x1="133.5" x2="276.5" y1="263" y2="263"/><!--MD5=[cfb543238d431fcbded4f66308b6a921]
class ResBoneVisiblityAnim--><rect codeLine="13" fill="#FEFECE" filter="url(#f12387g3mat90w)" height="48" id="ResBoneVisiblityAnim" style="stroke: #A80036; stroke-width: 1.5;" width="153" x="778.5" y="115"/><ellipse cx="793.5" cy="131" fill="#ADD1B2" rx="11" ry="11" style="stroke: #A80036; stroke-width: 1.0;"/><path d="M797.1875,132.2031 Q796.9375,135.6875 795.7969,136.8438 Q794.7656,137.8594 793.3594,137.8594 Q791.9531,137.8594 790.9219,136.8438 Q789.1719,135.0781 789.1719,131.4063 Q789.1719,127.1563 791.0469,125.25 Q792.0938,124.2344 793.4219,124.2344 Q794.8281,124.2344 795.6719,125.0469 Q797.1563,126.5625 797.0781,129.4375 L794.9531,129.4375 Q794.875,127.1094 794.2344,126.4688 Q793.9531,126.1719 793.4219,126.1719 Q792.9688,126.1719 792.6094,126.5469 Q791.375,127.7656 791.375,131.2813 Q791.375,134.3281 792.4219,135.3438 Q792.8438,135.7813 793.3594,135.7813 Q793.8125,135.7813 794.25,135.3438 Q794.8125,134.7969 794.8906,132.2031 L797.1875,132.2031 Z "/><text fill="#000000" font-family="sans-serif" font-size="12" lengthAdjust="spacingAndGlyphs" textLength="121" x="807.5" y="135.9102">ResBoneVisiblityAnim</text><line style="stroke: #A80036; stroke-width: 1.5;" x1="779.5" x2="930.5" y1="147" y2="147"/><line style="stroke: #A80036; stroke-width: 1.5;" x1="779.5" x2="930.5" y1="155" y2="155"/><!--MD5=[8b4a796af8679631b03951097281a458]
class ResShaderParamAnimInfo--><rect codeLine="15" fill="#FEFECE" filter="url(#f12387g3mat90w)" height="48" id="ResShaderParamAnimInfo" style="stroke: #A80036; stroke-width: 1.5;" width="180" x="7" y="331"/><ellipse cx="22" cy="347" fill="#ADD1B2" rx="11" ry="11" style="stroke: #A80036; stroke-width: 1.0;"/><path d="M25.6875,348.2031 Q25.4375,351.6875 24.2969,352.8438 Q23.2656,353.8594 21.8594,353.8594 Q20.4531,353.8594 19.4219,352.8438 Q17.6719,351.0781 17.6719,347.4063 Q17.6719,343.1563 19.5469,341.25 Q20.5938,340.2344 21.9219,340.2344 Q23.3281,340.2344 24.1719,341.0469 Q25.6563,342.5625 25.5781,345.4375 L23.4531,345.4375 Q23.375,343.1094 22.7344,342.4688 Q22.4531,342.1719 21.9219,342.1719 Q21.4688,342.1719 21.1094,342.5469 Q19.875,343.7656 19.875,347.2813 Q19.875,350.3281 20.9219,351.3438 Q21.3438,351.7813 21.8594,351.7813 Q22.3125,351.7813 22.75,351.3438 Q23.3125,350.7969 23.3906,348.2031 L25.6875,348.2031 Z "/><text fill="#000000" font-family="sans-serif" font-size="12" lengthAdjust="spacingAndGlyphs" textLength="148" x="36" y="351.9102">ResShaderParamAnimInfo</text><line style="stroke: #A80036; stroke-width: 1.5;" x1="8" x2="186" y1="363" y2="363"/><line style="stroke: #A80036; stroke-width: 1.5;" x1="8" x2="186" y1="371" y2="371"/><!--MD5=[2bf52ffd18aec8d2c81336a694d96ee4]
class ResTexturePatternAnimInfo--><rect codeLine="17" fill="#FEFECE" filter="url(#f12387g3mat90w)" height="48" id="ResTexturePatternAnimInfo" style="stroke: #A80036; stroke-width: 1.5;" width="182" x="222" y="331"/><ellipse cx="237" cy="347" fill="#ADD1B2" rx="11" ry="11" style="stroke: #A80036; stroke-width: 1.0;"/><path d="M240.6875,348.2031 Q240.4375,351.6875 239.2969,352.8438 Q238.2656,353.8594 236.8594,353.8594 Q235.4531,353.8594 234.4219,352.8438 Q232.6719,351.0781 232.6719,347.4063 Q232.6719,343.1563 234.5469,341.25 Q235.5938,340.2344 236.9219,340.2344 Q238.3281,340.2344 239.1719,341.0469 Q240.6563,342.5625 240.5781,345.4375 L238.4531,345.4375 Q238.375,343.1094 237.7344,342.4688 Q237.4531,342.1719 236.9219,342.1719 Q236.4688,342.1719 236.1094,342.5469 Q234.875,343.7656 234.875,347.2813 Q234.875,350.3281 235.9219,351.3438 Q236.3438,351.7813 236.8594,351.7813 Q237.3125,351.7813 237.75,351.3438 Q238.3125,350.7969 238.3906,348.2031 L240.6875,348.2031 Z "/><text fill="#000000" font-family="sans-serif" font-size="12" lengthAdjust="spacingAndGlyphs" textLength="150" x="251" y="351.9102">ResTexturePatternAnimInfo</text><line style="stroke: #A80036; stroke-width: 1.5;" x1="223" x2="403" y1="363" y2="363"/><line style="stroke: #A80036; stroke-width: 1.5;" x1="223" x2="403" y1="371" y2="371"/><!--MD5=[72d78dd5465052d2e5d162d24944a141]
class ResShapeAnim--><rect codeLine="19" fill="#FEFECE" filter="url(#f12387g3mat90w)" height="48" id="ResShapeAnim" style="stroke: #A80036; stroke-width: 1.5;" width="119" x="980.5" y="115"/><ellipse cx="995.5" cy="131" fill="#ADD1B2" rx="11" ry="11" style="stroke: #A80036; stroke-width: 1.0;"/><path d="M999.1875,132.2031 Q998.9375,135.6875 997.7969,136.8438 Q996.7656,137.8594 995.3594,137.8594 Q993.9531,137.8594 992.9219,136.8438 Q991.1719,135.0781 991.1719,131.4063 Q991.1719,127.1563 993.0469,125.25 Q994.0938,124.2344 995.4219,124.2344 Q996.8281,124.2344 997.6719,125.0469 Q999.1563,126.5625 999.0781,129.4375 L996.9531,129.4375 Q996.875,127.1094 996.2344,126.4688 Q995.9531,126.1719 995.4219,126.1719 Q994.9688,126.1719 994.6094,126.5469 Q993.375,127.7656 993.375,131.2813 Q993.375,134.3281 994.4219,135.3438 Q994.8438,135.7813 995.3594,135.7813 Q995.8125,135.7813 996.25,135.3438 Q996.8125,134.7969 996.8906,132.2031 L999.1875,132.2031 Z "/><text fill="#000000" font-family="sans-serif" font-size="12" lengthAdjust="spacingAndGlyphs" textLength="87" x="1009.5" y="135.9102">ResShapeAnim</text><line style="stroke: #A80036; stroke-width: 1.5;" x1="981.5" x2="1098.5" y1="147" y2="147"/><line style="stroke: #A80036; stroke-width: 1.5;" x1="981.5" x2="1098.5" y1="155" y2="155"/><!--MD5=[ac7145170c68dd529898f5553b047cd2]
class ResSceneAnim--><rect codeLine="21" fill="#FEFECE" filter="url(#f12387g3mat90w)" height="48" id="ResSceneAnim" style="stroke: #A80036; stroke-width: 1.5;" width="118" x="598" y="115"/><ellipse cx="613" cy="131" fill="#ADD1B2" rx="11" ry="11" style="stroke: #A80036; stroke-width: 1.0;"/><path d="M616.6875,132.2031 Q616.4375,135.6875 615.2969,136.8438 Q614.2656,137.8594 612.8594,137.8594 Q611.4531,137.8594 610.4219,136.8438 Q608.6719,135.0781 608.6719,131.4063 Q608.6719,127.1563 610.5469,125.25 Q611.5938,124.2344 612.9219,124.2344 Q614.3281,124.2344 615.1719,125.0469 Q616.6563,126.5625 616.5781,129.4375 L614.4531,129.4375 Q614.375,127.1094 613.7344,126.4688 Q613.4531,126.1719 612.9219,126.1719 Q612.4688,126.1719 612.1094,126.5469 Q610.875,127.7656 610.875,131.2813 Q610.875,134.3281 611.9219,135.3438 Q612.3438,135.7813 612.8594,135.7813 Q613.3125,135.7813 613.75,135.3438 Q614.3125,134.7969 614.3906,132.2031 L616.6875,132.2031 Z "/><text fill="#000000" font-family="sans-serif" font-size="12" lengthAdjust="spacingAndGlyphs" textLength="86" x="627" y="135.9102">ResSceneAnim</text><line style="stroke: #A80036; stroke-width: 1.5;" x1="599" x2="715" y1="147" y2="147"/><line style="stroke: #A80036; stroke-width: 1.5;" x1="599" x2="715" y1="155" y2="155"/><!--MD5=[c5961a02569dbc8745be262b2d77c566]
class ResVertexShapeAnim--><rect codeLine="23" fill="#FEFECE" filter="url(#f12387g3mat90w)" height="48" id="ResVertexShapeAnim" style="stroke: #A80036; stroke-width: 1.5;" width="152" x="978" y="223"/><ellipse cx="993" cy="239" fill="#ADD1B2" rx="11" ry="11" style="stroke: #A80036; stroke-width: 1.0;"/><path d="M996.6875,240.2031 Q996.4375,243.6875 995.2969,244.8438 Q994.2656,245.8594 992.8594,245.8594 Q991.4531,245.8594 990.4219,244.8438 Q988.6719,243.0781 988.6719,239.4063 Q988.6719,235.1563 990.5469,233.25 Q991.5938,232.2344 992.9219,232.2344 Q994.3281,232.2344 995.1719,233.0469 Q996.6563,234.5625 996.5781,237.4375 L994.4531,237.4375 Q994.375,235.1094 993.7344,234.4688 Q993.4531,234.1719 992.9219,234.1719 Q992.4688,234.1719 992.1094,234.5469 Q990.875,235.7656 990.875,239.2813 Q990.875,242.3281 991.9219,243.3438 Q992.3438,243.7813 992.8594,243.7813 Q993.3125,243.7813 993.75,243.3438 Q994.3125,242.7969 994.3906,240.2031 L996.6875,240.2031 Z "/><text fill="#000000" font-family="sans-serif" font-size="12" lengthAdjust="spacingAndGlyphs" textLength="120" x="1007" y="243.9102">ResVertexShapeAnim</text><line style="stroke: #A80036; stroke-width: 1.5;" x1="979" x2="1129" y1="255" y2="255"/><line style="stroke: #A80036; stroke-width: 1.5;" x1="979" x2="1129" y1="263" y2="263"/><!--MD5=[4dc24c3a7c7b3f989436944232dab710]
class ResKeyShapeAnimInfo--><rect codeLine="25" fill="#FEFECE" filter="url(#f12387g3mat90w)" height="48" id="ResKeyShapeAnimInfo" style="stroke: #A80036; stroke-width: 1.5;" width="159" x="974.5" y="331"/><ellipse cx="989.5" cy="347" fill="#ADD1B2" rx="11" ry="11" style="stroke: #A80036; stroke-width: 1.0;"/><path d="M993.1875,348.2031 Q992.9375,351.6875 991.7969,352.8438 Q990.7656,353.8594 989.3594,353.8594 Q987.9531,353.8594 986.9219,352.8438 Q985.1719,351.0781 985.1719,347.4063 Q985.1719,343.1563 987.0469,341.25 Q988.0938,340.2344 989.4219,340.2344 Q990.8281,340.2344 991.6719,341.0469 Q993.1563,342.5625 993.0781,345.4375 L990.9531,345.4375 Q990.875,343.1094 990.2344,342.4688 Q989.9531,342.1719 989.4219,342.1719 Q988.9688,342.1719 988.6094,342.5469 Q987.375,343.7656 987.375,347.2813 Q987.375,350.3281 988.4219,351.3438 Q988.8438,351.7813 989.3594,351.7813 Q989.8125,351.7813 990.25,351.3438 Q990.8125,350.7969 990.8906,348.2031 L993.1875,348.2031 Z "/><text fill="#000000" font-family="sans-serif" font-size="12" lengthAdjust="spacingAndGlyphs" textLength="127" x="1003.5" y="351.9102">ResKeyShapeAnimInfo</text><line style="stroke: #A80036; stroke-width: 1.5;" x1="975.5" x2="1132.5" y1="363" y2="363"/><line style="stroke: #A80036; stroke-width: 1.5;" x1="975.5" x2="1132.5" y1="371" y2="371"/><!--MD5=[06854cf90fed2f0529670aaf7261ab14]
class ResCameraAnim--><rect codeLine="27" fill="#FEFECE" filter="url(#f12387g3mat90w)" height="48" id="ResCameraAnim" style="stroke: #A80036; stroke-width: 1.5;" width="128" x="744" y="223"/><ellipse cx="759" cy="239" fill="#ADD1B2" rx="11" ry="11" style="stroke: #A80036; stroke-width: 1.0;"/><path d="M762.6875,240.2031 Q762.4375,243.6875 761.2969,244.8438 Q760.2656,245.8594 758.8594,245.8594 Q757.4531,245.8594 756.4219,244.8438 Q754.6719,243.0781 754.6719,239.4063 Q754.6719,235.1563 756.5469,233.25 Q757.5938,232.2344 758.9219,232.2344 Q760.3281,232.2344 761.1719,233.0469 Q762.6563,234.5625 762.5781,237.4375 L760.4531,237.4375 Q760.375,235.1094 759.7344,234.4688 Q759.4531,234.1719 758.9219,234.1719 Q758.4688,234.1719 758.1094,234.5469 Q756.875,235.7656 756.875,239.2813 Q756.875,242.3281 757.9219,243.3438 Q758.3438,243.7813 758.8594,243.7813 Q759.3125,243.7813 759.75,243.3438 Q760.3125,242.7969 760.3906,240.2031 L762.6875,240.2031 Z "/><text fill="#000000" font-family="sans-serif" font-size="12" lengthAdjust="spacingAndGlyphs" textLength="96" x="773" y="243.9102">ResCameraAnim</text><line style="stroke: #A80036; stroke-width: 1.5;" x1="745" x2="871" y1="255" y2="255"/><line style="stroke: #A80036; stroke-width: 1.5;" x1="745" x2="871" y1="263" y2="263"/><!--MD5=[94236afe0825c162a2a98bed7ae49517]
class ResLightAnim--><rect codeLine="29" fill="#FEFECE" filter="url(#f12387g3mat90w)" height="48" id="ResLightAnim" style="stroke: #A80036; stroke-width: 1.5;" width="110" x="460" y="223"/><ellipse cx="475" cy="239" fill="#ADD1B2" rx="11" ry="11" style="stroke: #A80036; stroke-width: 1.0;"/><path d="M478.6875,240.2031 Q478.4375,243.6875 477.2969,244.8438 Q476.2656,245.8594 474.8594,245.8594 Q473.4531,245.8594 472.4219,244.8438 Q470.6719,243.0781 470.6719,239.4063 Q470.6719,235.1563 472.5469,233.25 Q473.5938,232.2344 474.9219,232.2344 Q476.3281,232.2344 477.1719,233.0469 Q478.6563,234.5625 478.5781,237.4375 L476.4531,237.4375 Q476.375,235.1094 475.7344,234.4688 Q475.4531,234.1719 474.9219,234.1719 Q474.4688,234.1719 474.1094,234.5469 Q472.875,235.7656 472.875,239.2813 Q472.875,242.3281 473.9219,243.3438 Q474.3438,243.7813 474.8594,243.7813 Q475.3125,243.7813 475.75,243.3438 Q476.3125,242.7969 476.3906,240.2031 L478.6875,240.2031 Z "/><text fill="#000000" font-family="sans-serif" font-size="12" lengthAdjust="spacingAndGlyphs" textLength="78" x="489" y="243.9102">ResLightAnim</text><line style="stroke: #A80036; stroke-width: 1.5;" x1="461" x2="569" y1="255" y2="255"/><line style="stroke: #A80036; stroke-width: 1.5;" x1="461" x2="569" y1="263" y2="263"/><!--MD5=[49108ff1ca382244fc208c9431396e8d]
class ResFogAnim--><rect codeLine="31" fill="#FEFECE" filter="url(#f12387g3mat90w)" height="48" id="ResFogAnim" style="stroke: #A80036; stroke-width: 1.5;" width="104" x="605" y="223"/><ellipse cx="620" cy="239" fill="#ADD1B2" rx="11" ry="11" style="stroke: #A80036; stroke-width: 1.0;"/><path d="M623.6875,240.2031 Q623.4375,243.6875 622.2969,244.8438 Q621.2656,245.8594 619.8594,245.8594 Q618.4531,245.8594 617.4219,244.8438 Q615.6719,243.0781 615.6719,239.4063 Q615.6719,235.1563 617.5469,233.25 Q618.5938,232.2344 619.9219,232.2344 Q621.3281,232.2344 622.1719,233.0469 Q623.6563,234.5625 623.5781,237.4375 L621.4531,237.4375 Q621.375,235.1094 620.7344,234.4688 Q620.4531,234.1719 619.9219,234.1719 Q619.4688,234.1719 619.1094,234.5469 Q617.875,235.7656 617.875,239.2813 Q617.875,242.3281 618.9219,243.3438 Q619.3438,243.7813 619.8594,243.7813 Q620.3125,243.7813 620.75,243.3438 Q621.3125,242.7969 621.3906,240.2031 L623.6875,240.2031 Z "/><text fill="#000000" font-family="sans-serif" font-size="12" lengthAdjust="spacingAndGlyphs" textLength="72" x="634" y="243.9102">ResFogAnim</text><line style="stroke: #A80036; stroke-width: 1.5;" x1="606" x2="708" y1="255" y2="255"/><line style="stroke: #A80036; stroke-width: 1.5;" x1="606" x2="708" y1="263" y2="263"/><!--MD5=[abfdab66fae4bc15865dfe15c0d39466]
link ResFile to ResSkeletalAnim--><path codeLine="34" d="M619.265,52.942 C588.593,69.964 545.187,94.053 512.394,112.252 " fill="none" id="ResFile-to-ResSkeletalAnim" style="stroke: #A80036; stroke-width: 1.0;"/><polygon fill="#A80036" points="507.636,114.893,517.4462,114.0213,512.0074,112.4659,513.5628,107.0271,507.636,114.893" style="stroke: #A80036; stroke-width: 1.0;"/><text fill="#000000" font-family="sans-serif" font-size="13" lengthAdjust="spacingAndGlyphs" textLength="7" x="604.4046" y="53.1283">1</text><text fill="#000000" font-family="sans-serif" font-size="13" lengthAdjust="spacingAndGlyphs" textLength="20" x="495.7427" y="104.2057">0..*</text><!--MD5=[6679d381a3e7200687914ddb95570c5c]
link ResFile to ResMaterialAnim--><path codeLine="35" d="M619.448,41.5 C548.872,59.355 395.525,98.149 306.245,120.735 " fill="none" id="ResFile-to-ResMaterialAnim" style="stroke: #A80036; stroke-width: 1.0;"/><polygon fill="#A80036" points="301.251,121.998,310.9574,123.6668,306.0981,120.7709,308.994,115.9115,301.251,121.998" style="stroke: #A80036; stroke-width: 1.0;"/><text fill="#000000" font-family="sans-serif" font-size="13" lengthAdjust="spacingAndGlyphs" textLength="7" x="604.6225" y="39.5052">1</text><text fill="#000000" font-family="sans-serif" font-size="13" lengthAdjust="spacingAndGlyphs" textLength="20" x="308.805" y="116.9329">0..*</text><!--MD5=[a8170f0474d6d5a888993be6a5bb88cb]
link ResFile to ResBoneVisiblityAnim--><path codeLine="36" d="M694.708,52.187 C726.708,69.318 772.793,93.99 807.343,112.487 " fill="none" id="ResFile-to-ResBoneVisiblityAnim" style="stroke: #A80036; stroke-width: 1.0;"/><polygon fill="#A80036" points="811.924,114.939,805.8782,107.1641,807.5162,112.5786,802.1017,114.2166,811.924,114.939" style="stroke: #A80036; stroke-width: 1.0;"/><text fill="#000000" font-family="sans-serif" font-size="13" lengthAdjust="spacingAndGlyphs" textLength="7" x="702.5633" y="71.2794">1</text><text fill="#000000" font-family="sans-serif" font-size="13" lengthAdjust="spacingAndGlyphs" textLength="20" x="778.3233" y="104.2635">0..*</text><!--MD5=[191f0ffe16bb78d5c855cd3676ce1362]
link ResFile to ResShapeAnim--><path codeLine="37" d="M694.772,42.454 C760.051,60.521 894.698,97.786 975.188,120.063 " fill="none" id="ResFile-to-ResShapeAnim" style="stroke: #A80036; stroke-width: 1.0;"/><polygon fill="#A80036" points="980.41,121.508,972.8016,115.254,975.5909,120.1754,970.6694,122.9646,980.41,121.508" style="stroke: #A80036; stroke-width: 1.0;"/><text fill="#000000" font-family="sans-serif" font-size="13" lengthAdjust="spacingAndGlyphs" textLength="7" x="702.3815" y="40.6184">1</text><text fill="#000000" font-family="sans-serif" font-size="13" lengthAdjust="spacingAndGlyphs" textLength="20" x="952.3637" y="116.0759">0..*</text><!--MD5=[92b582983d84e5e2cd63599957a15be1]
link ResFile to ResSceneAnim--><path codeLine="38" d="M657,55 C657,71.003 657,92.446 657,109.528 " fill="none" id="ResFile-to-ResSceneAnim" style="stroke: #A80036; stroke-width: 1.0;"/><polygon fill="#A80036" points="657,114.678,661,105.678,657,109.678,653,105.678,657,114.678" style="stroke: #A80036; stroke-width: 1.0;"/><text fill="#000000" font-family="sans-serif" font-size="13" lengthAdjust="spacingAndGlyphs" textLength="7" x="649.1469" y="76.338">1</text><text fill="#000000" font-family="sans-serif" font-size="13" lengthAdjust="spacingAndGlyphs" textLength="20" x="634.5625" y="104.3375">0..*</text><!--MD5=[6ff2921c82aa4d2dc899f7af94b9e9ef]
link ResSkeletalAnim to ResBoneAnim--><path codeLine="41" d="M444.952,163 C429.93,179.417 409.668,201.559 393.85,218.844 " fill="none" id="ResSkeletalAnim-to-ResBoneAnim" style="stroke: #A80036; stroke-width: 1.0;"/><polygon fill="#A80036" points="390.341,222.678,399.368,218.7392,393.7166,218.9895,393.4664,213.3382,390.341,222.678" style="stroke: #A80036; stroke-width: 1.0;"/><text fill="#000000" font-family="sans-serif" font-size="13" lengthAdjust="spacingAndGlyphs" textLength="7" x="431.9684" y="184.338">1</text><text fill="#000000" font-family="sans-serif" font-size="13" lengthAdjust="spacingAndGlyphs" textLength="20" x="373.1054" y="212.3375">1..*</text><!--MD5=[e7e329a546c9d9588ac23bfb869296f3]
link ResBoneAnim to ResAnimCurve--><path codeLine="42" d="M425.213,268.69 C473.898,286.6082 544.231,312.4947 594.636,331.0466 " fill="none" id="ResBoneAnim-to-ResAnimCurve" style="stroke: #A80036; stroke-width: 1.0;"/><polygon fill="#A80036" points="599.45,332.8185,592.3857,325.9559,594.7578,331.0914,589.6223,333.4635,599.45,332.8185" style="stroke: #A80036; stroke-width: 1.0;"/><text fill="#000000" font-family="sans-serif" font-size="13" lengthAdjust="spacingAndGlyphs" textLength="7" x="432.8637" y="267.9617">1</text><text fill="#000000" font-family="sans-serif" font-size="13" lengthAdjust="spacingAndGlyphs" textLength="20" x="571.6395" y="326.8442">0..*</text><!--MD5=[719fb6fcdf58f83c6ad796aeb94cdfe2]
link ResMaterialAnim to ResPerMaterialAnim--><path codeLine="43" d="M230.839,163 C225.858,179.003 219.182,200.446 213.864,217.528 " fill="none" id="ResMaterialAnim-to-ResPerMaterialAnim" style="stroke: #A80036; stroke-width: 1.0;"/><polygon fill="#A80036" points="212.26,222.678,218.7556,215.2748,213.747,217.9042,211.1176,212.8956,212.26,222.678" style="stroke: #A80036; stroke-width: 1.0;"/><text fill="#000000" font-family="sans-serif" font-size="13" lengthAdjust="spacingAndGlyphs" textLength="7" x="221.2404" y="184.338">1</text><text fill="#000000" font-family="sans-serif" font-size="13" lengthAdjust="spacingAndGlyphs" textLength="20" x="191.5921" y="212.3375">0..*</text><!--MD5=[9d71b62b8b72727c53b959e3d6d1156c]
link ResPerMaterialAnim to ResAnimCurve--><path codeLine="44" d="M277.66,266.733 C283.522,268.195 289.358,269.632 295,271 C399.643,296.3634 521.802,323.9546 594.098,340.0747 " fill="none" id="ResPerMaterialAnim-to-ResAnimCurve" style="stroke: #A80036; stroke-width: 1.0;"/><polygon fill="#A80036" points="599.216,341.2153,591.3011,335.3541,594.3356,340.1281,589.5616,343.1627,599.216,341.2153" style="stroke: #A80036; stroke-width: 1.0;"/><text fill="#000000" font-family="sans-serif" font-size="13" lengthAdjust="spacingAndGlyphs" textLength="7" x="285.514" y="265.4562">1</text><text fill="#000000" font-family="sans-serif" font-size="13" lengthAdjust="spacingAndGlyphs" textLength="20" x="571.3785" y="354.0619">0..*</text><!--MD5=[e5ad6ce6ecb56ea53f371c37918508b5]
link ResPerMaterialAnim to ResShaderParamAnimInfo--><path codeLine="45" d="M181.566,271 C164.839,287.4168 142.28,309.5588 124.668,326.8444 " fill="none" id="ResPerMaterialAnim-to-ResShaderParamAnimInfo" style="stroke: #A80036; stroke-width: 1.0;"/><polygon fill="#A80036" points="120.762,330.6784,129.9868,327.2283,124.3302,327.1758,124.3826,321.5192,120.762,330.6784" style="stroke: #A80036; stroke-width: 1.0;"/><text fill="#000000" font-family="sans-serif" font-size="13" lengthAdjust="spacingAndGlyphs" textLength="7" x="168.0008" y="292.338">1</text><text fill="#000000" font-family="sans-serif" font-size="13" lengthAdjust="spacingAndGlyphs" textLength="20" x="104.116" y="320.338">0..*</text><!--MD5=[3d7e4723c23494936c1968f44167e899]
link ResPerMaterialAnim to ResTexturePatternAnimInfo--><path codeLine="46" d="M228.434,271 C245.161,287.4168 267.72,309.5588 285.332,326.8444 " fill="none" id="ResPerMaterialAnim-to-ResTexturePatternAnimInfo" style="stroke: #A80036; stroke-width: 1.0;"/><polygon fill="#A80036" points="289.238,330.6784,285.6174,321.5192,285.6698,327.1758,280.0132,327.2283,289.238,330.6784" style="stroke: #A80036; stroke-width: 1.0;"/><text fill="#000000" font-family="sans-serif" font-size="13" lengthAdjust="spacingAndGlyphs" textLength="7" x="226.2929" y="292.338">1</text><text fill="#000000" font-family="sans-serif" font-size="13" lengthAdjust="spacingAndGlyphs" textLength="20" x="261.0085" y="320.338">0..*</text><!--MD5=[da4431016b94d72d75501c307ee81d1c]
link ResBoneVisiblityAnim to ResAnimCurve--><path codeLine="47" d="M871.72,163.362 C889.46,191.29 912.001,238.343 889,271 C850.999,324.9555 774.545,344.0231 719.785,350.6572 " fill="none" id="ResBoneVisiblityAnim-to-ResAnimCurve" style="stroke: #A80036; stroke-width: 1.0;"/><polygon fill="#A80036" points="714.555,351.2611,723.9549,354.2009,719.5219,350.6868,723.036,346.2539,714.555,351.2611" style="stroke: #A80036; stroke-width: 1.0;"/><text fill="#000000" font-family="sans-serif" font-size="13" lengthAdjust="spacingAndGlyphs" textLength="7" x="867.7771" y="184.3815">1</text><text fill="#000000" font-family="sans-serif" font-size="13" lengthAdjust="spacingAndGlyphs" textLength="20" x="722.366" y="365.2692">0..*</text><!--MD5=[20a37e746cea134b425292009e374509]
link ResShapeAnim to ResVertexShapeAnim--><path codeLine="48" d="M1043.04,163 C1045.15,179.003 1047.98,200.446 1050.24,217.528 " fill="none" id="ResShapeAnim-to-ResVertexShapeAnim" style="stroke: #A80036; stroke-width: 1.0;"/><polygon fill="#A80036" points="1050.92,222.678,1053.7052,213.2312,1050.2643,217.7212,1045.7743,214.2803,1050.92,222.678" style="stroke: #A80036; stroke-width: 1.0;"/><text fill="#000000" font-family="sans-serif" font-size="13" lengthAdjust="spacingAndGlyphs" textLength="7" x="1035.9279" y="184.338">1</text><text fill="#000000" font-family="sans-serif" font-size="13" lengthAdjust="spacingAndGlyphs" textLength="20" x="1027.7318" y="212.3375">0..*</text><!--MD5=[4aa76f6a3fa487bf2695b813d3dff990]
link ResVertexShapeAnim to ResKeyShapeAnimInfo--><path codeLine="49" d="M1054,271 C1054,287.003 1054,308.4461 1054,325.528 " fill="none" id="ResVertexShapeAnim-to-ResKeyShapeAnimInfo" style="stroke: #A80036; stroke-width: 1.0;"/><polygon fill="#A80036" points="1054,330.6784,1058,321.6784,1054,325.6784,1050,321.6784,1054,330.6784" style="stroke: #A80036; stroke-width: 1.0;"/><text fill="#000000" font-family="sans-serif" font-size="13" lengthAdjust="spacingAndGlyphs" textLength="7" x="1046.1469" y="292.338">1</text><text fill="#000000" font-family="sans-serif" font-size="13" lengthAdjust="spacingAndGlyphs" textLength="20" x="1031.5625" y="320.338">0..*</text><!--MD5=[2b31c6bc5387ef2c28de1f3eda4789c0]
link ResVertexShapeAnim to ResAnimCurve--><path codeLine="50" d="M977.924,268.312 C902.948,288.3312 789.742,318.5576 719.753,337.2448 " fill="none" id="ResVertexShapeAnim-to-ResAnimCurve" style="stroke: #A80036; stroke-width: 1.0;"/><polygon fill="#A80036" points="714.789,338.5701,724.5163,340.1127,719.6197,337.2801,722.4523,332.3836,714.789,338.5701" style="stroke: #A80036; stroke-width: 1.0;"/><text fill="#000000" font-family="sans-serif" font-size="13" lengthAdjust="spacingAndGlyphs" textLength="7" x="963.0907" y="267.1348">1</text><text fill="#000000" font-family="sans-serif" font-size="13" lengthAdjust="spacingAndGlyphs" textLength="20" x="722.6271" y="333.2608">0..*</text><!--MD5=[ef706a074fb621cadc88d075cd9cb0a6]
link ResSceneAnim to ResCameraAnim--><path codeLine="51" d="M689.765,163 C713.625,179.75 745.977,202.461 770.808,219.892 " fill="none" id="ResSceneAnim-to-ResCameraAnim" style="stroke: #A80036; stroke-width: 1.0;"/><polygon fill="#A80036" points="775.039,222.862,769.972,214.4165,770.947,219.9887,765.3748,220.9637,775.039,222.862" style="stroke: #A80036; stroke-width: 1.0;"/><text fill="#000000" font-family="sans-serif" font-size="13" lengthAdjust="spacingAndGlyphs" textLength="7" x="689.8983" y="184.338">1</text><text fill="#000000" font-family="sans-serif" font-size="13" lengthAdjust="spacingAndGlyphs" textLength="20" x="744.0302" y="212.1668">0..*</text><!--MD5=[a7ac185f33686b61446aae6d05fb7fec]
link ResCameraAnim to ResAnimCurve--><path codeLine="52" d="M775.235,271 C751.375,287.7503 719.023,310.4607 694.192,327.8917 " fill="none" id="ResCameraAnim-to-ResAnimCurve" style="stroke: #A80036; stroke-width: 1.0;"/><polygon fill="#A80036" points="689.961,330.8617,699.6254,328.9645,694.0533,327.9889,695.029,322.4168,689.961,330.8617" style="stroke: #A80036; stroke-width: 1.0;"/><text fill="#000000" font-family="sans-serif" font-size="13" lengthAdjust="spacingAndGlyphs" textLength="7" x="759.3954" y="292.338">1</text><text fill="#000000" font-family="sans-serif" font-size="13" lengthAdjust="spacingAndGlyphs" textLength="20" x="675.8448" y="320.1664">0..*</text><!--MD5=[2f0e893aa91f248737a8301a87fdeb38]
link ResSceneAnim to ResLightAnim--><path codeLine="53" d="M626.188,163 C603.919,179.624 573.785,202.118 550.506,219.496 " fill="none" id="ResSceneAnim-to-ResLightAnim" style="stroke: #A80036; stroke-width: 1.0;"/><polygon fill="#A80036" points="546.242,222.678,555.8469,220.4994,550.2487,219.6869,551.0612,214.0887,546.242,222.678" style="stroke: #A80036; stroke-width: 1.0;"/><text fill="#000000" font-family="sans-serif" font-size="13" lengthAdjust="spacingAndGlyphs" textLength="7" x="610.8245" y="184.338">1</text><text fill="#000000" font-family="sans-serif" font-size="13" lengthAdjust="spacingAndGlyphs" textLength="20" x="531.4197" y="212.3375">0..*</text><!--MD5=[de7d30644535d47eac79a600ba5411f2]
link ResLightAnim to ResAnimCurve--><path codeLine="54" d="M545.812,271 C568.081,287.6237 598.215,310.1179 621.494,327.4957 " fill="none" id="ResLightAnim-to-ResAnimCurve" style="stroke: #A80036; stroke-width: 1.0;"/><polygon fill="#A80036" points="625.758,330.6784,620.9391,322.089,621.7514,327.6872,616.1532,328.4995,625.758,330.6784" style="stroke: #A80036; stroke-width: 1.0;"/><text fill="#000000" font-family="sans-serif" font-size="13" lengthAdjust="spacingAndGlyphs" textLength="7" x="545.4693" y="292.338">1</text><text fill="#000000" font-family="sans-serif" font-size="13" lengthAdjust="spacingAndGlyphs" textLength="20" x="595.7053" y="320.338">0..*</text><!--MD5=[f1eb92745d48638613db4f2a204bb708]
link ResSceneAnim to ResFogAnim--><path codeLine="55" d="M657,163 C657,179.003 657,200.446 657,217.528 " fill="none" id="ResSceneAnim-to-ResFogAnim" style="stroke: #A80036; stroke-width: 1.0;"/><polygon fill="#A80036" points="657,222.678,661,213.678,657,217.678,653,213.678,657,222.678" style="stroke: #A80036; stroke-width: 1.0;"/><text fill="#000000" font-family="sans-serif" font-size="13" lengthAdjust="spacingAndGlyphs" textLength="7" x="649.1469" y="184.338">1</text><text fill="#000000" font-family="sans-serif" font-size="13" lengthAdjust="spacingAndGlyphs" textLength="20" x="634.5625" y="212.3375">0..*</text><!--MD5=[fb126fa2f5a532931d2ab15c5c7bf166]
link ResFogAnim to ResAnimCurve--><path codeLine="56" d="M657,271 C657,287.003 657,308.4461 657,325.528 " fill="none" id="ResFogAnim-to-ResAnimCurve" style="stroke: #A80036; stroke-width: 1.0;"/><polygon fill="#A80036" points="657,330.6784,661,321.6784,657,325.6784,653,321.6784,657,330.6784" style="stroke: #A80036; stroke-width: 1.0;"/><text fill="#000000" font-family="sans-serif" font-size="13" lengthAdjust="spacingAndGlyphs" textLength="7" x="649.1469" y="292.338">1</text><text fill="#000000" font-family="sans-serif" font-size="13" lengthAdjust="spacingAndGlyphs" textLength="20" x="634.5625" y="320.338">0..*</text><!--MD5=[406f8bdbe873ad5e6dcf0e50aab22c06]
@startuml
class ResFile{
}
class ResSkeletalAnim{
}
class ResBoneAnim{
}
class ResAnimCurve{
}
class ResMaterialAnim{
}
class ResPerMaterialAnim{
}
class ResBoneVisiblityAnim{
}
class ResShaderParamAnimInfo{
}
class ResTexturePatternAnimInfo{
}
class ResShapeAnim{
}
class ResSceneAnim{
}
class ResVertexShapeAnim{
}
class ResKeyShapeAnimInfo{
}
class ResCameraAnim{
}
class ResLightAnim{
}
class ResFogAnim{
}

ResFile "1" - -> "0..*" ResSkeletalAnim
ResFile "1" - -> "0..*" ResMaterialAnim 
ResFile "1" - -> "0..*" ResBoneVisiblityAnim 
ResFile "1" - -> "0..*" ResShapeAnim 
ResFile "1" - -> "0..*" ResSceneAnim


ResSkeletalAnim "1" - -> "1..*" ResBoneAnim
ResBoneAnim "1" - -> "0..*" ResAnimCurve
ResMaterialAnim "1" - -> "0..*" ResPerMaterialAnim
ResPerMaterialAnim "1" - -> "0..*" ResAnimCurve
ResPerMaterialAnim "1" - -> "0..*" ResShaderParamAnimInfo
ResPerMaterialAnim "1" - -> "0..*" ResTexturePatternAnimInfo
ResBoneVisiblityAnim "1" - -> "0..*" ResAnimCurve
ResShapeAnim "1" - -> "0..*" ResVertexShapeAnim
ResVertexShapeAnim "1" - -> "0..*" ResKeyShapeAnimInfo
ResVertexShapeAnim "1" - -> "0..*" ResAnimCurve
ResSceneAnim "1" - -> "0..*" ResCameraAnim
ResCameraAnim "1" - -> "0..*" ResAnimCurve
ResSceneAnim "1" - -> "0..*" ResLightAnim
ResLightAnim "1" - -> "0..*" ResAnimCurve
ResSceneAnim "1" - -> "0..*" ResFogAnim
ResFogAnim "1" - -> "0..*" ResAnimCurve

@enduml

PlantUML version 1.2020.19(Tue Oct 13 00:10:01 JST 2020)
(GPL source distribution)
Java Runtime: OpenJDK Runtime Environment
JVM: OpenJDK 64-Bit Server VM
Default Encoding: MS932
Language: ja
Country: JP
--></g></svg>