<?xml version="1.0" encoding="UTF-8" standalone="no"?><svg xmlns="http://www.w3.org/2000/svg" xmlns:xlink="http://www.w3.org/1999/xlink" contentScriptType="application/ecmascript" contentStyleType="text/css" height="518px" preserveAspectRatio="none" style="width:1193px;height:518px;" version="1.1" viewBox="0 0 1193 518" width="1193px" zoomAndPan="magnify"><defs><filter height="300%" id="f1du7s66wnm0li" width="300%" x="-1" y="-1"><feGaussianBlur result="blurOut" stdDeviation="2.0"/><feColorMatrix in="blurOut" result="blurOut2" type="matrix" values="0 0 0 0 0 0 0 0 0 0 0 0 0 0 0 0 0 0 .4 0"/><feOffset dx="4.0" dy="4.0" in="blurOut2" result="blurOut3"/><feBlend in="SourceGraphic" in2="blurOut3" mode="normal"/></filter></defs><g><!--MD5=[dae9688c773c6e82b15685c1af198629]
cluster MultiProgramApplication--><polygon fill="#FFFFFF" filter="url(#f1du7s66wnm0li)" points="16,103.5,194,103.5,201,127.1094,1176,127.1094,1176,511.5,16,511.5,16,103.5" style="stroke: #000000; stroke-width: 1.5;"/><line style="stroke: #000000; stroke-width: 1.5;" x1="16" x2="201" y1="127.1094" y2="127.1094"/><text fill="#000000" font-family="sans-serif" font-size="14" font-weight="bold" lengthAdjust="spacingAndGlyphs" textLength="172" x="20" y="120.0332">MultiProgramApplication</text><!--MD5=[dfa15ce1093dd2af5be1db5ab394b4d9]
cluster Program_A--><polygon fill="#FFFFFF" filter="url(#f1du7s66wnm0li)" points="499,147.5,581,147.5,588,171.1094,1139,171.1094,1139,373.5,499,373.5,499,147.5" style="stroke: #000000; stroke-width: 1.5;"/><line style="stroke: #000000; stroke-width: 1.5;" x1="499" x2="588" y1="171.1094" y2="171.1094"/><text fill="#000000" font-family="sans-serif" font-size="14" font-weight="bold" lengthAdjust="spacingAndGlyphs" textLength="76" x="503" y="164.0332">Program_A</text><!--MD5=[342b7da349485a836a6cea7cda75028e]
cluster Program_B--><polygon fill="#FFFFFF" filter="url(#f1du7s66wnm0li)" points="40,267.5,123,267.5,130,291.1094,475,291.1094,475,487.5,40,487.5,40,267.5" style="stroke: #000000; stroke-width: 1.5;"/><line style="stroke: #000000; stroke-width: 1.5;" x1="40" x2="130" y1="291.1094" y2="291.1094"/><text fill="#000000" font-family="sans-serif" font-size="14" font-weight="bold" lengthAdjust="spacingAndGlyphs" textLength="77" x="44" y="284.0332">Program_B</text><!--MD5=[50864161f1c0e44c7d08fdd39fb633fa]
entity LaunchProgramA--><ellipse cx="1040" cy="213.5" fill="#FEFECE" filter="url(#f1du7s66wnm0li)" rx="8" ry="8" style="stroke: #A80036; stroke-width: 1.5;"/><text fill="#000000" font-family="sans-serif" font-size="14" lengthAdjust="spacingAndGlyphs" textLength="110" x="985" y="245.0332">LaunchProgramA</text><!--MD5=[3456d6ff4f0d1c58dc7667bb59ccd91a]
entity MountHtmlDocumentA--><ellipse cx="870" cy="213.5" fill="#FEFECE" filter="url(#f1du7s66wnm0li)" rx="8" ry="8" style="stroke: #A80036; stroke-width: 1.5;"/><text fill="#000000" font-family="sans-serif" font-size="14" lengthAdjust="spacingAndGlyphs" textLength="139" x="800.5" y="245.0332">MountHtmlDocumentA</text><!--MD5=[50da6a7add4e3e6fe442264c4508239f]
entity ShowLegalInfoA--><ellipse cx="650" cy="213.5" fill="#FEFECE" filter="url(#f1du7s66wnm0li)" rx="8" ry="8" style="stroke: #A80036; stroke-width: 1.5;"/><text fill="#000000" font-family="sans-serif" font-size="14" lengthAdjust="spacingAndGlyphs" textLength="101" x="599.5" y="245.0332">ShowLegalInfoA</text><!--MD5=[56f8b6b7f690ab92db337451aef4ee23]
entity Program_A Content--><rect fill="#FEFECE" filter="url(#f1du7s66wnm0li)" height="47.6094" style="stroke: #A80036; stroke-width: 1.5;" width="165" x="957.5" y="309.5"/><rect fill="#FEFECE" height="10" style="stroke: #A80036; stroke-width: 1.5;" width="15" x="1102.5" y="314.5"/><rect fill="#FEFECE" height="2" style="stroke: #A80036; stroke-width: 1.5;" width="4" x="1100.5" y="316.5"/><rect fill="#FEFECE" height="2" style="stroke: #A80036; stroke-width: 1.5;" width="4" x="1100.5" y="320.5"/><text fill="#000000" font-family="sans-serif" font-size="14" lengthAdjust="spacingAndGlyphs" textLength="125" x="972.5" y="344.0332">Program_A Content</text><!--MD5=[caeb918660e34d95d079ed87d248b095]
entity HtmlDocument_A Content--><rect fill="#FEFECE" filter="url(#f1du7s66wnm0li)" height="47.6094" style="stroke: #A80036; stroke-width: 1.5;" width="202" x="720" y="309.5"/><rect fill="#FEFECE" height="10" style="stroke: #A80036; stroke-width: 1.5;" width="15" x="902" y="314.5"/><rect fill="#FEFECE" height="2" style="stroke: #A80036; stroke-width: 1.5;" width="4" x="900" y="316.5"/><rect fill="#FEFECE" height="2" style="stroke: #A80036; stroke-width: 1.5;" width="4" x="900" y="320.5"/><text fill="#000000" font-family="sans-serif" font-size="14" lengthAdjust="spacingAndGlyphs" textLength="162" x="735" y="344.0332">HtmlDocument_A Content</text><!--MD5=[223197a8891a2e6218f1e79a20acfdba]
entity LegalInfo_A Content--><rect fill="#FEFECE" filter="url(#f1du7s66wnm0li)" height="47.6094" style="stroke: #A80036; stroke-width: 1.5;" width="169" x="515.5" y="309.5"/><rect fill="#FEFECE" height="10" style="stroke: #A80036; stroke-width: 1.5;" width="15" x="664.5" y="314.5"/><rect fill="#FEFECE" height="2" style="stroke: #A80036; stroke-width: 1.5;" width="4" x="662.5" y="316.5"/><rect fill="#FEFECE" height="2" style="stroke: #A80036; stroke-width: 1.5;" width="4" x="662.5" y="320.5"/><text fill="#000000" font-family="sans-serif" font-size="14" lengthAdjust="spacingAndGlyphs" textLength="129" x="530.5" y="344.0332">LegalInfo_A Content</text><!--MD5=[076282c5bdac5f0d4e16b29f3e5456e9]
entity LaunchProgramB--><ellipse cx="413" cy="333.5" fill="#FEFECE" filter="url(#f1du7s66wnm0li)" rx="8" ry="8" style="stroke: #A80036; stroke-width: 1.5;"/><text fill="#000000" font-family="sans-serif" font-size="14" lengthAdjust="spacingAndGlyphs" textLength="110" x="358" y="365.0332">LaunchProgramB</text><!--MD5=[ba029f5fa4dfbf80e257a7b103953579]
entity MountHtmlDocumentB--><ellipse cx="224" cy="333.5" fill="#FEFECE" filter="url(#f1du7s66wnm0li)" rx="8" ry="8" style="stroke: #A80036; stroke-width: 1.5;"/><text fill="#000000" font-family="sans-serif" font-size="14" lengthAdjust="spacingAndGlyphs" textLength="139" x="154.5" y="365.0332">MountHtmlDocumentB</text><!--MD5=[e786eebcd326317cd7bf92c210c3255e]
entity Program_B Content--><rect fill="#FEFECE" filter="url(#f1du7s66wnm0li)" height="47.6094" style="stroke: #A80036; stroke-width: 1.5;" width="165" x="293.5" y="423.5"/><rect fill="#FEFECE" height="10" style="stroke: #A80036; stroke-width: 1.5;" width="15" x="438.5" y="428.5"/><rect fill="#FEFECE" height="2" style="stroke: #A80036; stroke-width: 1.5;" width="4" x="436.5" y="430.5"/><rect fill="#FEFECE" height="2" style="stroke: #A80036; stroke-width: 1.5;" width="4" x="436.5" y="434.5"/><text fill="#000000" font-family="sans-serif" font-size="14" lengthAdjust="spacingAndGlyphs" textLength="125" x="308.5" y="458.0332">Program_B Content</text><!--MD5=[63a68145897bbde819cc0bcef2a32895]
entity HtmlDocument_B Content--><rect fill="#FEFECE" filter="url(#f1du7s66wnm0li)" height="47.6094" style="stroke: #A80036; stroke-width: 1.5;" width="202" x="56" y="423.5"/><rect fill="#FEFECE" height="10" style="stroke: #A80036; stroke-width: 1.5;" width="15" x="238" y="428.5"/><rect fill="#FEFECE" height="2" style="stroke: #A80036; stroke-width: 1.5;" width="4" x="236" y="430.5"/><rect fill="#FEFECE" height="2" style="stroke: #A80036; stroke-width: 1.5;" width="4" x="236" y="434.5"/><text fill="#000000" font-family="sans-serif" font-size="14" lengthAdjust="spacingAndGlyphs" textLength="162" x="71" y="458.0332">HtmlDocument_B Content</text><!--MD5=[fee662a292a0353a69bd162820bae93b]
entity User--><ellipse cx="845" cy="14" fill="#FEFECE" filter="url(#f1du7s66wnm0li)" rx="8" ry="8" style="stroke: #A80036; stroke-width: 1.5;"/><path d="M845,22 L845,49 M832,30 L858,30 M845,49 L832,64 M845,49 L858,64 " fill="none" filter="url(#f1du7s66wnm0li)" style="stroke: #A80036; stroke-width: 1.5;"/><text fill="#000000" font-family="sans-serif" font-size="14" lengthAdjust="spacingAndGlyphs" textLength="29" x="830.5" y="84.0332">User</text><!--MD5=[303932644f9af302a244fc1e905c426a]
reverse link MountHtmlDocumentA to Program_A Content--><path d="M883.649,222.939 C897.871,231.811 920.729,246.289 940,259.5 C963.579,275.665 989.65,294.737 1009.26,309.332 " fill="none" id="MountHtmlDocumentA-backto-Program_A Content" style="stroke: #A80036; stroke-width: 1.0;"/><polygon fill="#A80036" points="879.174,220.155,884.7028,228.3056,883.4194,222.7963,888.9288,221.5129,879.174,220.155" style="stroke: #A80036; stroke-width: 1.0;"/><!--MD5=[ceda9342392abccbb3c1a8bba0369fbd]
link Program_A Content to HtmlDocument_A Content--><!--MD5=[8dc2cea2c0bfffb0f488dc46424a0660]
link HtmlDocument_A Content to LegalInfo_A Content--><!--MD5=[333747638868d1770fbaa53287587467]
link LaunchProgramA to Program_A Content--><path d="M1040,222.611 C1040,240.21 1040,282.463 1040,309.15 " fill="none" id="LaunchProgramA-Program_A Content" style="stroke: #A80036; stroke-width: 1.0;"/><!--MD5=[1a861fa5d86143c487d2e9a3995af960]
link MountHtmlDocumentA to HtmlDocument_A Content--><path d="M866.632,222.611 C859.324,240.21 841.778,282.463 830.696,309.15 " fill="none" id="MountHtmlDocumentA-HtmlDocument_A Content" style="stroke: #A80036; stroke-width: 1.0;"/><!--MD5=[09c9ab8d6093b621e9903a727d7161ae]
link ShowLegalInfoA to LegalInfo_A Content--><path d="M646.563,222.611 C639.106,240.21 621.202,282.463 609.894,309.15 " fill="none" id="ShowLegalInfoA-LegalInfo_A Content" style="stroke: #A80036; stroke-width: 1.0;"/><!--MD5=[05efe962adc550dd5c93f9ed6d5427be]
reverse link MountHtmlDocumentB to Program_B Content--><path d="M237.161,344.198 C260.888,361.68 311.44,398.929 344.552,423.328 " fill="none" id="MountHtmlDocumentB-backto-Program_B Content" style="stroke: #A80036; stroke-width: 1.0;"/><polygon fill="#A80036" points="233.053,341.171,237.9246,349.7307,237.0779,344.1375,242.671,343.2908,233.053,341.171" style="stroke: #A80036; stroke-width: 1.0;"/><!--MD5=[a84d5eebab2f324da8dbc0a0b7e97da3]
link Program_B Content to HtmlDocument_B Content--><!--MD5=[a553b88607678a6293caf73beb3c6b6e]
link LaunchProgramB to Program_B Content--><path d="M410.339,342.555 C404.838,359.207 392.032,397.969 383.709,423.166 " fill="none" id="LaunchProgramB-Program_B Content" style="stroke: #A80036; stroke-width: 1.0;"/><!--MD5=[fb7312afd0d6c3096fcc3225f76671d1]
link MountHtmlDocumentB to HtmlDocument_B Content--><path d="M219.182,342.555 C209.22,359.207 186.032,397.969 170.959,423.166 " fill="none" id="MountHtmlDocumentB-HtmlDocument_B Content" style="stroke: #A80036; stroke-width: 1.0;"/><!--MD5=[464bb08571d0199e3303dc26deab8288]
link User to LaunchProgramA--><path d="M859.794,49.911 C884.06,55.305 932.83,68.818 965,95.5 C1000.57,124.999 1024.89,175.842 1034.89,199.584 " fill="none" id="User-to-LaunchProgramA" style="stroke: #A80036; stroke-width: 1.0;"/><polygon fill="#A80036" points="1036.91,204.485,1037.1715,194.6396,1035.0014,199.8636,1029.7773,197.6934,1036.91,204.485" style="stroke: #A80036; stroke-width: 1.0;"/><!--MD5=[fa1ce54d5af43252585ccce8fc706c1b]
link User to ShowLegalInfoA--><path d="M830.345,56.253 C815.865,65.601 793.292,80.734 775,95.5 C730.799,131.18 682.932,178.79 661.504,200.635 " fill="none" id="User-to-ShowLegalInfoA" style="stroke: #A80036; stroke-width: 1.0;"/><polygon fill="#A80036" points="657.817,204.405,666.9695,200.7675,661.313,200.8304,661.2502,195.1739,657.817,204.405" style="stroke: #A80036; stroke-width: 1.0;"/><!--MD5=[7fcc4a4fc7dcbb4d408dfa16ad04650a]
link Program_A Content to LaunchProgramB--><path d="M1016.81,309.199 C993.87,287.387 956.509,257.508 916.667,248.833 C895.261,244.173 543.739,244.173 522.333,248.833 C478.57,258.362 440.527,298.968 423.109,320.295 " fill="none" id="Program_A Content-to-LaunchProgramB" style="stroke: #A80036; stroke-width: 1.0;"/><polygon fill="#A80036" points="419.904,324.289,428.6566,319.7732,423.0334,320.3894,422.4172,314.7662,419.904,324.289" style="stroke: #A80036; stroke-width: 1.0;"/><!--MD5=[14869600bf63fe88456c5711ab1d3949]
link Program_B Content to LaunchProgramA--><path d="M458.618,445.6366 C646.801,442.8127 1094.61,430.9169 1140,381.5 C1176.68,341.567 1169.44,305.033 1140,259.5 C1120.86,229.899 1077.1,219.577 1054.34,216.13 " fill="none" id="Program_B Content-to-LaunchProgramA" style="stroke: #A80036; stroke-width: 1.0;"/><polygon fill="#A80036" points="1049.29,215.428,1057.6417,220.6481,1054.2408,216.1277,1058.7612,212.7268,1049.29,215.428" style="stroke: #A80036; stroke-width: 1.0;"/><!--MD5=[7c190595e1f4326452c7aef891e96bae]
@startuml

package "MultiProgramApplication" {

folder "Program_A" {
    interface LaunchProgramA
    interface MountHtmlDocumentA
    interface ShowLegalInfoA

    [Program_A Content] -u-> MountHtmlDocumentA
    [Program_A Content] -[hidden]r-> [HtmlDocument_A Content]
    [HtmlDocument_A Content] -[hidden]r-> [LegalInfo_A Content]

    LaunchProgramA -d- [Program_A Content]
    MountHtmlDocumentA -d- [HtmlDocument_A Content]

    ShowLegalInfoA -d- [LegalInfo_A Content]
}
folder "Program_B" {
    interface LaunchProgramB
    interface MountHtmlDocumentB


    [Program_B Content] -u-> MountHtmlDocumentB
    [Program_B Content] -[hidden]r-> [HtmlDocument_B Content]

    LaunchProgramB -d- [Program_B Content]
    MountHtmlDocumentB -d- [HtmlDocument_B Content]
}
}


Actor "User"

User -d-> LaunchProgramA
User -d-> ShowLegalInfoA
[Program_A Content] -> LaunchProgramB
[Program_B Content] -> LaunchProgramA


@enduml

PlantUML version 1.2020.19(Tue Oct 13 00:10:01 JST 2020)
(GPL source distribution)
Java Runtime: OpenJDK Runtime Environment
JVM: OpenJDK 64-Bit Server VM
Default Encoding: MS932
Language: ja
Country: JP
--></g></svg>