<?xml version="1.0" encoding="UTF-8" standalone="no"?><svg xmlns="http://www.w3.org/2000/svg" xmlns:xlink="http://www.w3.org/1999/xlink" contentScriptType="application/ecmascript" contentStyleType="text/css" height="398px" preserveAspectRatio="none" style="width:1433px;height:398px;" version="1.1" viewBox="0 0 1433 398" width="1433px" zoomAndPan="magnify"><defs><filter height="300%" id="fe3asess71ksh" width="300%" x="-1" y="-1"><feGaussianBlur result="blurOut" stdDeviation="2.0"/><feColorMatrix in="blurOut" result="blurOut2" type="matrix" values="0 0 0 0 0 0 0 0 0 0 0 0 0 0 0 0 0 0 .4 0"/><feOffset dx="4.0" dy="4.0" in="blurOut2" result="blurOut3"/><feBlend in="SourceGraphic" in2="blurOut3" mode="normal"/></filter></defs><g><!--MD5=[a87074590dd54949eb112ddda3967a88]
cluster Application_A--><polygon fill="#FFFFFF" filter="url(#fe3asess71ksh)" points="16,103.5,117,103.5,124,127.1094,704,127.1094,704,391.5,16,391.5,16,103.5" style="stroke: #000000; stroke-width: 1.5;"/><line style="stroke: #000000; stroke-width: 1.5;" x1="16" x2="124" y1="127.1094" y2="127.1094"/><text fill="#000000" font-family="sans-serif" font-size="14" font-weight="bold" lengthAdjust="spacingAndGlyphs" textLength="95" x="20" y="120.0332">Application_A</text><!--MD5=[dfa15ce1093dd2af5be1db5ab394b4d9]
cluster Program_A--><polygon fill="#FFFFFF" filter="url(#fe3asess71ksh)" points="40,147.5,122,147.5,129,171.1094,680,171.1094,680,367.5,40,367.5,40,147.5" style="stroke: #000000; stroke-width: 1.5;"/><line style="stroke: #000000; stroke-width: 1.5;" x1="40" x2="129" y1="171.1094" y2="171.1094"/><text fill="#000000" font-family="sans-serif" font-size="14" font-weight="bold" lengthAdjust="spacingAndGlyphs" textLength="76" x="44" y="164.0332">Program_A</text><!--MD5=[18cc3209894a98001a7d534455a83e62]
cluster Application_B--><polygon fill="#FFFFFF" filter="url(#fe3asess71ksh)" points="728,103.5,830,103.5,837,127.1094,1416,127.1094,1416,391.5,728,391.5,728,103.5" style="stroke: #000000; stroke-width: 1.5;"/><line style="stroke: #000000; stroke-width: 1.5;" x1="728" x2="837" y1="127.1094" y2="127.1094"/><text fill="#000000" font-family="sans-serif" font-size="14" font-weight="bold" lengthAdjust="spacingAndGlyphs" textLength="96" x="732" y="120.0332">Application_B</text><!--MD5=[342b7da349485a836a6cea7cda75028e]
cluster Program_B--><polygon fill="#FFFFFF" filter="url(#fe3asess71ksh)" points="752,147.5,835,147.5,842,171.1094,1392,171.1094,1392,367.5,752,367.5,752,147.5" style="stroke: #000000; stroke-width: 1.5;"/><line style="stroke: #000000; stroke-width: 1.5;" x1="752" x2="842" y1="171.1094" y2="171.1094"/><text fill="#000000" font-family="sans-serif" font-size="14" font-weight="bold" lengthAdjust="spacingAndGlyphs" textLength="77" x="756" y="164.0332">Program_B</text><!--MD5=[50864161f1c0e44c7d08fdd39fb633fa]
entity LaunchProgramA--><ellipse cx="150" cy="213.5" fill="#FEFECE" filter="url(#fe3asess71ksh)" rx="8" ry="8" style="stroke: #A80036; stroke-width: 1.5;"/><text fill="#000000" font-family="sans-serif" font-size="14" lengthAdjust="spacingAndGlyphs" textLength="110" x="95" y="245.0332">LaunchProgramA</text><!--MD5=[3456d6ff4f0d1c58dc7667bb59ccd91a]
entity MountHtmlDocumentA--><ellipse cx="347" cy="213.5" fill="#FEFECE" filter="url(#fe3asess71ksh)" rx="8" ry="8" style="stroke: #A80036; stroke-width: 1.5;"/><text fill="#000000" font-family="sans-serif" font-size="14" lengthAdjust="spacingAndGlyphs" textLength="139" x="277.5" y="245.0332">MountHtmlDocumentA</text><!--MD5=[50da6a7add4e3e6fe442264c4508239f]
entity ShowLegalInfoA--><ellipse cx="592" cy="213.5" fill="#FEFECE" filter="url(#fe3asess71ksh)" rx="8" ry="8" style="stroke: #A80036; stroke-width: 1.5;"/><text fill="#000000" font-family="sans-serif" font-size="14" lengthAdjust="spacingAndGlyphs" textLength="101" x="541.5" y="245.0332">ShowLegalInfoA</text><!--MD5=[56f8b6b7f690ab92db337451aef4ee23]
entity Program_A Content--><rect fill="#FEFECE" filter="url(#fe3asess71ksh)" height="47.6094" style="stroke: #A80036; stroke-width: 1.5;" width="165" x="56.5" y="303.5"/><rect fill="#FEFECE" height="10" style="stroke: #A80036; stroke-width: 1.5;" width="15" x="201.5" y="308.5"/><rect fill="#FEFECE" height="2" style="stroke: #A80036; stroke-width: 1.5;" width="4" x="199.5" y="310.5"/><rect fill="#FEFECE" height="2" style="stroke: #A80036; stroke-width: 1.5;" width="4" x="199.5" y="314.5"/><text fill="#000000" font-family="sans-serif" font-size="14" lengthAdjust="spacingAndGlyphs" textLength="125" x="71.5" y="338.0332">Program_A Content</text><!--MD5=[caeb918660e34d95d079ed87d248b095]
entity HtmlDocument_A Content--><rect fill="#FEFECE" filter="url(#fe3asess71ksh)" height="47.6094" style="stroke: #A80036; stroke-width: 1.5;" width="202" x="257" y="303.5"/><rect fill="#FEFECE" height="10" style="stroke: #A80036; stroke-width: 1.5;" width="15" x="439" y="308.5"/><rect fill="#FEFECE" height="2" style="stroke: #A80036; stroke-width: 1.5;" width="4" x="437" y="310.5"/><rect fill="#FEFECE" height="2" style="stroke: #A80036; stroke-width: 1.5;" width="4" x="437" y="314.5"/><text fill="#000000" font-family="sans-serif" font-size="14" lengthAdjust="spacingAndGlyphs" textLength="162" x="272" y="338.0332">HtmlDocument_A Content</text><!--MD5=[223197a8891a2e6218f1e79a20acfdba]
entity LegalInfo_A Content--><rect fill="#FEFECE" filter="url(#fe3asess71ksh)" height="47.6094" style="stroke: #A80036; stroke-width: 1.5;" width="169" x="494.5" y="303.5"/><rect fill="#FEFECE" height="10" style="stroke: #A80036; stroke-width: 1.5;" width="15" x="643.5" y="308.5"/><rect fill="#FEFECE" height="2" style="stroke: #A80036; stroke-width: 1.5;" width="4" x="641.5" y="310.5"/><rect fill="#FEFECE" height="2" style="stroke: #A80036; stroke-width: 1.5;" width="4" x="641.5" y="314.5"/><text fill="#000000" font-family="sans-serif" font-size="14" lengthAdjust="spacingAndGlyphs" textLength="129" x="509.5" y="338.0332">LegalInfo_A Content</text><!--MD5=[076282c5bdac5f0d4e16b29f3e5456e9]
entity LaunchProgramB--><ellipse cx="841" cy="213.5" fill="#FEFECE" filter="url(#fe3asess71ksh)" rx="8" ry="8" style="stroke: #A80036; stroke-width: 1.5;"/><text fill="#000000" font-family="sans-serif" font-size="14" lengthAdjust="spacingAndGlyphs" textLength="110" x="786" y="245.0332">LaunchProgramB</text><!--MD5=[ba029f5fa4dfbf80e257a7b103953579]
entity MountHtmlDocumentB--><ellipse cx="1043" cy="213.5" fill="#FEFECE" filter="url(#fe3asess71ksh)" rx="8" ry="8" style="stroke: #A80036; stroke-width: 1.5;"/><text fill="#000000" font-family="sans-serif" font-size="14" lengthAdjust="spacingAndGlyphs" textLength="139" x="973.5" y="245.0332">MountHtmlDocumentB</text><!--MD5=[1bfb8e60345ce620508a311601c6b7ca]
entity ShowLegalInfoB--><ellipse cx="1252" cy="213.5" fill="#FEFECE" filter="url(#fe3asess71ksh)" rx="8" ry="8" style="stroke: #A80036; stroke-width: 1.5;"/><text fill="#000000" font-family="sans-serif" font-size="14" lengthAdjust="spacingAndGlyphs" textLength="101" x="1201.5" y="245.0332">ShowLegalInfoB</text><!--MD5=[e786eebcd326317cd7bf92c210c3255e]
entity Program_B Content--><rect fill="#FEFECE" filter="url(#fe3asess71ksh)" height="47.6094" style="stroke: #A80036; stroke-width: 1.5;" width="165" x="768.5" y="303.5"/><rect fill="#FEFECE" height="10" style="stroke: #A80036; stroke-width: 1.5;" width="15" x="913.5" y="308.5"/><rect fill="#FEFECE" height="2" style="stroke: #A80036; stroke-width: 1.5;" width="4" x="911.5" y="310.5"/><rect fill="#FEFECE" height="2" style="stroke: #A80036; stroke-width: 1.5;" width="4" x="911.5" y="314.5"/><text fill="#000000" font-family="sans-serif" font-size="14" lengthAdjust="spacingAndGlyphs" textLength="125" x="783.5" y="338.0332">Program_B Content</text><!--MD5=[63a68145897bbde819cc0bcef2a32895]
entity HtmlDocument_B Content--><rect fill="#FEFECE" filter="url(#fe3asess71ksh)" height="47.6094" style="stroke: #A80036; stroke-width: 1.5;" width="202" x="969" y="303.5"/><rect fill="#FEFECE" height="10" style="stroke: #A80036; stroke-width: 1.5;" width="15" x="1151" y="308.5"/><rect fill="#FEFECE" height="2" style="stroke: #A80036; stroke-width: 1.5;" width="4" x="1149" y="310.5"/><rect fill="#FEFECE" height="2" style="stroke: #A80036; stroke-width: 1.5;" width="4" x="1149" y="314.5"/><text fill="#000000" font-family="sans-serif" font-size="14" lengthAdjust="spacingAndGlyphs" textLength="162" x="984" y="338.0332">HtmlDocument_B Content</text><!--MD5=[86883404f7c84c0a26d7a41725caab3f]
entity LegalInfo_B Content--><rect fill="#FEFECE" filter="url(#fe3asess71ksh)" height="47.6094" style="stroke: #A80036; stroke-width: 1.5;" width="169" x="1206.5" y="303.5"/><rect fill="#FEFECE" height="10" style="stroke: #A80036; stroke-width: 1.5;" width="15" x="1355.5" y="308.5"/><rect fill="#FEFECE" height="2" style="stroke: #A80036; stroke-width: 1.5;" width="4" x="1353.5" y="310.5"/><rect fill="#FEFECE" height="2" style="stroke: #A80036; stroke-width: 1.5;" width="4" x="1353.5" y="314.5"/><text fill="#000000" font-family="sans-serif" font-size="14" lengthAdjust="spacingAndGlyphs" textLength="129" x="1221.5" y="338.0332">LegalInfo_B Content</text><!--MD5=[fee662a292a0353a69bd162820bae93b]
entity User--><ellipse cx="716" cy="14" fill="#FEFECE" filter="url(#fe3asess71ksh)" rx="8" ry="8" style="stroke: #A80036; stroke-width: 1.5;"/><path d="M716,22 L716,49 M703,30 L729,30 M716,49 L703,64 M716,49 L729,64 " fill="none" filter="url(#fe3asess71ksh)" style="stroke: #A80036; stroke-width: 1.5;"/><text fill="#000000" font-family="sans-serif" font-size="14" lengthAdjust="spacingAndGlyphs" textLength="29" x="701.5" y="84.0332">User</text><!--MD5=[303932644f9af302a244fc1e905c426a]
reverse link MountHtmlDocumentA to Program_A Content--><path d="M333.315,221.869 C303.008,238.188 229.168,277.948 181.74,303.486 " fill="none" id="MountHtmlDocumentA-backto-Program_A Content" style="stroke: #A80036; stroke-width: 1.0;"/><polygon fill="#A80036" points="337.794,219.457,327.9734,220.202,333.3916,221.8275,331.7662,227.2458,337.794,219.457" style="stroke: #A80036; stroke-width: 1.0;"/><!--MD5=[ceda9342392abccbb3c1a8bba0369fbd]
link Program_A Content to HtmlDocument_A Content--><!--MD5=[8dc2cea2c0bfffb0f488dc46424a0660]
link HtmlDocument_A Content to LegalInfo_A Content--><!--MD5=[333747638868d1770fbaa53287587467]
link LaunchProgramA to Program_A Content--><path d="M149.209,222.555 C147.573,239.207 143.766,277.969 141.292,303.166 " fill="none" id="LaunchProgramA-Program_A Content" style="stroke: #A80036; stroke-width: 1.0;"/><!--MD5=[1a861fa5d86143c487d2e9a3995af960]
link MountHtmlDocumentA to HtmlDocument_A Content--><path d="M347.791,222.555 C349.427,239.207 353.234,277.969 355.708,303.166 " fill="none" id="MountHtmlDocumentA-HtmlDocument_A Content" style="stroke: #A80036; stroke-width: 1.0;"/><!--MD5=[09c9ab8d6093b621e9903a727d7161ae]
link ShowLegalInfoA to LegalInfo_A Content--><path d="M591.065,222.555 C589.132,239.207 584.633,277.969 581.708,303.166 " fill="none" id="ShowLegalInfoA-LegalInfo_A Content" style="stroke: #A80036; stroke-width: 1.0;"/><!--MD5=[05efe962adc550dd5c93f9ed6d5427be]
reverse link MountHtmlDocumentB to Program_B Content--><path d="M1029.45,222.404 C1000.95,239.031 933.857,278.167 890.546,303.431 " fill="none" id="MountHtmlDocumentB-backto-Program_B Content" style="stroke: #A80036; stroke-width: 1.0;"/><polygon fill="#A80036" points="1034,219.752,1024.2096,220.8235,1029.679,222.2677,1028.2347,227.7371,1034,219.752" style="stroke: #A80036; stroke-width: 1.0;"/><!--MD5=[a84d5eebab2f324da8dbc0a0b7e97da3]
link Program_B Content to HtmlDocument_B Content--><!--MD5=[a004812f82e6cad01d8f7e40a81f6783]
link HtmlDocument_B Content to LegalInfo_B Content--><!--MD5=[a553b88607678a6293caf73beb3c6b6e]
link LaunchProgramB to Program_B Content--><path d="M841.719,222.555 C843.206,239.207 846.667,277.969 848.917,303.166 " fill="none" id="LaunchProgramB-Program_B Content" style="stroke: #A80036; stroke-width: 1.0;"/><!--MD5=[fb7312afd0d6c3096fcc3225f76671d1]
link MountHtmlDocumentB to HtmlDocument_B Content--><path d="M1044.94,222.555 C1048.96,239.207 1058.3,277.969 1064.37,303.166 " fill="none" id="MountHtmlDocumentB-HtmlDocument_B Content" style="stroke: #A80036; stroke-width: 1.0;"/><!--MD5=[27f37f6969c7ec28a4843768e019ae37]
link ShowLegalInfoB to LegalInfo_B Content--><path d="M1254.8,222.555 C1260.6,239.207 1274.1,277.969 1282.87,303.166 " fill="none" id="ShowLegalInfoB-LegalInfo_B Content" style="stroke: #A80036; stroke-width: 1.0;"/><!--MD5=[fe22320340d42cec807646236ce1c6f8]
link Program_A Content to Program_B Content--><!--MD5=[464bb08571d0199e3303dc26deab8288]
link User to LaunchProgramA--><path d="M701.262,47.109 C631.335,47.84 333.045,53.414 252,95.5 C205.365,119.717 170.594,174.926 156.671,199.862 " fill="none" id="User-to-LaunchProgramA" style="stroke: #A80036; stroke-width: 1.0;"/><polygon fill="#A80036" points="154.167,204.427,162.0017,198.459,156.5712,200.0429,154.9872,194.6124,154.167,204.427" style="stroke: #A80036; stroke-width: 1.0;"/><!--MD5=[de8d0a66cdc6142dcf4a8e2b23ebff2a]
link User to LaunchProgramB--><path d="M730.584,66.309 C756.503,100.626 809.901,171.325 831.561,200.003 " fill="none" id="User-to-LaunchProgramB" style="stroke: #A80036; stroke-width: 1.0;"/><polygon fill="#A80036" points="834.756,204.233,832.5226,194.6407,831.7421,200.2435,826.1393,199.463,834.756,204.233" style="stroke: #A80036; stroke-width: 1.0;"/><!--MD5=[fa1ce54d5af43252585ccce8fc706c1b]
link User to ShowLegalInfoA--><path d="M701.289,66.635 C675.469,101.096 622.711,171.511 601.32,200.061 " fill="none" id="User-to-ShowLegalInfoA" style="stroke: #A80036; stroke-width: 1.0;"/><polygon fill="#A80036" points="598.165,204.272,606.762,199.4666,601.1625,200.2701,600.359,194.6706,598.165,204.272" style="stroke: #A80036; stroke-width: 1.0;"/><!--MD5=[7ee2b83e69e6dea31bacf55a47ca67ed]
link User to ShowLegalInfoB--><path d="M730.619,47.389 C796.161,49.326 1062.96,59.335 1137,95.5 C1187.11,119.977 1227.85,175.462 1244.23,200.198 " fill="none" id="User-to-ShowLegalInfoB" style="stroke: #A80036; stroke-width: 1.0;"/><polygon fill="#A80036" points="1247,204.445,1245.4267,194.7226,1244.2655,200.259,1238.7291,199.0978,1247,204.445" style="stroke: #A80036; stroke-width: 1.0;"/><!--MD5=[55ea0c14a89aa41cbf00bf438b60aa85]
@startuml

package "Application_A" {
folder "Program_A" {
    interface LaunchProgramA
    interface MountHtmlDocumentA
    interface ShowLegalInfoA

    [Program_A Content] -u-> MountHtmlDocumentA
    [Program_A Content] -[hidden]r-> [HtmlDocument_A Content]
    [HtmlDocument_A Content] -[hidden]r-> [LegalInfo_A Content]
    LaunchProgramA -d- [Program_A Content]
    MountHtmlDocumentA -d- [HtmlDocument_A Content]
    ShowLegalInfoA -d- [LegalInfo_A Content]
}
}

package "Application_B" {
folder "Program_B" {
    interface LaunchProgramB
    interface MountHtmlDocumentB
    interface ShowLegalInfoB


    [Program_B Content] -u-> MountHtmlDocumentB
    [Program_B Content] -[hidden]r-> [HtmlDocument_B Content]
    [HtmlDocument_B Content] -[hidden]r-> [LegalInfo_B Content]
    LaunchProgramB -d- [Program_B Content]
    MountHtmlDocumentB -d- [HtmlDocument_B Content]
    ShowLegalInfoB -d- [LegalInfo_B Content]
}
}

[Program_A Content] -[hidden]r-> [Program_B Content]


actor User
User -d-> LaunchProgramA
User -d-> LaunchProgramB
User -d-> ShowLegalInfoA
User -d-> ShowLegalInfoB

@enduml

PlantUML version 1.2020.19(Tue Oct 13 00:10:01 JST 2020)
(GPL source distribution)
Java Runtime: OpenJDK Runtime Environment
JVM: OpenJDK 64-Bit Server VM
Default Encoding: MS932
Language: ja
Country: JP
--></g></svg>