<?xml version="1.0" encoding="UTF-8" standalone="no"?>
<!DOCTYPE svg PUBLIC "-//W3C//DTD SVG 1.1//EN"
 "http://www.w3.org/Graphics/SVG/1.1/DTD/svg11.dtd">
<!-- Generated by graphviz version 2.38.0 (20140413.2041)
 -->
<!-- Pages: 1 -->
<svg width="459pt" height="496pt"
 viewBox="0.00 0.00 458.50 496.00" xmlns="http://www.w3.org/2000/svg" xmlns:xlink="http://www.w3.org/1999/xlink">
<g id="graph0" class="graph" transform="scale(1 1) rotate(0) translate(4 492)">
<polygon fill="white" stroke="none" points="-4,4 -4,-492 454.5,-492 454.5,4 -4,4"/>
<!-- visibility -->
<g id="node1" class="node"><title>visibility</title>
<polygon fill="lightyellow" stroke="black" points="187.5,-488 99.1364,-470 187.5,-452 275.864,-470 187.5,-488"/>
<text text-anchor="middle" x="187.5" y="-467.8" font-family="Verdana" font-size="9.00">Determine visibility.</text>
</g>
<!-- renderState -->
<g id="node2" class="node"><title>renderState</title>
<polygon fill="lightyellow" stroke="black" points="265,-401 110,-401 110,-365 265,-365 265,-401"/>
<text text-anchor="middle" x="187.5" y="-380.8" font-family="Verdana" font-size="9.00">Configuring the Render State</text>
</g>
<!-- visibility&#45;&gt;renderState -->
<g id="edge1" class="edge"><title>visibility:s&#45;&gt;renderState</title>
<path fill="none" stroke="black" d="M187.5,-452C187.5,-437.9 187.5,-422.155 187.5,-409.369"/>
<polygon fill="black" stroke="black" points="190.3,-409.047 187.5,-401.047 184.7,-409.047 190.3,-409.047"/>
<text text-anchor="middle" x="207" y="-422.8" font-family="Times New Roman,serif" font-size="14.00">Visible</text>
</g>
<!-- end -->
<g id="node7" class="node"><title>end</title>
<polygon fill="lightyellow" stroke="black" points="378.5,-36 308.5,-36 308.5,-0 378.5,-0 378.5,-36"/>
<text text-anchor="middle" x="343.5" y="-15.8" font-family="Verdana" font-size="9.00">Finalization</text>
</g>
<!-- visibility&#45;&gt;end -->
<g id="edge2" class="edge"><title>visibility:e&#45;&gt;end</title>
<path fill="none" stroke="black" d="M277.5,-470C345.301,-470 403.5,-451.801 403.5,-384 403.5,-384 403.5,-384 403.5,-90 403.5,-70.6869 390.388,-53.915 376.424,-41.5287"/>
<polygon fill="black" stroke="black" points="377.926,-39.1348 369.992,-36.153 374.334,-43.4318 377.926,-39.1348"/>
<text text-anchor="middle" x="427" y="-233.3" font-family="Times New Roman,serif" font-size="14.00">Invisible</text>
</g>
<!-- loadShader -->
<g id="node3" class="node"><title>loadShader</title>
<polygon fill="lightyellow" stroke="black" points="235.5,-328 139.5,-328 139.5,-292 235.5,-292 235.5,-328"/>
<text text-anchor="middle" x="187.5" y="-307.8" font-family="Verdana" font-size="9.00">Loading Shaders</text>
</g>
<!-- renderState&#45;&gt;loadShader -->
<g id="edge3" class="edge"><title>renderState&#45;&gt;loadShader</title>
<path fill="none" stroke="black" d="M187.5,-364.813C187.5,-356.179 187.5,-345.555 187.5,-336.034"/>
<polygon fill="black" stroke="black" points="190.3,-336.029 187.5,-328.029 184.7,-336.029 190.3,-336.029"/>
</g>
<!-- sampler -->
<g id="node5" class="node"><title>sampler</title>
<polygon fill="lightyellow" stroke="black" points="299.5,-255 75.5,-255 75.5,-219 299.5,-219 299.5,-255"/>
<text text-anchor="middle" x="187.5" y="-234.8" font-family="Verdana" font-size="9.00">Configure the sampler and texture settings.</text>
</g>
<!-- loadShader&#45;&gt;sampler -->
<g id="edge4" class="edge"><title>loadShader&#45;&gt;sampler</title>
<path fill="none" stroke="black" d="M187.5,-291.813C187.5,-283.179 187.5,-272.555 187.5,-263.034"/>
<polygon fill="black" stroke="black" points="190.3,-263.029 187.5,-255.029 184.7,-263.029 190.3,-263.029"/>
</g>
<!-- uniform -->
<g id="node4" class="node"><title>uniform</title>
<polygon fill="lightyellow" stroke="black" points="375,-182 0,-182 0,-146 375,-146 375,-182"/>
<text text-anchor="middle" x="187.5" y="-161.8" font-family="Verdana" font-size="9.00">Load the material, including the skeleton, shape, and option uniform blocks.</text>
</g>
<!-- draw -->
<g id="node6" class="node"><title>draw</title>
<polygon fill="lightyellow" stroke="black" points="220,-109 155,-109 155,-73 220,-73 220,-109"/>
<text text-anchor="middle" x="187.5" y="-88.8" font-family="Verdana" font-size="9.00">Rendering</text>
</g>
<!-- uniform&#45;&gt;draw -->
<g id="edge6" class="edge"><title>uniform&#45;&gt;draw</title>
<path fill="none" stroke="black" d="M187.5,-145.813C187.5,-137.179 187.5,-126.555 187.5,-117.034"/>
<polygon fill="black" stroke="black" points="190.3,-117.029 187.5,-109.029 184.7,-117.029 190.3,-117.029"/>
</g>
<!-- sampler&#45;&gt;uniform -->
<g id="edge5" class="edge"><title>sampler&#45;&gt;uniform</title>
<path fill="none" stroke="black" d="M187.5,-218.813C187.5,-210.179 187.5,-199.555 187.5,-190.034"/>
<polygon fill="black" stroke="black" points="190.3,-190.029 187.5,-182.029 184.7,-190.029 190.3,-190.029"/>
</g>
<!-- draw&#45;&gt;end -->
<g id="edge7" class="edge"><title>draw&#45;&gt;end</title>
<path fill="none" stroke="black" d="M220.203,-75.1161C243.703,-64.4203 275.599,-49.9035 301.062,-38.3147"/>
<polygon fill="black" stroke="black" points="302.279,-40.8374 308.4,-34.9749 299.959,-35.7404 302.279,-40.8374"/>
</g>
</g>
</svg>
