<?xml version="1.0" encoding="UTF-8" standalone="no"?>
<!DOCTYPE svg PUBLIC "-//W3C//DTD SVG 1.1//EN"
 "http://www.w3.org/Graphics/SVG/1.1/DTD/svg11.dtd">
<!-- Generated by graphviz version 2.38.0 (20140413.2041)
 -->
<!-- Pages: 1 -->
<svg width="280pt" height="642pt"
 viewBox="0.00 0.00 280.00 642.00" xmlns="http://www.w3.org/2000/svg" xmlns:xlink="http://www.w3.org/1999/xlink">
<g id="graph0" class="graph" transform="scale(1 1) rotate(0) translate(4 638)">
<polygon fill="white" stroke="none" points="-4,4 -4,-638 276,-638 276,4 -4,4"/>
<!-- initializeShader -->
<g id="node1" class="node"><title>initializeShader</title>
<polygon fill="lightyellow" stroke="black" points="191.5,-634 34.5,-634 34.5,-598 191.5,-598 191.5,-634"/>
<text text-anchor="middle" x="113" y="-613.8" font-family="Verdana" font-size="9.00">Initializing the Shader Archive</text>
</g>
<!-- initializeModel -->
<g id="node2" class="node"><title>initializeModel</title>
<polygon fill="lightyellow" stroke="black" points="163.5,-561 62.5,-561 62.5,-525 163.5,-525 163.5,-561"/>
<text text-anchor="middle" x="113" y="-540.8" font-family="Verdana" font-size="9.00">Initializing Models</text>
</g>
<!-- initializeShader&#45;&gt;initializeModel -->
<g id="edge1" class="edge"><title>initializeShader&#45;&gt;initializeModel</title>
<path fill="none" stroke="black" d="M113,-597.813C113,-589.179 113,-578.555 113,-569.034"/>
<polygon fill="black" stroke="black" points="115.8,-569.029 113,-561.029 110.2,-569.029 115.8,-569.029"/>
</g>
<!-- initializeGfx -->
<g id="node3" class="node"><title>initializeGfx</title>
<polygon fill="lightyellow" stroke="black" points="180,-488 46,-488 46,-452 180,-452 180,-488"/>
<text text-anchor="middle" x="113" y="-467.8" font-family="Verdana" font-size="9.00">Initialize nn::gfx objects.</text>
</g>
<!-- initializeModel&#45;&gt;initializeGfx -->
<g id="edge2" class="edge"><title>initializeModel&#45;&gt;initializeGfx</title>
<path fill="none" stroke="black" d="M113,-524.813C113,-516.179 113,-505.555 113,-496.034"/>
<polygon fill="black" stroke="black" points="115.8,-496.029 113,-488.029 110.2,-496.029 115.8,-496.029"/>
</g>
<!-- update -->
<g id="node4" class="node"><title>update</title>
<polygon fill="lightyellow" stroke="black" points="170,-415 56,-415 56,-379 170,-379 170,-415"/>
<text text-anchor="middle" x="113" y="-394.8" font-family="Verdana" font-size="9.00">Updating Animations</text>
</g>
<!-- initializeGfx&#45;&gt;update -->
<g id="edge3" class="edge"><title>initializeGfx&#45;&gt;update</title>
<path fill="none" stroke="black" d="M113,-451.813C113,-443.179 113,-432.555 113,-423.034"/>
<polygon fill="black" stroke="black" points="115.8,-423.029 113,-415.029 110.2,-423.029 115.8,-423.029"/>
</g>
<!-- updateGpuBuffers -->
<g id="node5" class="node"><title>updateGpuBuffers</title>
<polygon fill="lightyellow" stroke="black" points="226,-342 0,-342 0,-306 226,-306 226,-342"/>
<text text-anchor="middle" x="113" y="-321.8" font-family="Verdana" font-size="9.00">Updating the Buffers Referenced by the GPU</text>
</g>
<!-- update&#45;&gt;updateGpuBuffers -->
<g id="edge4" class="edge"><title>update&#45;&gt;updateGpuBuffers</title>
<path fill="none" stroke="black" d="M113,-378.813C113,-370.179 113,-359.555 113,-350.034"/>
<polygon fill="black" stroke="black" points="115.8,-350.029 113,-342.029 110.2,-350.029 115.8,-350.029"/>
</g>
<!-- makeGpuCommands -->
<g id="node6" class="node"><title>makeGpuCommands</title>
<polygon fill="lightyellow" stroke="black" points="183,-269 43,-269 43,-233 183,-233 183,-269"/>
<text text-anchor="middle" x="113" y="-248.8" font-family="Verdana" font-size="9.00">Creating Draw Commands</text>
</g>
<!-- updateGpuBuffers&#45;&gt;makeGpuCommands -->
<g id="edge5" class="edge"><title>updateGpuBuffers&#45;&gt;makeGpuCommands</title>
<path fill="none" stroke="black" d="M113,-305.813C113,-297.179 113,-286.555 113,-277.034"/>
<polygon fill="black" stroke="black" points="115.8,-277.029 113,-269.029 110.2,-277.029 115.8,-277.029"/>
</g>
<!-- executeGpuCommands -->
<g id="node7" class="node"><title>executeGpuCommands</title>
<polygon fill="lightyellow" stroke="black" points="180,-196 46,-196 46,-160 180,-160 180,-196"/>
<text text-anchor="middle" x="113" y="-175.8" font-family="Verdana" font-size="9.00">Issuing Draw Commands</text>
</g>
<!-- makeGpuCommands&#45;&gt;executeGpuCommands -->
<g id="edge6" class="edge"><title>makeGpuCommands&#45;&gt;executeGpuCommands</title>
<path fill="none" stroke="black" d="M113,-232.813C113,-224.179 113,-213.555 113,-204.034"/>
<polygon fill="black" stroke="black" points="115.8,-204.029 113,-196.029 110.2,-204.029 115.8,-204.029"/>
</g>
<!-- breakMainLoop -->
<g id="node8" class="node"><title>breakMainLoop</title>
<polygon fill="lightyellow" stroke="black" points="167,-123 134.179,-105 167,-87 199.821,-105 167,-123"/>
<text text-anchor="middle" x="167" y="-102.8" font-family="Verdana" font-size="9.00">End?</text>
</g>
<!-- executeGpuCommands&#45;&gt;breakMainLoop -->
<g id="edge7" class="edge"><title>executeGpuCommands:s&#45;&gt;breakMainLoop:n</title>
<path fill="none" stroke="black" d="M113,-160C113,-134.089 155.833,-148.06 165.203,-130.873"/>
<polygon fill="black" stroke="black" points="167.95,-131.422 167,-123 162.49,-130.177 167.95,-131.422"/>
</g>
<!-- breakMainLoop&#45;&gt;update -->
<g id="edge9" class="edge"><title>breakMainLoop:e&#45;&gt;update:e</title>
<path fill="none" stroke="black" d="M201,-105C240.735,-105 254,-137.265 254,-177 254,-325 254,-325 254,-325 254,-371.068 223.595,-394.293 179.153,-396.777"/>
<polygon fill="black" stroke="black" points="178.92,-393.982 171,-397 179.074,-399.58 178.92,-393.982"/>
<text text-anchor="middle" x="263" y="-247.3" font-family="Times New Roman,serif" font-size="14.00">No</text>
</g>
<!-- finalize -->
<g id="node9" class="node"><title>finalize</title>
<polygon fill="lightyellow" stroke="black" points="230,-36 104,-36 104,-0 230,-0 230,-36"/>
<text text-anchor="middle" x="167" y="-15.8" font-family="Verdana" font-size="9.00">Termination Processing</text>
</g>
<!-- breakMainLoop&#45;&gt;finalize -->
<g id="edge8" class="edge"><title>breakMainLoop&#45;&gt;finalize</title>
<path fill="none" stroke="black" d="M167,-86.799C167,-74.5865 167,-57.9921 167,-44.2776"/>
<polygon fill="black" stroke="black" points="169.8,-44.1754 167,-36.1754 164.2,-44.1755 169.8,-44.1754"/>
<text text-anchor="middle" x="178" y="-57.8" font-family="Times New Roman,serif" font-size="14.00">Yes</text>
</g>
</g>
</svg>
