<?xml version="1.0" encoding="UTF-8" standalone="no"?>
<!DOCTYPE svg PUBLIC "-//W3C//DTD SVG 1.1//EN"
 "http://www.w3.org/Graphics/SVG/1.1/DTD/svg11.dtd">
<!-- Generated by graphviz version 2.38.0 (20140413.2041)
 -->
<!-- Pages: 1 -->
<svg width="172pt" height="332pt"
 viewBox="0.00 0.00 172.00 332.00" xmlns="http://www.w3.org/2000/svg" xmlns:xlink="http://www.w3.org/1999/xlink">
<g id="graph0" class="graph" transform="scale(1 1) rotate(0) translate(4 328)">
<polygon fill="white" stroke="none" points="-4,4 -4,-328 168,-328 168,4 -4,4"/>
<!-- FinalizeShader -->
<g id="node1" class="node"><title>FinalizeShader</title>
<polygon fill="lightyellow" stroke="black" points="158,-36 6,-36 6,-0 158,-0 158,-36"/>
<text text-anchor="middle" x="82" y="-15.8" font-family="Verdana" font-size="9.00">Finalizing the Shader Archive</text>
</g>
<!-- FinalizeModel -->
<g id="node2" class="node"><title>FinalizeModel</title>
<polygon fill="lightyellow" stroke="black" points="160,-108 4,-108 4,-72 160,-72 160,-108"/>
<text text-anchor="middle" x="82" y="-87.8" font-family="Verdana" font-size="9.00">Finalizing the Model Resource</text>
</g>
<!-- FinalizeModel&#45;&gt;FinalizeShader -->
<g id="edge4" class="edge"><title>FinalizeModel&#45;&gt;FinalizeShader</title>
<path fill="none" stroke="black" d="M82,-71.6966C82,-63.3893 82,-53.2771 82,-44.1407"/>
<polygon fill="black" stroke="black" points="84.8001,-44.1043 82,-36.1043 79.2001,-44.1044 84.8001,-44.1043"/>
</g>
<!-- DestroyModel -->
<g id="node3" class="node"><title>DestroyModel</title>
<polygon fill="lightyellow" stroke="black" points="162.5,-180 1.5,-180 1.5,-144 162.5,-144 162.5,-180"/>
<text text-anchor="middle" x="82" y="-159.8" font-family="Verdana" font-size="9.00">Destroying the Model Instance</text>
</g>
<!-- DestroyModel&#45;&gt;FinalizeModel -->
<g id="edge3" class="edge"><title>DestroyModel&#45;&gt;FinalizeModel</title>
<path fill="none" stroke="black" d="M82,-143.697C82,-135.389 82,-125.277 82,-116.141"/>
<polygon fill="black" stroke="black" points="84.8001,-116.104 82,-108.104 79.2001,-116.104 84.8001,-116.104"/>
</g>
<!-- DestroyAnimation -->
<g id="node4" class="node"><title>DestroyAnimation</title>
<polygon fill="lightyellow" stroke="black" points="150,-252 14,-252 14,-216 150,-216 150,-252"/>
<text text-anchor="middle" x="82" y="-231.8" font-family="Verdana" font-size="9.00">Destroying the Animation</text>
</g>
<!-- DestroyAnimation&#45;&gt;DestroyModel -->
<g id="edge2" class="edge"><title>DestroyAnimation&#45;&gt;DestroyModel</title>
<path fill="none" stroke="black" d="M82,-215.697C82,-207.389 82,-197.277 82,-188.141"/>
<polygon fill="black" stroke="black" points="84.8001,-188.104 82,-180.104 79.2001,-188.104 84.8001,-188.104"/>
</g>
<!-- DestoryShaderSelector -->
<g id="node5" class="node"><title>DestoryShaderSelector</title>
<polygon fill="lightyellow" stroke="black" points="164,-324 0,-324 0,-288 164,-288 164,-324"/>
<text text-anchor="middle" x="82" y="-303.8" font-family="Verdana" font-size="9.00">Destroying the Shader Selector</text>
</g>
<!-- DestoryShaderSelector&#45;&gt;DestroyAnimation -->
<g id="edge1" class="edge"><title>DestoryShaderSelector&#45;&gt;DestroyAnimation</title>
<path fill="none" stroke="black" d="M82,-287.697C82,-279.389 82,-269.277 82,-260.141"/>
<polygon fill="black" stroke="black" points="84.8001,-260.104 82,-252.104 79.2001,-260.104 84.8001,-260.104"/>
</g>
</g>
</svg>
