<?xml version="1.0" encoding="UTF-8" standalone="no"?>
<!DOCTYPE svg PUBLIC "-//W3C//DTD SVG 1.1//EN"
 "http://www.w3.org/Graphics/SVG/1.1/DTD/svg11.dtd">
<!-- Generated by graphviz version 2.38.0 (20140413.2041)
 -->
<!-- Pages: 1 -->
<svg width="408pt" height="332pt"
 viewBox="0.00 0.00 408.00 332.00" xmlns="http://www.w3.org/2000/svg" xmlns:xlink="http://www.w3.org/1999/xlink">
<g id="graph0" class="graph" transform="scale(1 1) rotate(0) translate(4 328)">
<polygon fill="white" stroke="none" points="-4,4 -4,-328 404,-328 404,4 -4,4"/>
<!-- initLoad -->
<g id="node1" class="node"><title>initLoad</title>
<polygon fill="lightyellow" stroke="black" points="273,-324 195,-324 195,-288 273,-288 273,-324"/>
<text text-anchor="middle" x="234" y="-303.8" font-family="Verdana" font-size="9.00">Loading Files</text>
</g>
<!-- modelFileInitialize -->
<g id="node2" class="node"><title>modelFileInitialize</title>
<polygon fill="lightyellow" stroke="black" points="307.5,-252 160.5,-252 160.5,-216 307.5,-216 307.5,-252"/>
<text text-anchor="middle" x="234" y="-231.8" font-family="Verdana" font-size="9.00">Initializing Model Resources</text>
</g>
<!-- initLoad&#45;&gt;modelFileInitialize -->
<g id="edge1" class="edge"><title>initLoad&#45;&gt;modelFileInitialize</title>
<path fill="none" stroke="black" d="M234,-287.697C234,-279.389 234,-269.277 234,-260.141"/>
<polygon fill="black" stroke="black" points="236.8,-260.104 234,-252.104 231.2,-260.104 236.8,-260.104"/>
</g>
<!-- associateShaderAndModel -->
<g id="node3" class="node"><title>associateShaderAndModel</title>
<polygon fill="lightyellow" stroke="black" points="294,-180 0,-180 0,-144 294,-144 294,-180"/>
<text text-anchor="middle" x="147" y="-159.8" font-family="Verdana" font-size="9.00">Applying the Shader Parameter Information to the Material</text>
</g>
<!-- modelFileInitialize&#45;&gt;associateShaderAndModel -->
<g id="edge2" class="edge"><title>modelFileInitialize&#45;&gt;associateShaderAndModel</title>
<path fill="none" stroke="black" d="M212.494,-215.697C201.116,-206.542 187.013,-195.195 174.812,-185.377"/>
<polygon fill="black" stroke="black" points="176.246,-182.938 168.258,-180.104 172.736,-187.301 176.246,-182.938"/>
</g>
<!-- buildAnimInstance -->
<g id="node6" class="node"><title>buildAnimInstance</title>
<polygon fill="lightyellow" stroke="black" points="400,-108 244,-108 244,-72 400,-72 400,-108"/>
<text text-anchor="middle" x="322" y="-87.8" font-family="Verdana" font-size="9.00">Creating Animation Instances</text>
</g>
<!-- modelFileInitialize&#45;&gt;buildAnimInstance -->
<g id="edge5" class="edge"><title>modelFileInitialize&#45;&gt;buildAnimInstance</title>
<path fill="none" stroke="black" d="M265.299,-215.845C278.862,-206.876 293.728,-194.689 303,-180 315.14,-160.767 319.635,-135.022 321.244,-116.171"/>
<polygon fill="black" stroke="black" points="324.047,-116.214 321.797,-108.042 318.46,-115.834 324.047,-116.214"/>
</g>
<!-- buildModelInstance -->
<g id="node4" class="node"><title>buildModelInstance</title>
<polygon fill="lightyellow" stroke="black" points="215.5,-108 78.5,-108 78.5,-72 215.5,-72 215.5,-108"/>
<text text-anchor="middle" x="147" y="-87.8" font-family="Verdana" font-size="9.00">Creating Model Instances</text>
</g>
<!-- associateShaderAndModel&#45;&gt;buildModelInstance -->
<g id="edge3" class="edge"><title>associateShaderAndModel&#45;&gt;buildModelInstance</title>
<path fill="none" stroke="black" d="M147,-143.697C147,-135.389 147,-125.277 147,-116.141"/>
<polygon fill="black" stroke="black" points="149.8,-116.104 147,-108.104 144.2,-116.104 149.8,-116.104"/>
</g>
<!-- buildShaderSelector -->
<g id="node5" class="node"><title>buildShaderSelector</title>
<polygon fill="lightyellow" stroke="black" points="219,-36 75,-36 75,-0 219,-0 219,-36"/>
<text text-anchor="middle" x="147" y="-15.8" font-family="Verdana" font-size="9.00">Creating a Shader Selector</text>
</g>
<!-- buildModelInstance&#45;&gt;buildShaderSelector -->
<g id="edge4" class="edge"><title>buildModelInstance&#45;&gt;buildShaderSelector</title>
<path fill="none" stroke="black" d="M147,-71.6966C147,-63.3893 147,-53.2771 147,-44.1407"/>
<polygon fill="black" stroke="black" points="149.8,-44.1043 147,-36.1043 144.2,-44.1044 149.8,-44.1043"/>
</g>
</g>
</svg>
