<?xml version="1.0" encoding="UTF-8" standalone="no"?>
<!DOCTYPE svg PUBLIC "-//W3C//DTD SVG 1.1//EN"
 "http://www.w3.org/Graphics/SVG/1.1/DTD/svg11.dtd">
<!-- Generated by graphviz version 2.38.0 (20140413.2041)
 -->
<!-- Pages: 1 -->
<svg width="666pt" height="767pt"
 viewBox="0.00 0.00 666.00 767.00" xmlns="http://www.w3.org/2000/svg" xmlns:xlink="http://www.w3.org/1999/xlink">
<g id="graph0" class="graph" transform="scale(1 1) rotate(0) translate(4 763)">
<polygon fill="white" stroke="none" points="-4,4 -4,-763 662,-763 662,4 -4,4"/>
<!-- MemoryPool -->
<g id="node1" class="node"><title>MemoryPool</title>
<ellipse fill="lightyellow" stroke="blue" cx="301.699" cy="-384.688" rx="42.949" ry="18"/>
<text text-anchor="middle" x="301.699" y="-382.488" font-family="Verdana" font-size="9.00">MemoryPool</text>
</g>
<!-- DescriptorPool -->
<g id="node2" class="node"><title>DescriptorPool</title>
<ellipse fill="lightyellow" stroke="blue" cx="258.054" cy="-577.638" rx="49.1497" ry="18"/>
<text text-anchor="middle" x="258.054" y="-575.438" font-family="Verdana" font-size="9.00">DescriptorPool</text>
</g>
<!-- MemoryPool&#45;&gt;DescriptorPool -->
<g id="edge22" class="edge"><title>MemoryPool&#45;&gt;DescriptorPool</title>
<path fill="none" stroke="black" d="M297.593,-402.84C289.807,-437.26 272.876,-512.112 263.904,-551.773"/>
<polygon fill="black" stroke="black" points="261.151,-551.254 262.117,-559.675 266.613,-552.489 261.151,-551.254"/>
</g>
<!-- Buffer -->
<g id="node20" class="node"><title>Buffer</title>
<ellipse fill="lightyellow" stroke="black" cx="164.118" cy="-487.039" rx="27" ry="18"/>
<text text-anchor="middle" x="164.118" y="-484.839" font-family="Verdana" font-size="9.00">Buffer</text>
</g>
<!-- MemoryPool&#45;&gt;Buffer -->
<g id="edge23" class="edge"><title>MemoryPool&#45;&gt;Buffer</title>
<path fill="none" stroke="black" d="M280.504,-400.456C255.871,-418.781 215.268,-448.987 189.117,-468.442"/>
<polygon fill="black" stroke="black" points="187.222,-466.362 182.475,-473.383 190.565,-470.855 187.222,-466.362"/>
</g>
<!-- Texture -->
<g id="node21" class="node"><title>Texture</title>
<ellipse fill="lightyellow" stroke="black" cx="436.654" cy="-531.157" rx="30.6995" ry="18"/>
<text text-anchor="middle" x="436.654" y="-528.957" font-family="Verdana" font-size="9.00">Texture</text>
</g>
<!-- MemoryPool&#45;&gt;Texture -->
<g id="edge24" class="edge"><title>MemoryPool&#45;&gt;Texture</title>
<path fill="none" stroke="black" d="M317.18,-401.49C341.613,-428.007 389.123,-479.571 416.291,-509.057"/>
<polygon fill="black" stroke="black" points="414.284,-511.011 421.764,-514.997 418.403,-507.216 414.284,-511.011"/>
</g>
<!-- DescriptorSlot -->
<g id="node3" class="node"><title>DescriptorSlot</title>
<ellipse fill="lightyellow" stroke="blue" cx="202.261" cy="-740.52" rx="47.8403" ry="18"/>
<text text-anchor="middle" x="202.261" y="-738.32" font-family="Verdana" font-size="9.00">DescriptorSlot</text>
</g>
<!-- DescriptorPool&#45;&gt;DescriptorSlot -->
<g id="edge25" class="edge"><title>DescriptorPool&#45;&gt;DescriptorSlot</title>
<path fill="none" stroke="black" d="M251.87,-595.692C241.983,-624.555 222.575,-681.217 211.185,-714.467"/>
<polygon fill="black" stroke="black" points="208.417,-713.91 208.473,-722.385 213.714,-715.724 208.417,-713.91"/>
</g>
<!-- Pipeline -->
<g id="node4" class="node"><title>Pipeline</title>
<ellipse fill="lightyellow" stroke="blue" cx="378.196" cy="-189.773" rx="30.6995" ry="18"/>
<text text-anchor="middle" x="378.196" y="-187.573" font-family="Verdana" font-size="9.00">Pipeline</text>
</g>
<!-- nn::vi::Layer -->
<g id="node5" class="node"><title>nn::vi::Layer</title>
<ellipse fill="lightyellow" stroke="black" cx="484.564" cy="-403.373" rx="44.412" ry="18"/>
<text text-anchor="middle" x="484.564" y="-401.173" font-family="Verdana" font-size="9.00">nn::vi::Layer</text>
</g>
<!-- SwapChain -->
<g id="node6" class="node"><title>SwapChain</title>
<ellipse fill="lightyellow" stroke="black" cx="521.034" cy="-449.926" rx="40.3292" ry="18"/>
<text text-anchor="middle" x="521.034" y="-447.726" font-family="Verdana" font-size="9.00">SwapChain</text>
</g>
<!-- nn::vi::Layer&#45;&gt;SwapChain -->
<g id="edge1" class="edge"><title>nn::vi::Layer&#45;&gt;SwapChain</title>
<path fill="none" stroke="black" d="M498.144,-420.707C499.587,-422.549 501.072,-424.444 502.558,-426.342"/>
<polygon fill="black" stroke="black" points="500.426,-428.161 507.564,-432.732 504.835,-424.707 500.426,-428.161"/>
</g>
<!-- Device -->
<g id="node7" class="node"><title>Device</title>
<ellipse fill="lightyellow" stroke="black" cx="303.958" cy="-179.239" rx="27.2716" ry="18"/>
<text text-anchor="middle" x="303.958" y="-177.039" font-family="Verdana" font-size="9.00">Device</text>
</g>
<!-- Device&#45;&gt;MemoryPool -->
<g id="edge6" class="edge"><title>Device&#45;&gt;MemoryPool</title>
<path fill="none" stroke="black" d="M303.757,-197.471C303.356,-233.946 302.454,-316.02 301.989,-358.343"/>
<polygon fill="black" stroke="black" points="299.187,-358.466 301.899,-366.496 304.787,-358.528 299.187,-358.466"/>
</g>
<!-- Queue -->
<g id="node8" class="node"><title>Queue</title>
<ellipse fill="lightyellow" stroke="black" cx="161.091" cy="-219.468" rx="27.9273" ry="18"/>
<text text-anchor="middle" x="161.091" y="-217.268" font-family="Verdana" font-size="9.00">Queue</text>
</g>
<!-- Device&#45;&gt;Queue -->
<g id="edge2" class="edge"><title>Device&#45;&gt;Queue</title>
<path fill="none" stroke="black" d="M278.745,-186.338C255.325,-192.933 220.29,-202.798 194.54,-210.049"/>
<polygon fill="black" stroke="black" points="193.474,-207.44 186.533,-212.304 194.992,-212.83 193.474,-207.44"/>
</g>
<!-- Fence -->
<g id="node9" class="node"><title>Fence</title>
<ellipse fill="lightyellow" stroke="black" cx="308.969" cy="-17.8686" rx="27" ry="18"/>
<text text-anchor="middle" x="308.969" y="-15.6686" font-family="Verdana" font-size="9.00">Fence</text>
</g>
<!-- Device&#45;&gt;Fence -->
<g id="edge3" class="edge"><title>Device&#45;&gt;Fence</title>
<path fill="none" stroke="black" d="M304.523,-161.041C305.406,-132.591 307.119,-77.4338 308.142,-44.5069"/>
<polygon fill="black" stroke="black" points="310.949,-44.3303 308.399,-36.2472 305.351,-44.1564 310.949,-44.3303"/>
</g>
<!-- Semaphore -->
<g id="node10" class="node"><title>Semaphore</title>
<ellipse fill="lightyellow" stroke="black" cx="216.15" cy="-21.5679" rx="40.9837" ry="18"/>
<text text-anchor="middle" x="216.15" y="-19.3679" font-family="Verdana" font-size="9.00">Semaphore</text>
</g>
<!-- Device&#45;&gt;Semaphore -->
<g id="edge4" class="edge"><title>Device&#45;&gt;Semaphore</title>
<path fill="none" stroke="black" d="M294.394,-162.065C278.839,-134.135 247.995,-78.7504 230.028,-46.4889"/>
<polygon fill="black" stroke="black" points="232.309,-44.8286 225.97,-39.2017 227.416,-47.5533 232.309,-44.8286"/>
</g>
<!-- CommandBuffer -->
<g id="node11" class="node"><title>CommandBuffer</title>
<ellipse fill="lightyellow" stroke="black" cx="113.867" cy="-146.293" rx="53.2327" ry="18"/>
<text text-anchor="middle" x="113.867" y="-144.093" font-family="Verdana" font-size="9.00">CommandBuffer</text>
</g>
<!-- Device&#45;&gt;CommandBuffer -->
<g id="edge5" class="edge"><title>Device&#45;&gt;CommandBuffer</title>
<path fill="none" stroke="black" d="M277.526,-174.658C249.643,-169.825 204.889,-162.069 169.223,-155.888"/>
<polygon fill="black" stroke="black" points="169.659,-153.121 161.299,-154.514 168.703,-158.639 169.659,-153.121"/>
</g>
<!-- Sampler -->
<g id="node12" class="node"><title>Sampler</title>
<ellipse fill="lightyellow" stroke="black" cx="164.967" cy="-83.9068" rx="31.5104" ry="18"/>
<text text-anchor="middle" x="164.967" y="-81.7068" font-family="Verdana" font-size="9.00">Sampler</text>
</g>
<!-- Device&#45;&gt;Sampler -->
<g id="edge7" class="edge"><title>Device&#45;&gt;Sampler</title>
<path fill="none" stroke="black" d="M284.923,-166.183C260.934,-149.73 219.542,-121.339 192.207,-102.59"/>
<polygon fill="black" stroke="black" points="193.761,-100.261 185.58,-98.0448 190.593,-104.879 193.761,-100.261"/>
</g>
<!-- Shader -->
<g id="node13" class="node"><title>Shader</title>
<ellipse fill="lightyellow" stroke="black" cx="355.555" cy="-83.1098" rx="28.7356" ry="18"/>
<text text-anchor="middle" x="355.555" y="-80.9098" font-family="Verdana" font-size="9.00">Shader</text>
</g>
<!-- Device&#45;&gt;Shader -->
<g id="edge8" class="edge"><title>Device&#45;&gt;Shader</title>
<path fill="none" stroke="black" d="M313.182,-162.053C321.276,-146.973 333.145,-124.861 342.264,-107.872"/>
<polygon fill="black" stroke="black" points="344.92,-108.844 346.237,-100.471 339.986,-106.196 344.92,-108.844"/>
</g>
<!-- RasterizerState -->
<g id="node14" class="node"><title>RasterizerState</title>
<ellipse fill="lightyellow" stroke="black" cx="258.133" cy="-127.826" rx="51.9231" ry="18"/>
<text text-anchor="middle" x="258.133" y="-125.626" font-family="Verdana" font-size="9.00">RasterizerState</text>
</g>
<!-- Device&#45;&gt;RasterizerState -->
<g id="edge9" class="edge"><title>Device&#45;&gt;RasterizerState</title>
<path fill="none" stroke="black" d="M289.96,-163.534C286.494,-159.645 282.705,-155.395 278.99,-151.226"/>
<polygon fill="black" stroke="black" points="281.057,-149.337 273.643,-145.228 276.876,-153.063 281.057,-149.337"/>
</g>
<!-- BlendState -->
<g id="node15" class="node"><title>BlendState</title>
<ellipse fill="lightyellow" stroke="black" cx="418.902" cy="-266.354" rx="39.0211" ry="18"/>
<text text-anchor="middle" x="418.902" y="-264.154" font-family="Verdana" font-size="9.00">BlendState</text>
</g>
<!-- Device&#45;&gt;BlendState -->
<g id="edge10" class="edge"><title>Device&#45;&gt;BlendState</title>
<path fill="none" stroke="black" d="M321.918,-192.851C340.686,-207.075 370.351,-229.558 391.934,-245.916"/>
<polygon fill="black" stroke="black" points="390.285,-248.179 398.352,-250.78 393.667,-243.716 390.285,-248.179"/>
</g>
<!-- DepthStencilState -->
<g id="node16" class="node"><title>DepthStencilState</title>
<ellipse fill="lightyellow" stroke="black" cx="460.686" cy="-65.4908" rx="58.1254" ry="18"/>
<text text-anchor="middle" x="460.686" y="-63.2908" font-family="Verdana" font-size="9.00">DepthStencilState</text>
</g>
<!-- Device&#45;&gt;DepthStencilState -->
<g id="edge11" class="edge"><title>Device&#45;&gt;DepthStencilState</title>
<path fill="none" stroke="black" d="M322.552,-165.744C349.426,-146.24 399.389,-109.978 431.288,-86.8269"/>
<polygon fill="black" stroke="black" points="432.976,-89.0615 437.806,-82.0964 429.687,-84.5293 432.976,-89.0615"/>
</g>
<!-- VertexState -->
<g id="node17" class="node"><title>VertexState</title>
<ellipse fill="lightyellow" stroke="black" cx="460.107" cy="-186.013" rx="42.2937" ry="18"/>
<text text-anchor="middle" x="460.107" y="-183.813" font-family="Verdana" font-size="9.00">VertexState</text>
</g>
<!-- Device&#45;&gt;VertexState -->
<g id="edge12" class="edge"><title>Device&#45;&gt;VertexState</title>
<path fill="none" stroke="black" d="M331.157,-180.419C352.76,-181.356 383.569,-182.692 409.655,-183.824"/>
<polygon fill="black" stroke="black" points="409.827,-186.634 417.941,-184.183 410.069,-181.039 409.827,-186.634"/>
</g>
<!-- RenderTargetState -->
<g id="node18" class="node"><title>RenderTargetState</title>
<ellipse fill="lightyellow" stroke="black" cx="249.012" cy="-299.216" rx="61.5538" ry="18"/>
<text text-anchor="middle" x="249.012" y="-297.016" font-family="Verdana" font-size="9.00">RenderTargetState</text>
</g>
<!-- Device&#45;&gt;RenderTargetState -->
<g id="edge13" class="edge"><title>Device&#45;&gt;RenderTargetState</title>
<path fill="none" stroke="black" d="M295.968,-196.685C286.662,-217.004 271.212,-250.742 260.592,-273.932"/>
<polygon fill="black" stroke="black" points="257.976,-272.918 257.191,-281.358 263.068,-275.25 257.976,-272.918"/>
</g>
<!-- ViewportScissorState -->
<g id="node19" class="node"><title>ViewportScissorState</title>
<ellipse fill="lightyellow" stroke="black" cx="490.129" cy="-115.876" rx="67.6" ry="18"/>
<text text-anchor="middle" x="490.129" y="-113.676" font-family="Verdana" font-size="9.00">ViewportScissorState</text>
</g>
<!-- Device&#45;&gt;ViewportScissorState -->
<g id="edge14" class="edge"><title>Device&#45;&gt;ViewportScissorState</title>
<path fill="none" stroke="black" d="M328.296,-170.955C356.611,-161.319 404.098,-145.156 440.33,-132.825"/>
<polygon fill="black" stroke="black" points="441.673,-135.325 448.345,-130.097 439.869,-130.024 441.673,-135.325"/>
</g>
<!-- Shader&#45;&gt;Pipeline -->
<g id="edge15" class="edge"><title>Shader&#45;&gt;Pipeline</title>
<path fill="none" stroke="black" d="M359.396,-101.204C363.039,-118.366 368.552,-144.34 372.668,-163.729"/>
<polygon fill="black" stroke="black" points="369.936,-164.346 374.336,-171.59 375.414,-163.183 369.936,-164.346"/>
</g>
<!-- RasterizerState&#45;&gt;Pipeline -->
<g id="edge16" class="edge"><title>RasterizerState&#45;&gt;Pipeline</title>
<path fill="none" stroke="black" d="M287.197,-142.822C305.577,-152.305 329.291,-164.54 347.903,-174.143"/>
<polygon fill="black" stroke="black" points="346.627,-176.635 355.02,-177.815 349.194,-171.658 346.627,-176.635"/>
</g>
<!-- BlendState&#45;&gt;Pipeline -->
<g id="edge17" class="edge"><title>BlendState&#45;&gt;Pipeline</title>
<path fill="none" stroke="black" d="M409.461,-248.592C404.079,-238.468 397.253,-225.626 391.353,-214.526"/>
<polygon fill="black" stroke="black" points="393.673,-212.924 387.445,-207.174 388.728,-215.552 393.673,-212.924"/>
</g>
<!-- DepthStencilState&#45;&gt;Pipeline -->
<g id="edge18" class="edge"><title>DepthStencilState&#45;&gt;Pipeline</title>
<path fill="none" stroke="black" d="M448.868,-83.2974C434.433,-105.045 409.965,-141.909 393.943,-166.047"/>
<polygon fill="black" stroke="black" points="391.555,-164.583 389.463,-172.797 396.22,-167.68 391.555,-164.583"/>
</g>
<!-- VertexState&#45;&gt;Pipeline -->
<g id="edge19" class="edge"><title>VertexState&#45;&gt;Pipeline</title>
<path fill="none" stroke="black" d="M418.192,-187.937C417.798,-187.955 417.404,-187.973 417.011,-187.991"/>
<polygon fill="black" stroke="black" points="416.705,-185.202 408.842,-188.366 416.962,-190.796 416.705,-185.202"/>
</g>
<!-- RenderTargetState&#45;&gt;Pipeline -->
<g id="edge20" class="edge"><title>RenderTargetState&#45;&gt;Pipeline</title>
<path fill="none" stroke="black" d="M269.197,-282.116C292.257,-262.579 329.953,-230.643 354.418,-209.917"/>
<polygon fill="black" stroke="black" points="356.345,-211.954 360.639,-204.646 352.725,-207.681 356.345,-211.954"/>
</g>
<!-- ViewportScissorState&#45;&gt;Pipeline -->
<g id="edge21" class="edge"><title>ViewportScissorState&#45;&gt;Pipeline</title>
<path fill="none" stroke="black" d="M464.729,-132.644C447.077,-144.298 423.572,-159.815 405.515,-171.737"/>
<polygon fill="black" stroke="black" points="403.772,-169.532 398.639,-176.276 406.858,-174.206 403.772,-169.532"/>
</g>
<!-- GpuAddress -->
<g id="node22" class="node"><title>GpuAddress</title>
<ellipse fill="lightyellow" stroke="black" cx="42.8307" cy="-564.778" rx="42.949" ry="18"/>
<text text-anchor="middle" x="42.8307" y="-562.578" font-family="Verdana" font-size="9.00">GpuAddress</text>
</g>
<!-- Buffer&#45;&gt;GpuAddress -->
<g id="edge26" class="edge"><title>Buffer&#45;&gt;GpuAddress</title>
<path fill="none" stroke="black" d="M144.631,-499.53C125.417,-511.845 95.7644,-530.851 73.4091,-545.179"/>
<polygon fill="black" stroke="black" points="71.6541,-542.978 66.4298,-549.653 74.676,-547.693 71.6541,-542.978"/>
</g>
<!-- TextureView -->
<g id="node23" class="node"><title>TextureView</title>
<ellipse fill="lightyellow" stroke="black" cx="536.518" cy="-645.884" rx="43.1034" ry="18"/>
<text text-anchor="middle" x="536.518" y="-643.684" font-family="Verdana" font-size="9.00">TextureView</text>
</g>
<!-- Texture&#45;&gt;TextureView -->
<g id="edge27" class="edge"><title>Texture&#45;&gt;TextureView</title>
<path fill="none" stroke="black" d="M450.962,-547.594C468.044,-567.219 496.733,-600.178 516.131,-622.463"/>
<polygon fill="black" stroke="black" points="514.219,-624.531 521.584,-628.727 518.443,-620.855 514.219,-624.531"/>
</g>
<!-- ColorTargetView -->
<g id="node24" class="node"><title>ColorTargetView</title>
<ellipse fill="lightyellow" stroke="black" cx="454.154" cy="-697.984" rx="54.697" ry="18"/>
<text text-anchor="middle" x="454.154" y="-695.784" font-family="Verdana" font-size="9.00">ColorTargetView</text>
</g>
<!-- Texture&#45;&gt;ColorTargetView -->
<g id="edge28" class="edge"><title>Texture&#45;&gt;ColorTargetView</title>
<path fill="none" stroke="black" d="M438.56,-549.328C441.663,-578.911 447.82,-637.604 451.399,-671.723"/>
<polygon fill="black" stroke="black" points="448.63,-672.171 452.25,-679.836 454.2,-671.587 448.63,-672.171"/>
</g>
<!-- DepthStencilView -->
<g id="node25" class="node"><title>DepthStencilView</title>
<ellipse fill="lightyellow" stroke="black" cx="601.354" cy="-573.11" rx="56.6608" ry="18"/>
<text text-anchor="middle" x="601.354" y="-570.91" font-family="Verdana" font-size="9.00">DepthStencilView</text>
</g>
<!-- Texture&#45;&gt;DepthStencilView -->
<g id="edge29" class="edge"><title>Texture&#45;&gt;DepthStencilView</title>
<path fill="none" stroke="black" d="M464.967,-538.369C487.987,-544.232 521.094,-552.666 548.924,-559.755"/>
<polygon fill="black" stroke="black" points="548.553,-562.55 556.996,-561.811 549.935,-557.123 548.553,-562.55"/>
</g>
</g>
</svg>
