<?xml version="1.0" encoding="UTF-8" standalone="no"?>
<!DOCTYPE svg PUBLIC "-//W3C//DTD SVG 1.1//EN"
 "http://www.w3.org/Graphics/SVG/1.1/DTD/svg11.dtd">
<!-- Generated by graphviz version 2.38.0 (20140413.2041)
 -->
<!-- Pages: 1 -->
<svg width="1188pt" height="232pt"
 viewBox="0.00 0.00 1188.00 232.00" xmlns="http://www.w3.org/2000/svg" xmlns:xlink="http://www.w3.org/1999/xlink">
<g id="graph0" class="graph" transform="scale(1 1) rotate(0) translate(4 228)">
<polygon fill="white" stroke="none" points="-4,4 -4,-228 1184,-228 1184,4 -4,4"/>
<!-- top -->
<g id="node1" class="node"><title>top</title>
<path fill="none" stroke="black" d="M262,-119C262,-119 12,-119 12,-119 6,-119 0,-113 0,-107 0,-107 0,-95 0,-95 0,-89 6,-83 12,-83 12,-83 262,-83 262,-83 268,-83 274,-89 274,-95 274,-95 274,-107 274,-107 274,-113 268,-119 262,-119"/>
<text text-anchor="middle" x="137" y="-98.8" font-family="Verdana" font-size="9.00">Using Colors That Are Gradations Between Two Colors</text>
</g>
<!-- alpha_01 -->
<g id="node2" class="node"><title>alpha_01</title>
<polygon fill="lightblue" stroke="black" points="459,-144 326,-144 326,-108 459,-108 459,-144"/>
<text text-anchor="middle" x="392.5" y="-123.8" font-family="Verdana" font-size="9.00">Using the Alpha Channel</text>
</g>
<!-- top&#45;&gt;alpha_01 -->
<g id="edge1" class="edge"><title>top&#45;&gt;alpha_01</title>
<path fill="none" stroke="blue" d="M274.026,-114.415C289.048,-115.896 303.896,-117.361 317.719,-118.724"/>
<polygon fill="blue" stroke="blue" points="317.496,-121.515 325.732,-119.514 318.046,-115.942 317.496,-121.515"/>
<text text-anchor="middle" x="300" y="-120" font-family="MS UI Gothic" font-size="10.00" fill="blue">Yes</text>
</g>
<!-- reduce_04 -->
<g id="node7" class="node"><title>reduce_04</title>
<polygon fill="lightpink" stroke="black" points="451,-90 334,-90 334,-54 451,-54 451,-90"/>
<text text-anchor="middle" x="392.5" y="-69.8" font-family="Verdana" font-size="9.00">Decreasing Data Size</text>
</g>
<!-- top&#45;&gt;reduce_04 -->
<g id="edge13" class="edge"><title>top&#45;&gt;reduce_04</title>
<path fill="none" stroke="red" d="M274.026,-85.4388C291.93,-83.3907 309.585,-81.3709 325.553,-79.5442"/>
<polygon fill="red" stroke="red" points="326.112,-82.2986 333.742,-78.6074 325.476,-76.7349 326.112,-82.2986"/>
<text text-anchor="middle" x="300" y="-87" font-family="MS UI Gothic" font-size="10.00" fill="#ff0000">No</text>
</g>
<!-- same_01 -->
<g id="node3" class="node"><title>same_01</title>
<polygon fill="lightblue" stroke="black" points="845,-144 511,-144 511,-108 845,-108 845,-144"/>
<text text-anchor="middle" x="678" y="-123.8" font-family="Verdana" font-size="9.00">Using the Same RGB (Brightness) and Alpha Channels in the Image</text>
</g>
<!-- alpha_01&#45;&gt;same_01 -->
<g id="edge2" class="edge"><title>alpha_01&#45;&gt;same_01</title>
<path fill="none" stroke="blue" d="M459.253,-126C472.695,-126 487.431,-126 502.7,-126"/>
<polygon fill="blue" stroke="blue" points="502.729,-128.8 510.729,-126 502.729,-123.2 502.729,-128.8"/>
<text text-anchor="middle" x="485" y="-129" font-family="MS UI Gothic" font-size="10.00" fill="blue">Yes</text>
</g>
<!-- reduce_01 -->
<g id="node4" class="node"><title>reduce_01</title>
<polygon fill="lightpink" stroke="black" points="1014,-198 897,-198 897,-162 1014,-162 1014,-198"/>
<text text-anchor="middle" x="955.5" y="-177.8" font-family="Verdana" font-size="9.00">Decreasing Data Size</text>
</g>
<!-- alpha_01&#45;&gt;reduce_01 -->
<g id="edge8" class="edge"><title>alpha_01&#45;&gt;reduce_01</title>
<path fill="none" stroke="red" d="M459.013,-143.066C475.852,-146.897 494.013,-150.548 511,-153 644.132,-172.214 801.668,-177.78 888.593,-179.376"/>
<polygon fill="red" stroke="red" points="888.734,-182.179 896.781,-179.518 888.831,-176.579 888.734,-182.179"/>
<text text-anchor="middle" x="678" y="-181" font-family="MS UI Gothic" font-size="10.00" fill="#ff0000">No</text>
</g>
<!-- reduce_02 -->
<g id="node5" class="node"><title>reduce_02</title>
<polygon fill="lightblue" stroke="black" points="1014,-144 897,-144 897,-108 1014,-108 1014,-144"/>
<text text-anchor="middle" x="955.5" y="-123.8" font-family="Verdana" font-size="9.00">Decreasing Data Size</text>
</g>
<!-- same_01&#45;&gt;reduce_02 -->
<g id="edge4" class="edge"><title>same_01&#45;&gt;reduce_02</title>
<path fill="none" stroke="blue" d="M845.219,-126C860.465,-126 875.224,-126 888.704,-126"/>
<polygon fill="blue" stroke="blue" points="888.926,-128.8 896.926,-126 888.926,-123.2 888.926,-128.8"/>
<text text-anchor="middle" x="871" y="-129" font-family="MS UI Gothic" font-size="10.00" fill="blue">Yes</text>
</g>
<!-- reduce_03 -->
<g id="node6" class="node"><title>reduce_03</title>
<polygon fill="lightpink" stroke="black" points="1014,-90 897,-90 897,-54 1014,-54 1014,-90"/>
<text text-anchor="middle" x="955.5" y="-69.8" font-family="Verdana" font-size="9.00">Decreasing Data Size</text>
</g>
<!-- same_01&#45;&gt;reduce_03 -->
<g id="edge12" class="edge"><title>same_01&#45;&gt;reduce_03</title>
<path fill="none" stroke="red" d="M797.103,-107.991C813.235,-105.181 829.552,-102.156 845,-99 859.244,-96.0904 874.437,-92.5973 888.83,-89.104"/>
<polygon fill="red" stroke="red" points="889.629,-91.791 896.732,-87.1669 888.296,-86.352 889.629,-91.791"/>
<text text-anchor="middle" x="871" y="-98" font-family="MS UI Gothic" font-size="10.00" fill="#ff0000">No</text>
</g>
<!-- a_comp_01 -->
<g id="node8" class="node"><title>a_comp_01</title>
<polygon fill="lightyellow" stroke="blue" points="1171.5,-224 1068.5,-224 1068.5,-188 1177.5,-188 1177.5,-218 1171.5,-224"/>
<polyline fill="none" stroke="blue" points="1171.5,-224 1171.5,-218 "/>
<polyline fill="none" stroke="blue" points="1177.5,-218 1171.5,-218 "/>
<text text-anchor="middle" x="1123" y="-208.6" font-family="Verdana" font-size="8.00">Using vfx_L_comp</text>
<text text-anchor="middle" x="1123" y="-199.6" font-family="Verdana" font-size="8.00"> (Get Square of RGB)</text>
</g>
<!-- reduce_01&#45;&gt;a_comp_01 -->
<g id="edge3" class="edge"><title>reduce_01&#45;&gt;a_comp_01</title>
<path fill="none" stroke="blue" d="M1014.1,-192.815C1020.13,-193.974 1026.18,-195.062 1032,-196 1041,-197.451 1050.55,-198.757 1059.93,-199.911"/>
<polygon fill="blue" stroke="blue" points="1059.83,-202.719 1068.11,-200.885 1060.49,-197.158 1059.83,-202.719"/>
<text text-anchor="middle" x="1040" y="-201" font-family="MS UI Gothic" font-size="10.00" fill="blue">Yes</text>
</g>
<!-- a_01 -->
<g id="node9" class="node"><title>a_01</title>
<polygon fill="lightyellow" stroke="red" points="1171.5,-159 1068.5,-159 1068.5,-123 1177.5,-123 1177.5,-153 1171.5,-159"/>
<polyline fill="none" stroke="red" points="1171.5,-159 1171.5,-153 "/>
<polyline fill="none" stroke="red" points="1177.5,-153 1171.5,-153 "/>
<text text-anchor="middle" x="1123" y="-143.6" font-family="Verdana" font-size="8.00">Using vfx_L</text>
<text text-anchor="middle" x="1123" y="-134.6" font-family="Verdana" font-size="8.00"> (Get Square of RGB)</text>
</g>
<!-- reduce_01&#45;&gt;a_01 -->
<g id="edge9" class="edge"><title>reduce_01&#45;&gt;a_01</title>
<path fill="none" stroke="red" d="M997.823,-161.944C1008.76,-157.773 1020.68,-153.755 1032,-151 1041.07,-148.793 1050.77,-147.072 1060.33,-145.73"/>
<polygon fill="red" stroke="red" points="1060.73,-148.501 1068.31,-144.689 1060.01,-142.948 1060.73,-148.501"/>
<text text-anchor="middle" x="1040" y="-154" font-family="MS UI Gothic" font-size="10.00" fill="#ff0000">No</text>
</g>
<!-- reduce_02&#45;&gt;a_comp_01 -->
<g id="edge5" class="edge"><title>reduce_02&#45;&gt;a_comp_01</title>
<path fill="none" stroke="blue" d="M995.224,-144.024C1001.51,-146.997 1007.95,-150.066 1014,-153 1022.05,-156.901 1023.98,-158.036 1032,-162 1046.74,-169.286 1062.86,-177.191 1077.34,-184.263"/>
<polygon fill="blue" stroke="blue" points="1076.33,-186.885 1084.74,-187.878 1078.78,-181.852 1076.33,-186.885"/>
<text text-anchor="middle" x="1040" y="-172" font-family="MS UI Gothic" font-size="10.00" fill="blue">Yes</text>
</g>
<!-- reduce_02&#45;&gt;a_01 -->
<g id="edge10" class="edge"><title>reduce_02&#45;&gt;a_01</title>
<path fill="none" stroke="red" d="M1014.23,-115.856C1025.46,-115.141 1037.12,-115.28 1048,-117 1053.78,-117.914 1059.72,-119.205 1065.6,-120.72"/>
<polygon fill="red" stroke="red" points="1065.11,-123.49 1073.57,-122.911 1066.6,-118.09 1065.11,-123.49"/>
<text text-anchor="middle" x="1040" y="-120" font-family="MS UI Gothic" font-size="10.00" fill="#ff0000">No</text>
</g>
<!-- la_comp_01 -->
<g id="node10" class="node"><title>la_comp_01</title>
<polygon fill="lightyellow" stroke="blue" points="1174,-97 1066,-97 1066,-61 1180,-61 1180,-91 1174,-97"/>
<polyline fill="none" stroke="blue" points="1174,-97 1174,-91 "/>
<polyline fill="none" stroke="blue" points="1180,-91 1174,-91 "/>
<text text-anchor="middle" x="1123" y="-81.8" font-family="Verdana" font-size="9.00">Using vfx_LA_comp</text>
<text text-anchor="middle" x="1123" y="-71.8" font-family="Verdana" font-size="9.00"> (Get Square of RGB)</text>
</g>
<!-- reduce_03&#45;&gt;la_comp_01 -->
<g id="edge6" class="edge"><title>reduce_03&#45;&gt;la_comp_01</title>
<path fill="none" stroke="blue" d="M1014.38,-74.4483C1028.33,-75.0382 1043.32,-75.6721 1057.55,-76.2738"/>
<polygon fill="blue" stroke="blue" points="1057.71,-79.0832 1065.82,-76.6239 1057.95,-73.4882 1057.71,-79.0832"/>
<text text-anchor="middle" x="1040" y="-79" font-family="MS UI Gothic" font-size="10.00" fill="blue">Yes</text>
</g>
<!-- la_01 -->
<g id="node11" class="node"><title>la_01</title>
<polygon fill="lightyellow" stroke="red" points="1174,-43 1066,-43 1066,-7 1180,-7 1180,-37 1174,-43"/>
<polyline fill="none" stroke="red" points="1174,-43 1174,-37 "/>
<polyline fill="none" stroke="red" points="1180,-37 1174,-37 "/>
<text text-anchor="middle" x="1123" y="-27.8" font-family="Verdana" font-size="9.00">Using vfx_LA</text>
<text text-anchor="middle" x="1123" y="-17.8" font-family="Verdana" font-size="9.00"> (Get Square of RGB)</text>
</g>
<!-- reduce_03&#45;&gt;la_01 -->
<g id="edge11" class="edge"><title>reduce_03&#45;&gt;la_01</title>
<path fill="none" stroke="red" d="M1014.38,-55.5617C1028.46,-51.5636 1043.6,-47.265 1057.94,-43.191"/>
<polygon fill="red" stroke="red" points="1058.89,-45.8331 1065.82,-40.9541 1057.36,-40.4461 1058.89,-45.8331"/>
<text text-anchor="middle" x="1040" y="-53" font-family="MS UI Gothic" font-size="10.00" fill="#ff0000">No</text>
</g>
<!-- rgba_comp_01 -->
<g id="node12" class="node"><title>rgba_comp_01</title>
<polygon fill="lightyellow" stroke="blue" points="728,-90 622,-90 622,-54 734,-54 734,-84 728,-90"/>
<polyline fill="none" stroke="blue" points="728,-90 728,-84 "/>
<polyline fill="none" stroke="blue" points="734,-84 728,-84 "/>
<text text-anchor="middle" x="678" y="-69.8" font-family="Verdana" font-size="9.00">vfx_linr_RGBA_comp</text>
</g>
<!-- reduce_04&#45;&gt;rgba_comp_01 -->
<g id="edge7" class="edge"><title>reduce_04&#45;&gt;rgba_comp_01</title>
<path fill="none" stroke="blue" d="M451.212,-72C498.349,-72 564.891,-72 613.525,-72"/>
<polygon fill="blue" stroke="blue" points="613.779,-74.8001 621.779,-72 613.779,-69.2001 613.779,-74.8001"/>
<text text-anchor="middle" x="485" y="-75" font-family="MS UI Gothic" font-size="10.00" fill="blue">Yes</text>
</g>
<!-- rgba_01 -->
<g id="node13" class="node"><title>rgba_01</title>
<polygon fill="lightyellow" stroke="red" points="712.5,-36 637.5,-36 637.5,-0 718.5,-0 718.5,-30 712.5,-36"/>
<polyline fill="none" stroke="red" points="712.5,-36 712.5,-30 "/>
<polyline fill="none" stroke="red" points="718.5,-30 712.5,-30 "/>
<text text-anchor="middle" x="678" y="-15.8" font-family="Verdana" font-size="9.00">vfx_linr_RGBA</text>
</g>
<!-- reduce_04&#45;&gt;rgba_01 -->
<g id="edge14" class="edge"><title>reduce_04&#45;&gt;rgba_01</title>
<path fill="none" stroke="red" d="M451.013,-58.0027C470.052,-53.5785 491.384,-48.8448 511,-45 550.622,-37.2339 595.874,-29.9798 629.113,-24.9505"/>
<polygon fill="red" stroke="red" points="629.799,-27.6789 637.294,-23.7209 628.967,-22.1411 629.799,-27.6789"/>
<text text-anchor="middle" x="485" y="-55" font-family="MS UI Gothic" font-size="10.00" fill="#ff0000">No</text>
</g>
</g>
</svg>
