<?xml version="1.0" encoding="UTF-8" standalone="no"?>
<!DOCTYPE svg PUBLIC "-//W3C//DTD SVG 1.1//EN"
 "http://www.w3.org/Graphics/SVG/1.1/DTD/svg11.dtd">
<!-- Generated by graphviz version 2.38.0 (20140413.2041)
 -->
<!-- Pages: 1 -->
<svg width="1152pt" height="232pt"
 viewBox="0.00 0.00 1152.00 232.00" xmlns="http://www.w3.org/2000/svg" xmlns:xlink="http://www.w3.org/1999/xlink">
<g id="graph0" class="graph" transform="scale(1 1) rotate(0) translate(4 228)">
<polygon fill="white" stroke="none" points="-4,4 -4,-228 1148,-228 1148,4 -4,4"/>
<!-- top -->
<g id="node1" class="node"><title>top</title>
<path fill="none" stroke="black" d="M262,-119C262,-119 12,-119 12,-119 6,-119 0,-113 0,-107 0,-107 0,-95 0,-95 0,-89 6,-83 12,-83 12,-83 262,-83 262,-83 268,-83 274,-89 274,-95 274,-95 274,-107 274,-107 274,-113 268,-119 262,-119"/>
<text text-anchor="middle" x="137" y="-98.8" font-family="Verdana" font-size="9.00">Using Colors That Are Gradations Between Two Colors</text>
</g>
<!-- alpha_01 -->
<g id="node2" class="node"><title>alpha_01</title>
<polygon fill="lightblue" stroke="black" points="459,-144 326,-144 326,-108 459,-108 459,-144"/>
<text text-anchor="middle" x="392.5" y="-123.8" font-family="Verdana" font-size="9.00">Using the Alpha Channel</text>
</g>
<!-- top&#45;&gt;alpha_01 -->
<g id="edge1" class="edge"><title>top&#45;&gt;alpha_01</title>
<path fill="none" stroke="blue" d="M274.026,-114.415C289.048,-115.896 303.896,-117.361 317.719,-118.724"/>
<polygon fill="blue" stroke="blue" points="317.496,-121.515 325.732,-119.514 318.046,-115.942 317.496,-121.515"/>
<text text-anchor="middle" x="300" y="-120" font-family="MS UI Gothic" font-size="10.00" fill="blue">Yes</text>
</g>
<!-- reduce_04 -->
<g id="node7" class="node"><title>reduce_04</title>
<polygon fill="lightpink" stroke="black" points="451,-90 334,-90 334,-54 451,-54 451,-90"/>
<text text-anchor="middle" x="392.5" y="-69.8" font-family="Verdana" font-size="9.00">Decreasing Data Size</text>
</g>
<!-- top&#45;&gt;reduce_04 -->
<g id="edge13" class="edge"><title>top&#45;&gt;reduce_04</title>
<path fill="none" stroke="red" d="M274.026,-85.4388C291.93,-83.3907 309.585,-81.3709 325.553,-79.5442"/>
<polygon fill="red" stroke="red" points="326.112,-82.2986 333.742,-78.6074 325.476,-76.7349 326.112,-82.2986"/>
<text text-anchor="middle" x="300" y="-87" font-family="MS UI Gothic" font-size="10.00" fill="#ff0000">No</text>
</g>
<!-- same_01 -->
<g id="node3" class="node"><title>same_01</title>
<polygon fill="lightblue" stroke="black" points="845,-144 511,-144 511,-108 845,-108 845,-144"/>
<text text-anchor="middle" x="678" y="-123.8" font-family="Verdana" font-size="9.00">Using the Same RGB (Brightness) and Alpha Channels in the Image</text>
</g>
<!-- alpha_01&#45;&gt;same_01 -->
<g id="edge2" class="edge"><title>alpha_01&#45;&gt;same_01</title>
<path fill="none" stroke="blue" d="M459.253,-126C472.695,-126 487.431,-126 502.7,-126"/>
<polygon fill="blue" stroke="blue" points="502.729,-128.8 510.729,-126 502.729,-123.2 502.729,-128.8"/>
<text text-anchor="middle" x="485" y="-129" font-family="MS UI Gothic" font-size="10.00" fill="blue">Yes</text>
</g>
<!-- reduce_01 -->
<g id="node4" class="node"><title>reduce_01</title>
<polygon fill="lightpink" stroke="black" points="1014,-198 897,-198 897,-162 1014,-162 1014,-198"/>
<text text-anchor="middle" x="955.5" y="-177.8" font-family="Verdana" font-size="9.00">Decreasing Data Size</text>
</g>
<!-- alpha_01&#45;&gt;reduce_01 -->
<g id="edge8" class="edge"><title>alpha_01&#45;&gt;reduce_01</title>
<path fill="none" stroke="red" d="M459.013,-143.066C475.852,-146.897 494.013,-150.548 511,-153 644.132,-172.214 801.668,-177.78 888.593,-179.376"/>
<polygon fill="red" stroke="red" points="888.734,-182.179 896.781,-179.518 888.831,-176.579 888.734,-182.179"/>
<text text-anchor="middle" x="678" y="-181" font-family="MS UI Gothic" font-size="10.00" fill="#ff0000">No</text>
</g>
<!-- reduce_02 -->
<g id="node5" class="node"><title>reduce_02</title>
<polygon fill="lightblue" stroke="black" points="1014,-144 897,-144 897,-108 1014,-108 1014,-144"/>
<text text-anchor="middle" x="955.5" y="-123.8" font-family="Verdana" font-size="9.00">Decreasing Data Size</text>
</g>
<!-- same_01&#45;&gt;reduce_02 -->
<g id="edge4" class="edge"><title>same_01&#45;&gt;reduce_02</title>
<path fill="none" stroke="blue" d="M845.219,-126C860.465,-126 875.224,-126 888.704,-126"/>
<polygon fill="blue" stroke="blue" points="888.926,-128.8 896.926,-126 888.926,-123.2 888.926,-128.8"/>
<text text-anchor="middle" x="871" y="-129" font-family="MS UI Gothic" font-size="10.00" fill="blue">Yes</text>
</g>
<!-- reduce_03 -->
<g id="node6" class="node"><title>reduce_03</title>
<polygon fill="lightpink" stroke="black" points="1014,-90 897,-90 897,-54 1014,-54 1014,-90"/>
<text text-anchor="middle" x="955.5" y="-69.8" font-family="Verdana" font-size="9.00">Decreasing Data Size</text>
</g>
<!-- same_01&#45;&gt;reduce_03 -->
<g id="edge12" class="edge"><title>same_01&#45;&gt;reduce_03</title>
<path fill="none" stroke="red" d="M797.103,-107.991C813.235,-105.181 829.552,-102.156 845,-99 859.244,-96.0904 874.437,-92.5973 888.83,-89.104"/>
<polygon fill="red" stroke="red" points="889.629,-91.791 896.732,-87.1669 888.296,-86.352 889.629,-91.791"/>
<text text-anchor="middle" x="871" y="-98" font-family="MS UI Gothic" font-size="10.00" fill="#ff0000">No</text>
</g>
<!-- a_comp_01 -->
<g id="node8" class="node"><title>a_comp_01</title>
<polygon fill="lightyellow" stroke="blue" points="1133,-224 1071,-224 1071,-188 1139,-188 1139,-218 1133,-224"/>
<polyline fill="none" stroke="blue" points="1133,-224 1133,-218 "/>
<polyline fill="none" stroke="blue" points="1139,-218 1133,-218 "/>
<text text-anchor="middle" x="1105" y="-204.1" font-family="Verdana" font-size="8.00">vfx_L_comp</text>
</g>
<!-- reduce_01&#45;&gt;a_comp_01 -->
<g id="edge3" class="edge"><title>reduce_01&#45;&gt;a_comp_01</title>
<path fill="none" stroke="blue" d="M1014.13,-192.652C1020.15,-193.843 1026.19,-194.983 1032,-196 1042,-197.753 1052.84,-199.392 1062.98,-200.815"/>
<polygon fill="blue" stroke="blue" points="1062.64,-203.594 1070.95,-201.909 1063.4,-198.046 1062.64,-203.594"/>
<text text-anchor="middle" x="1040" y="-201" font-family="MS UI Gothic" font-size="10.00" fill="blue">Yes</text>
</g>
<!-- a_01 -->
<g id="node9" class="node"><title>a_01</title>
<polygon fill="lightyellow" stroke="red" points="1126,-159 1078,-159 1078,-123 1132,-123 1132,-153 1126,-159"/>
<polyline fill="none" stroke="red" points="1126,-159 1126,-153 "/>
<polyline fill="none" stroke="red" points="1132,-153 1126,-153 "/>
<text text-anchor="middle" x="1105" y="-139.1" font-family="Verdana" font-size="8.00">vfx_L</text>
</g>
<!-- reduce_01&#45;&gt;a_01 -->
<g id="edge9" class="edge"><title>reduce_01&#45;&gt;a_01</title>
<path fill="none" stroke="red" d="M998.668,-161.854C1009.38,-157.786 1020.99,-153.84 1032,-151 1044.11,-147.876 1057.64,-145.672 1069.67,-144.144"/>
<polygon fill="red" stroke="red" points="1070.11,-146.912 1077.72,-143.191 1069.45,-141.351 1070.11,-146.912"/>
<text text-anchor="middle" x="1040" y="-154" font-family="MS UI Gothic" font-size="10.00" fill="#ff0000">No</text>
</g>
<!-- reduce_02&#45;&gt;a_comp_01 -->
<g id="edge5" class="edge"><title>reduce_02&#45;&gt;a_comp_01</title>
<path fill="none" stroke="blue" d="M996.331,-144.112C1002.3,-146.996 1008.34,-150.014 1014,-153 1031.94,-162.468 1051.39,-173.782 1067.6,-183.52"/>
<polygon fill="blue" stroke="blue" points="1066.51,-186.132 1074.8,-187.872 1069.4,-181.338 1066.51,-186.132"/>
<text text-anchor="middle" x="1040" y="-174" font-family="MS UI Gothic" font-size="10.00" fill="blue">Yes</text>
</g>
<!-- reduce_02&#45;&gt;a_01 -->
<g id="edge10" class="edge"><title>reduce_02&#45;&gt;a_01</title>
<path fill="none" stroke="red" d="M1014.37,-115.064C1025.59,-114.419 1037.21,-114.785 1048,-117 1055.46,-118.531 1063.15,-121.097 1070.35,-123.997"/>
<polygon fill="red" stroke="red" points="1069.48,-126.672 1077.94,-127.24 1071.68,-121.522 1069.48,-126.672"/>
<text text-anchor="middle" x="1040" y="-120" font-family="MS UI Gothic" font-size="10.00" fill="#ff0000">No</text>
</g>
<!-- la_comp_01 -->
<g id="node10" class="node"><title>la_comp_01</title>
<polygon fill="lightyellow" stroke="blue" points="1138,-97 1066,-97 1066,-61 1144,-61 1144,-91 1138,-97"/>
<polyline fill="none" stroke="blue" points="1138,-97 1138,-91 "/>
<polyline fill="none" stroke="blue" points="1144,-91 1138,-91 "/>
<text text-anchor="middle" x="1105" y="-76.8" font-family="Verdana" font-size="9.00">vfx_LA_comp</text>
</g>
<!-- reduce_03&#45;&gt;la_comp_01 -->
<g id="edge6" class="edge"><title>reduce_03&#45;&gt;la_comp_01</title>
<path fill="none" stroke="blue" d="M1014.37,-74.7465C1028.68,-75.4253 1043.82,-76.1438 1057.5,-76.7932"/>
<polygon fill="blue" stroke="blue" points="1057.69,-79.6051 1065.81,-77.1876 1057.95,-74.0114 1057.69,-79.6051"/>
<text text-anchor="middle" x="1040" y="-80" font-family="MS UI Gothic" font-size="10.00" fill="blue">Yes</text>
</g>
<!-- la_01 -->
<g id="node11" class="node"><title>la_01</title>
<polygon fill="lightyellow" stroke="red" points="1126,-43 1078,-43 1078,-7 1132,-7 1132,-37 1126,-43"/>
<polyline fill="none" stroke="red" points="1126,-43 1126,-37 "/>
<polyline fill="none" stroke="red" points="1132,-37 1126,-37 "/>
<text text-anchor="middle" x="1105" y="-22.8" font-family="Verdana" font-size="9.00">vfx_LA</text>
</g>
<!-- reduce_03&#45;&gt;la_01 -->
<g id="edge11" class="edge"><title>reduce_03&#45;&gt;la_01</title>
<path fill="none" stroke="red" d="M1013.11,-53.963C1032.24,-47.8674 1052.99,-41.2526 1069.84,-35.8855"/>
<polygon fill="red" stroke="red" points="1071,-38.4554 1077.77,-33.3586 1069.3,-33.1197 1071,-38.4554"/>
<text text-anchor="middle" x="1040" y="-51" font-family="MS UI Gothic" font-size="10.00" fill="#ff0000">No</text>
</g>
<!-- rgba_comp_01 -->
<g id="node12" class="node"><title>rgba_comp_01</title>
<polygon fill="lightyellow" stroke="blue" points="718,-90 632,-90 632,-54 724,-54 724,-84 718,-90"/>
<polyline fill="none" stroke="blue" points="718,-90 718,-84 "/>
<polyline fill="none" stroke="blue" points="724,-84 718,-84 "/>
<text text-anchor="middle" x="678" y="-69.8" font-family="Verdana" font-size="9.00">vfx_RGBA_comp</text>
</g>
<!-- reduce_04&#45;&gt;rgba_comp_01 -->
<g id="edge7" class="edge"><title>reduce_04&#45;&gt;rgba_comp_01</title>
<path fill="none" stroke="blue" d="M451.212,-72C501.716,-72 574.496,-72 623.659,-72"/>
<polygon fill="blue" stroke="blue" points="623.945,-74.8001 631.945,-72 623.945,-69.2001 623.945,-74.8001"/>
<text text-anchor="middle" x="485" y="-75" font-family="MS UI Gothic" font-size="10.00" fill="blue">Yes</text>
</g>
<!-- rgba_01 -->
<g id="node13" class="node"><title>rgba_01</title>
<polygon fill="lightyellow" stroke="red" points="702.5,-36 647.5,-36 647.5,-0 708.5,-0 708.5,-30 702.5,-36"/>
<polyline fill="none" stroke="red" points="702.5,-36 702.5,-30 "/>
<polyline fill="none" stroke="red" points="708.5,-30 702.5,-30 "/>
<text text-anchor="middle" x="678" y="-15.8" font-family="Verdana" font-size="9.00">vfx_RGBA</text>
</g>
<!-- reduce_04&#45;&gt;rgba_01 -->
<g id="edge14" class="edge"><title>reduce_04&#45;&gt;rgba_01</title>
<path fill="none" stroke="red" d="M451.013,-58.0027C470.052,-53.5785 491.384,-48.8448 511,-45 554.716,-36.4314 605.286,-28.4861 639.013,-23.4646"/>
<polygon fill="red" stroke="red" points="639.706,-26.1926 647.21,-22.2523 638.886,-20.6529 639.706,-26.1926"/>
<text text-anchor="middle" x="485" y="-55" font-family="MS UI Gothic" font-size="10.00" fill="#ff0000">No</text>
</g>
</g>
</svg>
