<?xml version="1.0" encoding="UTF-8" standalone="no"?>
<!DOCTYPE svg PUBLIC "-//W3C//DTD SVG 1.0//EN" "http://www.w3.org/TR/2001/PR-SVG-20010719/DTD/svg10.dtd">
<svg width="39cm" height="18cm" viewBox="35 24 763 355" xmlns="http://www.w3.org/2000/svg" xmlns:xlink="http://www.w3.org/1999/xlink">
  <g>
    <line style="fill: none; fill-opacity:0; stroke-width: 2; stroke: #000000" x1="100" y1="90" x2="785.264" y2="90"/>
    <polygon style="fill: #000000" points="792.764,90 782.764,95 785.264,90 782.764,85 "/>
    <polygon style="fill: none; fill-opacity:0; stroke-width: 2; stroke: #000000" points="792.764,90 782.764,95 785.264,90 782.764,85 "/>
  </g>
  <g>
    <line style="fill: none; fill-opacity:0; stroke-width: 2; stroke: #000000" x1="100" y1="200" x2="785.264" y2="200"/>
    <polygon style="fill: #000000" points="792.764,200 782.764,205 785.264,200 782.764,195 "/>
    <polygon style="fill: none; fill-opacity:0; stroke-width: 2; stroke: #000000" points="792.764,200 782.764,205 785.264,200 782.764,195 "/>
  </g>
  <text font-size="12.8" style="fill: #000000;text-anchor:start;font-family:sans-serif;font-style:normal;font-weight:normal" x="65" y="95">
    <tspan x="65" y="95">CPU</tspan>
  </text>
  <text font-size="12.8" style="fill: #000000;text-anchor:start;font-family:sans-serif;font-style:normal;font-weight:normal" x="65" y="205">
    <tspan x="65" y="205">GPU</tspan>
  </text>
  <g>
    <rect style="fill: #214e7e" x="160" y="60" width="20" height="60"/>
    <rect style="fill: none; fill-opacity:0; stroke-width: 2; stroke: #000000" x="160" y="60" width="20" height="60"/>
    <text font-size="14.1111" style="fill: #ffffff;text-anchor:middle;font-family:Courier New;font-style:normal;font-weight:700" x="170" y="75.2917">
      <tspan x="170" y="75.2917"></tspan>
      <tspan x="170" y="92.9306">D</tspan>
      <tspan x="170" y="110.569">1</tspan>
    </text>
  </g>
  <g>
    <rect style="fill: #214e7e" x="200" y="60" width="20" height="60"/>
    <rect style="fill: none; fill-opacity:0; stroke-width: 2; stroke: #000000" x="200" y="60" width="20" height="60"/>
    <text font-size="14.1111" style="fill: #ffffff;text-anchor:middle;font-family:Courier New;font-style:normal;font-weight:700" x="210" y="75.2917">
      <tspan x="210" y="75.2917"></tspan>
      <tspan x="210" y="92.9306">D</tspan>
      <tspan x="210" y="110.569">2</tspan>
    </text>
  </g>
  <g>
    <rect style="fill: #214e7e" x="340" y="60" width="20" height="60"/>
    <rect style="fill: none; fill-opacity:0; stroke-width: 2; stroke: #000000" x="340" y="60" width="20" height="60"/>
    <text font-size="14.1111" style="fill: #ffffff;text-anchor:middle;font-family:Courier New;font-style:normal;font-weight:700" x="350" y="75.2917">
      <tspan x="350" y="75.2917"></tspan>
      <tspan x="350" y="92.9306">D</tspan>
      <tspan x="350" y="110.569">3</tspan>
    </text>
  </g>
  <g>
    <rect style="fill: #214e7e" x="520" y="60" width="20" height="60"/>
    <rect style="fill: none; fill-opacity:0; stroke-width: 2; stroke: #000000" x="520" y="60" width="20" height="60"/>
    <text font-size="14.1111" style="fill: #ffffff;text-anchor:middle;font-family:Courier New;font-style:normal;font-weight:700" x="530" y="75.2917">
      <tspan x="530" y="75.2917"></tspan>
      <tspan x="530" y="92.9306">D</tspan>
      <tspan x="530" y="110.569">4</tspan>
    </text>
  </g>
  <g>
    <rect style="fill: #214e7e" x="300" y="180" width="20" height="60"/>
    <rect style="fill: none; fill-opacity:0; stroke-width: 2; stroke: #000000" x="300" y="180" width="20" height="60"/>
    <text font-size="14.1111" style="fill: #ffffff;text-anchor:middle;font-family:Courier New;font-style:normal;font-weight:700" x="310" y="195.292">
      <tspan x="310" y="195.292"></tspan>
      <tspan x="310" y="212.931">D</tspan>
      <tspan x="310" y="230.569">2</tspan>
    </text>
  </g>
  <g>
    <rect style="fill: #214e7e" x="310" y="295" width="150" height="18.7"/>
    <rect style="fill: none; fill-opacity:0; stroke-width: 2; stroke: #000000" x="310" y="295" width="150" height="18.7"/>
    <text font-size="10.16" style="fill: #ffffff;text-anchor:middle;font-family:Courier New;font-style:normal;font-weight:700" x="385" y="306.45">
      <tspan x="385" y="306.45">Draw 2</tspan>
    </text>
  </g>
  <g>
    <rect style="fill: #214e7e" x="475" y="260" width="55" height="18.7"/>
    <rect style="fill: none; fill-opacity:0; stroke-width: 2; stroke: #000000" x="475" y="260" width="55" height="18.7"/>
    <text font-size="10.16" style="fill: #ffffff;text-anchor:middle;font-family:Courier New;font-style:normal;font-weight:700" x="502.5" y="271.45">
      <tspan x="502.5" y="271.45">Draw 3</tspan>
    </text>
  </g>
  <g>
    <rect style="fill: #214e7e" x="540" y="260" width="190" height="18.7"/>
    <rect style="fill: none; fill-opacity:0; stroke-width: 2; stroke: #000000" x="540" y="260" width="190" height="18.7"/>
    <text font-size="10.16" style="fill: #ffffff;text-anchor:middle;font-family:Courier New;font-style:normal;font-weight:700" x="635" y="271.45">
      <tspan x="635" y="271.45">Draw 4</tspan>
    </text>
  </g>
  <line style="fill: none; fill-opacity:0; stroke-width: 1.6; stroke: #000000" x1="170" y1="120" x2="270" y2="180"/>
  <line style="fill: none; fill-opacity:0; stroke-width: 1.6; stroke: #000000" x1="210" y1="120" x2="310" y2="180"/>
  <line style="fill: none; fill-opacity:0; stroke-width: 1.6; stroke: #000000" x1="350" y1="120" x2="475" y2="180"/>
  <line style="fill: none; fill-opacity:0; stroke-width: 1.6; stroke: #000000" x1="530" y1="120" x2="540" y2="180"/>
  <line style="fill: none; fill-opacity:0; stroke-width: 1.6; stroke: #000000" x1="270" y1="240" x2="270" y2="260"/>
  <line style="fill: none; fill-opacity:0; stroke-width: 1.6; stroke: #000000" x1="310" y1="240" x2="310" y2="295"/>
  <line style="fill: none; fill-opacity:0; stroke-width: 1.6; stroke: #000000" x1="475" y1="240" x2="475" y2="260"/>
  <line style="fill: none; fill-opacity:0; stroke-width: 2; stroke-dasharray: 4; stroke: #000000" x1="130" y1="25" x2="130" y2="150"/>
  <line style="fill: none; fill-opacity:0; stroke-width: 1.6; stroke: #000000" x1="540" y1="240" x2="540" y2="260"/>
  <g>
    <rect style="fill: #386500" x="120" y="60" width="20" height="60"/>
    <rect style="fill: none; fill-opacity:0; stroke-width: 2; stroke: #000000" x="120" y="60" width="20" height="60"/>
    <text font-size="14.1111" style="fill: #ffffff;text-anchor:middle;font-family:Courier New;font-style:normal;font-weight:700" x="130" y="75.2917">
      <tspan x="130" y="75.2917"></tspan>
      <tspan x="130" y="92.9306">R</tspan>
      <tspan x="130" y="110.569">1</tspan>
    </text>
  </g>
  <line style="fill: none; fill-opacity:0; stroke-width: 2; stroke-dasharray: 4; stroke: #000000" x1="250" y1="25" x2="250" y2="150"/>
  <line style="fill: none; fill-opacity:0; stroke-width: 2; stroke-dasharray: 4; stroke: #000000" x1="490" y1="30" x2="490" y2="150"/>
  <line style="fill: none; fill-opacity:0; stroke-width: 2; stroke-dasharray: 4; stroke: #000000" x1="570" y1="30" x2="570" y2="150"/>
  <g>
    <rect style="fill: #386500" x="240" y="60" width="20" height="60"/>
    <rect style="fill: none; fill-opacity:0; stroke-width: 2; stroke: #000000" x="240" y="60" width="20" height="60"/>
    <text font-size="14.1111" style="fill: #ffffff;text-anchor:middle;font-family:Courier New;font-style:normal;font-weight:700" x="250" y="75.2917">
      <tspan x="250" y="75.2917">/</tspan>
      <tspan x="250" y="92.9306">R</tspan>
      <tspan x="250" y="110.569">1</tspan>
    </text>
  </g>
  <g>
    <rect style="fill: #386500" x="300" y="60" width="20" height="60"/>
    <rect style="fill: none; fill-opacity:0; stroke-width: 2; stroke: #000000" x="300" y="60" width="20" height="60"/>
    <text font-size="14.1111" style="fill: #ffffff;text-anchor:middle;font-family:Courier New;font-style:normal;font-weight:700" x="310" y="75.2917">
      <tspan x="310" y="75.2917"></tspan>
      <tspan x="310" y="92.9306">R</tspan>
      <tspan x="310" y="110.569">2</tspan>
    </text>
  </g>
  <g>
    <rect style="fill: #386500" x="380" y="60" width="20" height="60"/>
    <rect style="fill: none; fill-opacity:0; stroke-width: 2; stroke: #000000" x="380" y="60" width="20" height="60"/>
    <text font-size="14.1111" style="fill: #ffffff;text-anchor:middle;font-family:Courier New;font-style:normal;font-weight:700" x="390" y="75.2917">
      <tspan x="390" y="75.2917">/</tspan>
      <tspan x="390" y="92.9306">R</tspan>
      <tspan x="390" y="110.569">2</tspan>
    </text>
  </g>
  <g>
    <rect style="fill: #386500" x="480" y="60" width="20" height="60"/>
    <rect style="fill: none; fill-opacity:0; stroke-width: 2; stroke: #000000" x="480" y="60" width="20" height="60"/>
    <text font-size="14.1111" style="fill: #ffffff;text-anchor:middle;font-family:Courier New;font-style:normal;font-weight:700" x="490" y="75.2917">
      <tspan x="490" y="75.2917"></tspan>
      <tspan x="490" y="92.9306">R</tspan>
      <tspan x="490" y="110.569">1</tspan>
    </text>
  </g>
  <g>
    <rect style="fill: #386500" x="560" y="60" width="20" height="60"/>
    <rect style="fill: none; fill-opacity:0; stroke-width: 2; stroke: #000000" x="560" y="60" width="20" height="60"/>
    <text font-size="14.1111" style="fill: #ffffff;text-anchor:middle;font-family:Courier New;font-style:normal;font-weight:700" x="570" y="75.2917">
      <tspan x="570" y="75.2917">/</tspan>
      <tspan x="570" y="92.9306">R</tspan>
      <tspan x="570" y="110.569">1</tspan>
    </text>
  </g>
  <line style="fill: none; fill-opacity:0; stroke-width: 2; stroke-dasharray: 4; stroke: #000000" x1="270" y1="160" x2="270" y2="350"/>
  <line style="fill: none; fill-opacity:0; stroke-width: 2; stroke-dasharray: 4; stroke: #000000" x1="460" y1="160" x2="460" y2="350"/>
  <line style="fill: none; fill-opacity:0; stroke-width: 2; stroke-dasharray: 4; stroke: #000000" x1="540" y1="160" x2="540" y2="350"/>
  <line style="fill: none; fill-opacity:0; stroke-width: 2; stroke-dasharray: 4; stroke: #000000" x1="730" y1="160" x2="730" y2="350"/>
  <g>
    <rect style="fill: #214e7e" x="260" y="180" width="20" height="60"/>
    <rect style="fill: none; fill-opacity:0; stroke-width: 2; stroke: #000000" x="260" y="180" width="20" height="60"/>
    <text font-size="14.1111" style="fill: #ffffff;text-anchor:middle;font-family:Courier New;font-style:normal;font-weight:700" x="270" y="195.292">
      <tspan x="270" y="195.292"></tspan>
      <tspan x="270" y="212.931">D</tspan>
      <tspan x="270" y="230.569">1</tspan>
    </text>
  </g>
  <g>
    <rect style="fill: #214e7e" x="530" y="180" width="20" height="60"/>
    <rect style="fill: none; fill-opacity:0; stroke-width: 2; stroke: #000000" x="530" y="180" width="20" height="60"/>
    <text font-size="14.1111" style="fill: #ffffff;text-anchor:middle;font-family:Courier New;font-style:normal;font-weight:700" x="540" y="195.292">
      <tspan x="540" y="195.292"></tspan>
      <tspan x="540" y="212.931">D</tspan>
      <tspan x="540" y="230.569">4</tspan>
    </text>
  </g>
  <g>
    <rect style="fill: #214e7e" x="465" y="180" width="20" height="60"/>
    <rect style="fill: none; fill-opacity:0; stroke-width: 2; stroke: #000000" x="465" y="180" width="20" height="60"/>
    <text font-size="14.1111" style="fill: #ffffff;text-anchor:middle;font-family:Courier New;font-style:normal;font-weight:700" x="475" y="195.292">
      <tspan x="475" y="195.292"></tspan>
      <tspan x="475" y="212.931">D</tspan>
      <tspan x="475" y="230.569">3</tspan>
    </text>
  </g>
  <g>
    <rect style="fill: #214e7e" x="270" y="260" width="100" height="18.7"/>
    <rect style="fill: none; fill-opacity:0; stroke-width: 2; stroke: #000000" x="270" y="260" width="100" height="18.7"/>
    <text font-size="10.16" style="fill: #ffffff;text-anchor:middle;font-family:Courier New;font-style:normal;font-weight:700" x="320" y="271.45">
      <tspan x="320" y="271.45">Draw 1</tspan>
    </text>
  </g>
  <text font-size="10.16" style="fill: #000000;text-anchor:start;font-family:sans-serif;font-style:normal;font-weight:normal" x="275" y="330">
    <tspan x="275" y="330">gpu__time_start</tspan>
  </text>
  <text font-size="10.16" style="fill: #000000;text-anchor:start;font-family:sans-serif;font-style:normal;font-weight:normal" x="655" y="330">
    <tspan x="655" y="330">gpu__time_end</tspan>
  </text>
  <g>
    <rect style="fill: #a52a2a" x="270" y="335" width="190" height="15"/>
    <rect style="fill: none; fill-opacity:0; stroke-width: 1; stroke: #000000" x="270" y="335" width="190" height="15"/>
    <text font-size="8.46667" style="fill: #000000;text-anchor:middle;font-family:sans-serif;font-style:normal;font-weight:normal" x="365" y="345.658">
      <tspan x="365" y="345.658"></tspan>
    </text>
  </g>
  <g>
    <rect style="fill: #a52a2a" x="540" y="335" width="190" height="15"/>
    <rect style="fill: none; fill-opacity:0; stroke-width: 1; stroke: #000000" x="540" y="335" width="190" height="15"/>
    <text font-size="8.46667" style="fill: #000000;text-anchor:middle;font-family:sans-serif;font-style:normal;font-weight:normal" x="635" y="345.658">
      <tspan x="635" y="345.658"></tspan>
    </text>
  </g>
  <line style="fill: none; fill-opacity:0; stroke-width: 2; stroke-dasharray: 20 8 4 8; stroke: #000000" x1="460" y1="342.5" x2="540" y2="342.5"/>
  <g>
    <rect style="fill: #a52a2a" x="130" y="25" width="120" height="15"/>
    <rect style="fill: none; fill-opacity:0; stroke-width: 1; stroke: #000000" x="130" y="25" width="120" height="15"/>
    <text font-size="8.46667" style="fill: #000000;text-anchor:middle;font-family:sans-serif;font-style:normal;font-weight:normal" x="190" y="35.6583">
      <tspan x="190" y="35.6583"></tspan>
    </text>
  </g>
  <g>
    <rect style="fill: #a52a2a" x="490" y="25" width="80" height="15"/>
    <rect style="fill: none; fill-opacity:0; stroke-width: 1; stroke: #000000" x="490" y="25" width="80" height="15"/>
    <text font-size="8.46667" style="fill: #000000;text-anchor:middle;font-family:sans-serif;font-style:normal;font-weight:normal" x="530" y="35.6583">
      <tspan x="530" y="35.6583"></tspan>
    </text>
  </g>
  <line style="fill: none; fill-opacity:0; stroke-width: 2; stroke-dasharray: 20 8 4 8; stroke: #000000" x1="250" y1="32.5" x2="490" y2="32.5"/>
  <text font-size="10.16" style="fill: #000000;text-anchor:start;font-family:sans-serif;font-style:normal;font-weight:normal" x="35" y="35">
    <tspan x="35" y="35">cpu__time_duration</tspan>
  </text>
  <text font-size="10.16" style="fill: #000000;text-anchor:start;font-family:sans-serif;font-style:normal;font-weight:normal" x="175" y="345">
    <tspan x="175" y="345">gpu__time_duration</tspan>
  </text>
  <g>
    <rect style="fill: #a52a2a" x="270.22" y="363.452" width="190" height="15"/>
    <rect style="fill: none; fill-opacity:0; stroke-width: 1; stroke: #000000" x="270.22" y="363.452" width="190" height="15"/>
    <text font-size="8.46667" style="fill: #000000;text-anchor:middle;font-family:sans-serif;font-style:normal;font-weight:normal" x="365.22" y="374.11">
      <tspan x="365.22" y="374.11"></tspan>
    </text>
  </g>
  <g>
    <rect style="fill: #a52a2a" x="540.22" y="363.452" width="190" height="15"/>
    <rect style="fill: none; fill-opacity:0; stroke-width: 1; stroke: #000000" x="540.22" y="363.452" width="190" height="15"/>
    <text font-size="8.46667" style="fill: #000000;text-anchor:middle;font-family:sans-serif;font-style:normal;font-weight:normal" x="635.22" y="374.11">
      <tspan x="635.22" y="374.11"></tspan>
    </text>
  </g>
  <line style="fill: none; fill-opacity:0; stroke-width: 2; stroke-dasharray: 20 8 4 8; stroke: #000000" x1="460.22" y1="370.952" x2="540.22" y2="370.952"/>
  <text font-size="10.16" style="fill: #000000;text-anchor:start;font-family:sans-serif;font-style:normal;font-weight:normal" x="175.219" y="373.452">
    <tspan x="175.219" y="373.452">gpu__time_active</tspan>
  </text>
</svg>
