<?xml version="1.0" encoding="UTF-8" standalone="no"?>
<!DOCTYPE svg PUBLIC "-//W3C//DTD SVG 1.0//EN" "http://www.w3.org/TR/2001/PR-SVG-20010719/DTD/svg10.dtd">
<svg width="37cm" height="18cm" viewBox="65 18 733 359" xmlns="http://www.w3.org/2000/svg" xmlns:xlink="http://www.w3.org/1999/xlink">
  <line style="fill: none; fill-opacity:0; stroke-width: 2; stroke-dasharray: 4; stroke: #000000" x1="428.101" y1="159.844" x2="428.163" y2="375.797"/>
  <g>
    <line style="fill: none; fill-opacity:0; stroke-width: 2; stroke: #000000" x1="100" y1="90" x2="785.264" y2="90"/>
    <polygon style="fill: #000000" points="792.764,90 782.764,95 785.264,90 782.764,85 "/>
    <polygon style="fill: none; fill-opacity:0; stroke-width: 2; stroke: #000000" points="792.764,90 782.764,95 785.264,90 782.764,85 "/>
  </g>
  <g>
    <line style="fill: none; fill-opacity:0; stroke-width: 2; stroke: #000000" x1="100" y1="200" x2="785.264" y2="200"/>
    <polygon style="fill: #000000" points="792.764,200 782.764,205 785.264,200 782.764,195 "/>
    <polygon style="fill: none; fill-opacity:0; stroke-width: 2; stroke: #000000" points="792.764,200 782.764,205 785.264,200 782.764,195 "/>
  </g>
  <text font-size="12.8" style="fill: #000000;text-anchor:start;font-family:sans-serif;font-style:normal;font-weight:normal" x="65" y="95">
    <tspan x="65" y="95">CPU</tspan>
  </text>
  <text font-size="12.8" style="fill: #000000;text-anchor:start;font-family:sans-serif;font-style:normal;font-weight:normal" x="65" y="205">
    <tspan x="65" y="205">GPU</tspan>
  </text>
  <g>
    <rect style="fill: #214e7e" x="160" y="60" width="20" height="60"/>
    <rect style="fill: none; fill-opacity:0; stroke-width: 2; stroke: #000000" x="160" y="60" width="20" height="60"/>
    <text font-size="14.1111" style="fill: #ffffff;text-anchor:middle;font-family:Courier New;font-style:normal;font-weight:700" x="170" y="75.2917">
      <tspan x="170" y="75.2917"></tspan>
      <tspan x="170" y="92.9306">D</tspan>
      <tspan x="170" y="110.569">1</tspan>
    </text>
  </g>
  <g>
    <rect style="fill: #214e7e" x="200" y="60" width="20" height="60"/>
    <rect style="fill: none; fill-opacity:0; stroke-width: 2; stroke: #000000" x="200" y="60" width="20" height="60"/>
    <text font-size="14.1111" style="fill: #ffffff;text-anchor:middle;font-family:Courier New;font-style:normal;font-weight:700" x="210" y="75.2917">
      <tspan x="210" y="75.2917"></tspan>
      <tspan x="210" y="92.9306">D</tspan>
      <tspan x="210" y="110.569">2</tspan>
    </text>
  </g>
  <g>
    <rect style="fill: #214e7e" x="340" y="60" width="20" height="60"/>
    <rect style="fill: none; fill-opacity:0; stroke-width: 2; stroke: #000000" x="340" y="60" width="20" height="60"/>
    <text font-size="14.1111" style="fill: #ffffff;text-anchor:middle;font-family:Courier New;font-style:normal;font-weight:700" x="350" y="75.2917">
      <tspan x="350" y="75.2917"></tspan>
      <tspan x="350" y="92.9306">D</tspan>
      <tspan x="350" y="110.569">3</tspan>
    </text>
  </g>
  <g>
    <rect style="fill: #214e7e" x="520" y="60" width="20" height="60"/>
    <rect style="fill: none; fill-opacity:0; stroke-width: 2; stroke: #000000" x="520" y="60" width="20" height="60"/>
    <text font-size="14.1111" style="fill: #ffffff;text-anchor:middle;font-family:Courier New;font-style:normal;font-weight:700" x="530" y="75.2917">
      <tspan x="530" y="75.2917"></tspan>
      <tspan x="530" y="92.9306">D</tspan>
      <tspan x="530" y="110.569">4</tspan>
    </text>
  </g>
  <g>
    <rect style="fill: #214e7e" x="300" y="180" width="20" height="60"/>
    <rect style="fill: none; fill-opacity:0; stroke-width: 2; stroke: #000000" x="300" y="180" width="20" height="60"/>
    <text font-size="14.1111" style="fill: #ffffff;text-anchor:middle;font-family:Courier New;font-style:normal;font-weight:700" x="310" y="195.292">
      <tspan x="310" y="195.292"></tspan>
      <tspan x="310" y="212.931">D</tspan>
      <tspan x="310" y="230.569">2</tspan>
    </text>
  </g>
  <g>
    <rect style="fill: #214e7e" x="310" y="295" width="150" height="18.7"/>
    <rect style="fill: none; fill-opacity:0; stroke-width: 2; stroke: #000000" x="310" y="295" width="150" height="18.7"/>
    <text font-size="10.16" style="fill: #ffffff;text-anchor:middle;font-family:Courier New;font-style:normal;font-weight:700" x="385" y="306.45">
      <tspan x="385" y="306.45">Draw 2</tspan>
    </text>
  </g>
  <g>
    <rect style="fill: #214e7e" x="428.944" y="259.313" width="55" height="18.7"/>
    <rect style="fill: none; fill-opacity:0; stroke-width: 2; stroke: #000000" x="428.944" y="259.313" width="55" height="18.7"/>
    <text font-size="10.16" style="fill: #ffffff;text-anchor:middle;font-family:Courier New;font-style:normal;font-weight:700" x="456.444" y="270.763">
      <tspan x="456.444" y="270.763">Draw 3</tspan>
    </text>
  </g>
  <g>
    <rect style="fill: #214e7e" x="540" y="260" width="190" height="18.7"/>
    <rect style="fill: none; fill-opacity:0; stroke-width: 2; stroke: #000000" x="540" y="260" width="190" height="18.7"/>
    <text font-size="10.16" style="fill: #ffffff;text-anchor:middle;font-family:Courier New;font-style:normal;font-weight:700" x="635" y="271.45">
      <tspan x="635" y="271.45">Draw 4</tspan>
    </text>
  </g>
  <line style="fill: none; fill-opacity:0; stroke-width: 1.6; stroke: #000000" x1="170" y1="120" x2="270" y2="180"/>
  <line style="fill: none; fill-opacity:0; stroke-width: 1.6; stroke: #000000" x1="210" y1="120" x2="310" y2="180"/>
  <line style="fill: none; fill-opacity:0; stroke-width: 1.6; stroke: #000000" x1="350" y1="120" x2="428.944" y2="174.501"/>
  <line style="fill: none; fill-opacity:0; stroke-width: 1.6; stroke: #000000" x1="530" y1="120" x2="540" y2="180"/>
  <line style="fill: none; fill-opacity:0; stroke-width: 1.6; stroke: #000000" x1="270" y1="240" x2="270" y2="260"/>
  <line style="fill: none; fill-opacity:0; stroke-width: 1.6; stroke: #000000" x1="310" y1="240" x2="310" y2="295"/>
  <line style="fill: none; fill-opacity:0; stroke-width: 1.6; stroke: #000000" x1="428.944" y1="234.501" x2="428.944" y2="259.313"/>
  <line style="fill: none; fill-opacity:0; stroke-width: 2; stroke-dasharray: 4; stroke: #000000" x1="308.678" y1="19.6896" x2="308.431" y2="144.69"/>
  <line style="fill: none; fill-opacity:0; stroke-width: 1.6; stroke: #000000" x1="540" y1="240" x2="540" y2="260"/>
  <g>
    <rect style="fill: #386500" x="120" y="60" width="20" height="60"/>
    <rect style="fill: none; fill-opacity:0; stroke-width: 2; stroke: #000000" x="120" y="60" width="20" height="60"/>
    <text font-size="14.1111" style="fill: #ffffff;text-anchor:middle;font-family:Courier New;font-style:normal;font-weight:700" x="130" y="75.2917">
      <tspan x="130" y="75.2917"></tspan>
      <tspan x="130" y="92.9306">R</tspan>
      <tspan x="130" y="110.569">1</tspan>
    </text>
  </g>
  <line style="fill: none; fill-opacity:0; stroke-width: 2; stroke-dasharray: 4; stroke: #000000" x1="391.258" y1="27.1242" x2="391.258" y2="152.124"/>
  <g>
    <rect style="fill: #386500" x="240" y="60" width="20" height="60"/>
    <rect style="fill: none; fill-opacity:0; stroke-width: 2; stroke: #000000" x="240" y="60" width="20" height="60"/>
    <text font-size="14.1111" style="fill: #ffffff;text-anchor:middle;font-family:Courier New;font-style:normal;font-weight:700" x="250" y="75.2917">
      <tspan x="250" y="75.2917">/</tspan>
      <tspan x="250" y="92.9306">R</tspan>
      <tspan x="250" y="110.569">1</tspan>
    </text>
  </g>
  <g>
    <rect style="fill: #386500" x="300" y="60" width="20" height="60"/>
    <rect style="fill: none; fill-opacity:0; stroke-width: 2; stroke: #000000" x="300" y="60" width="20" height="60"/>
    <text font-size="14.1111" style="fill: #ffffff;text-anchor:middle;font-family:Courier New;font-style:normal;font-weight:700" x="310" y="75.2917">
      <tspan x="310" y="75.2917"></tspan>
      <tspan x="310" y="92.9306">R</tspan>
      <tspan x="310" y="110.569">2</tspan>
    </text>
  </g>
  <g>
    <rect style="fill: #386500" x="380" y="60" width="20" height="60"/>
    <rect style="fill: none; fill-opacity:0; stroke-width: 2; stroke: #000000" x="380" y="60" width="20" height="60"/>
    <text font-size="14.1111" style="fill: #ffffff;text-anchor:middle;font-family:Courier New;font-style:normal;font-weight:700" x="390" y="75.2917">
      <tspan x="390" y="75.2917">/</tspan>
      <tspan x="390" y="92.9306">R</tspan>
      <tspan x="390" y="110.569">2</tspan>
    </text>
  </g>
  <g>
    <rect style="fill: #386500" x="480" y="60" width="20" height="60"/>
    <rect style="fill: none; fill-opacity:0; stroke-width: 2; stroke: #000000" x="480" y="60" width="20" height="60"/>
    <text font-size="14.1111" style="fill: #ffffff;text-anchor:middle;font-family:Courier New;font-style:normal;font-weight:700" x="490" y="75.2917">
      <tspan x="490" y="75.2917"></tspan>
      <tspan x="490" y="92.9306">R</tspan>
      <tspan x="490" y="110.569">1</tspan>
    </text>
  </g>
  <g>
    <rect style="fill: #386500" x="560" y="60" width="20" height="60"/>
    <rect style="fill: none; fill-opacity:0; stroke-width: 2; stroke: #000000" x="560" y="60" width="20" height="60"/>
    <text font-size="14.1111" style="fill: #ffffff;text-anchor:middle;font-family:Courier New;font-style:normal;font-weight:700" x="570" y="75.2917">
      <tspan x="570" y="75.2917">/</tspan>
      <tspan x="570" y="92.9306">R</tspan>
      <tspan x="570" y="110.569">1</tspan>
    </text>
  </g>
  <line style="fill: none; fill-opacity:0; stroke-width: 2; stroke-dasharray: 4; stroke: #000000" x1="484.599" y1="160.687" x2="483.922" y2="375.797"/>
  <g>
    <rect style="fill: #214e7e" x="260" y="180" width="20" height="60"/>
    <rect style="fill: none; fill-opacity:0; stroke-width: 2; stroke: #000000" x="260" y="180" width="20" height="60"/>
    <text font-size="14.1111" style="fill: #ffffff;text-anchor:middle;font-family:Courier New;font-style:normal;font-weight:700" x="270" y="195.292">
      <tspan x="270" y="195.292"></tspan>
      <tspan x="270" y="212.931">D</tspan>
      <tspan x="270" y="230.569">1</tspan>
    </text>
  </g>
  <g>
    <rect style="fill: #214e7e" x="530" y="180" width="20" height="60"/>
    <rect style="fill: none; fill-opacity:0; stroke-width: 2; stroke: #000000" x="530" y="180" width="20" height="60"/>
    <text font-size="14.1111" style="fill: #ffffff;text-anchor:middle;font-family:Courier New;font-style:normal;font-weight:700" x="540" y="195.292">
      <tspan x="540" y="195.292"></tspan>
      <tspan x="540" y="212.931">D</tspan>
      <tspan x="540" y="230.569">4</tspan>
    </text>
  </g>
  <g>
    <rect style="fill: #214e7e" x="418.944" y="174.501" width="20" height="60"/>
    <rect style="fill: none; fill-opacity:0; stroke-width: 2; stroke: #000000" x="418.944" y="174.501" width="20" height="60"/>
    <text font-size="14.1111" style="fill: #ffffff;text-anchor:middle;font-family:Courier New;font-style:normal;font-weight:700" x="428.944" y="189.792">
      <tspan x="428.944" y="189.792"></tspan>
      <tspan x="428.944" y="207.431">D</tspan>
      <tspan x="428.944" y="225.07">3</tspan>
    </text>
  </g>
  <g>
    <rect style="fill: #214e7e" x="270" y="260" width="100" height="18.7"/>
    <rect style="fill: none; fill-opacity:0; stroke-width: 2; stroke: #000000" x="270" y="260" width="100" height="18.7"/>
    <text font-size="10.16" style="fill: #ffffff;text-anchor:middle;font-family:Courier New;font-style:normal;font-weight:700" x="320" y="271.45">
      <tspan x="320" y="271.45">Draw 1</tspan>
    </text>
  </g>
  <text font-size="10.16" style="fill: #000000;text-anchor:start;font-family:sans-serif;font-style:normal;font-weight:normal" x="347.753" y="328.938">
    <tspan x="347.753" y="328.938">gpu__time_start</tspan>
  </text>
  <text font-size="10.16" style="fill: #000000;text-anchor:start;font-family:sans-serif;font-style:normal;font-weight:normal" x="489.314" y="326.814">
    <tspan x="489.314" y="326.814">gpu__time_end</tspan>
  </text>
  <g>
    <rect style="fill: #a52a2a" x="460.556" y="335" width="23.3406" height="15"/>
    <rect style="fill: none; fill-opacity:0; stroke-width: 1; stroke: #000000" x="460.556" y="335" width="23.3406" height="15"/>
    <text font-size="8.46667" style="fill: #000000;text-anchor:middle;font-family:sans-serif;font-style:normal;font-weight:normal" x="472.227" y="345.658">
      <tspan x="472.227" y="345.658"></tspan>
    </text>
  </g>
  <g>
    <rect style="fill: #a52a2a" x="308.678" y="19.6896" width="82.5798" height="15"/>
    <rect style="fill: none; fill-opacity:0; stroke-width: 1; stroke: #000000" x="308.678" y="19.6896" width="82.5798" height="15"/>
    <text font-size="8.46667" style="fill: #000000;text-anchor:middle;font-family:sans-serif;font-style:normal;font-weight:normal" x="349.968" y="30.3479">
      <tspan x="349.968" y="30.3479"></tspan>
    </text>
  </g>
  <text font-size="10.16" style="fill: #000000;text-anchor:start;font-family:sans-serif;font-style:normal;font-weight:normal" x="211.307" y="29.1585">
    <tspan x="211.307" y="29.1585">cpu__time_duration</tspan>
  </text>
  <text font-size="10.16" style="fill: #000000;text-anchor:start;font-family:sans-serif;font-style:normal;font-weight:normal" x="330.596" y="347.124">
    <tspan x="330.596" y="347.124">gpu__time_duration</tspan>
  </text>
  <g>
    <rect style="fill: #a52a2a" x="428.163" y="360.797" width="55.7596" height="15"/>
    <rect style="fill: none; fill-opacity:0; stroke-width: 1; stroke: #000000" x="428.163" y="360.797" width="55.7596" height="15"/>
    <text font-size="8.46667" style="fill: #000000;text-anchor:middle;font-family:sans-serif;font-style:normal;font-weight:normal" x="456.042" y="371.456">
      <tspan x="456.042" y="371.456"></tspan>
    </text>
  </g>
  <text font-size="10.16" style="fill: #000000;text-anchor:start;font-family:sans-serif;font-style:normal;font-weight:normal" x="329.753" y="370.797">
    <tspan x="329.753" y="370.797">gpu__time_active</tspan>
  </text>
  <line style="fill: none; fill-opacity:0; stroke-width: 2; stroke-dasharray: 4; stroke: #000000" x1="460" y1="295" x2="460.556" y2="350"/>
</svg>
