<?xml version="1.0" encoding="UTF-8" standalone="no"?>
<!DOCTYPE svg PUBLIC "-//W3C//DTD SVG 1.1//EN"
 "http://www.w3.org/Graphics/SVG/1.1/DTD/svg11.dtd">
<!-- Generated by graphviz version 2.38.0 (20140413.2041)
 -->
<!-- Pages: 1 -->
<svg width="602pt" height="883pt"
 viewBox="0.00 0.00 602.00 883.00" xmlns="http://www.w3.org/2000/svg" xmlns:xlink="http://www.w3.org/1999/xlink">
<g id="graph0" class="graph" transform="scale(1 1) rotate(0) translate(4 879)">
<polygon fill="white" stroke="none" points="-4,4 -4,-879 598,-879 598,4 -4,4"/>
<g id="clust2" class="cluster"><title>cluster_gf</title>
<path fill="none" stroke="red" d="M230,-359C230,-359 418,-359 418,-359 424,-359 430,-365 430,-371 430,-371 430,-503 430,-503 430,-509 424,-515 418,-515 418,-515 230,-515 230,-515 224,-515 218,-509 218,-503 218,-503 218,-371 218,-371 218,-365 224,-359 230,-359"/>
<text text-anchor="middle" x="324" y="-501.4" font-family="Times New Roman,serif" font-size="12.00" fill="red">Editing Child Materials</text>
</g>
<g id="clust1" class="cluster"><title>cluster_gf3</title>
<path fill="none" stroke="red" d="M20,-442C20,-442 198,-442 198,-442 204,-442 210,-448 210,-454 210,-454 210,-790 210,-790 210,-796 204,-802 198,-802 198,-802 20,-802 20,-802 14,-802 8,-796 8,-790 8,-790 8,-454 8,-454 8,-448 14,-442 20,-442"/>
<text text-anchor="middle" x="109" y="-788.4" font-family="Times New Roman,serif" font-size="12.00" fill="red">Material Referencing Settings</text>
</g>
<g id="clust3" class="cluster"><title>cluster_gf4</title>
<path fill="none" stroke="red" d="M265,-544C265,-544 417,-544 417,-544 423,-544 429,-550 429,-556 429,-556 429,-688 429,-688 429,-694 423,-700 417,-700 417,-700 265,-700 265,-700 259,-700 253,-694 253,-688 253,-688 253,-556 253,-556 253,-550 259,-544 265,-544"/>
<text text-anchor="middle" x="341" y="-686.4" font-family="Times New Roman,serif" font-size="12.00" fill="red">Creating Parent Materials</text>
</g>
<g id="clust4" class="cluster"><title>cluster_gf2</title>
<path fill="none" stroke="red" d="M272,-8C272,-8 574,-8 574,-8 580,-8 586,-14 586,-20 586,-20 586,-318 586,-318 586,-324 580,-330 574,-330 574,-330 272,-330 272,-330 266,-330 260,-324 260,-318 260,-318 260,-20 260,-20 260,-14 266,-8 272,-8"/>
<text text-anchor="middle" x="423" y="-316.4" font-family="Times New Roman,serif" font-size="12.00" fill="red">Converting to Binary Resources</text>
</g>
<!-- BaseModel -->
<g id="node1" class="node"><title>BaseModel</title>
<polygon fill="lightyellow" stroke="black" points="414.5,-588 261.5,-588 261.5,-552 420.5,-552 420.5,-582 414.5,-588"/>
<polyline fill="none" stroke="black" points="414.5,-588 414.5,-582 "/>
<polyline fill="none" stroke="black" points="420.5,-582 414.5,-582 "/>
<text text-anchor="middle" x="341" y="-572.8" font-family="Verdana" font-size="9.00">EnemyBase.fmdb</text>
<text text-anchor="middle" x="341" y="-562.8" font-family="Verdana" font-size="9.00">(Model with a Parent Material)</text>
</g>
<!-- AssignUtilityAssignParentMaterial -->
<g id="node8" class="node"><title>AssignUtilityAssignParentMaterial</title>
<path fill="none" stroke="black" d="M190,-486C190,-486 28,-486 28,-486 22,-486 16,-480 16,-474 16,-474 16,-462 16,-462 16,-456 22,-450 28,-450 28,-450 190,-450 190,-450 196,-450 202,-456 202,-462 202,-462 202,-474 202,-474 202,-480 196,-486 190,-486"/>
<text text-anchor="middle" x="109" y="-470.8" font-family="Verdana" font-size="9.00">Assign Utility</text>
<text text-anchor="middle" x="109" y="-460.8" font-family="Verdana" font-size="9.00">Parent Material Assignment Feature</text>
</g>
<!-- BaseModel&#45;&gt;AssignUtilityAssignParentMaterial -->
<g id="edge3" class="edge"><title>BaseModel&#45;&gt;AssignUtilityAssignParentMaterial</title>
<path fill="none" stroke="black" d="M300.628,-551.966C275.646,-541.393 242.926,-527.486 214,-515 194.814,-506.719 173.703,-497.492 155.473,-489.489"/>
<polygon fill="none" stroke="black" points="156.301,-486.795 147.851,-486.14 154.049,-491.922 156.301,-486.795"/>
<text text-anchor="middle" x="267" y="-526" font-family="Times New Roman,serif" font-size="10.00">Input</text>
</g>
<!-- AssignUtilityApplyParentMaterial -->
<g id="node9" class="node"><title>AssignUtilityApplyParentMaterial</title>
<path fill="none" stroke="black" d="M502,-301C502,-301 344,-301 344,-301 338,-301 332,-295 332,-289 332,-289 332,-277 332,-277 332,-271 338,-265 344,-265 344,-265 502,-265 502,-265 508,-265 514,-271 514,-277 514,-277 514,-289 514,-289 514,-295 508,-301 502,-301"/>
<text text-anchor="middle" x="423" y="-285.8" font-family="Verdana" font-size="9.00">Assign Utility</text>
<text text-anchor="middle" x="423" y="-275.8" font-family="Verdana" font-size="9.00">Parent Material Application Feature</text>
</g>
<!-- BaseModel&#45;&gt;AssignUtilityApplyParentMaterial -->
<g id="edge10" class="edge"><title>BaseModel&#45;&gt;AssignUtilityApplyParentMaterial</title>
<path fill="none" stroke="black" d="M391.158,-551.804C407.805,-543.429 424.499,-531.504 434,-515 472.093,-448.832 447.523,-353.502 432.367,-308.847"/>
<polygon fill="none" stroke="black" points="434.947,-307.744 429.663,-301.117 429.661,-309.592 434.947,-307.744"/>
<text text-anchor="middle" x="466" y="-424" font-family="Times New Roman,serif" font-size="10.00">Input</text>
</g>
<!-- ExportedModel -->
<g id="node2" class="node"><title>ExportedModel</title>
<polygon fill="lightyellow" stroke="black" points="188,-773 24,-773 24,-737 194,-737 194,-767 188,-773"/>
<polyline fill="none" stroke="black" points="188,-773 188,-767 "/>
<polyline fill="none" stroke="black" points="194,-767 188,-767 "/>
<text text-anchor="middle" x="109" y="-757.8" font-family="Verdana" font-size="9.00">Enemy.fmdb</text>
<text text-anchor="middle" x="109" y="-747.8" font-family="Verdana" font-size="9.00">(State Immediately After Export)</text>
</g>
<!-- AssignUtilityAssignShader -->
<g id="node7" class="node"><title>AssignUtilityAssignShader</title>
<path fill="none" stroke="black" d="M171,-671C171,-671 47,-671 47,-671 41,-671 35,-665 35,-659 35,-659 35,-647 35,-647 35,-641 41,-635 47,-635 47,-635 171,-635 171,-635 177,-635 183,-641 183,-647 183,-647 183,-659 183,-659 183,-665 177,-671 171,-671"/>
<text text-anchor="middle" x="109" y="-655.8" font-family="Verdana" font-size="9.00">Assign Utility</text>
<text text-anchor="middle" x="109" y="-645.8" font-family="Verdana" font-size="9.00">Shader Assignment Feature</text>
</g>
<!-- ExportedModel&#45;&gt;AssignUtilityAssignShader -->
<g id="edge1" class="edge"><title>ExportedModel&#45;&gt;AssignUtilityAssignShader</title>
<path fill="none" stroke="black" d="M109,-736.581C109,-720.808 109,-697.373 109,-679.492"/>
<polygon fill="none" stroke="black" points="111.8,-679.219 109,-671.219 106.2,-679.219 111.8,-679.219"/>
<text text-anchor="middle" x="120" y="-711" font-family="Times New Roman,serif" font-size="10.00">Input</text>
</g>
<!-- ShaderAssignedModel -->
<g id="node3" class="node"><title>ShaderAssignedModel</title>
<polygon fill="lightyellow" stroke="black" points="181.5,-588 30.5,-588 30.5,-552 187.5,-552 187.5,-582 181.5,-588"/>
<polyline fill="none" stroke="black" points="181.5,-588 181.5,-582 "/>
<polyline fill="none" stroke="black" points="187.5,-582 181.5,-582 "/>
<text text-anchor="middle" x="109" y="-572.8" font-family="Verdana" font-size="9.00">Enemy.fmdb</text>
<text text-anchor="middle" x="109" y="-562.8" font-family="Verdana" font-size="9.00">(State With Shader Assigned)</text>
</g>
<!-- ShaderAssignedModel&#45;&gt;AssignUtilityAssignParentMaterial -->
<g id="edge2" class="edge"><title>ShaderAssignedModel&#45;&gt;AssignUtilityAssignParentMaterial</title>
<path fill="none" stroke="black" d="M109,-551.581C109,-535.808 109,-512.373 109,-494.492"/>
<polygon fill="none" stroke="black" points="111.8,-494.219 109,-486.219 106.2,-494.219 111.8,-494.219"/>
<text text-anchor="middle" x="120" y="-526" font-family="Times New Roman,serif" font-size="10.00">Input</text>
</g>
<!-- Model -->
<g id="node4" class="node"><title>Model</title>
<polygon fill="lightyellow" stroke="black" points="415.5,-403 226.5,-403 226.5,-367 421.5,-367 421.5,-397 415.5,-403"/>
<polyline fill="none" stroke="black" points="415.5,-403 415.5,-397 "/>
<polyline fill="none" stroke="black" points="421.5,-397 415.5,-397 "/>
<text text-anchor="middle" x="324" y="-387.8" font-family="Verdana" font-size="9.00">Enemy.fmdb</text>
<text text-anchor="middle" x="324" y="-377.8" font-family="Verdana" font-size="9.00">(State With Parent Material Assigned)</text>
</g>
<!-- Model&#45;&gt;BaseModel -->
<g id="edge7" class="edge"><title>Model&#45;&gt;BaseModel</title>
<path fill="none" stroke="black" stroke-dasharray="5,2" d="M325.583,-403.037C328.59,-435.406 335.141,-505.931 338.658,-543.786"/>
<polygon fill="black" stroke="black" points="335.873,-544.077 339.401,-551.784 341.449,-543.559 335.873,-544.077"/>
<text text-anchor="middle" x="351.5" y="-465.5" font-family="Times New Roman,serif" font-size="10.00">Browse</text>
</g>
<!-- Model&#45;&gt;AssignUtilityApplyParentMaterial -->
<g id="edge11" class="edge"><title>Model&#45;&gt;AssignUtilityApplyParentMaterial</title>
<path fill="none" stroke="black" d="M341.244,-366.581C357.57,-350.091 382.186,-325.226 400.141,-307.09"/>
<polygon fill="none" stroke="black" points="402.315,-308.874 405.953,-301.219 398.335,-304.934 402.315,-308.874"/>
<text text-anchor="middle" x="379" y="-341" font-family="Times New Roman,serif" font-size="10.00">Input</text>
</g>
<!-- AppliedModel -->
<g id="node5" class="node"><title>AppliedModel</title>
<polygon fill="lightyellow" stroke="black" points="571.5,-218 268.5,-218 268.5,-182 577.5,-182 577.5,-212 571.5,-218"/>
<polyline fill="none" stroke="black" points="571.5,-218 571.5,-212 "/>
<polyline fill="none" stroke="black" points="577.5,-212 571.5,-212 "/>
<text text-anchor="middle" x="423" y="-202.8" font-family="Verdana" font-size="9.00">tmp/Enemy.fmdb</text>
<text text-anchor="middle" x="423" y="-192.8" font-family="Verdana" font-size="9.00">(State With the Material Settings of a Parent Material Applied)</text>
</g>
<!-- BinaryConverter -->
<g id="node10" class="node"><title>BinaryConverter</title>
<path fill="none" stroke="black" d="M467,-135C467,-135 379,-135 379,-135 373,-135 367,-129 367,-123 367,-123 367,-111 367,-111 367,-105 373,-99 379,-99 379,-99 467,-99 467,-99 473,-99 479,-105 479,-111 479,-111 479,-123 479,-123 479,-129 473,-135 467,-135"/>
<text text-anchor="middle" x="423" y="-114.8" font-family="Verdana" font-size="9.00">3D Binary Converter</text>
</g>
<!-- AppliedModel&#45;&gt;BinaryConverter -->
<g id="edge12" class="edge"><title>AppliedModel&#45;&gt;BinaryConverter</title>
<path fill="none" stroke="black" d="M423,-181.822C423,-170.653 423,-155.895 423,-143.384"/>
<polygon fill="none" stroke="black" points="425.8,-143.153 423,-135.153 420.2,-143.153 425.8,-143.153"/>
<text text-anchor="middle" x="434" y="-156" font-family="Times New Roman,serif" font-size="10.00">Input</text>
</g>
<!-- BinaryResource -->
<g id="node6" class="node"><title>BinaryResource</title>
<polygon fill="lightyellow" stroke="black" points="454.5,-52 385.5,-52 385.5,-16 460.5,-16 460.5,-46 454.5,-52"/>
<polyline fill="none" stroke="black" points="454.5,-52 454.5,-46 "/>
<polyline fill="none" stroke="black" points="460.5,-46 454.5,-46 "/>
<text text-anchor="middle" x="423" y="-31.8" font-family="Verdana" font-size="9.00">Enemy.bfres</text>
</g>
<!-- AssignUtilityAssignShader&#45;&gt;ShaderAssignedModel -->
<g id="edge5" class="edge"><title>AssignUtilityAssignShader&#45;&gt;ShaderAssignedModel</title>
<path fill="none" stroke="black" d="M109,-634.822C109,-623.653 109,-608.895 109,-596.384"/>
<polygon fill="black" stroke="black" points="111.8,-596.153 109,-588.153 106.2,-596.153 111.8,-596.153"/>
<text text-anchor="middle" x="123.5" y="-609" font-family="Times New Roman,serif" font-size="10.00">Output</text>
</g>
<!-- AssignUtilityAssignParentMaterial&#45;&gt;Model -->
<g id="edge6" class="edge"><title>AssignUtilityAssignParentMaterial&#45;&gt;Model</title>
<path fill="none" stroke="black" d="M154.333,-449.921C188.351,-437.105 235.023,-419.522 270.807,-406.04"/>
<polygon fill="black" stroke="black" points="272.23,-408.496 278.729,-403.056 270.255,-403.256 272.23,-408.496"/>
<text text-anchor="middle" x="244.5" y="-424" font-family="Times New Roman,serif" font-size="10.00">Output</text>
</g>
<!-- AssignUtilityApplyParentMaterial&#45;&gt;AppliedModel -->
<g id="edge13" class="edge"><title>AssignUtilityApplyParentMaterial&#45;&gt;AppliedModel</title>
<path fill="none" stroke="black" d="M423,-264.822C423,-253.653 423,-238.895 423,-226.384"/>
<polygon fill="black" stroke="black" points="425.8,-226.153 423,-218.153 420.2,-226.153 425.8,-226.153"/>
<text text-anchor="middle" x="437.5" y="-239" font-family="Times New Roman,serif" font-size="10.00">Output</text>
</g>
<!-- BinaryConverter&#45;&gt;BinaryResource -->
<g id="edge14" class="edge"><title>BinaryConverter&#45;&gt;BinaryResource</title>
<path fill="none" stroke="black" d="M423,-98.822C423,-87.6534 423,-72.8953 423,-60.3841"/>
<polygon fill="black" stroke="black" points="425.8,-60.1532 423,-52.1533 420.2,-60.1533 425.8,-60.1532"/>
<text text-anchor="middle" x="437.5" y="-73" font-family="Times New Roman,serif" font-size="10.00">Output</text>
</g>
<!-- G3dEditor -->
<g id="node11" class="node"><title>G3dEditor</title>
<path fill="none" stroke="black" d="M292.5,-486C292.5,-486 259.5,-486 259.5,-486 253.5,-486 247.5,-480 247.5,-474 247.5,-474 247.5,-462 247.5,-462 247.5,-456 253.5,-450 259.5,-450 259.5,-450 292.5,-450 292.5,-450 298.5,-450 304.5,-456 304.5,-462 304.5,-462 304.5,-474 304.5,-474 304.5,-480 298.5,-486 292.5,-486"/>
<text text-anchor="middle" x="276" y="-465.8" font-family="Verdana" font-size="9.00">3DEditor</text>
</g>
<!-- G3dEditor&#45;&gt;Model -->
<g id="edge8" class="edge"><title>G3dEditor&#45;&gt;Model</title>
<path fill="none" stroke="black" d="M290.421,-442.665C296.494,-432.416 303.547,-420.514 309.617,-410.271"/>
<polygon fill="black" stroke="black" points="287.849,-441.512 286.18,-449.822 292.667,-444.367 287.849,-441.512"/>
<polygon fill="black" stroke="black" points="312.165,-411.463 313.835,-403.153 307.348,-408.608 312.165,-411.463"/>
<text text-anchor="middle" x="311" y="-424" font-family="Times New Roman,serif" font-size="10.00">Edit</text>
</g>
<!-- G3dEditor2 -->
<g id="node12" class="node"><title>G3dEditor2</title>
<path fill="none" stroke="black" d="M357.5,-671C357.5,-671 324.5,-671 324.5,-671 318.5,-671 312.5,-665 312.5,-659 312.5,-659 312.5,-647 312.5,-647 312.5,-641 318.5,-635 324.5,-635 324.5,-635 357.5,-635 357.5,-635 363.5,-635 369.5,-641 369.5,-647 369.5,-647 369.5,-659 369.5,-659 369.5,-665 363.5,-671 357.5,-671"/>
<text text-anchor="middle" x="341" y="-650.8" font-family="Verdana" font-size="9.00">3DEditor</text>
</g>
<!-- G3dEditor2&#45;&gt;BaseModel -->
<g id="edge9" class="edge"><title>G3dEditor2&#45;&gt;BaseModel</title>
<path fill="none" stroke="black" d="M341,-626.588C341,-616.909 341,-605.888 341,-596.226"/>
<polygon fill="black" stroke="black" points="338.2,-626.822 341,-634.822 343.8,-626.822 338.2,-626.822"/>
<polygon fill="black" stroke="black" points="343.8,-596.153 341,-588.153 338.2,-596.153 343.8,-596.153"/>
<text text-anchor="middle" x="349" y="-609" font-family="Times New Roman,serif" font-size="10.00">Edit</text>
</g>
<!-- DccTool -->
<g id="node13" class="node"><title>DccTool</title>
<path fill="none" stroke="black" d="M126.5,-875C126.5,-875 91.5,-875 91.5,-875 85.5,-875 79.5,-869 79.5,-863 79.5,-863 79.5,-851 79.5,-851 79.5,-845 85.5,-839 91.5,-839 91.5,-839 126.5,-839 126.5,-839 132.5,-839 138.5,-845 138.5,-851 138.5,-851 138.5,-863 138.5,-863 138.5,-869 132.5,-875 126.5,-875"/>
<text text-anchor="middle" x="109" y="-854.8" font-family="Verdana" font-size="9.00">DCC Tool</text>
</g>
<!-- DccTool&#45;&gt;ExportedModel -->
<g id="edge4" class="edge"><title>DccTool&#45;&gt;ExportedModel</title>
<path fill="none" stroke="black" d="M109,-838.581C109,-822.808 109,-799.373 109,-781.492"/>
<polygon fill="black" stroke="black" points="111.8,-781.219 109,-773.219 106.2,-781.219 111.8,-781.219"/>
<text text-anchor="middle" x="122" y="-813" font-family="Times New Roman,serif" font-size="10.00">Export</text>
</g>
</g>
</svg>
