<?xml version="1.0" encoding="UTF-8" standalone="no"?>
<!DOCTYPE svg PUBLIC "-//W3C//DTD SVG 1.1//EN"
 "http://www.w3.org/Graphics/SVG/1.1/DTD/svg11.dtd">
<!-- Generated by graphviz version 2.38.0 (20140413.2041)
 -->
<!-- Pages: 1 -->
<svg width="551pt" height="157pt"
 viewBox="0.00 0.00 550.50 157.00" xmlns="http://www.w3.org/2000/svg" xmlns:xlink="http://www.w3.org/1999/xlink">
<g id="graph0" class="graph" transform="scale(1 1) rotate(0) translate(4 153)">
<polygon fill="white" stroke="none" points="-4,4 -4,-153 546.5,-153 546.5,4 -4,4"/>
<!-- parent -->
<g id="node1" class="node"><title>parent</title>
<polygon fill="lightyellow" stroke="black" points="179,-50 7,-50 7,-0 179,-0 179,-50"/>
<polygon fill="none" stroke="black" points="10,-31 10,-47 176,-47 176,-31 10,-31"/>
<text text-anchor="start" x="69.5" y="-36.8" font-family="Verdana" font-size="9.00">Material A</text>
<polygon fill="none" stroke="black" points="10,-3 10,-29 176,-29 176,-3 10,-3"/>
<text text-anchor="start" x="13" y="-18.8" font-family="Verdana" font-size="9.00">Value = A</text>
<text text-anchor="start" x="13" y="-8.8" font-family="Verdana" font-size="9.00">Child Material Restrictions = None</text>
<polygon fill="none" stroke="black" points="7,-0 7,-50 179,-50 179,-0 7,-0"/>
</g>
<!-- child -->
<g id="node2" class="node"><title>child</title>
<polygon fill="lightyellow" stroke="black" points="186,-149 0,-149 0,-101 186,-101 186,-149"/>
<polygon fill="none" stroke="black" points="3,-130 3,-146 183,-146 183,-130 3,-130"/>
<text text-anchor="start" x="69.5" y="-135.8" font-family="Verdana" font-size="9.00">Material B</text>
<polygon fill="none" stroke="black" points="3,-104 3,-128 183,-128 183,-104 3,-104"/>
<text text-anchor="start" x="6" y="-118.8" font-family="Verdana" font-size="9.00">Value = </text>
<text text-anchor="start" x="46" y="-118.8" font-family="Verdana" font-size="9.00" fill="red">B</text>
<text text-anchor="start" x="6" y="-109.8" font-family="Verdana" font-size="9.00">Value Reference Setting = </text>
<text text-anchor="start" x="133" y="-109.8" font-family="Verdana" font-size="9.00" fill="forestgreen">Overwrite</text>
<polygon fill="none" stroke="black" points="0,-101 0,-149 186,-149 186,-101 0,-101"/>
</g>
<!-- child&#45;&gt;parent -->
<g id="edge1" class="edge"><title>child&#45;&gt;parent</title>
<path fill="none" stroke="black" d="M93,-100.775C93,-88.1196 93,-72.257 93,-58.402"/>
<polygon fill="black" stroke="black" points="95.8001,-58.0813 93,-50.0813 90.2001,-58.0814 95.8001,-58.0813"/>
<text text-anchor="middle" x="114.5" y="-71.8" font-family="Times New Roman,serif" font-size="14.00">Browse</text>
</g>
<!-- childApplied -->
<g id="node3" class="node"><title>childApplied</title>
<polygon fill="lightyellow" stroke="black" points="542.5,-145 351.5,-145 351.5,-105 542.5,-105 542.5,-145"/>
<polygon fill="none" stroke="black" points="355,-126 355,-142 540,-142 540,-126 355,-126"/>
<text text-anchor="start" x="358" y="-131.8" font-family="Verdana" font-size="9.00">Material B (after resolving references)</text>
<polygon fill="none" stroke="black" points="355,-108 355,-124 540,-124 540,-108 355,-108"/>
<text text-anchor="start" x="358" y="-114.8" font-family="Verdana" font-size="9.00">Value = </text>
<text text-anchor="start" x="398" y="-114.8" font-family="Verdana" font-size="9.00" fill="red">B</text>
<polygon fill="none" stroke="black" points="351.5,-105 351.5,-145 542.5,-145 542.5,-105 351.5,-105"/>
</g>
<!-- child&#45;&gt;childApplied -->
<g id="edge2" class="edge"><title>child&#45;&gt;childApplied</title>
<path fill="none" stroke="black" stroke-dasharray="5,2" d="M186.009,-125C234.231,-125 293.279,-125 343.006,-125"/>
<polygon fill="black" stroke="black" points="343.221,-127.8 351.221,-125 343.221,-122.2 343.221,-127.8"/>
<text text-anchor="middle" x="268.75" y="-131.8" font-family="Times New Roman,serif" font-size="14.00">Applying a Parent Material</text>
</g>
</g>
</svg>
