<?xml version="1.0" encoding="UTF-8" standalone="no"?>
<!DOCTYPE svg PUBLIC "-//W3C//DTD SVG 1.1//EN"
 "http://www.w3.org/Graphics/SVG/1.1/DTD/svg11.dtd">
<!-- Generated by graphviz version 2.38.0 (20140413.2041)
 -->
<!-- Pages: 1 -->
<svg width="720pt" height="157pt"
 viewBox="0.00 0.00 720.00 157.00" xmlns="http://www.w3.org/2000/svg" xmlns:xlink="http://www.w3.org/1999/xlink">
<g id="graph0" class="graph" transform="scale(1 1) rotate(0) translate(4 153)">
<polygon fill="white" stroke="none" points="-4,4 -4,-153 716,-153 716,4 -4,4"/>
<!-- parent -->
<g id="node1" class="node"><title>parent</title>
<polygon fill="lightyellow" stroke="black" points="333.5,-48 21.5,-48 21.5,-0 333.5,-0 333.5,-48"/>
<polygon fill="none" stroke="black" points="24.5,-29 24.5,-45 330.5,-45 330.5,-29 24.5,-29"/>
<text text-anchor="start" x="154" y="-34.8" font-family="Verdana" font-size="9.00">Material A</text>
<polygon fill="none" stroke="black" points="24.5,-3 24.5,-27 330.5,-27 330.5,-3 24.5,-3"/>
<text text-anchor="start" x="27.5" y="-17.8" font-family="Verdana" font-size="9.00">Value = </text>
<text text-anchor="start" x="67.5" y="-17.8" font-family="Verdana" font-size="9.00" fill="red">A</text>
<text text-anchor="start" x="27.5" y="-8.8" font-family="Verdana" font-size="9.00">Child Material Restrictions = </text>
<text text-anchor="start" x="162.5" y="-8.8" font-family="Verdana" font-size="9.00" fill="blue">Fix using the parent material value</text>
<polygon fill="none" stroke="black" points="21.5,-0 21.5,-48 333.5,-48 333.5,-0 21.5,-0"/>
</g>
<!-- child -->
<g id="node2" class="node"><title>child</title>
<polygon fill="lightyellow" stroke="black" points="355,-149 0,-149 0,-99 355,-99 355,-149"/>
<polygon fill="none" stroke="black" points="3.5,-130 3.5,-146 352.5,-146 352.5,-130 3.5,-130"/>
<text text-anchor="start" x="154.5" y="-135.8" font-family="Verdana" font-size="9.00">Material B</text>
<polygon fill="none" stroke="black" points="3.5,-102 3.5,-128 352.5,-128 352.5,-102 3.5,-102"/>
<text text-anchor="start" x="6.5" y="-117.8" font-family="Verdana" font-size="9.00">Value = B</text>
<text text-anchor="start" x="6.5" y="-107.8" font-family="Verdana" font-size="9.00">Value Reference Setting = Forcibly reference as per parent&#39;s restrictions.</text>
<polygon fill="none" stroke="black" points="0,-99 0,-149 355,-149 355,-99 0,-99"/>
</g>
<!-- child&#45;&gt;parent -->
<g id="edge1" class="edge"><title>child&#45;&gt;parent</title>
<path fill="none" stroke="black" d="M177.5,-98.7753C177.5,-86.0079 177.5,-70.1952 177.5,-56.4879"/>
<polygon fill="black" stroke="black" points="180.3,-56.2712 177.5,-48.2712 174.7,-56.2713 180.3,-56.2712"/>
<text text-anchor="middle" x="199" y="-69.8" font-family="Times New Roman,serif" font-size="14.00">Browse</text>
</g>
<!-- childApplied -->
<g id="node3" class="node"><title>childApplied</title>
<polygon fill="lightyellow" stroke="black" points="712,-144 521,-144 521,-104 712,-104 712,-144"/>
<polygon fill="none" stroke="black" points="524.5,-125 524.5,-141 709.5,-141 709.5,-125 524.5,-125"/>
<text text-anchor="start" x="527.5" y="-130.8" font-family="Verdana" font-size="9.00">Material B (after resolving references)</text>
<polygon fill="none" stroke="black" points="524.5,-107 524.5,-123 709.5,-123 709.5,-107 524.5,-107"/>
<text text-anchor="start" x="527.5" y="-113.8" font-family="Verdana" font-size="9.00">Value = </text>
<text text-anchor="start" x="567.5" y="-113.8" font-family="Verdana" font-size="9.00" fill="red">A</text>
<polygon fill="none" stroke="black" points="521,-104 521,-144 712,-144 712,-104 521,-104"/>
</g>
<!-- child&#45;&gt;childApplied -->
<g id="edge2" class="edge"><title>child&#45;&gt;childApplied</title>
<path fill="none" stroke="black" stroke-dasharray="5,2" d="M355.109,-124C408.727,-124 465.809,-124 512.908,-124"/>
<polygon fill="black" stroke="black" points="512.979,-126.8 520.979,-124 512.979,-121.2 512.979,-126.8"/>
<text text-anchor="middle" x="438" y="-130.8" font-family="Times New Roman,serif" font-size="14.00">Applying a Parent Material</text>
</g>
</g>
</svg>
