<?xml version="1.0" encoding="UTF-8" standalone="no"?>
<!DOCTYPE svg PUBLIC "-//W3C//DTD SVG 1.1//EN"
 "http://www.w3.org/Graphics/SVG/1.1/DTD/svg11.dtd">
<!-- Generated by graphviz version 2.38.0 (20140413.2041)
 -->
<!-- Pages: 1 -->
<svg width="1125pt" height="378pt"
 viewBox="0.00 0.00 1124.50 378.00" xmlns="http://www.w3.org/2000/svg" xmlns:xlink="http://www.w3.org/1999/xlink">
<g id="graph0" class="graph" transform="scale(1 1) rotate(0) translate(4 374)">
<polygon fill="white" stroke="none" points="-4,4 -4,-374 1120.5,-374 1120.5,4 -4,4"/>
<!-- find -->
<g id="node1" class="node"><title>find</title>
<polygon fill="lightyellow" stroke="black" points="460.5,-370 187.5,-370 187.5,-334 460.5,-334 460.5,-370"/>
<text text-anchor="middle" x="324" y="-354.8" font-family="Verdana" font-size="9.00">Search the parent materials in the order they </text>
<text text-anchor="middle" x="324" y="-344.8" font-family="Verdana" font-size="9.00"> were set for a parent with a setting other than None.</text>
</g>
<!-- ifForceRefer -->
<g id="node2" class="node"><title>ifForceRefer</title>
<polygon fill="lightyellow" stroke="black" points="432,-297 216,-297 216,-261 432,-261 432,-297"/>
<text text-anchor="middle" x="324" y="-281.8" font-family="Verdana" font-size="9.00">Was the first setting in the search results </text>
<text text-anchor="middle" x="324" y="-271.8" font-family="Verdana" font-size="9.00"> Fix using the parent material value?</text>
</g>
<!-- find&#45;&gt;ifForceRefer -->
<g id="edge1" class="edge"><title>find&#45;&gt;ifForceRefer</title>
<path fill="none" stroke="black" d="M324,-333.813C324,-325.179 324,-314.555 324,-305.034"/>
<polygon fill="black" stroke="black" points="326.8,-305.029 324,-297.029 321.2,-305.029 326.8,-305.029"/>
</g>
<!-- applyForceRefer -->
<g id="node3" class="node"><title>applyForceRefer</title>
<polygon fill="lightyellow" stroke="black" points="440,-210 0,-210 0,-174 440,-174 440,-210"/>
<text text-anchor="middle" x="220" y="-194.8" font-family="Verdana" font-size="9.00">Use that parent parameter value. </text>
<text text-anchor="middle" x="220" y="-184.8" font-family="Verdana" font-size="9.00"> (The parent parameter value is also determined according to the value resolution steps.)</text>
</g>
<!-- ifForceRefer&#45;&gt;applyForceRefer -->
<g id="edge2" class="edge"><title>ifForceRefer&#45;&gt;applyForceRefer</title>
<path fill="none" stroke="black" d="M302.954,-260.799C287.025,-247.78 265.003,-229.781 247.652,-215.6"/>
<polygon fill="black" stroke="black" points="248.981,-213.07 241.015,-210.175 245.437,-217.406 248.981,-213.07"/>
<text text-anchor="middle" x="290" y="-231.8" font-family="Times New Roman,serif" font-size="14.00">Yes</text>
</g>
<!-- ifForceOverride -->
<g id="node4" class="node"><title>ifForceOverride</title>
<polygon fill="lightyellow" stroke="black" points="726,-210 458,-210 458,-174 726,-174 726,-210"/>
<text text-anchor="middle" x="592" y="-194.8" font-family="Verdana" font-size="9.00">Was the first setting in the search results </text>
<text text-anchor="middle" x="592" y="-184.8" font-family="Verdana" font-size="9.00"> Require the use of values for child material settings?</text>
</g>
<!-- ifForceRefer&#45;&gt;ifForceOverride -->
<g id="edge3" class="edge"><title>ifForceRefer&#45;&gt;ifForceOverride</title>
<path fill="none" stroke="black" d="M377.911,-260.901C421.982,-246.924 484.308,-227.156 530.353,-212.552"/>
<polygon fill="black" stroke="black" points="531.396,-215.159 538.175,-210.071 529.703,-209.821 531.396,-215.159"/>
<text text-anchor="middle" x="483" y="-231.8" font-family="Times New Roman,serif" font-size="14.00">No</text>
</g>
<!-- applyForceOverride -->
<g id="node5" class="node"><title>applyForceOverride</title>
<polygon fill="lightyellow" stroke="black" points="587.5,-123 468.5,-123 468.5,-87 587.5,-87 587.5,-123"/>
<text text-anchor="middle" x="528" y="-102.8" font-family="Verdana" font-size="9.00">Use your own values.</text>
</g>
<!-- ifForceOverride&#45;&gt;applyForceOverride -->
<g id="edge4" class="edge"><title>ifForceOverride&#45;&gt;applyForceOverride</title>
<path fill="none" stroke="black" d="M579.049,-173.799C569.506,-161.126 556.411,-143.734 545.873,-129.738"/>
<polygon fill="black" stroke="black" points="547.981,-127.882 540.932,-123.175 543.507,-131.251 547.981,-127.882"/>
<text text-anchor="middle" x="574" y="-144.8" font-family="Times New Roman,serif" font-size="14.00">Yes</text>
</g>
<!-- ifForceRefer2 -->
<g id="node6" class="node"><title>ifForceRefer2</title>
<polygon fill="lightyellow" stroke="black" points="874,-123 606,-123 606,-87 874,-87 874,-123"/>
<text text-anchor="middle" x="740" y="-107.8" font-family="Verdana" font-size="9.00">Was the first setting in the search results </text>
<text text-anchor="middle" x="740" y="-97.8" font-family="Verdana" font-size="9.00"> Require the use of values for child material settings?</text>
</g>
<!-- ifForceOverride&#45;&gt;ifForceRefer2 -->
<g id="edge5" class="edge"><title>ifForceOverride&#45;&gt;ifForceRefer2</title>
<path fill="none" stroke="black" d="M621.95,-173.799C645.397,-160.333 678.121,-141.538 703.17,-127.152"/>
<polygon fill="black" stroke="black" points="704.805,-129.443 710.347,-123.03 702.016,-124.586 704.805,-129.443"/>
<text text-anchor="middle" x="683" y="-144.8" font-family="Times New Roman,serif" font-size="14.00">No</text>
</g>
<!-- applyForceRefer2 -->
<g id="node7" class="node"><title>applyForceRefer2</title>
<polygon fill="lightyellow" stroke="black" points="729.5,-36 364.5,-36 364.5,-0 729.5,-0 729.5,-36"/>
<text text-anchor="middle" x="547" y="-20.8" font-family="Verdana" font-size="9.00">Treat the child&#39;s value as the reference and </text>
<text text-anchor="middle" x="547" y="-10.8" font-family="Verdana" font-size="9.00"> determine the parameter value using the method for resolving the value.</text>
</g>
<!-- ifForceRefer2&#45;&gt;applyForceRefer2 -->
<g id="edge6" class="edge"><title>ifForceRefer2&#45;&gt;applyForceRefer2</title>
<path fill="none" stroke="black" d="M700.944,-86.799C669.842,-73.1015 626.224,-53.8915 593.355,-39.4153"/>
<polygon fill="black" stroke="black" points="594.119,-36.6922 585.669,-36.0302 591.861,-41.8172 594.119,-36.6922"/>
<text text-anchor="middle" x="666" y="-57.8" font-family="Times New Roman,serif" font-size="14.00">Yes</text>
</g>
<!-- allNone -->
<g id="node8" class="node"><title>allNone</title>
<polygon fill="lightyellow" stroke="black" points="1116.5,-36 747.5,-36 747.5,-0 1116.5,-0 1116.5,-36"/>
<text text-anchor="middle" x="932" y="-20.8" font-family="Verdana" font-size="9.00">All parent settings are None, so </text>
<text text-anchor="middle" x="932" y="-10.8" font-family="Verdana" font-size="9.00"> determine the parameter values following the value resolution procedure.</text>
</g>
<!-- ifForceRefer2&#45;&gt;allNone -->
<g id="edge7" class="edge"><title>ifForceRefer2&#45;&gt;allNone</title>
<path fill="none" stroke="black" d="M778.854,-86.799C809.794,-73.1015 853.186,-53.8915 885.886,-39.4153"/>
<polygon fill="black" stroke="black" points="887.35,-41.8291 893.532,-36.0302 885.083,-36.7084 887.35,-41.8291"/>
<text text-anchor="middle" x="856" y="-57.8" font-family="Times New Roman,serif" font-size="14.00">No</text>
</g>
</g>
</svg>
