<?xml version="1.0" encoding="UTF-8" standalone="no"?>
<!DOCTYPE svg PUBLIC "-//W3C//DTD SVG 1.1//EN"
 "http://www.w3.org/Graphics/SVG/1.1/DTD/svg11.dtd">
<!-- Generated by graphviz version 2.38.0 (20140413.2041)
 -->
<!-- Pages: 1 -->
<svg width="814pt" height="376pt"
 viewBox="0.00 0.00 814.00 376.00" xmlns="http://www.w3.org/2000/svg" xmlns:xlink="http://www.w3.org/1999/xlink">
<g id="graph0" class="graph" transform="scale(1 1) rotate(0) translate(4 372)">
<polygon fill="white" stroke="none" points="-4,4 -4,-372 810,-372 810,4 -4,4"/>
<!-- parentParentParent -->
<g id="node1" class="node"><title>parentParentParent</title>
<polygon fill="lightyellow" stroke="black" points="310,-48 138,-48 138,-0 310,-0 310,-48"/>
<polygon fill="none" stroke="black" points="141,-29 141,-45 307,-45 307,-29 141,-29"/>
<text text-anchor="start" x="200.5" y="-34.8" font-family="Verdana" font-size="9.00">Material A</text>
<polygon fill="none" stroke="black" points="141,-3 141,-27 307,-27 307,-3 141,-3"/>
<text text-anchor="start" x="144" y="-17.8" font-family="Verdana" font-size="9.00">Value = </text>
<text text-anchor="start" x="184" y="-17.8" font-family="Verdana" font-size="9.00" fill="red">A</text>
<text text-anchor="start" x="144" y="-8.8" font-family="Verdana" font-size="9.00">Child Material Restrictions = None</text>
<polygon fill="none" stroke="black" points="138,-0 138,-48 310,-48 310,-0 138,-0"/>
</g>
<!-- parentParent -->
<g id="node2" class="node"><title>parentParent</title>
<polygon fill="lightyellow" stroke="black" points="396,-156 52,-156 52,-99 396,-99 396,-156"/>
<polygon fill="none" stroke="black" points="55,-136.5 55,-152.5 393,-152.5 393,-136.5 55,-136.5"/>
<text text-anchor="start" x="200.5" y="-142.3" font-family="Verdana" font-size="9.00">Material B</text>
<polygon fill="none" stroke="black" points="55,-101.5 55,-134.5 393,-134.5 393,-101.5 55,-101.5"/>
<text text-anchor="start" x="58" y="-125.3" font-family="Verdana" font-size="9.00">Value = B</text>
<text text-anchor="start" x="58" y="-116.3" font-family="Verdana" font-size="9.00">Value Reference Setting = </text>
<text text-anchor="start" x="185" y="-116.3" font-family="Verdana" font-size="9.00" fill="forestgreen">Reference the value of the parent material.</text>
<text text-anchor="start" x="58" y="-107.3" font-family="Verdana" font-size="9.00">Child Material Restrictions = </text>
<text text-anchor="start" x="193" y="-107.3" font-family="Verdana" font-size="9.00" fill="blue">Fix using the parent material value.</text>
<polygon fill="none" stroke="black" points="52,-99 52,-156 396,-156 396,-99 52,-99"/>
</g>
<!-- parentParent&#45;&gt;parentParentParent -->
<g id="edge3" class="edge"><title>parentParent&#45;&gt;parentParentParent</title>
<path fill="none" stroke="black" d="M224,-98.7647C224,-85.6407 224,-69.9115 224,-56.3554"/>
<polygon fill="black" stroke="black" points="226.8,-56.2384 224,-48.2384 221.2,-56.2384 226.8,-56.2384"/>
<text text-anchor="middle" x="245.5" y="-69.8" font-family="Times New Roman,serif" font-size="14.00">Browse</text>
</g>
<!-- parent -->
<g id="node3" class="node"><title>parent</title>
<polygon fill="lightyellow" stroke="black" points="448,-267 2.84217e-014,-267 2.84217e-014,-207 448,-207 448,-267"/>
<polygon fill="none" stroke="black" points="3,-248 3,-264 445,-264 445,-248 3,-248"/>
<text text-anchor="start" x="200" y="-253.8" font-family="Verdana" font-size="9.00">Material C</text>
<polygon fill="none" stroke="black" points="3,-210 3,-246 445,-246 445,-210 3,-210"/>
<text text-anchor="start" x="6" y="-235.8" font-family="Verdana" font-size="9.00">Value = C</text>
<text text-anchor="start" x="6" y="-225.8" font-family="Verdana" font-size="9.00">Value Reference Setting = Forcibly Reference Material Values Due to Material B&#39;s Restrictions</text>
<text text-anchor="start" x="6" y="-215.8" font-family="Verdana" font-size="9.00">Child Material Restrictions = None Due to Material B&#39;s Restrictions</text>
<polygon fill="none" stroke="black" points="0,-207 0,-267 448,-267 448,-207 0,-207"/>
</g>
<!-- parent&#45;&gt;parentParent -->
<g id="edge2" class="edge"><title>parent&#45;&gt;parentParent</title>
<path fill="none" stroke="black" d="M224,-206.909C224,-193.83 224,-178.263 224,-164.461"/>
<polygon fill="black" stroke="black" points="226.8,-164.133 224,-156.133 221.2,-164.133 226.8,-164.133"/>
<text text-anchor="middle" x="245.5" y="-177.8" font-family="Times New Roman,serif" font-size="14.00">Browse</text>
</g>
<!-- child -->
<g id="node4" class="node"><title>child</title>
<polygon fill="lightyellow" stroke="black" points="448,-368 2.84217e-014,-368 2.84217e-014,-318 448,-318 448,-368"/>
<polygon fill="none" stroke="black" points="3,-349 3,-365 445,-365 445,-349 3,-349"/>
<text text-anchor="start" x="200" y="-354.8" font-family="Verdana" font-size="9.00">Material D</text>
<polygon fill="none" stroke="black" points="3,-321 3,-347 445,-347 445,-321 3,-321"/>
<text text-anchor="start" x="6" y="-336.8" font-family="Verdana" font-size="9.00">Value = D</text>
<text text-anchor="start" x="6" y="-326.8" font-family="Verdana" font-size="9.00">Value Reference Setting = Forcibly Reference Material Values Due to Material B&#39;s Restrictions</text>
<polygon fill="none" stroke="black" points="0,-318 0,-368 448,-368 448,-318 0,-318"/>
</g>
<!-- child&#45;&gt;parent -->
<g id="edge1" class="edge"><title>child&#45;&gt;parent</title>
<path fill="none" stroke="black" d="M224,-317.879C224,-305.238 224,-289.478 224,-275.304"/>
<polygon fill="black" stroke="black" points="226.8,-275.177 224,-267.177 221.2,-275.177 226.8,-275.177"/>
<text text-anchor="middle" x="245.5" y="-288.8" font-family="Times New Roman,serif" font-size="14.00">Browse</text>
</g>
<!-- childApplied -->
<g id="node5" class="node"><title>childApplied</title>
<polygon fill="lightyellow" stroke="black" points="806,-363 614,-363 614,-323 806,-323 806,-363"/>
<polygon fill="none" stroke="black" points="617,-344 617,-360 803,-360 803,-344 617,-344"/>
<text text-anchor="start" x="620" y="-349.8" font-family="Verdana" font-size="9.00">Material D (after resolving references)</text>
<polygon fill="none" stroke="black" points="617,-326 617,-342 803,-342 803,-326 617,-326"/>
<text text-anchor="start" x="620" y="-332.8" font-family="Verdana" font-size="9.00">Value = </text>
<text text-anchor="start" x="660" y="-332.8" font-family="Verdana" font-size="9.00" fill="red">A</text>
<polygon fill="none" stroke="black" points="614,-323 614,-363 806,-363 806,-323 614,-323"/>
</g>
<!-- child&#45;&gt;childApplied -->
<g id="edge4" class="edge"><title>child&#45;&gt;childApplied</title>
<path fill="none" stroke="black" stroke-dasharray="5,2" d="M448.151,-343C503.099,-343 559.34,-343 605.545,-343"/>
<polygon fill="black" stroke="black" points="605.756,-345.8 613.756,-343 605.756,-340.2 605.756,-345.8"/>
<text text-anchor="middle" x="531" y="-349.8" font-family="Times New Roman,serif" font-size="14.00">Applying a Parent Material</text>
</g>
</g>
</svg>
