<?xml version="1.0" encoding="UTF-8" standalone="no"?>
<!DOCTYPE svg PUBLIC "-//W3C//DTD SVG 1.1//EN"
 "http://www.w3.org/Graphics/SVG/1.1/DTD/svg11.dtd">
<!-- Generated by graphviz version 2.38.0 (20140413.2041)
 -->
<!-- Pages: 1 -->
<svg width="709pt" height="155pt"
 viewBox="0.00 0.00 708.50 155.00" xmlns="http://www.w3.org/2000/svg" xmlns:xlink="http://www.w3.org/1999/xlink">
<g id="graph0" class="graph" transform="scale(1 1) rotate(0) translate(4 151)">
<polygon fill="white" stroke="none" points="-4,4 -4,-151 704.5,-151 704.5,4 -4,4"/>
<!-- parent -->
<g id="node1" class="node"><title>parent</title>
<polygon fill="lightyellow" stroke="black" points="258,-48 86,-48 86,-0 258,-0 258,-48"/>
<polygon fill="none" stroke="black" points="89,-29 89,-45 255,-45 255,-29 89,-29"/>
<text text-anchor="start" x="148.5" y="-34.8" font-family="Verdana" font-size="9.00">Material A</text>
<polygon fill="none" stroke="black" points="89,-3 89,-27 255,-27 255,-3 89,-3"/>
<text text-anchor="start" x="92" y="-17.8" font-family="Verdana" font-size="9.00">Value = </text>
<text text-anchor="start" x="132" y="-17.8" font-family="Verdana" font-size="9.00" fill="red">A</text>
<text text-anchor="start" x="92" y="-8.8" font-family="Verdana" font-size="9.00">Child Material Restrictions = None</text>
<polygon fill="none" stroke="black" points="86,-0 86,-48 258,-48 258,-0 86,-0"/>
</g>
<!-- child -->
<g id="node2" class="node"><title>child</title>
<polygon fill="lightyellow" stroke="black" points="344,-147 0,-147 0,-99 344,-99 344,-147"/>
<polygon fill="none" stroke="black" points="3,-128 3,-144 341,-144 341,-128 3,-128"/>
<text text-anchor="start" x="148.5" y="-133.8" font-family="Verdana" font-size="9.00">Material B</text>
<polygon fill="none" stroke="black" points="3,-102 3,-126 341,-126 341,-102 3,-102"/>
<text text-anchor="start" x="6" y="-116.8" font-family="Verdana" font-size="9.00">Value = B</text>
<text text-anchor="start" x="6" y="-107.8" font-family="Verdana" font-size="9.00">Value Reference Setting = </text>
<text text-anchor="start" x="133" y="-107.8" font-family="Verdana" font-size="9.00" fill="forestgreen">Reference the value of the parent material.</text>
<polygon fill="none" stroke="black" points="0,-99 0,-147 344,-147 344,-99 0,-99"/>
</g>
<!-- child&#45;&gt;parent -->
<g id="edge1" class="edge"><title>child&#45;&gt;parent</title>
<path fill="none" stroke="black" d="M172,-98.519C172,-85.8894 172,-70.1429 172,-56.4664"/>
<polygon fill="black" stroke="black" points="174.8,-56.2647 172,-48.2648 169.2,-56.2648 174.8,-56.2647"/>
<text text-anchor="middle" x="193.5" y="-69.8" font-family="Times New Roman,serif" font-size="14.00">Browse</text>
</g>
<!-- childApplied -->
<g id="node3" class="node"><title>childApplied</title>
<polygon fill="lightyellow" stroke="black" points="700.5,-143 509.5,-143 509.5,-103 700.5,-103 700.5,-143"/>
<polygon fill="none" stroke="black" points="513,-124 513,-140 698,-140 698,-124 513,-124"/>
<text text-anchor="start" x="516" y="-129.8" font-family="Verdana" font-size="9.00">Material B (after resolving references)</text>
<polygon fill="none" stroke="black" points="513,-106 513,-122 698,-122 698,-106 513,-106"/>
<text text-anchor="start" x="516" y="-112.8" font-family="Verdana" font-size="9.00">Value = </text>
<text text-anchor="start" x="556" y="-112.8" font-family="Verdana" font-size="9.00" fill="red">A</text>
<polygon fill="none" stroke="black" points="509.5,-103 509.5,-143 700.5,-143 700.5,-103 509.5,-103"/>
</g>
<!-- child&#45;&gt;childApplied -->
<g id="edge2" class="edge"><title>child&#45;&gt;childApplied</title>
<path fill="none" stroke="black" stroke-dasharray="5,2" d="M344.066,-123C397.269,-123 454.213,-123 501.286,-123"/>
<polygon fill="black" stroke="black" points="501.355,-125.8 509.355,-123 501.355,-120.2 501.355,-125.8"/>
<text text-anchor="middle" x="426.75" y="-129.8" font-family="Times New Roman,serif" font-size="14.00">Applying a Parent Material</text>
</g>
</g>
</svg>
