<?xml version="1.0" encoding="UTF-8" standalone="no"?>
<!DOCTYPE svg PUBLIC "-//W3C//DTD SVG 1.1//EN"
 "http://www.w3.org/Graphics/SVG/1.1/DTD/svg11.dtd">
<!-- Generated by graphviz version 2.38.0 (20140413.2041)
 -->
<!-- Pages: 1 -->
<svg width="453pt" height="314pt"
 viewBox="0.00 0.00 453.00 314.00" xmlns="http://www.w3.org/2000/svg" xmlns:xlink="http://www.w3.org/1999/xlink">
<g id="graph0" class="graph" transform="scale(1 1) rotate(0) translate(4 310)">
<polygon fill="white" stroke="none" points="-4,4 -4,-310 449,-310 449,4 -4,4"/>
<!-- BaseMatA -->
<g id="node1" class="node"><title>BaseMatA</title>
<polygon fill="lightyellow" stroke="black" points="439,-306 365,-306 365,-270 445,-270 445,-300 439,-306"/>
<polyline fill="none" stroke="black" points="439,-306 439,-300 "/>
<polyline fill="none" stroke="black" points="445,-300 439,-300 "/>
<text text-anchor="middle" x="405" y="-285.8" font-family="Verdana" font-size="9.00">[9] BaseMatA</text>
</g>
<!-- BaseMatB -->
<g id="node2" class="node"><title>BaseMatB</title>
<polygon fill="lightyellow" stroke="black" points="439,-252 365,-252 365,-216 445,-216 445,-246 439,-252"/>
<polyline fill="none" stroke="black" points="439,-252 439,-246 "/>
<polyline fill="none" stroke="black" points="445,-246 439,-246 "/>
<text text-anchor="middle" x="405" y="-231.8" font-family="Verdana" font-size="9.00">[8] BaseMatB</text>
</g>
<!-- BaseMatX1 -->
<g id="node3" class="node"><title>BaseMatX1</title>
<polygon fill="lightyellow" stroke="black" points="439,-198 365,-198 365,-162 445,-162 445,-192 439,-198"/>
<polyline fill="none" stroke="black" points="439,-198 439,-192 "/>
<polyline fill="none" stroke="black" points="445,-192 439,-192 "/>
<text text-anchor="middle" x="405" y="-177.8" font-family="Verdana" font-size="9.00">[7] BaseMatX</text>
</g>
<!-- BaseMatC -->
<g id="node4" class="node"><title>BaseMatC</title>
<polygon fill="lightyellow" stroke="black" points="439,-144 365,-144 365,-108 445,-108 445,-138 439,-144"/>
<polyline fill="none" stroke="black" points="439,-144 439,-138 "/>
<polyline fill="none" stroke="black" points="445,-138 439,-138 "/>
<text text-anchor="middle" x="405" y="-123.8" font-family="Verdana" font-size="9.00">[5] BaseMatC</text>
</g>
<!-- BaseMatD -->
<g id="node5" class="node"><title>BaseMatD</title>
<polygon fill="lightyellow" stroke="black" points="439,-90 365,-90 365,-54 445,-54 445,-84 439,-90"/>
<polyline fill="none" stroke="black" points="439,-90 439,-84 "/>
<polyline fill="none" stroke="black" points="445,-84 439,-84 "/>
<text text-anchor="middle" x="405" y="-69.8" font-family="Verdana" font-size="9.00">[4] BaseMatD</text>
</g>
<!-- BaseMatX2 -->
<g id="node6" class="node"><title>BaseMatX2</title>
<polygon fill="lightyellow" stroke="black" points="439,-36 365,-36 365,-0 445,-0 445,-30 439,-36"/>
<polyline fill="none" stroke="black" points="439,-36 439,-30 "/>
<polyline fill="none" stroke="black" points="445,-30 439,-30 "/>
<text text-anchor="middle" x="405" y="-15.8" font-family="Verdana" font-size="9.00">[3] BaseMatX</text>
</g>
<!-- EnemyBaseMatA -->
<g id="node7" class="node"><title>EnemyBaseMatA</title>
<polygon fill="lightyellow" stroke="black" points="276,-225 171,-225 171,-189 282,-189 282,-219 276,-225"/>
<polyline fill="none" stroke="black" points="276,-225 276,-219 "/>
<polyline fill="none" stroke="black" points="282,-219 276,-219 "/>
<text text-anchor="middle" x="226.5" y="-204.8" font-family="Verdana" font-size="9.00">[6] EnemyBaseMatA</text>
</g>
<!-- EnemyBaseMatA&#45;&gt;BaseMatA -->
<g id="edge1" class="edge"><title>EnemyBaseMatA&#45;&gt;BaseMatA</title>
<path fill="none" stroke="black" d="M267.11,-225.178C293.887,-237.467 329.352,-253.742 357.475,-266.648"/>
<polygon fill="black" stroke="black" points="356.388,-269.23 364.826,-270.022 358.723,-264.141 356.388,-269.23"/>
<text text-anchor="middle" x="323.5" y="-264" font-family="Times New Roman,serif" font-size="10.00">Reference 1</text>
</g>
<!-- EnemyBaseMatA&#45;&gt;BaseMatB -->
<g id="edge2" class="edge"><title>EnemyBaseMatA&#45;&gt;BaseMatB</title>
<path fill="none" stroke="black" d="M282.378,-215.395C306.172,-219.035 333.761,-223.255 356.642,-226.755"/>
<polygon fill="black" stroke="black" points="356.511,-229.568 364.843,-228.01 357.358,-224.032 356.511,-229.568"/>
<text text-anchor="middle" x="323.5" y="-228" font-family="Times New Roman,serif" font-size="10.00">Reference 2</text>
</g>
<!-- EnemyBaseMatA&#45;&gt;BaseMatX1 -->
<g id="edge3" class="edge"><title>EnemyBaseMatA&#45;&gt;BaseMatX1</title>
<path fill="none" stroke="black" d="M282.378,-198.605C306.172,-194.965 333.761,-190.745 356.642,-187.245"/>
<polygon fill="black" stroke="black" points="357.358,-189.968 364.843,-185.99 356.511,-184.432 357.358,-189.968"/>
<text text-anchor="middle" x="323.5" y="-198" font-family="Times New Roman,serif" font-size="10.00">Reference 3</text>
</g>
<!-- EnemyBaseMatB -->
<g id="node8" class="node"><title>EnemyBaseMatB</title>
<polygon fill="lightyellow" stroke="black" points="276,-103 171,-103 171,-67 282,-67 282,-97 276,-103"/>
<polyline fill="none" stroke="black" points="276,-103 276,-97 "/>
<polyline fill="none" stroke="black" points="282,-97 276,-97 "/>
<text text-anchor="middle" x="226.5" y="-82.8" font-family="Verdana" font-size="9.00">[2] EnemyBaseMatB</text>
</g>
<!-- EnemyBaseMatB&#45;&gt;BaseMatC -->
<g id="edge4" class="edge"><title>EnemyBaseMatB&#45;&gt;BaseMatC</title>
<path fill="none" stroke="black" d="M282.378,-97.7479C306.276,-103.299 334.003,-109.74 356.942,-115.069"/>
<polygon fill="black" stroke="black" points="356.417,-117.821 364.843,-116.904 357.684,-112.366 356.417,-117.821"/>
<text text-anchor="middle" x="323.5" y="-115" font-family="Times New Roman,serif" font-size="10.00">Reference 1</text>
</g>
<!-- EnemyBaseMatB&#45;&gt;BaseMatD -->
<g id="edge5" class="edge"><title>EnemyBaseMatB&#45;&gt;BaseMatD</title>
<path fill="none" stroke="black" d="M282.378,-80.958C306.172,-79.2055 333.761,-77.1734 356.642,-75.4882"/>
<polygon fill="black" stroke="black" points="357.07,-78.2643 364.843,-74.8841 356.659,-72.6794 357.07,-78.2643"/>
<text text-anchor="middle" x="323.5" y="-82" font-family="Times New Roman,serif" font-size="10.00">Reference 2</text>
</g>
<!-- EnemyBaseMatB&#45;&gt;BaseMatX2 -->
<g id="edge6" class="edge"><title>EnemyBaseMatB&#45;&gt;BaseMatX2</title>
<path fill="none" stroke="black" d="M275.263,-66.8688C300.707,-57.2105 331.882,-45.3761 357.182,-35.7724"/>
<polygon fill="black" stroke="black" points="358.346,-38.3255 364.831,-32.8685 356.359,-33.09 358.346,-38.3255"/>
<text text-anchor="middle" x="323.5" y="-58" font-family="Times New Roman,serif" font-size="10.00">Reference 3</text>
</g>
<!-- EnemyA -->
<g id="node9" class="node"><title>EnemyA</title>
<polygon fill="lightyellow" stroke="black" points="82,-182 0,-182 0,-146 88,-146 88,-176 82,-182"/>
<polyline fill="none" stroke="black" points="82,-182 82,-176 "/>
<polyline fill="none" stroke="black" points="88,-176 82,-176 "/>
<text text-anchor="middle" x="44" y="-161.8" font-family="Verdana" font-size="9.00">[1] EnemyMatA</text>
</g>
<!-- EnemyA&#45;&gt;EnemyBaseMatA -->
<g id="edge7" class="edge"><title>EnemyA&#45;&gt;EnemyBaseMatA</title>
<path fill="none" stroke="black" d="M88.2342,-174.3C110.633,-179.635 138.391,-186.248 163.073,-192.128"/>
<polygon fill="black" stroke="black" points="162.536,-194.879 170.967,-194.009 163.834,-189.431 162.536,-194.879"/>
<text text-anchor="middle" x="129.5" y="-192" font-family="Times New Roman,serif" font-size="10.00">Reference 1</text>
</g>
<!-- EnemyA&#45;&gt;EnemyBaseMatB -->
<g id="edge8" class="edge"><title>EnemyA&#45;&gt;EnemyBaseMatB</title>
<path fill="none" stroke="black" d="M86.4103,-145.876C113.354,-134.083 148.608,-118.654 176.881,-106.279"/>
<polygon fill="black" stroke="black" points="178.076,-108.813 184.282,-103.04 175.831,-103.682 178.076,-108.813"/>
<text text-anchor="middle" x="129.5" y="-139" font-family="Times New Roman,serif" font-size="10.00">Reference 2</text>
</g>
</g>
</svg>
