<?xml version="1.0" encoding="UTF-8" standalone="no"?>
<!DOCTYPE svg PUBLIC "-//W3C//DTD SVG 1.1//EN"
 "http://www.w3.org/Graphics/SVG/1.1/DTD/svg11.dtd">
<!-- Generated by graphviz version 2.38.0 (20140413.2041)
 -->
<!-- Pages: 1 -->
<svg width="740pt" height="155pt"
 viewBox="0.00 0.00 739.50 155.00" xmlns="http://www.w3.org/2000/svg" xmlns:xlink="http://www.w3.org/1999/xlink">
<g id="graph0" class="graph" transform="scale(1 1) rotate(0) translate(4 151)">
<polygon fill="white" stroke="none" points="-4,4 -4,-151 735.5,-151 735.5,4 -4,4"/>
<!-- parent -->
<g id="node1" class="node"><title>parent</title>
<polygon fill="lightyellow" stroke="black" points="394,-48 -2.84217e-014,-48 -2.84217e-014,-0 394,-0 394,-48"/>
<polygon fill="none" stroke="black" points="3,-29 3,-45 391,-45 391,-29 3,-29"/>
<text text-anchor="start" x="173.5" y="-34.8" font-family="Verdana" font-size="9.00">Material A</text>
<polygon fill="none" stroke="black" points="3,-3 3,-27 391,-27 391,-3 3,-3"/>
<text text-anchor="start" x="6" y="-17.8" font-family="Verdana" font-size="9.00">Value = A</text>
<text text-anchor="start" x="6" y="-8.8" font-family="Verdana" font-size="9.00">Child Material Restrictions = </text>
<text text-anchor="start" x="141" y="-8.8" font-family="Verdana" font-size="9.00" fill="blue">Require the use of values for child material settings.</text>
<polygon fill="none" stroke="black" points="0,-0 0,-48 394,-48 394,-0 0,-0"/>
</g>
<!-- child -->
<g id="node2" class="node"><title>child</title>
<polygon fill="lightyellow" stroke="black" points="374.5,-147 19.5,-147 19.5,-99 374.5,-99 374.5,-147"/>
<polygon fill="none" stroke="black" points="23,-128 23,-144 372,-144 372,-128 23,-128"/>
<text text-anchor="start" x="174" y="-133.8" font-family="Verdana" font-size="9.00">Material B</text>
<polygon fill="none" stroke="black" points="23,-102 23,-126 372,-126 372,-102 23,-102"/>
<text text-anchor="start" x="26" y="-116.8" font-family="Verdana" font-size="9.00">Value = </text>
<text text-anchor="start" x="66" y="-116.8" font-family="Verdana" font-size="9.00" fill="red">B</text>
<text text-anchor="start" x="26" y="-107.8" font-family="Verdana" font-size="9.00">Value Reference Setting = Forcibly overwrite as per parent&#39;s restrictions.</text>
<polygon fill="none" stroke="black" points="19.5,-99 19.5,-147 374.5,-147 374.5,-99 19.5,-99"/>
</g>
<!-- child&#45;&gt;parent -->
<g id="edge1" class="edge"><title>child&#45;&gt;parent</title>
<path fill="none" stroke="black" d="M197,-98.519C197,-85.8894 197,-70.1429 197,-56.4664"/>
<polygon fill="black" stroke="black" points="199.8,-56.2647 197,-48.2648 194.2,-56.2648 199.8,-56.2647"/>
<text text-anchor="middle" x="218.5" y="-69.8" font-family="Times New Roman,serif" font-size="14.00">Browse</text>
</g>
<!-- childApplied -->
<g id="node3" class="node"><title>childApplied</title>
<polygon fill="lightyellow" stroke="black" points="731.5,-143 540.5,-143 540.5,-103 731.5,-103 731.5,-143"/>
<polygon fill="none" stroke="black" points="544,-124 544,-140 729,-140 729,-124 544,-124"/>
<text text-anchor="start" x="547" y="-129.8" font-family="Verdana" font-size="9.00">Material B (after resolving references)</text>
<polygon fill="none" stroke="black" points="544,-106 544,-122 729,-122 729,-106 544,-106"/>
<text text-anchor="start" x="547" y="-112.8" font-family="Verdana" font-size="9.00">Value = </text>
<text text-anchor="start" x="587" y="-112.8" font-family="Verdana" font-size="9.00" fill="red">B</text>
<polygon fill="none" stroke="black" points="540.5,-103 540.5,-143 731.5,-143 731.5,-103 540.5,-103"/>
</g>
<!-- child&#45;&gt;childApplied -->
<g id="edge2" class="edge"><title>child&#45;&gt;childApplied</title>
<path fill="none" stroke="black" stroke-dasharray="5,2" d="M374.609,-123C428.227,-123 485.309,-123 532.408,-123"/>
<polygon fill="black" stroke="black" points="532.479,-125.8 540.479,-123 532.479,-120.2 532.479,-125.8"/>
<text text-anchor="middle" x="457.5" y="-129.8" font-family="Times New Roman,serif" font-size="14.00">Applying a Parent Material</text>
</g>
</g>
</svg>
