<?xml version="1.0" encoding="UTF-8" standalone="no"?>
<!DOCTYPE svg PUBLIC "-//W3C//DTD SVG 1.1//EN"
 "http://www.w3.org/Graphics/SVG/1.1/DTD/svg11.dtd">
<!-- Generated by graphviz version 2.38.0 (20140413.2041)
 -->
<!-- Pages: 1 -->
<svg width="1228pt" height="169pt"
 viewBox="0.00 0.00 1228.00 169.00" xmlns="http://www.w3.org/2000/svg" xmlns:xlink="http://www.w3.org/1999/xlink">
<g id="graph0" class="graph" transform="scale(1 1) rotate(0) translate(4 165)">
<polygon fill="white" stroke="none" points="-4,4 -4,-165 1224,-165 1224,4 -4,4"/>
<!-- child -->
<g id="node1" class="node"><title>child</title>
<polygon fill="lightyellow" stroke="black" points="862,-161 414,-161 414,-111 862,-111 862,-161"/>
<polygon fill="none" stroke="black" points="417,-142 417,-158 859,-158 859,-142 417,-142"/>
<text text-anchor="start" x="614" y="-147.8" font-family="Verdana" font-size="9.00">Material D</text>
<polygon fill="none" stroke="black" points="417,-114 417,-140 859,-140 859,-114 417,-114"/>
<text text-anchor="start" x="420" y="-129.8" font-family="Verdana" font-size="9.00">Value = D</text>
<text text-anchor="start" x="420" y="-119.8" font-family="Verdana" font-size="9.00">Value Reference Setting = Forcibly Reference Material Values Due to Material B&#39;s Restrictions</text>
<polygon fill="none" stroke="black" points="414,-111 414,-161 862,-161 862,-111 414,-111"/>
</g>
<!-- parent -->
<g id="node2" class="node"><title>parent</title>
<polygon fill="lightyellow" stroke="black" points="448,-60 2.84217e-014,-60 2.84217e-014,-0 448,-0 448,-60"/>
<polygon fill="none" stroke="black" points="3,-41 3,-57 445,-57 445,-41 3,-41"/>
<text text-anchor="start" x="200" y="-46.8" font-family="Verdana" font-size="9.00">Material C</text>
<polygon fill="none" stroke="black" points="3,-3 3,-39 445,-39 445,-3 3,-3"/>
<text text-anchor="start" x="6" y="-28.8" font-family="Verdana" font-size="9.00">Value = C</text>
<text text-anchor="start" x="6" y="-18.8" font-family="Verdana" font-size="9.00">Value Reference Setting = Forcibly Reference Material Values Due to Material B&#39;s Restrictions</text>
<text text-anchor="start" x="6" y="-8.8" font-family="Verdana" font-size="9.00">Child Material Restrictions = None Due to Material B&#39;s Restrictions</text>
<polygon fill="none" stroke="black" points="0,-0 0,-60 448,-60 448,-0 0,-0"/>
</g>
<!-- child&#45;&gt;parent -->
<g id="edge3" class="edge"><title>child&#45;&gt;parent</title>
<path fill="none" stroke="black" d="M542.24,-110.944C484.294,-96.3878 409.803,-77.6752 347.46,-62.0142"/>
<polygon fill="black" stroke="black" points="347.971,-59.2556 339.53,-60.022 346.607,-64.6868 347.971,-59.2556"/>
<text text-anchor="middle" x="502.5" y="-81.8" font-family="Times New Roman,serif" font-size="14.00">Reference 3</text>
</g>
<!-- parentParent -->
<g id="node3" class="node"><title>parentParent</title>
<polygon fill="lightyellow" stroke="black" points="810,-58.5 466,-58.5 466,-1.5 810,-1.5 810,-58.5"/>
<polygon fill="none" stroke="black" points="469,-39 469,-55 807,-55 807,-39 469,-39"/>
<text text-anchor="start" x="614.5" y="-44.8" font-family="Verdana" font-size="9.00">Material B</text>
<polygon fill="none" stroke="black" points="469,-4 469,-37 807,-37 807,-4 469,-4"/>
<text text-anchor="start" x="472" y="-27.8" font-family="Verdana" font-size="9.00">Value = B</text>
<text text-anchor="start" x="472" y="-18.8" font-family="Verdana" font-size="9.00">Value Reference Setting = </text>
<text text-anchor="start" x="599" y="-18.8" font-family="Verdana" font-size="9.00" fill="forestgreen">Reference the value of the parent material.</text>
<text text-anchor="start" x="472" y="-9.8" font-family="Verdana" font-size="9.00">Child Material Restrictions = </text>
<text text-anchor="start" x="607" y="-9.8" font-family="Verdana" font-size="9.00" fill="blue">Fix using the parent material value.</text>
<polygon fill="none" stroke="black" points="466,-1.5 466,-58.5 810,-58.5 810,-1.5 466,-1.5"/>
</g>
<!-- child&#45;&gt;parentParent -->
<g id="edge2" class="edge"><title>child&#45;&gt;parentParent</title>
<path fill="none" stroke="black" d="M638,-110.879C638,-97.8372 638,-81.4737 638,-66.9587"/>
<polygon fill="black" stroke="black" points="640.8,-66.6652 638,-58.6652 635.2,-66.6653 640.8,-66.6652"/>
<text text-anchor="middle" x="671.5" y="-81.8" font-family="Times New Roman,serif" font-size="14.00">Reference 2</text>
</g>
<!-- parentParentParent -->
<g id="node4" class="node"><title>parentParentParent</title>
<polygon fill="lightyellow" stroke="black" points="1000,-54 828,-54 828,-6 1000,-6 1000,-54"/>
<polygon fill="none" stroke="black" points="831,-35 831,-51 997,-51 997,-35 831,-35"/>
<text text-anchor="start" x="890.5" y="-40.8" font-family="Verdana" font-size="9.00">Material A</text>
<polygon fill="none" stroke="black" points="831,-9 831,-33 997,-33 997,-9 831,-9"/>
<text text-anchor="start" x="834" y="-23.8" font-family="Verdana" font-size="9.00">Value = </text>
<text text-anchor="start" x="874" y="-23.8" font-family="Verdana" font-size="9.00" fill="red">A</text>
<text text-anchor="start" x="834" y="-14.8" font-family="Verdana" font-size="9.00">Child Material Restrictions = None</text>
<polygon fill="none" stroke="black" points="828,-6 828,-54 1000,-54 1000,-6 828,-6"/>
</g>
<!-- child&#45;&gt;parentParentParent -->
<g id="edge1" class="edge"><title>child&#45;&gt;parentParentParent</title>
<path fill="none" stroke="black" d="M702.014,-110.879C744.828,-94.7461 801.131,-73.5303 844.951,-57.0183"/>
<polygon fill="black" stroke="black" points="846.205,-59.5382 852.704,-54.0971 844.23,-54.2979 846.205,-59.5382"/>
<text text-anchor="middle" x="818.5" y="-81.8" font-family="Times New Roman,serif" font-size="14.00">Reference 1</text>
</g>
<!-- childApplied -->
<g id="node5" class="node"><title>childApplied</title>
<polygon fill="lightyellow" stroke="black" points="1220,-156 1028,-156 1028,-116 1220,-116 1220,-156"/>
<polygon fill="none" stroke="black" points="1031,-137 1031,-153 1217,-153 1217,-137 1031,-137"/>
<text text-anchor="start" x="1034" y="-142.8" font-family="Verdana" font-size="9.00">Material D (after resolving references)</text>
<polygon fill="none" stroke="black" points="1031,-119 1031,-135 1217,-135 1217,-119 1031,-119"/>
<text text-anchor="start" x="1034" y="-125.8" font-family="Verdana" font-size="9.00">Value = </text>
<text text-anchor="start" x="1074" y="-125.8" font-family="Verdana" font-size="9.00" fill="red">A</text>
<polygon fill="none" stroke="black" points="1028,-116 1028,-156 1220,-156 1220,-116 1028,-116"/>
</g>
<!-- child&#45;&gt;childApplied -->
<g id="edge4" class="edge"><title>child&#45;&gt;childApplied</title>
<path fill="none" stroke="black" stroke-dasharray="5,2" d="M862.151,-136C917.099,-136 973.34,-136 1019.54,-136"/>
<polygon fill="black" stroke="black" points="1019.76,-138.8 1027.76,-136 1019.76,-133.2 1019.76,-138.8"/>
<text text-anchor="middle" x="945" y="-142.8" font-family="Times New Roman,serif" font-size="14.00">Applying a Parent Material</text>
</g>
</g>
</svg>
